<?xml version="1.0" encoding="utf-8"?>
<!-- Generator: Adobe Illustrator 23.0.1, SVG Export Plug-In . SVG Version: 6.00 Build 0)  -->
<svg version="1.1" id="Layer_1" xmlns="http://www.w3.org/2000/svg" xmlns:xlink="http://www.w3.org/1999/xlink" x="0px" y="0px"
	 viewBox="0 0 248.61 49.68" style="enable-background:new 0 0 248.61 49.68;" xml:space="preserve">
<style type="text/css">
	.st0{fill:#FFFFFF;}
	.st1{display:none;clip-path:url(#XMLID_55_);}
	.st2{display:inline;fill:#FFFFFF;}
	.st3{display:none;clip-path:url(#XMLID_56_);}
	.st4{display:none;clip-path:url(#XMLID_57_);}
	.st5{display:none;clip-path:url(#XMLID_58_);}
	.st6{display:none;clip-path:url(#XMLID_59_);}
	.st7{display:none;clip-path:url(#XMLID_60_);}
	.st8{display:none;clip-path:url(#XMLID_61_);}
	.st9{display:none;clip-path:url(#XMLID_62_);}
	.st10{display:none;clip-path:url(#XMLID_63_);}
	.st11{display:none;clip-path:url(#XMLID_64_);}
	.st12{display:none;clip-path:url(#XMLID_65_);}
	.st13{display:none;clip-path:url(#XMLID_66_);}
	.st14{display:none;}
	.st15{display:inline;}
	.st16{display:none;clip-path:url(#XMLID_67_);}
	.st17{display:none;clip-path:url(#XMLID_68_);}
	.st18{display:none;clip-path:url(#XMLID_69_);}
	.st19{display:none;clip-path:url(#XMLID_70_);}
	.st20{display:none;clip-path:url(#XMLID_71_);}
	.st21{opacity:0.8;}
</style>
<g>
	<path class="st0" d="M19.71,7.38v6.7h-0.67c-0.54-2.08-1.39-3.61-2.57-4.59c-1.18-0.98-2.75-1.47-4.72-1.47
		c-2.55,0-4.58,0.92-6.07,2.76c-1.49,1.84-2.24,4.29-2.24,7.35c0,3.36,0.79,6.06,2.36,8.11c1.58,2.05,3.64,3.07,6.19,3.07
		c3.54,0,6.14-1.65,7.83-4.94l0.59,0.56c-0.75,1.79-1.97,3.2-3.65,4.24c-1.68,1.04-3.59,1.56-5.73,1.56c-2.03,0-3.91-0.48-5.64-1.44
		c-1.73-0.96-3.06-2.28-4-3.95C0.47,23.64,0,21.71,0,19.53c0-3.57,1.1-6.53,3.29-8.87c2.19-2.34,4.96-3.51,8.31-3.51
		c1.12,0,2.54,0.2,4.27,0.59c0.97,0.23,1.64,0.35,2.01,0.35c0.57,0,0.97-0.24,1.21-0.71H19.71z"/>
	<path class="st0" d="M36.25,30.15V29.5c1.29,0,1.93-0.45,1.93-1.34c0-0.26-0.06-0.54-0.17-0.86l-2.08-6.23h-7.21l-1.53,4.51
		c-0.38,1.14-0.57,1.96-0.57,2.47c0,0.95,0.59,1.43,1.77,1.46v0.65h-5.8V29.5c0.83-0.12,1.47-0.39,1.93-0.82
		c0.46-0.44,0.93-1.34,1.4-2.71l6.21-18.52h2.31l6.52,19.34c0.38,1.14,0.78,1.87,1.2,2.21c0.42,0.33,1.08,0.5,2,0.5v0.65H36.25z
		 M29.13,19.68h6.33l-3.18-9.51L29.13,19.68z"/>
	<path class="st0" d="M57.84,19.3h-5.93v6.63c0,1.34,0.19,2.27,0.56,2.79c0.37,0.52,1.04,0.78,2.01,0.78v0.65h-8.08V29.5
		c0.97,0,1.64-0.26,2-0.78c0.36-0.52,0.55-1.44,0.55-2.79v-14c0-1.35-0.18-2.29-0.54-2.81c-0.36-0.52-1.03-0.78-2.01-0.78V7.7H61.8
		v3.98h-0.52c-0.24-1.19-0.56-1.96-0.96-2.33c-0.39-0.37-1.29-0.56-2.7-0.56h-5.72v9.4h5.86c0.79,0,1.38-0.2,1.76-0.6
		c0.38-0.4,0.63-1.09,0.75-2.06h0.61v6.32h-0.61C60.19,20.15,59.38,19.3,57.84,19.3"/>
	<path class="st0" d="M78.53,16.2h0.67v5.46h-0.67c-0.24-0.96-0.54-1.56-0.88-1.8c-0.34-0.24-1.1-0.36-2.26-0.36h-5.57v8.04
		c0,0.56,0.12,0.96,0.37,1.19c0.25,0.23,0.67,0.34,1.27,0.34h3.92c1.4,0,2.37-0.08,2.91-0.23c0.54-0.15,0.99-0.44,1.36-0.85
		c0.37-0.41,0.77-1.09,1.19-2.02h0.67l-1.03,4.19H64.31V29.5c1.01,0,1.68-0.26,2.03-0.78c0.35-0.52,0.52-1.43,0.52-2.75V11.93
		c0-1.37-0.18-2.31-0.54-2.82c-0.36-0.51-1.03-0.77-2.01-0.77V7.7h16.17v3.75h-0.42c-0.23-1.07-0.56-1.78-0.98-2.13
		c-0.43-0.35-1.36-0.53-2.79-0.53h-6.47v9.61h6.28c0.86,0,1.44-0.15,1.75-0.46C78.16,17.63,78.39,17.05,78.53,16.2 M71.69,5.25
		L73.4,0h2.31l-2.97,5.25H71.69z"/>
	<path class="st0" d="M97.2,30.15V29.5c0.96,0,1.63-0.27,1.99-0.8c0.37-0.53,0.55-1.45,0.55-2.77v-14c0-1.34-0.18-2.27-0.55-2.8
		c-0.37-0.52-1.03-0.79-1.99-0.79V7.7h10.38c3.84,0,6.91,1.09,9.21,3.27c2.3,2.18,3.45,4.96,3.45,8.33c0,3.3-1.09,5.94-3.27,7.9
		c-2.18,1.97-5.21,2.95-9.1,2.95H97.2z M106.98,8.56h-4.27v16.58c0,1.59,0.19,2.69,0.57,3.27c0.38,0.59,1.15,0.88,2.3,0.88h2.32
		c2.76,0,4.93-0.89,6.51-2.67c1.58-1.78,2.37-4.21,2.37-7.28c0-3.27-0.86-5.88-2.59-7.84C112.45,9.54,110.05,8.56,106.98,8.56"/>
	<path class="st0" d="M141.24,25.44V11.93c0-1.31-0.18-2.23-0.53-2.75c-0.35-0.52-0.97-0.79-1.87-0.83V7.7h7.92v0.65
		c-0.95,0-1.62,0.26-1.99,0.79c-0.37,0.52-0.55,1.45-0.55,2.8v14c0,1.32,0.18,2.24,0.54,2.77c0.36,0.53,1.03,0.8,2,0.8v0.65h-5.53
		v-3.14c-2.11,2.46-4.6,3.69-7.48,3.69c-2.38,0-4.24-0.71-5.6-2.13c-1.36-1.42-2.04-3.29-2.04-5.61V11.93
		c0-1.34-0.17-2.27-0.53-2.79c-0.35-0.52-1.02-0.79-2.02-0.79V7.7h8.12v0.65c-1.01,0-1.69,0.26-2.05,0.77
		c-0.36,0.51-0.54,1.44-0.54,2.78v11.37c0,1.84,0.5,3.28,1.51,4.34c1.01,1.05,2.41,1.58,4.21,1.58
		C137.49,29.18,139.63,27.93,141.24,25.44"/>
	<path class="st0" d="M169.54,7.7v0.65c-0.96,0-1.62,0.26-2,0.79c-0.38,0.52-0.56,1.45-0.56,2.79v20.73c0,1.94-0.51,3.46-1.54,4.56
		c-1.03,1.1-2.38,1.65-4.05,1.65c-1.62,0-2.85-0.67-3.69-2.01l0.55-0.38c0.51,0.68,1.19,1.01,2.03,1.01c1.1,0,1.99-0.48,2.69-1.45
		c0.7-0.97,1.04-2.33,1.04-4.08V11.93c0-1.35-0.19-2.29-0.55-2.8c-0.37-0.52-1.05-0.78-2.03-0.78V7.7H169.54z"/>
	<path class="st0" d="M173.12,18.82c0-3.33,1.15-6.11,3.44-8.34c2.3-2.23,5.16-3.34,8.59-3.34c3.33,0,6.15,1.13,8.45,3.39
		c2.3,2.26,3.45,5.02,3.45,8.29c0,3.33-1.16,6.14-3.48,8.44c-2.32,2.3-5.16,3.45-8.52,3.45c-3.34,0-6.17-1.15-8.48-3.45
		C174.27,24.96,173.12,22.15,173.12,18.82 M176.56,18.86c0,3.28,0.78,5.93,2.34,7.95c1.56,2.02,3.6,3.03,6.13,3.03
		c2.55,0,4.62-1.03,6.21-3.1c1.59-2.07,2.38-4.64,2.38-7.73c0-3.32-0.78-5.98-2.33-7.99c-1.56-2.01-3.57-3.01-6.05-3.01
		c-2.63,0-4.73,0.99-6.31,2.97C177.35,12.95,176.56,15.58,176.56,18.86"/>
	<path class="st0" d="M217.53,25.44V11.93c0-1.31-0.18-2.23-0.53-2.75c-0.35-0.52-0.97-0.79-1.87-0.83V7.7h7.92v0.65
		c-0.95,0-1.62,0.26-1.99,0.79c-0.37,0.52-0.55,1.45-0.55,2.8v14c0,1.32,0.18,2.24,0.54,2.77c0.37,0.53,1.03,0.8,2,0.8v0.65h-5.53
		v-3.14c-2.11,2.46-4.6,3.69-7.48,3.69c-2.38,0-4.24-0.71-5.6-2.13c-1.36-1.42-2.04-3.29-2.04-5.61V11.93
		c0-1.34-0.18-2.27-0.53-2.79c-0.35-0.52-1.02-0.79-2.02-0.79V7.7h8.12v0.65c-1.01,0-1.69,0.26-2.05,0.77
		c-0.36,0.51-0.54,1.44-0.54,2.78v11.37c0,1.84,0.5,3.28,1.51,4.34c1.01,1.05,2.41,1.58,4.21,1.58
		C213.78,29.18,215.92,27.93,217.53,25.44"/>
	<path class="st0" d="M234.54,19.76h-1.82v6.18c0,1.33,0.19,2.26,0.57,2.78c0.38,0.52,1.04,0.79,2,0.79v0.65h-8.08V29.5
		c0.99,0,1.67-0.26,2.02-0.78c0.35-0.52,0.53-1.45,0.53-2.78V11.86c0-1.33-0.17-2.24-0.52-2.75c-0.35-0.5-1.02-0.76-2.03-0.76V7.7
		h9.21c2.27,0,4.09,0.55,5.44,1.66c1.36,1.1,2.04,2.51,2.04,4.22c0,2.76-1.54,4.59-4.63,5.51c0.68,0.43,1.34,1.03,1.99,1.79
		c0.64,0.76,1.49,2.02,2.54,3.78c1.18,1.96,2.09,3.24,2.75,3.85c0.66,0.61,1.35,0.94,2.06,0.99v0.65h-4.59
		c-0.94-1.14-2.08-2.81-3.43-5c-1.43-2.31-2.55-3.79-3.36-4.43C236.42,20.08,235.52,19.76,234.54,19.76 M235.08,8.56h-2.36v10.26
		h2.76c1.65,0,2.94-0.47,3.88-1.42c0.94-0.94,1.41-2.19,1.41-3.75c0-1.52-0.52-2.75-1.56-3.68C238.16,9.03,236.79,8.56,235.08,8.56"
		/>
	<path class="st0" d="M173.99,49.68c0.89,0,1.84-0.15,2.68-0.69c1.21-0.79,1.58-1.95,1.58-2.93c0-1.6-0.72-2.76-2.76-4.3l-0.47-0.36
		c-1.4-1.06-1.79-1.65-1.79-2.43c0-1.01,0.76-1.73,2-1.73c1.1,0,1.58,0.5,1.84,0.83c0.35,0.44,0.44,0.96,0.44,1.11
		c0,0.2,0.05,0.3,0.16,0.3c0.14,0,0.19-0.14,0.19-0.51c0-1.31,0.07-1.8,0.07-2.02c0-0.11-0.09-0.17-0.24-0.2
		c-0.44-0.12-1.14-0.29-2.24-0.29c-2.34,0-3.9,1.33-3.9,3.19c0,1.37,0.64,2.55,2.49,3.99l0.78,0.61c1.4,1.09,1.65,1.87,1.65,2.7
		c0,0.89-0.74,1.92-2.26,1.92c-1.04,0-2.04-0.46-2.41-1.7c-0.08-0.29-0.15-0.64-0.15-0.86c0-0.14-0.02-0.29-0.17-0.29
		c-0.13,0-0.18,0.19-0.2,0.44c-0.02,0.27-0.08,1.28-0.08,2.21c0,0.37,0.05,0.46,0.32,0.57C172.26,49.56,173.01,49.68,173.99,49.68
		 M181.93,45.28c0,1.32,0,2.45-0.07,3.05c-0.05,0.42-0.13,0.69-0.44,0.76c-0.13,0.04-0.3,0.05-0.52,0.05
		c-0.19,0-0.24,0.09-0.24,0.16c0,0.1,0.1,0.15,0.29,0.15c0.3,0,0.67-0.01,1.03-0.04c0.35,0,0.67-0.01,0.84-0.01
		c0.44,0,1,0.01,1.72,0.04c0.73,0.03,1.62,0.05,2.73,0.05c0.56,0,0.69,0,0.79-0.37c0.08-0.29,0.2-1.27,0.2-1.59
		c0-0.15-0.02-0.34-0.14-0.34c-0.1,0-0.13,0.07-0.17,0.22c-0.1,0.59-0.27,0.89-0.64,1.06c-0.39,0.17-1.01,0.19-1.4,0.19
		c-1.52,0-1.97-0.22-2.01-1.19c-0.01-0.42,0-1.64,0-2.12v-1.15c0-0.09,0.02-0.15,0.09-0.15c0.37,0,2.06,0.04,2.33,0.07
		c0.56,0.05,0.74,0.27,0.82,0.56c0.04,0.18,0.04,0.37,0.05,0.52c0,0.07,0.03,0.12,0.13,0.12c0.13,0,0.15-0.2,0.15-0.32
		c0-0.1,0.03-0.68,0.07-0.96c0.09-0.72,0.12-0.96,0.12-1.05c0-0.08-0.05-0.15-0.12-0.15c-0.07,0-0.12,0.09-0.23,0.19
		c-0.14,0.15-0.36,0.19-0.71,0.22c-0.34,0.03-2.26,0.03-2.6,0.03c-0.09,0-0.1-0.07-0.1-0.15v-3.54c0-0.08,0.04-0.14,0.1-0.14
		c0.3,0,2.07,0.04,2.33,0.07c0.74,0.07,0.86,0.27,0.98,0.52c0.08,0.17,0.1,0.42,0.1,0.52c0,0.12,0.02,0.19,0.12,0.19
		c0.12,0,0.15-0.17,0.17-0.24c0.03-0.17,0.07-0.79,0.09-0.94c0.03-0.66,0.12-0.83,0.12-0.93c0-0.07-0.02-0.13-0.1-0.13
		c-0.07,0-0.15,0.05-0.23,0.07c-0.12,0.02-0.36,0.07-0.63,0.08c-0.28,0.02-3.57,0-4.05,0c-0.42,0-1.36-0.03-2.14-0.03
		c-0.22,0-0.34,0.03-0.34,0.14c0,0.1,0.1,0.15,0.25,0.15c0.22,0,0.48,0.02,0.59,0.05c0.47,0.13,0.61,0.29,0.64,0.78
		c0.02,0.46,0.02,0.86,0.02,3.03V45.28z M192.4,41.64h0.05c0.29,0.25,1.85,1.99,3.47,3.54c1.55,1.5,3.4,3.27,4.33,4.13
		c0.15,0.15,0.36,0.31,0.61,0.31c0.11,0,0.23-0.13,0.23-0.46l0.17-9.03c0.02-0.81,0.14-1.06,0.54-1.18c0.19-0.05,0.3-0.05,0.46-0.05
		c0.17,0,0.25-0.06,0.25-0.15c0-0.12-0.14-0.14-0.34-0.14c-0.72,0-1.28,0.03-1.45,0.03c-0.32,0-1.11-0.03-1.89-0.03
		c-0.22,0-0.37,0.02-0.37,0.14c0,0.08,0.05,0.15,0.24,0.15c0.2,0,0.55,0,0.77,0.08c0.36,0.14,0.49,0.39,0.5,1.27l0.15,6.37h-0.07
		c-0.22-0.2-2.19-2.23-3.2-3.22c-2.16-2.1-4.38-4.38-4.57-4.57c-0.26-0.25-0.45-0.47-0.64-0.47c-0.15,0-0.25,0.2-0.25,0.49
		l-0.14,8.49c-0.02,1.25-0.07,1.64-0.45,1.74c-0.2,0.05-0.47,0.07-0.67,0.07c-0.14,0-0.23,0.07-0.23,0.16
		c0,0.14,0.13,0.15,0.34,0.15c0.76,0,1.47-0.05,1.6-0.05c0.27,0,0.96,0.05,1.92,0.05c0.2,0,0.34-0.04,0.34-0.15
		c0-0.08-0.08-0.16-0.25-0.16c-0.23,0-0.52-0.01-0.77-0.1c-0.29-0.1-0.47-0.44-0.51-1.55L192.4,41.64z M210.28,45.83
		c0.06,0,0.12,0.02,0.15,0.1l1.15,2.88c0.07,0.17-0.03,0.31-0.13,0.32c-0.15,0.02-0.18,0.07-0.18,0.16c0,0.1,0.17,0.1,0.44,0.11
		c1.25,0.04,2.33,0.04,2.85,0.04c0.56,0,0.64-0.04,0.64-0.15c0-0.1-0.07-0.16-0.2-0.16c-0.16,0-0.34-0.01-0.55-0.05
		c-0.27-0.05-0.69-0.24-1.27-1.53c-0.94-2.18-3.42-8.04-3.77-8.83c-0.15-0.32-0.22-0.46-0.44-0.46c-0.15,0-0.27,0.17-0.44,0.57
		l-3.88,9.02c-0.3,0.73-0.56,1.16-1.23,1.27c-0.14,0-0.3,0.01-0.44,0.01c-0.12,0-0.17,0.07-0.17,0.16c0,0.11,0.08,0.15,0.27,0.15
		c0.78,0,1.57-0.05,1.72-0.05c0.47,0,1.16,0.05,1.65,0.05c0.15,0,0.24-0.04,0.24-0.15c0-0.08-0.03-0.16-0.22-0.16h-0.22
		c-0.46,0-0.59-0.15-0.59-0.4c0-0.17,0.07-0.52,0.22-0.88l0.79-1.92c0.04-0.08,0.05-0.1,0.14-0.1H210.28z M207.1,45.04
		c-0.05,0-0.08-0.03-0.05-0.1l1.44-3.62c0.01-0.05,0.03-0.13,0.09-0.13c0.03,0,0.05,0.08,0.06,0.13l1.4,3.64
		c0.02,0.05,0,0.08-0.07,0.08H207.1z M218.15,46.89c0,0.24,0,0.83-0.05,1.44c-0.03,0.42-0.15,0.69-0.45,0.76
		c-0.14,0.04-0.32,0.05-0.52,0.05c-0.17,0-0.24,0.09-0.24,0.16c0,0.11,0.12,0.15,0.32,0.15c0.56,0,1.55-0.05,1.92-0.05
		c0.4,0,1.4,0.05,2.32,0.05c0.2,0,0.32-0.05,0.32-0.15c0-0.07-0.08-0.16-0.26-0.16c-0.2,0-0.52-0.01-0.74-0.05
		c-0.44-0.07-0.58-0.34-0.61-0.76c-0.04-0.61-0.04-1.2-0.04-1.44v-1.14c0-0.48-0.03-0.91,0.19-1.44c0.27-0.61,2.39-4.01,2.88-4.58
		c0.32-0.39,0.46-0.52,0.78-0.67c0.22-0.1,0.49-0.17,0.64-0.17c0.17,0,0.29-0.06,0.29-0.17c0-0.08-0.1-0.12-0.27-0.12
		c-0.28,0-1.26,0.03-1.59,0.03c-0.44,0-0.96-0.03-1.45-0.03c-0.17,0-0.25,0.03-0.25,0.14c0,0.11,0.13,0.13,0.27,0.17
		c0.26,0.05,0.32,0.19,0.32,0.32c0,0.18-0.07,0.44-0.22,0.76c-0.22,0.44-2.02,3.51-2.2,3.84c-0.26-0.41-2.19-3.76-2.46-4.2
		c-0.12-0.2-0.19-0.37-0.19-0.49c0-0.12,0.08-0.19,0.2-0.22c0.23-0.07,0.33-0.07,0.33-0.18c0-0.1-0.08-0.14-0.22-0.14
		c-0.67,0-1.36,0.03-1.69,0.03c-0.49,0-1.6-0.03-1.85-0.03c-0.19,0-0.28,0.03-0.28,0.14c0,0.1,0.1,0.15,0.22,0.15
		c0.19,0,0.44,0.08,0.63,0.19c0.29,0.15,0.59,0.49,0.96,1.01c0.52,0.76,2.54,3.91,2.64,4.13c0.21,0.42,0.34,0.73,0.34,1.5V46.89z
		 M230.63,45.83c0.07,0,0.12,0.02,0.15,0.1l1.15,2.88c0.07,0.17-0.03,0.31-0.14,0.32c-0.15,0.02-0.19,0.07-0.19,0.16
		c0,0.1,0.17,0.1,0.44,0.11c1.24,0.04,2.32,0.04,2.84,0.04c0.56,0,0.65-0.04,0.65-0.15c0-0.1-0.07-0.16-0.21-0.16
		c-0.17,0-0.33-0.01-0.55-0.05c-0.27-0.05-0.69-0.24-1.27-1.53c-0.94-2.18-3.42-8.04-3.78-8.83c-0.15-0.32-0.22-0.46-0.44-0.46
		c-0.15,0-0.27,0.17-0.44,0.57l-3.88,9.02c-0.3,0.73-0.55,1.16-1.23,1.27c-0.13,0-0.31,0.01-0.44,0.01c-0.12,0-0.17,0.07-0.17,0.16
		c0,0.11,0.08,0.15,0.27,0.15c0.77,0,1.57-0.05,1.72-0.05c0.48,0,1.16,0.05,1.66,0.05c0.15,0,0.23-0.04,0.23-0.15
		c0-0.08-0.03-0.16-0.22-0.16h-0.22c-0.46,0-0.59-0.15-0.59-0.4c0-0.17,0.07-0.52,0.22-0.88l0.79-1.92c0.04-0.08,0.05-0.1,0.14-0.1
		H230.63z M227.44,45.04c-0.05,0-0.09-0.03-0.05-0.1l1.43-3.62c0.02-0.05,0.03-0.13,0.08-0.13c0.03,0,0.05,0.08,0.07,0.13l1.4,3.64
		c0.02,0.05,0,0.08-0.06,0.08H227.44z M238.25,41.64h0.05c0.29,0.25,1.86,1.99,3.47,3.54c1.55,1.5,3.41,3.27,4.34,4.13
		c0.15,0.15,0.35,0.31,0.6,0.31c0.12,0,0.24-0.13,0.24-0.46l0.17-9.03c0.02-0.81,0.13-1.06,0.54-1.18c0.19-0.05,0.31-0.05,0.45-0.05
		c0.17,0,0.25-0.06,0.25-0.15c0-0.12-0.13-0.14-0.34-0.14c-0.72,0-1.28,0.03-1.45,0.03c-0.32,0-1.11-0.03-1.89-0.03
		c-0.22,0-0.37,0.02-0.37,0.14c0,0.08,0.05,0.15,0.23,0.15c0.2,0,0.56,0,0.78,0.08c0.35,0.14,0.49,0.39,0.51,1.27l0.15,6.37h-0.06
		c-0.22-0.2-2.19-2.23-3.2-3.22c-2.16-2.1-4.38-4.38-4.57-4.57c-0.25-0.25-0.45-0.47-0.64-0.47c-0.15,0-0.25,0.2-0.25,0.49
		l-0.14,8.49c-0.01,1.25-0.06,1.64-0.45,1.74c-0.2,0.05-0.47,0.07-0.67,0.07c-0.13,0-0.24,0.07-0.24,0.16
		c0,0.13,0.13,0.15,0.34,0.15c0.76,0,1.47-0.05,1.6-0.05c0.27,0,0.96,0.05,1.92,0.05c0.2,0,0.34-0.04,0.34-0.15
		c0-0.08-0.09-0.16-0.25-0.16c-0.24,0-0.53-0.01-0.78-0.1c-0.28-0.1-0.47-0.44-0.5-1.55L238.25,41.64z"/>
</g>
</svg>
