<?xml version="1.0" encoding="utf-8"?>
<!-- Generator: Adobe Illustrator 23.0.1, SVG Export Plug-In . SVG Version: 6.00 Build 0)  -->
<svg version="1.1" id="Layer_1" xmlns="http://www.w3.org/2000/svg" xmlns:xlink="http://www.w3.org/1999/xlink" x="0px" y="0px"
	 viewBox="0 0 215.09 117.52" style="enable-background:new 0 0 215.09 117.52;" xml:space="preserve">
<style type="text/css">
	.st0{fill:#FFFFFF;}
	.st1{display:none;clip-path:url(#XMLID_55_);}
	.st2{display:inline;fill:#FFFFFF;}
	.st3{display:none;clip-path:url(#XMLID_56_);}
	.st4{display:none;clip-path:url(#XMLID_57_);}
	.st5{display:none;clip-path:url(#XMLID_58_);}
	.st6{display:none;clip-path:url(#XMLID_59_);}
	.st7{display:none;clip-path:url(#XMLID_60_);}
	.st8{display:none;clip-path:url(#XMLID_61_);}
	.st9{display:none;clip-path:url(#XMLID_62_);}
	.st10{display:none;clip-path:url(#XMLID_63_);}
	.st11{display:none;clip-path:url(#XMLID_64_);}
	.st12{display:none;clip-path:url(#XMLID_65_);}
	.st13{display:none;clip-path:url(#XMLID_66_);}
	.st14{display:none;}
	.st15{display:inline;}
	.st16{display:none;clip-path:url(#XMLID_67_);}
	.st17{display:none;clip-path:url(#XMLID_68_);}
	.st18{display:none;clip-path:url(#XMLID_69_);}
	.st19{display:none;clip-path:url(#XMLID_70_);}
	.st20{display:none;clip-path:url(#XMLID_71_);}
	.st21{opacity:0.8;}
</style>
<g>
	<path class="st0" d="M115.67,16.34c-2.42,0.9-5.8,2.45-7.79,5.09c-0.23,0.3-0.57,0.33-0.86-0.03c-0.55-0.68-3.42-3.65-7.47-3.66
		c-1,0-2.51,0.26-3.51,0.57v9.93c0.62-0.46,2-0.94,3.34-0.94c2.04,0,5.99,1.77,7.43,3.08c0.53,0.49,0.95,0.46,1.42,0
		c2.13-2.06,5.91-3.88,10.72-3.87V14.4H99.34c2.42-0.9,5.81-2.45,7.79-5.09c0.23-0.3,0.57-0.32,0.86,0.03
		c0.56,0.68,3.43,3.64,7.47,3.64c1,0,2.51-0.25,3.51-0.56V2.5c-0.62,0.46-2,0.94-3.34,0.94c-2.05,0-6-1.76-7.44-3.08
		c-0.52-0.49-0.95-0.45-1.41,0c-2.12,2.07-5.91,3.88-10.72,3.88v12.12H115.67z"/>
	<path class="st0" d="M61.98,39.88c-0.39-0.01-0.73,0.12-1.01,0.39c-0.28,0.27-0.41,0.61-0.41,1.01c0,0.65,0.38,1.19,1.12,1.64
		c1.99,1.16,3.79,2.25,5.41,3.3c0.79,0.5,1.19,1.18,1.19,2.03c0,0.51-0.16,0.95-0.49,1.3c-0.96,1.01-2.02,2.03-3.18,3.06
		c-0.63,0.57-1.35,0.85-2.15,0.85c-0.55,0-1.09-0.15-1.62-0.46c-1.51-0.89-2.72-1.64-3.63-2.23c-0.18-0.13-0.36-0.2-0.51-0.2
		c-0.18,0-0.44,0.12-0.77,0.36l-0.18-0.18l3.1-2.33c2.08,1.74,3.78,2.61,5.11,2.61c0.18,0,0.39-0.02,0.61-0.04
		c0.41-0.04,0.75-0.18,1.04-0.44c0.28-0.25,0.42-0.54,0.42-0.87c0-0.54-0.38-1.05-1.14-1.53c-0.84-0.51-2.53-1.52-5.04-3.02
		c-1.08-0.64-1.62-1.5-1.62-2.57c0-0.59,0.19-1.07,0.57-1.42c0.79-0.75,1.75-1.61,2.88-2.58c0.48-0.41,1.06-0.61,1.76-0.61
		c1.12,0,2.74,0.59,4.86,1.78l-2.21,2.11c-1.08-0.83-1.89-1.37-2.45-1.62C63.19,40.02,62.64,39.91,61.98,39.88"/>
	<path class="st0" d="M78.21,49.75c0,0.71,0.1,1.23,0.3,1.57c0.2,0.34,0.55,0.56,1.04,0.66c-0.43,0.34-0.92,0.68-1.44,1.03
		c-0.38,0.27-0.67,0.41-0.85,0.41c-0.08,0-0.16-0.01-0.24-0.04c-0.34-0.08-0.67-0.32-0.97-0.73c-0.41-0.53-0.61-1.18-0.61-1.97
		v-3.35c0-0.72-0.18-1.25-0.54-1.56c-0.3-0.27-0.58-0.39-0.83-0.39c-0.37,0-0.83,0.28-1.37,0.85v5.94c0,0.21,0.13,0.54,0.39,1.01
		h-3.53c0.26-0.46,0.39-0.8,0.39-1.01V42.6c0-0.7-0.1-1.22-0.3-1.56c-0.2-0.34-0.54-0.56-1.04-0.65c0.43-0.36,0.91-0.71,1.43-1.04
		c0.38-0.27,0.66-0.4,0.84-0.4c0.08,0,0.16,0.01,0.24,0.02c0.34,0.09,0.66,0.33,0.96,0.73c0.4,0.54,0.61,1.2,0.61,1.98v3.47
		c0.45-0.37,1-0.8,1.66-1.3c0.38-0.3,0.79-0.46,1.21-0.46c0.51,0,1.01,0.21,1.5,0.63c0.36,0.31,0.64,0.78,0.85,1.38
		c0.2,0.54,0.3,1.08,0.3,1.64V49.75z"/>
	<path class="st0" d="M88.55,49.55c0,0.7,0.1,1.22,0.3,1.56c0.2,0.34,0.55,0.56,1.04,0.65c-0.43,0.36-0.91,0.7-1.44,1.03
		c-0.38,0.28-0.66,0.42-0.85,0.42c-0.08,0-0.16-0.01-0.24-0.02c-0.26-0.06-0.53-0.25-0.81-0.55c-0.34-0.38-0.57-0.85-0.69-1.42
		c-0.49,0.41-1.09,0.9-1.82,1.46c-0.45,0.36-0.91,0.53-1.38,0.53c-1.06,0-1.9-0.75-2.51-2.25c-0.33-0.8-0.49-1.54-0.49-2.21
		c0-1.08,0.41-1.98,1.24-2.71c0.46-0.39,1.23-1.03,2.29-1.91c0.55-0.43,1.09-0.65,1.62-0.65c0.63,0,1.39,0.33,2.27,0.99l1.46-1.09
		V49.55z M82.47,49.43c0.54,1.2,1.14,1.8,1.8,1.8c0.24,0,0.46-0.08,0.65-0.26c0.38-0.3,0.67-0.55,0.87-0.73v-4.82l-1.03,0.75
		c-0.36-0.66-0.78-0.99-1.28-0.99c-0.29,0-0.57,0.13-0.83,0.39c-0.5,0.45-0.75,1.02-0.75,1.7C81.9,47.87,82.09,48.59,82.47,49.43"/>
	<path class="st0" d="M98.87,49.81c0,0.7,0.1,1.21,0.3,1.55c0.2,0.34,0.55,0.56,1.04,0.66c-0.43,0.34-0.91,0.69-1.42,1.03
		c-0.39,0.27-0.69,0.41-0.87,0.41c-0.08,0-0.16-0.01-0.24-0.04c-0.34-0.08-0.66-0.32-0.97-0.73c-0.41-0.53-0.61-1.18-0.61-1.97
		v-3.36c0-0.72-0.18-1.24-0.54-1.56c-0.3-0.26-0.57-0.39-0.82-0.39c-0.31,0-0.69,0.21-1.13,0.63v0.06v0.08v5.98
		c0,0.21,0.13,0.55,0.38,1.01h-3.53c0.26-0.46,0.39-0.8,0.39-1.01V47.1c0-0.7-0.1-1.22-0.3-1.56c-0.2-0.34-0.54-0.57-1.04-0.67
		c0.43-0.34,0.91-0.69,1.42-1.03c0.39-0.27,0.68-0.41,0.87-0.41c0.08,0,0.16,0.01,0.24,0.04c0.23,0.06,0.48,0.21,0.73,0.48
		c0.31,0.31,0.54,0.71,0.69,1.18c0.42-0.33,0.94-0.74,1.58-1.24c0.38-0.3,0.78-0.46,1.2-0.46c0.51,0,1.01,0.21,1.5,0.63
		c0.35,0.31,0.64,0.77,0.85,1.38c0.2,0.54,0.29,1.09,0.29,1.64V49.81z"/>
	<path class="st0" d="M107.69,44.44l1.46-1.09v8.47c0,1.13-0.03,1.89-0.08,2.29c-0.09,0.59-0.3,1.06-0.61,1.42
		c-0.87,0.97-1.75,1.72-2.64,2.25c-0.89,0.53-1.67,0.77-2.36,0.73c-0.93-0.05-1.64-0.46-2.11-1.22c-0.06-0.12-0.1-0.22-0.1-0.32
		c0-0.15,0.09-0.31,0.28-0.51c0.38-0.41,1.03-1.09,1.93-2.05c0.07-0.06,0.11-0.08,0.14-0.04c0.03,0.05,0.02,0.1-0.02,0.16
		c-0.1,0.13-0.16,0.29-0.16,0.47c0,0.5,0.24,0.99,0.73,1.46c0.33,0.33,0.68,0.49,1.04,0.49c0.22,0,0.45-0.06,0.68-0.19
		c0.23-0.13,0.38-0.38,0.44-0.78c0.05-0.25,0.08-0.79,0.08-1.62v-3.12c-0.5,0.4-1.09,0.86-1.75,1.39c-0.46,0.37-0.93,0.56-1.4,0.56
		c-1.05,0-1.88-0.76-2.49-2.27c-0.33-0.81-0.49-1.54-0.49-2.22c0-1.08,0.41-1.98,1.24-2.69c0.46-0.41,1.23-1.05,2.29-1.94
		c0.55-0.43,1.09-0.65,1.62-0.65C106.05,43.43,106.81,43.77,107.69,44.44 M105.52,50.93c0.39-0.32,0.69-0.56,0.89-0.73v-4.82
		l-1.03,0.75c-0.36-0.65-0.79-0.97-1.29-0.97c-0.29,0-0.57,0.13-0.83,0.38c-0.5,0.45-0.75,1.01-0.75,1.7c0,0.59,0.19,1.31,0.57,2.15
		c0.54,1.2,1.14,1.8,1.8,1.8C105.11,51.19,105.32,51.1,105.52,50.93"/>
	<path class="st0" d="M114.11,52.16c0,0.21,0.13,0.55,0.39,1.01h-3.55c0.26-0.47,0.39-0.81,0.39-1.01v-5.11
		c0-0.7-0.1-1.22-0.29-1.56c-0.2-0.34-0.54-0.56-1.04-0.65c0.43-0.36,0.92-0.7,1.44-1.03c0.38-0.27,0.67-0.41,0.87-0.41
		c0.06,0,0.14,0.01,0.24,0.02c0.24,0.06,0.49,0.24,0.75,0.51c0.34,0.35,0.57,0.77,0.69,1.28c0.32-0.24,0.84-0.64,1.56-1.22
		c0.5-0.39,0.93-0.59,1.28-0.59c0.48,0,0.88,0.35,1.23,1.04c0.16,0.33,0.24,0.69,0.24,1.07c0,1.05-0.53,1.78-1.58,2.19
		c-0.12,0.05-0.21,0.08-0.28,0.08c-0.15,0-0.24-0.17-0.29-0.49c-0.07-0.45-0.11-0.71-0.14-0.79c-0.09-0.28-0.24-0.51-0.46-0.69
		c-0.18-0.15-0.36-0.22-0.53-0.22c-0.27,0-0.57,0.18-0.91,0.53V52.16z"/>
	<path class="st0" d="M119.83,41.89c0.03-0.12,0.04-0.26,0.04-0.43c0-0.91-0.41-1.63-1.24-2.17l2.15-1.56
		c0.2,0.09,0.38,0.28,0.55,0.57c0.18,0.33,0.27,0.68,0.27,1.06C121.61,40.34,121.02,41.18,119.83,41.89 M121.91,42.25v9.91
		c0,0.2,0.13,0.53,0.39,1.01h-3.53c0.25-0.46,0.38-0.8,0.38-1.01v-6.71c-0.01-0.13-0.03-0.25-0.06-0.35
		c-0.07-0.26-0.19-0.43-0.36-0.51L121.91,42.25z"/>
	<polygon class="st0" points="125.97,47.64 123.17,47.64 124.04,46.12 126.84,46.12 	"/>
	<path class="st0" d="M136.57,47.64c0.21-0.16,0.34-0.24,0.38-0.24c0.08,0,0.16,0.05,0.26,0.16c0.59,0.68,0.89,1.31,0.89,1.87
		c0,0.39-0.16,0.78-0.48,1.15c-0.43,0.49-0.93,1.03-1.5,1.62c-0.46,0.5-0.85,0.82-1.16,0.97c-0.36,0.16-0.74,0.24-1.16,0.24
		c-0.3,0-1.2-0.13-2.7-0.39c-0.63-0.11-1.13-0.16-1.5-0.16c-0.64,0-1.71,0.22-3.2,0.67l-0.06-0.1c0.64-0.92,1.08-1.97,1.3-3.16
		c0.15-0.78,0.22-1.81,0.22-3.1v-5.09c0-0.68-0.1-1.2-0.3-1.54c-0.2-0.34-0.57-0.56-1.08-0.67c0.43-0.36,0.92-0.7,1.44-1.03
		c0.38-0.28,0.67-0.41,0.87-0.41c0.06,0,0.15,0.01,0.24,0.04c0.33,0.08,0.64,0.31,0.95,0.71c0.41,0.54,0.61,1.21,0.61,2v4.09
		c0,1.51-0.11,2.72-0.34,3.63c-0.19,0.81-0.53,1.54-0.99,2.21c0.76-0.13,1.63-0.2,2.59-0.2c1.09,0,2.12,0.08,3.08,0.24
		c0.53,0.09,1.03-0.03,1.5-0.38c0.38-0.29,0.57-0.64,0.57-1.04c0-0.62-0.5-1.04-1.52-1.26C135.91,48.1,136.28,47.83,136.57,47.64"/>
	<path class="st0" d="M147.6,49.55c0,0.7,0.1,1.22,0.3,1.56c0.2,0.34,0.54,0.56,1.04,0.65c-0.43,0.36-0.91,0.7-1.44,1.03
		c-0.38,0.28-0.67,0.42-0.85,0.42c-0.08,0-0.16-0.01-0.24-0.02c-0.27-0.06-0.53-0.25-0.81-0.55c-0.34-0.38-0.57-0.85-0.69-1.42
		c-0.49,0.41-1.09,0.9-1.82,1.46c-0.45,0.36-0.91,0.53-1.38,0.53c-1.06,0-1.9-0.75-2.51-2.25c-0.33-0.8-0.49-1.54-0.49-2.21
		c0-1.08,0.41-1.98,1.24-2.71c0.46-0.39,1.22-1.03,2.29-1.91c0.55-0.43,1.09-0.65,1.62-0.65c0.63,0,1.39,0.33,2.27,0.99l1.46-1.09
		V49.55z M141.52,49.43c0.54,1.2,1.14,1.8,1.8,1.8c0.24,0,0.45-0.08,0.65-0.26c0.38-0.3,0.67-0.55,0.87-0.73v-4.82l-1.03,0.75
		c-0.36-0.66-0.78-0.99-1.28-0.99c-0.29,0-0.57,0.13-0.83,0.39c-0.5,0.45-0.75,1.02-0.75,1.7
		C140.95,47.87,141.14,48.59,141.52,49.43"/>
	<path class="st0" d="M150.98,43.52c0.04-0.13,0.06-0.28,0.06-0.45c0-0.93-0.43-1.68-1.28-2.23l2.21-1.6
		c0.21,0.09,0.4,0.29,0.57,0.59c0.18,0.34,0.27,0.71,0.27,1.09C152.81,41.92,152.2,42.78,150.98,43.52"/>
	<path class="st0" d="M158.66,48.09c0.41,0.26,0.61,0.67,0.61,1.22c0,0.5-0.15,0.92-0.45,1.25c-0.63,0.66-1.33,1.32-2.09,1.99
		c-0.42,0.38-0.89,0.57-1.4,0.57c-0.37,0-0.72-0.11-1.07-0.32c-1-0.58-1.8-1.06-2.39-1.46c-0.13-0.08-0.25-0.12-0.36-0.12
		c-0.1,0-0.27,0.07-0.49,0.22l-0.12-0.12l2.53-1.93c1.46,1.46,2.51,2.13,3.14,2.01c0.49-0.11,0.73-0.35,0.73-0.72
		c0-0.31-0.2-0.59-0.6-0.84l-3.32-1.98c-0.62-0.37-0.93-0.91-0.93-1.64c0-0.52,0.16-0.93,0.48-1.22c0.51-0.49,1.14-1.05,1.89-1.7
		c0.3-0.26,0.69-0.39,1.16-0.39c0.72,0,1.79,0.39,3.18,1.16l-1.78,1.86c-0.63-0.57-1.05-0.93-1.26-1.09
		c-0.39-0.29-0.75-0.43-1.06-0.41c-0.49,0-0.73,0.18-0.73,0.55c0,0.3,0.26,0.61,0.79,0.93C155.81,46.34,157,47.06,158.66,48.09"/>
	<path class="st0" d="M18.11,80.92c1.03,1.27,1.55,2.58,1.55,3.94c0,1.11-0.38,2.04-1.13,2.77c-1.97,1.91-3.83,3.35-5.58,4.32
		c-0.54,0.3-1.09,0.45-1.67,0.45c-0.98,0-2.03-0.25-3.16-0.74c-1.05-0.48-1.97-1.06-2.74-1.76c-0.34,0.61-0.77,1.13-1.28,1.55
		c-0.42,0.36-0.73,0.54-0.93,0.54c-0.2,0-0.58-0.22-1.14-0.66C1.69,91.05,1.02,90.5,0,89.68c0.78-0.66,1.23-1.06,1.34-1.23
		c0.46-0.58,0.69-1.36,0.69-2.33V74.82c0-1.06-0.15-1.84-0.45-2.36c-0.3-0.52-0.82-0.85-1.58-0.99c0.66-0.54,1.38-1.07,2.18-1.59
		c0.58-0.4,1-0.6,1.28-0.6c0.12,0,0.24,0.01,0.36,0.03c0.38,0.1,0.77,0.38,1.19,0.82c0.52,0.57,0.87,1.27,1.04,2.1
		c0.99-0.56,2.35-1.34,4.09-2.35c0.7-0.4,1.31-0.6,1.85-0.6c0.87,0,1.74,0.45,2.59,1.34c0.85,0.9,1.28,1.77,1.28,2.62
		c0,0.68-0.26,1.39-0.77,2.15c-0.6,0.88-1.42,1.73-2.48,2.57c1.19,0.24,2.12,0.51,2.78,0.81C16.42,79.25,17.33,79.97,18.11,80.92
		 M14.83,89.29c0.75-0.6,1.13-1.45,1.13-2.52c0-1.07-0.34-2.14-1.01-3.19c-1.75-2.68-3.44-4.02-5.07-4.02
		c-0.38,0-0.76,0.08-1.16,0.24c-0.52,0.22-1.35,0.57-2.51,1.04v5.94c0,0.38-0.04,0.75-0.12,1.13c0.52-0.6,0.88-0.89,1.07-0.89
		c0.12,0,0.38,0.24,0.78,0.71c0.54,0.68,1.16,1.26,1.86,1.74c0.71,0.49,1.51,0.73,2.4,0.73C13.2,90.2,14.07,89.89,14.83,89.29
		 M7.87,72.54L6.2,73.47v6.08c2.25-0.93,3.95-1.74,5.1-2.42c0.82-0.5,1.22-1.39,1.22-2.68c0-0.58-0.13-1-0.39-1.28
		c-0.8-0.92-1.53-1.37-2.21-1.37C9.48,71.79,8.79,72.04,7.87,72.54"/>
	<path class="st0" d="M33.91,86.41c0,1.05,0.15,1.84,0.45,2.35c0.3,0.52,0.82,0.85,1.58,0.99c-0.66,0.54-1.38,1.05-2.18,1.55
		c-0.58,0.42-1,0.63-1.28,0.63c-0.12,0-0.24-0.01-0.36-0.03c-0.4-0.1-0.81-0.38-1.23-0.83c-0.51-0.58-0.86-1.29-1.04-2.15
		c-0.74,0.61-1.65,1.35-2.74,2.21c-0.68,0.54-1.37,0.81-2.09,0.81c-1.61,0-2.87-1.14-3.78-3.4c-0.5-1.21-0.75-2.33-0.75-3.34
		c0-1.63,0.63-2.99,1.88-4.09c0.7-0.6,1.85-1.56,3.46-2.89c0.83-0.66,1.65-0.99,2.45-0.99c0.95,0,2.1,0.5,3.43,1.49l2.21-1.64V86.41
		z M24.73,86.23c0.82,1.81,1.72,2.71,2.71,2.71c0.36,0,0.69-0.13,0.98-0.39c0.58-0.46,1.02-0.82,1.31-1.1v-7.28l-1.55,1.14
		c-0.53-1-1.18-1.49-1.94-1.49c-0.44,0-0.85,0.2-1.25,0.6c-0.76,0.68-1.13,1.53-1.13,2.57C23.86,83.87,24.15,84.96,24.73,86.23"/>
	<path class="st0" d="M42.32,86.8c0,1.05,0.15,1.84,0.45,2.35c0.3,0.52,0.83,0.84,1.58,0.99c-0.66,0.53-1.38,1.06-2.18,1.58
		c-0.58,0.4-1.01,0.6-1.31,0.6c-0.1,0-0.21-0.01-0.33-0.03c-0.52-0.14-1.01-0.51-1.46-1.1c-0.62-0.82-0.93-1.81-0.93-2.98V76.36
		c0-1.05-0.15-1.84-0.45-2.35c-0.3-0.52-0.82-0.86-1.58-1.02c0.66-0.51,1.38-1.03,2.18-1.55c0.58-0.42,1.02-0.63,1.31-0.63
		c0.1,0,0.21,0.02,0.33,0.06c0.51,0.12,1,0.48,1.46,1.07c0.62,0.82,0.93,1.82,0.93,3.01V86.8z"/>
	<path class="st0" d="M48.26,74.84c0.04-0.18,0.06-0.4,0.06-0.66c0-1.37-0.63-2.46-1.88-3.28l3.25-2.35
		c0.3,0.14,0.58,0.43,0.83,0.86c0.28,0.5,0.42,1.04,0.42,1.61C50.94,72.49,50.05,73.76,48.26,74.84 M51.39,75.37v14.97
		c0,0.3,0.2,0.81,0.6,1.52h-5.34c0.38-0.7,0.57-1.2,0.57-1.52V80.21c-0.02-0.2-0.05-0.38-0.08-0.54c-0.11-0.4-0.29-0.66-0.54-0.78
		L51.39,75.37z"/>
	<path class="st0" d="M73.49,82.17c1.33,0.68,2.43,1.61,3.28,2.8c0.6,0.94,1.18,1.87,1.76,2.8c0.66,0.95,1.48,1.57,2.47,1.85
		c-0.6,0.6-1.25,1.19-1.97,1.79c-0.61,0.56-1.14,0.82-1.58,0.78c-0.32-0.04-0.73-0.28-1.22-0.72c-0.68-0.58-1.38-1.52-2.12-2.83
		c-0.85-1.55-1.52-2.61-2-3.16c-0.96-1.09-2.16-1.88-3.61-2.35v7.28c0,0.32,0.19,0.82,0.57,1.52h-5.34c0.4-0.72,0.6-1.24,0.6-1.55
		V74.84c0-1.05-0.15-1.84-0.45-2.36c-0.3-0.52-0.82-0.85-1.58-0.99c0.66-0.54,1.38-1.06,2.18-1.58c0.58-0.42,1.01-0.63,1.28-0.63
		c0.12,0,0.24,0.02,0.36,0.06c0.38,0.1,0.77,0.36,1.16,0.79c0.49,0.52,0.84,1.17,1.04,1.96c0.97-0.92,1.97-1.66,2.98-2.24
		c0.63-0.38,1.29-0.57,1.97-0.57c1.19,0,2.47,0.59,3.82,1.76c1.59,1.33,2.39,2.76,2.39,4.29c0,0.74-0.2,1.41-0.6,2.03
		c-1.07,1.69-2.17,3.01-3.28,3.94C75.07,81.79,74.36,82.07,73.49,82.17 M68.51,80.71c0.54-0.7,1.02-1.04,1.43-1.04
		c0.16,0,0.85,0.28,2.09,0.84c0.49,0.24,0.97,0.36,1.43,0.36c0.84,0,1.63-0.43,2.39-1.28c0.38-0.42,0.57-0.95,0.57-1.61
		c0-1.27-0.57-2.44-1.7-3.49c-1.43-1.35-2.68-2.03-3.73-2.03c-0.87,0-1.7,0.38-2.47,1.14V80.71z"/>
	<path class="st0" d="M90.78,77.87c0.78,0.6,1.5,0.95,2.18,1.07l-8.14,6.33c0.14,0.42,0.27,0.79,0.42,1.1
		c0.83,1.93,1.9,2.9,3.19,2.9c0.24,0,0.5-0.04,0.78-0.12c0.7-0.16,1.29-0.52,1.79-1.07c0.58-0.64,0.87-1.37,0.87-2.21
		c0-0.54-0.13-1.09-0.39-1.67l2.06-1.52c0.22-0.16,0.35-0.24,0.39-0.24c0.06,0,0.12,0.07,0.18,0.21c0.22,0.54,0.33,1.06,0.33,1.58
		c0,1.51-0.81,3.02-2.42,4.53c-1.23,1.15-2.68,2.13-4.35,2.92c-0.83,0.39-1.58,0.6-2.24,0.6c-1.53,0-2.76-1.17-3.67-3.52
		c-0.5-1.25-0.75-2.4-0.75-3.46c0-1.69,0.63-3.1,1.88-4.24c0.7-0.63,1.85-1.64,3.45-3.01c0.97-0.82,1.74-1.22,2.3-1.22
		C89.17,76.83,89.89,77.18,90.78,77.87 M85.48,80.32c-0.7,0.66-1.04,1.55-1.04,2.68c0,0.32,0.03,0.65,0.09,0.98l4.21-3.25
		c-0.85-0.63-1.52-0.95-2-0.95C86.29,79.79,85.87,79.97,85.48,80.32"/>
	<path class="st0" d="M105.7,84.77c0.61,0.4,0.92,1.01,0.92,1.85c0,0.75-0.23,1.38-0.69,1.88c-0.95,1-2.01,2-3.16,3.01
		c-0.64,0.58-1.34,0.86-2.12,0.86c-0.56,0-1.09-0.16-1.61-0.48c-1.51-0.87-2.71-1.61-3.61-2.21c-0.2-0.12-0.38-0.18-0.54-0.18
		c-0.16,0-0.41,0.11-0.74,0.33l-0.18-0.18l3.82-2.92c2.21,2.21,3.79,3.22,4.74,3.04c0.74-0.16,1.11-0.52,1.11-1.09
		c0-0.46-0.3-0.88-0.91-1.26l-5.02-3c-0.94-0.56-1.41-1.38-1.41-2.47c0-0.79,0.24-1.41,0.71-1.85c0.78-0.73,1.73-1.59,2.86-2.56
		c0.46-0.39,1.04-0.6,1.76-0.6c1.09,0,2.69,0.59,4.8,1.76l-2.68,2.8c-0.95-0.85-1.59-1.4-1.91-1.64c-0.6-0.44-1.13-0.65-1.61-0.63
		c-0.74,0-1.11,0.28-1.11,0.84c0,0.46,0.4,0.92,1.19,1.4C101.4,82.12,103.19,83.22,105.7,84.77"/>
	<path class="st0" d="M118.28,78.12c1.27,0.72,2.1,1.26,2.47,1.61c0.6,0.58,0.9,1.3,0.9,2.18v5.16c0,0.88-0.3,1.61-0.9,2.21
		c-0.38,0.36-1.2,0.9-2.47,1.61c-1.77,0.98-2.89,1.46-3.37,1.46c-0.48,0-1.6-0.49-3.37-1.46c-1.27-0.71-2.1-1.25-2.47-1.61
		c-0.6-0.6-0.89-1.33-0.89-2.21V81.9c0-0.87,0.3-1.6,0.89-2.18c0.38-0.36,1.2-0.89,2.47-1.61c1.77-0.99,2.9-1.49,3.37-1.49
		C115.39,76.63,116.51,77.12,118.28,78.12 M117.45,88.53v-5.64c0-0.9-0.06-1.47-0.17-1.73c-0.11-0.26-0.44-0.59-1-0.99
		c-0.32-0.22-0.89-0.6-1.7-1.13c-0.5-0.34-0.93-0.51-1.28-0.51c-0.68,0-1.02,0.64-1.02,1.91v5.64c0,0.92,0.05,1.5,0.16,1.76
		c0.11,0.26,0.44,0.58,1,0.95c0.32,0.22,0.89,0.6,1.7,1.16c0.52,0.32,0.94,0.48,1.28,0.48C117.11,90.43,117.45,89.8,117.45,88.53"/>
	<path class="st0" d="M128.15,90.35c0,0.32,0.2,0.82,0.6,1.52h-5.37c0.4-0.71,0.6-1.22,0.6-1.52v-7.72c0-1.05-0.15-1.84-0.45-2.35
		c-0.3-0.52-0.82-0.84-1.58-0.99c0.66-0.54,1.38-1.05,2.18-1.55c0.58-0.42,1.01-0.62,1.31-0.62c0.1,0,0.22,0.01,0.36,0.03
		c0.36,0.1,0.73,0.36,1.13,0.77c0.52,0.52,0.86,1.16,1.04,1.94c0.48-0.36,1.26-0.97,2.35-1.85c0.76-0.6,1.4-0.89,1.94-0.89
		c0.72,0,1.33,0.52,1.85,1.58c0.24,0.5,0.36,1.04,0.36,1.61c0,1.59-0.8,2.69-2.39,3.31c-0.18,0.08-0.32,0.12-0.42,0.12
		c-0.22,0-0.37-0.25-0.45-0.74c-0.1-0.68-0.17-1.07-0.21-1.19c-0.14-0.42-0.37-0.77-0.69-1.04c-0.28-0.22-0.55-0.33-0.81-0.33
		c-0.4,0-0.85,0.27-1.37,0.81V90.35z"/>
	<path class="st0" d="M141.34,75.64v1.94h2.24v1.16h-2.24v8.05c0,1.05,0.15,1.83,0.45,2.34c0.3,0.51,0.82,0.84,1.58,1
		c-0.66,0.53-1.38,1.05-2.18,1.55c-0.58,0.42-1,0.63-1.28,0.63c-0.12,0-0.24-0.02-0.36-0.06c-0.52-0.12-1.01-0.48-1.46-1.07
		c-0.62-0.81-0.93-1.82-0.93-3.01v-3.19v-6.23h-2.18v-1.16h2.18v-6.77l4.83,3.55C141.59,74.52,141.37,74.95,141.34,75.64"/>
	<path class="st0" d="M157.97,84.95c-0.1,0.12-0.25,0.29-0.45,0.5c1.23,1.85,2.33,2.7,3.28,2.54c-0.61,0.56-1.23,1.12-1.85,1.67
		c-0.28,0.24-0.54,0.36-0.78,0.36c-0.42,0-0.89-0.4-1.4-1.19c-0.38-0.6-0.72-1.12-1.02-1.55c-0.6,0.6-1.11,1.1-1.55,1.52
		c-0.66,0.62-1.38,0.93-2.18,0.93c-0.82,0-1.5-0.37-2.06-1.1c-0.48-0.62-0.72-1.23-0.72-1.85c0-0.8,0.42-1.63,1.25-2.5
		c0.66-0.7,1.28-1.37,1.88-2.03c-0.04-0.06-0.17-0.26-0.39-0.6c-0.38-0.58-0.57-1.12-0.57-1.64c0-0.79,0.56-1.75,1.67-2.86
		c1.09-1.05,1.77-1.58,2.03-1.58c0.28,0,0.61,0.27,0.99,0.83c0.42,0.63,0.62,1.14,0.62,1.51c0,0.46-0.32,1.02-0.97,1.69
		c-0.26,0.26-0.66,0.71-1.21,1.33c1.06,1.67,1.91,2.98,2.55,3.93c0.48-0.48,0.71-0.89,0.71-1.25c0-0.2-0.15-0.57-0.45-1.1l1.73-1.67
		c0.2,0.7,0.3,1.21,0.3,1.55C159.41,83.1,158.93,83.95,157.97,84.95 M155.86,86.68c-0.46-0.7-1.31-1.98-2.57-3.85
		c-0.34,0.38-0.68,0.75-1.01,1.11c-0.36,0.48-0.54,0.93-0.54,1.37c0,0.51,0.21,1.03,0.63,1.55c0.54,0.7,1.1,1.04,1.7,1.04
		C154.49,87.9,155.08,87.49,155.86,86.68 M153.86,78.33c-0.02,0.34,0.06,0.68,0.24,1.02c0.12,0.22,0.32,0.54,0.6,0.95
		c0.08-0.1,0.18-0.21,0.3-0.33c0.36-0.4,0.54-0.74,0.54-1.04c0-0.26-0.09-0.57-0.28-0.94c-0.19-0.37-0.4-0.56-0.64-0.58
		C154.17,77.38,153.92,77.69,153.86,78.33"/>
	<path class="st0" d="M174.62,71.79c-0.6-0.02-1.1,0.18-1.52,0.6c-0.42,0.42-0.63,0.93-0.63,1.52c0,0.97,0.57,1.8,1.7,2.47
		c3,1.75,5.73,3.41,8.17,4.98c1.19,0.75,1.79,1.78,1.79,3.07c0,0.78-0.25,1.43-0.75,1.97c-1.45,1.53-3.05,3.07-4.8,4.62
		c-0.95,0.85-2.04,1.28-3.25,1.28c-0.83,0-1.65-0.23-2.45-0.69c-2.29-1.35-4.11-2.47-5.49-3.37c-0.28-0.2-0.54-0.3-0.78-0.3
		c-0.28,0-0.67,0.18-1.16,0.54l-0.27-0.27l4.68-3.52c3.14,2.63,5.72,3.94,7.72,3.94c0.28,0,0.59-0.02,0.92-0.06
		c0.62-0.06,1.14-0.28,1.57-0.66c0.43-0.38,0.64-0.82,0.64-1.32c0-0.82-0.57-1.59-1.72-2.31c-1.27-0.77-3.81-2.3-7.62-4.57
		c-1.63-0.97-2.45-2.26-2.45-3.88c0-0.9,0.29-1.61,0.87-2.15c1.19-1.13,2.64-2.44,4.35-3.91c0.71-0.61,1.6-0.93,2.65-0.93
		c1.69,0,4.13,0.9,7.34,2.68l-3.34,3.19c-1.63-1.26-2.86-2.07-3.7-2.45C176.45,72,175.61,71.83,174.62,71.79"/>
	<path class="st0" d="M191.91,78.06c0.68-0.56,1.37-0.83,2.09-0.83c1.59,0,2.85,1.15,3.79,3.43c0.5,1.21,0.74,2.33,0.74,3.34
		c0,1.63-0.63,2.98-1.91,4.06c-0.7,0.61-1.84,1.59-3.43,2.92c-0.83,0.66-1.65,0.98-2.45,0.98c-0.48,0-0.97-0.11-1.49-0.33v5.7
		c0,0.32,0.19,0.82,0.57,1.52h-5.34c0.4-0.71,0.6-1.22,0.6-1.52V82.86c0-1.05-0.15-1.83-0.45-2.34c-0.3-0.51-0.82-0.84-1.58-1
		c0.65-0.54,1.38-1.05,2.18-1.55c0.58-0.42,1.01-0.62,1.31-0.62c0.1,0,0.21,0.02,0.33,0.06c0.4,0.1,0.79,0.36,1.19,0.78
		c0.52,0.58,0.86,1.27,1.04,2.09C189.91,79.63,190.84,78.89,191.91,78.06 M194.01,88.76c0.73-0.68,1.1-1.53,1.1-2.57
		c0-0.89-0.28-1.98-0.83-3.25c-0.81-1.81-1.72-2.71-2.73-2.71c-0.34,0-0.66,0.13-0.98,0.39c-0.54,0.46-0.97,0.83-1.31,1.14V89
		l1.54-1.14c0.53,0.98,1.19,1.46,1.96,1.46C193.18,89.33,193.59,89.14,194.01,88.76"/>
	<path class="st0" d="M213.06,86.41c0,1.05,0.15,1.84,0.45,2.35c0.3,0.52,0.82,0.85,1.58,0.99c-0.66,0.54-1.38,1.05-2.18,1.55
		c-0.58,0.42-1.01,0.63-1.28,0.63c-0.12,0-0.24-0.01-0.36-0.03c-0.4-0.1-0.81-0.38-1.22-0.83c-0.52-0.58-0.86-1.29-1.04-2.15
		c-0.73,0.61-1.65,1.35-2.74,2.21c-0.68,0.54-1.37,0.81-2.09,0.81c-1.61,0-2.87-1.14-3.78-3.4c-0.5-1.21-0.75-2.33-0.75-3.34
		c0-1.63,0.63-2.99,1.88-4.09c0.7-0.6,1.85-1.56,3.46-2.89c0.84-0.66,1.65-0.99,2.45-0.99c0.95,0,2.1,0.5,3.43,1.49l2.21-1.64V86.41
		z M203.87,86.23c0.82,1.81,1.72,2.71,2.71,2.71c0.36,0,0.69-0.13,0.98-0.39c0.58-0.46,1.02-0.82,1.31-1.1v-7.28l-1.55,1.14
		c-0.54-1-1.18-1.49-1.94-1.49c-0.44,0-0.85,0.2-1.25,0.6c-0.76,0.68-1.13,1.53-1.13,2.57C203.01,83.87,203.3,84.96,203.87,86.23"/>
	<rect y="64.77" class="st0" width="215.09" height="0.85"/>
	<path class="st0" d="M36.88,107.96c0-1.16-0.02-2.32-0.05-3.47c-1.16,0-2.65,0.07-3.59,0.18c0.05-0.17,0.08-0.35,0.08-0.54
		c0-0.17-0.03-0.34-0.08-0.52c1.44,0.05,2.89,0.08,4.33,0.08c1.44,0,2.89-0.03,4.33-0.08c-0.05,0.18-0.08,0.35-0.08,0.54
		c0,0.17,0.03,0.35,0.08,0.52c-0.94-0.12-2.43-0.18-3.59-0.18c-0.03,1.16-0.05,2.32-0.05,3.47v2.89c0,1.44,0.07,2.9,0.14,4.34
		c-0.29-0.05-0.55-0.08-0.82-0.08c-0.27,0-0.54,0.03-0.82,0.08c0.07-1.44,0.14-2.9,0.14-4.34V107.96z"/>
	<path class="st0" d="M51.77,107.96c0-1.44-0.07-2.9-0.14-4.35c0.28,0.05,0.56,0.08,0.82,0.08c0.27,0,0.54-0.03,0.82-0.08
		c-0.07,1.45-0.14,2.9-0.14,4.35v2.89c0,1.44,0.07,2.9,0.14,4.34c-0.29-0.05-0.56-0.08-0.82-0.08c-0.27,0-0.54,0.03-0.82,0.08
		c0.07-1.44,0.14-2.9,0.14-4.34v-1.51c-1.17-0.02-2.33-0.03-3.51-0.03s-2.33,0.02-3.51,0.03v1.51c0,1.44,0.06,2.9,0.13,4.34
		c-0.28-0.05-0.55-0.08-0.82-0.08s-0.54,0.03-0.82,0.08c0.06-1.44,0.13-2.9,0.13-4.34v-2.89c0-1.44-0.07-2.9-0.13-4.35
		c0.28,0.05,0.55,0.08,0.82,0.08s0.54-0.03,0.82-0.08c-0.07,1.45-0.13,2.9-0.13,4.35v0.59c1.17,0.02,2.33,0.05,3.51,0.05
		s2.33-0.03,3.51-0.05V107.96z"/>
	<path class="st0" d="M55.93,107.94c0-1.44-0.06-2.9-0.13-4.33c1.01,0.05,2,0.08,3,0.08s2-0.03,2.99-0.08
		c-0.04,0.17-0.05,0.33-0.05,0.5c0,0.17,0.02,0.34,0.05,0.5c-1.41-0.1-2.23-0.22-4.41-0.22c-0.02,0.72-0.07,1.31-0.07,2.13
		c0,0.87,0.02,1.8,0.02,2.22c1.98,0,3.09-0.08,4.08-0.17c-0.03,0.17-0.05,0.35-0.05,0.52c0,0.17,0.02,0.34,0.05,0.5
		c-1.16-0.12-3.27-0.15-4.08-0.15c-0.02,0.4-0.02,0.82-0.02,2.43c0,1.27,0.02,2.1,0.03,2.52c1.49,0,3.47-0.02,4.53-0.22
		c-0.04,0.15-0.05,0.37-0.05,0.52c0,0.15,0.02,0.34,0.05,0.49c-0.99-0.05-2-0.08-3.02-0.08c-1.03,0-2.03,0.03-3.05,0.08
		c0.07-1.46,0.13-2.92,0.13-4.36V107.94z"/>
	<path class="st0" d="M69.06,103.39c1.53,3.15,3.11,6.11,4.82,9.25c0.67-1.31,3.34-6.14,4.98-9.25h0.22c0.5,4.3,0.84,7.95,1.37,11.8
		c-0.27-0.05-0.52-0.08-0.79-0.08s-0.52,0.03-0.79,0.08c-0.23-3.01-0.47-5.79-0.82-8.66h-0.03c-1.53,2.8-3.07,5.55-4.4,8.58h-0.15
		c-1.31-2.79-2.85-5.67-4.31-8.58h-0.03c-0.32,2.77-0.79,6.76-0.81,8.66c-0.2-0.05-0.39-0.08-0.59-0.08c-0.2,0-0.39,0.03-0.59,0.08
		c0.59-3.71,1.26-8.24,1.63-11.8H69.06z"/>
	<path class="st0" d="M86.62,103.4c1.65,3.89,4.16,10,5.05,11.79c-0.3-0.05-0.59-0.08-0.89-0.08c-0.3,0-0.59,0.04-0.89,0.08
		c-0.32-1.16-1.13-3-1.73-4.5c-0.72-0.02-1.46-0.03-2.2-0.03c-0.69,0-1.36,0.02-2.05,0.03c-0.71,1.73-1.34,3.44-1.63,4.5
		c-0.22-0.05-0.42-0.08-0.62-0.08c-0.2,0-0.4,0.04-0.62,0.08c1.8-3.92,3.54-7.83,5.25-11.79H86.62z M86.07,105.66l-1.83,4.26
		c0.59,0,1.22,0.04,1.81,0.04c0.62,0,1.26-0.02,1.88-0.04L86.07,105.66z"/>
	<path class="st0" d="M90.96,117.05c1.96,0,2.15-1.83,2.15-4.48v-4.61c0-1.45-0.07-2.9-0.14-4.35c0.29,0.05,0.56,0.08,0.82,0.08
		s0.54-0.03,0.82-0.08c-0.07,1.44-0.14,2.9-0.14,4.35c0,2.01,0.05,4.36,0.05,5.97c0,2-1.38,3.59-3.44,3.59L90.96,117.05z"/>
	<path class="st0" d="M110.88,115.41c-2.55-3.01-5.6-6.22-8.48-9.28c-0.02,0.62-0.05,1.63-0.05,3.41c0,1.44,0.07,4.98,0.15,5.65
		c-0.18-0.05-0.39-0.08-0.59-0.08c-0.2,0-0.4,0.03-0.62,0.08c0.14-0.79,0.35-5.09,0.35-7.3c0-2.11,0-3.74-0.05-4.5h0.27
		c2.74,2.97,6.44,7.01,8.49,9.08c0-3,0-6.28-0.13-8.86c0.18,0.05,0.39,0.08,0.57,0.08c0.18,0,0.35-0.03,0.54-0.08
		c-0.1,0.99-0.27,4.32-0.27,5.62c0,1.71,0.03,5.42,0.05,6.18H110.88z"/>
	<path class="st0" d="M122.63,103.61c0.22,0.05,0.45,0.08,0.69,0.08c0.17,0,0.35-0.03,0.5-0.08c-0.13,1.56-0.27,4.51-0.3,6.96
		c-0.03,2.97-1.76,4.83-4.78,4.83c-3.32,0-4.8-1.54-4.8-4.8c0-1.04,0.08-1.81,0.08-2.65c0-1.85-0.07-3.37-0.1-4.35
		c0.27,0.05,0.6,0.08,0.87,0.08c0.24,0,0.5-0.03,0.72-0.08c-0.1,0.99-0.2,3.27-0.2,5.75c0,2.28,0,5.25,3.74,5.25
		c3.67,0,3.67-3.44,3.67-5.55C122.73,105.88,122.73,104.27,122.63,103.61"/>
	<path class="st0" d="M126.18,112.96c0.37,0.79,1.21,1.75,2.65,1.75c1.49,0,2.4-1.09,2.4-2.44c0-3.09-5.29-1.76-5.29-5.7
		c0-1.86,1.41-3.17,3.64-3.17c1.06,0,1.81,0.25,2.48,0.79c-0.2,0.38-0.32,0.77-0.45,1.41h-0.2c-0.24-0.62-0.74-1.58-2-1.58
		c-1.26,0-2.16,0.86-2.16,2.08c0,3.14,5.29,1.83,5.29,5.54c0,2.05-1.53,3.78-4.11,3.78c-1.39,0-2.18-0.49-2.77-0.95
		c0.2-0.52,0.25-0.86,0.32-1.49H126.18z"/>
	<path class="st0" d="M138.65,103.4c1.64,3.89,4.16,10,5.05,11.79c-0.3-0.05-0.59-0.08-0.89-0.08c-0.3,0-0.59,0.04-0.89,0.08
		c-0.32-1.16-1.13-3-1.73-4.5c-0.72-0.02-1.46-0.03-2.2-0.03c-0.69,0-1.36,0.02-2.05,0.03c-0.71,1.73-1.34,3.44-1.63,4.5
		c-0.22-0.05-0.42-0.08-0.62-0.08c-0.2,0-0.4,0.04-0.62,0.08c1.8-3.92,3.54-7.83,5.25-11.79H138.65z M138.09,105.66l-1.83,4.26
		c0.59,0,1.22,0.04,1.81,0.04c0.62,0,1.26-0.02,1.88-0.04L138.09,105.66z"/>
	<path class="st0" d="M149.29,107.96c0-1.44-0.07-2.9-0.14-4.35c0.84,0.05,1.7,0.08,2.54,0.08c0.84,0,1.69-0.08,2.53-0.08
		c3.92,0,5.53,2.1,5.53,5.55c0,4.48-3.45,6.02-6.11,6.02c-0.75,0-1.49-0.08-2.25-0.08c-0.75,0-1.49,0.04-2.25,0.08
		c0.07-1.44,0.14-2.9,0.14-4.34V107.96z M150.67,110.85c0,1.19,0.03,2.4,0.1,3.56c0.47,0.1,1.34,0.16,2.2,0.16
		c2.46,0,5.15-0.97,5.15-5.4c0-3.89-2.01-4.85-4.76-4.85c-0.99,0-1.9,0.08-2.58,0.17c-0.07,1.07-0.1,2.26-0.1,3.47V110.85z"/>
	<path class="st0" d="M170.49,103.61c0.22,0.05,0.45,0.08,0.69,0.08c0.17,0,0.35-0.03,0.5-0.08c-0.13,1.56-0.27,4.51-0.3,6.96
		c-0.03,2.97-1.76,4.83-4.78,4.83c-3.32,0-4.8-1.54-4.8-4.8c0-1.04,0.08-1.81,0.08-2.65c0-1.85-0.07-3.37-0.1-4.35
		c0.27,0.05,0.6,0.08,0.87,0.08c0.23,0,0.5-0.03,0.72-0.08c-0.1,0.99-0.2,3.27-0.2,5.75c0,2.28,0,5.25,3.74,5.25
		c3.67,0,3.67-3.44,3.67-5.55C170.59,105.88,170.59,104.27,170.49,103.61"/>
	<path class="st0" d="M178.62,103.4c1.64,3.89,4.16,10,5.05,11.79c-0.3-0.05-0.59-0.08-0.89-0.08c-0.3,0-0.59,0.04-0.89,0.08
		c-0.32-1.16-1.13-3-1.73-4.5c-0.72-0.02-1.46-0.03-2.2-0.03c-0.69,0-1.36,0.02-2.05,0.03c-0.71,1.73-1.34,3.44-1.63,4.5
		c-0.22-0.05-0.42-0.08-0.62-0.08c-0.2,0-0.4,0.04-0.62,0.08c1.8-3.92,3.54-7.83,5.25-11.79H178.62z M178.07,105.66l-1.83,4.26
		c0.59,0,1.23,0.04,1.81,0.04c0.62,0,1.26-0.02,1.88-0.04L178.07,105.66z"/>
</g>
</svg>
