<?xml version="1.0" encoding="utf-8"?>
<!-- Generator: Adobe Illustrator 23.0.1, SVG Export Plug-In . SVG Version: 6.00 Build 0)  -->
<svg version="1.1" id="Layer_1" xmlns="http://www.w3.org/2000/svg" xmlns:xlink="http://www.w3.org/1999/xlink" x="0px" y="0px"
	 viewBox="0 0 237.05 100.06" style="enable-background:new 0 0 237.05 100.06;" xml:space="preserve">
<style type="text/css">
	.st0{fill:#FFFFFF;}
	.st1{display:none;clip-path:url(#XMLID_55_);}
	.st2{display:inline;fill:#FFFFFF;}
	.st3{display:none;clip-path:url(#XMLID_56_);}
	.st4{display:none;clip-path:url(#XMLID_57_);}
	.st5{display:none;clip-path:url(#XMLID_58_);}
	.st6{display:none;clip-path:url(#XMLID_59_);}
	.st7{display:none;clip-path:url(#XMLID_60_);}
	.st8{display:none;clip-path:url(#XMLID_61_);}
	.st9{display:none;clip-path:url(#XMLID_62_);}
	.st10{display:none;clip-path:url(#XMLID_63_);}
	.st11{display:none;clip-path:url(#XMLID_64_);}
	.st12{display:none;clip-path:url(#XMLID_65_);}
	.st13{display:none;clip-path:url(#XMLID_66_);}
	.st14{display:none;}
	.st15{display:inline;}
	.st16{display:none;clip-path:url(#XMLID_67_);}
	.st17{display:none;clip-path:url(#XMLID_68_);}
	.st18{display:none;clip-path:url(#XMLID_69_);}
	.st19{display:none;clip-path:url(#XMLID_70_);}
	.st20{display:none;clip-path:url(#XMLID_71_);}
	.st21{opacity:0.8;}
</style>
<g>
	<path class="st0" d="M19.11,70.7H15.8l-4.83-9.93c-0.14,0-0.31,0.02-0.54,0.02H9.69l-0.87,0.02c-0.31,0-0.62,0-0.9,0
		c-0.69,0.01-1.43,0.01-2.22,0l0.06,9.87l-2.8,0.04l0.04-21.13c0.02-0.45-0.04-0.9-0.18-1.33c-0.1-0.28-0.23-0.54-0.4-0.79
		l-0.31-0.31c-0.13-0.13-0.28-0.24-0.44-0.34C1.47,46.69,1.24,46.57,1,46.48c-0.33-0.13-0.66-0.23-1-0.31v-0.85
		c2.14,0,4.01-0.01,5.6-0.04c1.59-0.03,2.98-0.02,4.19,0.03c1.06,0.04,2.11,0.13,3.16,0.29c0.87,0.13,1.72,0.38,2.52,0.74
		c0.54,0.24,1.04,0.57,1.48,0.96c0.92,0.91,1.58,2.05,1.91,3.31c0.18,0.8,0.27,1.62,0.26,2.45c0.01,0.87-0.1,1.74-0.31,2.59
		c-0.18,0.73-0.5,1.41-0.93,2.02c-0.45,0.61-1,1.12-1.64,1.53c-0.75,0.48-1.56,0.86-2.4,1.13L19.11,70.7z M11.16,58.72
		c0.69,0,1.37-0.14,2-0.43c0.63-0.28,1.19-0.69,1.65-1.19c0.49-0.54,0.87-1.18,1.12-1.87c0.29-0.78,0.43-1.61,0.42-2.45
		c0.03-0.81-0.11-1.62-0.39-2.38c-0.25-0.65-0.63-1.24-1.12-1.73c-0.47-0.46-1.04-0.82-1.66-1.05c-0.64-0.24-1.32-0.36-2.01-0.35
		H5.76v11.44L11.16,58.72z"/>
	<path class="st0" d="M44.33,68.91v2.38H28.3V49.35c-0.03-0.42-0.11-0.84-0.25-1.24c-0.13-0.32-0.34-0.6-0.6-0.83
		c-0.25-0.24-0.53-0.45-0.83-0.62c-0.45-0.25-0.93-0.43-1.43-0.53l-0.02-0.81h19.16v2.59h-13.1v9.06H42.9v2.42H31.23v9.54
		L44.33,68.91z"/>
	<path class="st0" d="M64.17,48.5c-0.75-0.3-1.54-0.6-2.38-0.88c-0.81-0.28-1.64-0.48-2.49-0.6c-0.81-0.12-1.64-0.12-2.45,0
		c-0.81,0.13-1.57,0.46-2.22,0.95c-0.4,0.32-0.72,0.73-0.93,1.2c-0.21,0.47-0.31,0.98-0.31,1.49c-0.02,0.64,0.13,1.27,0.44,1.83
		c0.31,0.52,0.69,1,1.12,1.43c0.7,0.52,1.45,0.98,2.22,1.39c0.76,0.4,1.52,0.8,2.29,1.18s1.51,0.8,2.22,1.22
		c0.72,0.43,1.38,0.93,2,1.49c0.54,0.52,1,1.13,1.34,1.8c0.33,0.65,0.57,1.34,0.69,2.06c0.12,0.72,0.14,1.45,0.03,2.18
		c-0.1,0.73-0.32,1.44-0.65,2.1c-0.35,0.76-0.86,1.42-1.51,1.94c-0.64,0.52-1.36,0.94-2.12,1.24c-0.78,0.31-1.59,0.53-2.42,0.65
		c-0.8,0.13-1.6,0.19-2.41,0.2c-1.03,0-2.07-0.08-3.09-0.24c-0.99-0.16-1.98-0.34-2.94-0.55v-2.55c1.05,0.47,2.13,0.87,3.24,1.18
		c1.1,0.3,2.24,0.45,3.38,0.44c0.74,0.01,1.48-0.09,2.2-0.29c0.61-0.17,1.17-0.47,1.66-0.87c0.94-0.86,1.41-2.05,1.41-3.57
		c0-0.68-0.15-1.34-0.44-1.95c-0.28-0.59-0.69-1.11-1.19-1.53c-0.71-0.49-1.44-0.93-2.2-1.33l-2.26-1.19
		c-0.75-0.39-1.46-0.81-2.15-1.24c-0.68-0.43-1.32-0.93-1.89-1.5c-1.26-1.19-1.97-2.84-1.97-4.57c0-2.02,0.73-3.57,2.18-4.64
		c0.51-0.4,1.08-0.73,1.69-0.96c0.62-0.24,1.27-0.43,1.93-0.54c0.69-0.12,1.38-0.18,2.07-0.2c0.7-0.02,1.4,0.01,2.1,0.06
		c0.68,0.06,1.35,0.13,2.01,0.24c0.66,0.11,1.26,0.22,1.82,0.34L64.17,48.5z"/>
	<path class="st0" d="M77.93,63.84v7.05h-2.99V49.61c0.02-0.46-0.05-0.92-0.19-1.36c-0.1-0.28-0.24-0.54-0.41-0.78l-0.31-0.36
		c-0.13-0.14-0.28-0.27-0.45-0.36c-0.22-0.13-0.44-0.24-0.67-0.34c-0.33-0.13-0.66-0.24-1-0.31v-0.74h6.05L77.93,63.84z"/>
	<path class="st0" d="M133.73,68.91v2.38H117.7V49.35c-0.03-0.42-0.11-0.84-0.25-1.24c-0.13-0.33-0.34-0.61-0.6-0.84
		c-0.25-0.24-0.53-0.45-0.83-0.62c-0.45-0.25-0.93-0.43-1.43-0.53l-0.02-0.81h19.16v2.59h-13.1v9.06h11.67v2.43h-11.67v9.54
		L133.73,68.91z"/>
	<path class="st0" d="M163.35,71.16h-2.15l-16.11-20.36v20.44h-2.3V48.35c-0.1-0.35-0.27-0.67-0.5-0.95
		c-0.26-0.28-0.57-0.51-0.91-0.69c-0.5-0.24-1.04-0.37-1.6-0.37v-0.95l5.25,0.02l16.09,19.97V45.39h2.24V71.16z"/>
	<path class="st0" d="M174.57,65.16c0.59,0.7,1.27,1.32,2.02,1.85c0.75,0.52,1.56,0.93,2.43,1.22c0.86,0.29,1.76,0.47,2.66,0.53
		c0.93,0.06,1.86-0.02,2.76-0.24c0.51-0.12,1-0.31,1.46-0.54c0.55-0.26,1.09-0.55,1.63-0.87c0.54-0.32,1.06-0.64,1.55-0.97
		c0.51-0.33,0.93-0.62,1.24-0.89v3.01c-1.17,0.98-2.5,1.76-3.93,2.3c-1.43,0.54-2.96,0.81-4.49,0.81c-1.12-0.01-2.24-0.16-3.31-0.47
		c-1.05-0.3-2.06-0.74-3-1.29c-0.93-0.54-1.78-1.2-2.54-1.97c-0.76-0.76-1.41-1.62-1.95-2.55c-0.54-0.94-0.96-1.95-1.24-3
		c-0.3-1.09-0.45-2.22-0.44-3.35c0-0.63,0.05-1.26,0.16-1.89c0.11-0.59,0.23-1.13,0.35-1.6c0.09-0.38,0.21-0.75,0.35-1.12
		c0.07-0.15,0.12-0.3,0.16-0.46c0.44-1.02,1.01-1.98,1.7-2.85c0.68-0.87,1.47-1.64,2.36-2.29c1.8-1.33,3.91-2.17,6.13-2.44
		c0.59-0.04,1.18-0.05,1.76-0.03c0.64,0.02,1.27,0.09,1.9,0.21c0.66,0.12,1.32,0.3,1.95,0.54c0.68,0.25,1.32,0.56,1.94,0.93
		c0.11-0.08,0.23-0.18,0.35-0.28c0.14-0.12,0.25-0.25,0.35-0.4c0.13-0.2,0.24-0.41,0.34-0.62c0.14-0.33,0.26-0.66,0.34-1.01h0.77
		v7.03h-0.31c-0.49-0.57-1.03-1.09-1.63-1.55c-0.61-0.47-1.27-0.88-1.96-1.22c-0.69-0.34-1.41-0.61-2.15-0.8
		c-0.74-0.19-1.5-0.29-2.26-0.29c-1.33-0.01-2.66,0.26-3.88,0.8c-1.18,0.51-2.24,1.27-3.11,2.22c-0.89,0.93-1.6,2.03-2.09,3.22
		c-0.95,2.35-0.99,4.97-0.14,7.36C173.22,63.28,173.82,64.28,174.57,65.16z"/>
	<path class="st0" d="M215.56,68.91v2.38h-16.03V49.35c-0.03-0.42-0.12-0.84-0.25-1.24c-0.13-0.32-0.34-0.61-0.6-0.84
		c-0.25-0.24-0.53-0.45-0.83-0.62c-0.45-0.25-0.93-0.43-1.43-0.53l-0.02-0.81h19.16v2.59h-13.1v9.06h11.67v2.43h-11.67v9.54
		L215.56,68.91z"/>
	<path class="st0" d="M235.4,48.5c-0.75-0.3-1.54-0.6-2.37-0.88c-0.81-0.28-1.64-0.48-2.49-0.6c-0.81-0.12-1.64-0.12-2.45,0
		c-0.81,0.13-1.57,0.46-2.22,0.95c-0.4,0.32-0.72,0.73-0.93,1.2c-0.21,0.47-0.31,0.98-0.31,1.49c-0.02,0.64,0.13,1.27,0.44,1.83
		c0.31,0.52,0.68,1,1.12,1.43c0.71,0.52,1.45,0.98,2.22,1.39c0.76,0.4,1.52,0.8,2.29,1.18c0.77,0.39,1.5,0.8,2.22,1.22
		c0.71,0.43,1.38,0.93,2,1.49c0.54,0.52,0.99,1.13,1.34,1.8c0.33,0.65,0.57,1.34,0.7,2.06c0.12,0.72,0.13,1.45,0.03,2.18
		c-0.1,0.73-0.32,1.44-0.65,2.1c-0.34,0.76-0.86,1.42-1.51,1.94c-0.64,0.52-1.36,0.94-2.13,1.24c-0.78,0.31-1.59,0.53-2.42,0.65
		c-0.79,0.13-1.6,0.19-2.4,0.2c-1.03,0-2.07-0.08-3.09-0.24c-0.99-0.16-1.98-0.34-2.94-0.55v-2.55c1.05,0.47,2.14,0.87,3.25,1.18
		c1.09,0.31,2.22,0.46,3.35,0.46c0.74,0.01,1.48-0.09,2.2-0.29c0.61-0.17,1.17-0.47,1.66-0.87c0.94-0.86,1.41-2.05,1.41-3.57
		c0-0.68-0.15-1.34-0.45-1.95c-0.28-0.59-0.69-1.11-1.19-1.53c-0.71-0.48-1.44-0.93-2.2-1.33l-2.26-1.21
		c-0.75-0.39-1.46-0.81-2.16-1.24c-0.68-0.43-1.31-0.93-1.88-1.5c-1.25-1.19-1.95-2.85-1.94-4.57c0-2.02,0.73-3.57,2.18-4.64
		c0.51-0.4,1.08-0.73,1.69-0.96c0.62-0.24,1.27-0.43,1.93-0.54c0.68-0.12,1.38-0.19,2.07-0.2c0.7-0.02,1.4,0.01,2.1,0.06
		c0.68,0.06,1.35,0.13,2.01,0.24c0.66,0.11,1.26,0.22,1.81,0.34V48.5z"/>
	<path class="st0" d="M108.06,54.91c-0.3-1.08-0.73-2.12-1.28-3.09c-0.54-0.95-1.2-1.83-1.97-2.61c-0.76-0.78-1.63-1.46-2.56-2.02
		c-0.95-0.57-1.96-1.01-3.03-1.32c-1.1-0.31-2.24-0.47-3.38-0.47h-8.16l-3.71,0.08v0.79c0.36,0.08,0.7,0.2,1.04,0.34
		c0.23,0.1,0.46,0.22,0.66,0.37c0.15,0.11,0.29,0.23,0.42,0.37l0.29,0.34c0.07,0.08,0.14,0.16,0.2,0.25h8.66
		c1.41-0.01,2.8,0.25,4.11,0.76c1.23,0.49,2.34,1.22,3.27,2.16c0.92,0.95,1.65,2.07,2.14,3.3c0.52,1.33,0.78,2.74,0.76,4.17
		c0.02,1.44-0.24,2.86-0.76,4.2c-0.96,2.49-2.92,4.46-5.39,5.45c-1.3,0.53-2.7,0.79-4.11,0.78h-5.14V50.99H87.1v20.36h8.75
		c1.14,0,2.28-0.15,3.38-0.47c1.06-0.3,2.08-0.75,3.03-1.32c1.89-1.14,3.45-2.74,4.53-4.66c0.55-0.98,0.98-2.02,1.28-3.11
		c0.31-1.12,0.46-2.29,0.46-3.45C108.52,57.18,108.37,56.03,108.06,54.91z"/>
	<path class="st0" d="M20.19,4.65h-6.53v20.8h-5.7V4.65H0.01V1.43C0.01,0.64,0.65,0.01,1.44,0h20.19v3.2
		C21.63,4,20.99,4.64,20.19,4.65z"/>
	<path class="st0" d="M51.48,1.43v24.01h-5.71V14.9h-10.8v10.54h-5.71V0h4.27c0.8,0,1.44,0.65,1.44,1.44v8.82h10.8V0h4.27
		C50.83,0,51.48,0.64,51.48,1.43z"/>
	<path class="st0" d="M67.23,4.39v5.87h12.8v4.25h-12.8v6.54h12.23c0.8,0,1.44,0.65,1.44,1.45v2.95H61.52V0H80.9v2.96
		c0,0.8-0.65,1.44-1.44,1.44l0,0L67.23,4.39z"/>
	<path class="st0" d="M127.94,0v25.45h-5.49V8.53l-7.34,9.96h-0.58l-7.35-9.95v16.91h-5.5V0h4.45c0.47,0,0.91,0.24,1.18,0.62
		l7.5,10.57l7.49-10.56c0.27-0.39,0.71-0.62,1.18-0.62L127.94,0z"/>
	<path class="st0" d="M154.41,20.03h-10.54l-2,5.42h-5.96L146.08,0h5.1c0.59,0,1.12,0.36,1.34,0.9l9.85,24.56h-5.97L154.41,20.03z
		 M152.85,15.74L149.15,5.7l-3.71,10.04H152.85z"/>
	<path class="st0" d="M184.47,16.83c0,1.16-0.1,2.31-0.31,3.45c-0.18,1.06-0.59,2.07-1.18,2.96c-0.63,0.9-1.49,1.62-2.49,2.07
		c-1.08,0.52-2.49,0.78-4.23,0.78c-2.04,0-3.76-0.49-5.16-1.46c-1.04-0.73-1.84-1.77-2.27-2.97c-0.29-0.75,0.08-1.59,0.83-1.88
		c0.06-0.02,0.12-0.04,0.18-0.06l3.73-0.92c0.07,0.63,0.39,1.2,0.87,1.6c0.46,0.42,1.07,0.66,1.69,0.65
		c0.55,0.03,1.1-0.14,1.53-0.49c0.37-0.33,0.64-0.75,0.8-1.22c0.18-0.51,0.28-1.04,0.31-1.58c0.03-0.57,0.05-1.1,0.05-1.58V0h4.23
		c0.8,0,1.44,0.65,1.44,1.44v0L184.47,16.83z"/>
	<path class="st0" d="M2.97,99.9v-9.23h4.54c1.7,0,2.63,1.05,2.63,2.35c0.04,1-0.63,1.89-1.6,2.11c0.99,0.15,1.78,1.13,1.78,2.26
		c0,1.44-0.93,2.5-2.68,2.5H2.97z M8.48,93.27c0-0.68-0.47-1.19-1.29-1.19h-2.6v2.38h2.6C8.01,94.48,8.48,93.99,8.48,93.27z
		 M8.66,97.18c0-0.69-0.49-1.29-1.4-1.29H4.59v2.57h2.67c0.87,0.01,1.4-0.47,1.4-1.27L8.66,97.18z"/>
	<path class="st0" d="M15.41,99.9v-9.23h6.32v1.43h-4.7v2.38h4.61v1.42h-4.61v2.57h4.7v1.42L15.41,99.9z"/>
	<path class="st0" d="M32.37,99.9L29.28,96l-0.81,0.95v2.95h-1.62v-9.23h1.62v4.39l3.61-4.39h2.01l-3.75,4.35l4.04,4.88L32.37,99.9z
		"/>
	<path class="st0" d="M45.37,99.9l-0.68-1.78h-4.23l-0.68,1.78h-1.85l3.63-9.23h2.02l3.62,9.23H45.37z M42.58,92.29l-1.65,4.4h3.32
		L42.58,92.29z"/>
	<path class="st0" d="M50.94,98.6l0.91-1.26c0.75,0.82,1.81,1.29,2.92,1.29c1.33,0,1.84-0.65,1.84-1.27c0-1.94-5.37-0.73-5.37-4.12
		c0-1.53,1.33-2.71,3.36-2.71c1.28-0.04,2.52,0.43,3.44,1.3l-0.91,1.2c-0.72-0.7-1.68-1.08-2.68-1.07c-0.93,0-1.55,0.47-1.55,1.15
		c0,1.73,5.37,0.67,5.37,4.09c0,1.54-1.09,2.86-3.57,2.86C53,100.06,51.77,99.46,50.94,98.6z"/>
	<path class="st0" d="M63.21,99.9v-9.23h1.62v9.23H63.21z"/>
</g>
</svg>
