<?xml version="1.0" encoding="utf-8"?>
<!-- Generator: Adobe Illustrator 23.0.1, SVG Export Plug-In . SVG Version: 6.00 Build 0)  -->
<svg version="1.1" id="Layer_1" xmlns="http://www.w3.org/2000/svg" xmlns:xlink="http://www.w3.org/1999/xlink" x="0px" y="0px"
	 viewBox="0 0 220.72 100.06" style="enable-background:new 0 0 220.72 100.06;" xml:space="preserve">
<style type="text/css">
	.st0{fill:#FFFFFF;}
	.st1{display:none;clip-path:url(#XMLID_55_);}
	.st2{display:inline;fill:#FFFFFF;}
	.st3{display:none;clip-path:url(#XMLID_56_);}
	.st4{display:none;clip-path:url(#XMLID_57_);}
	.st5{display:none;clip-path:url(#XMLID_58_);}
	.st6{display:none;clip-path:url(#XMLID_59_);}
	.st7{display:none;clip-path:url(#XMLID_60_);}
	.st8{display:none;clip-path:url(#XMLID_61_);}
	.st9{display:none;clip-path:url(#XMLID_62_);}
	.st10{display:none;clip-path:url(#XMLID_63_);}
	.st11{display:none;clip-path:url(#XMLID_64_);}
	.st12{display:none;clip-path:url(#XMLID_65_);}
	.st13{display:none;clip-path:url(#XMLID_66_);}
	.st14{display:none;}
	.st15{display:inline;}
	.st16{display:none;clip-path:url(#XMLID_67_);}
	.st17{display:none;clip-path:url(#XMLID_68_);}
	.st18{display:none;clip-path:url(#XMLID_69_);}
	.st19{display:none;clip-path:url(#XMLID_70_);}
	.st20{display:none;clip-path:url(#XMLID_71_);}
	.st21{opacity:0.8;}
</style>
<g>
	<g>
		<g>
			<g>
				<path class="st0" d="M17.8,72.72h-3.09l-4.5-9.25c-0.13,0.01-0.3,0.02-0.5,0.02c-0.21,0-0.43,0-0.69,0.01
					c-0.25,0.01-0.52,0.01-0.81,0.02c-0.29,0.01-0.57,0.01-0.84,0.01c-0.64,0.01-1.33,0.01-2.07,0l0.06,9.19l-2.61,0.04L2.8,53.09
					c0-0.53-0.06-0.94-0.16-1.24c-0.11-0.3-0.24-0.54-0.38-0.73c-0.09-0.09-0.19-0.19-0.29-0.29c-0.1-0.1-0.24-0.21-0.41-0.32
					C1.4,50.4,1.19,50.3,0.94,50.19c-0.25-0.1-0.56-0.2-0.94-0.29v-0.79c1.99,0,3.73-0.01,5.21-0.04c1.48-0.03,2.78-0.02,3.9,0.03
					s2.1,0.13,2.94,0.27c0.84,0.13,1.62,0.36,2.35,0.69c0.51,0.23,0.97,0.53,1.38,0.9c0.41,0.37,0.76,0.81,1.05,1.34
					c0.32,0.48,0.56,1.06,0.72,1.74c0.16,0.68,0.24,1.44,0.24,2.28c0,0.9-0.09,1.71-0.28,2.41c-0.19,0.71-0.48,1.34-0.88,1.88
					c-0.4,0.55-0.91,1.02-1.53,1.43c-0.62,0.41-1.36,0.76-2.24,1.05L17.8,72.72z M10.39,61.56c0.66,0,1.28-0.13,1.86-0.4
					c0.59-0.26,1.1-0.63,1.53-1.11c0.44-0.48,0.78-1.05,1.04-1.74c0.26-0.68,0.39-1.44,0.39-2.28c0.01-0.84-0.11-1.58-0.37-2.22
					c-0.26-0.64-0.6-1.18-1.04-1.61c-0.44-0.43-0.95-0.76-1.54-0.97c-0.59-0.22-1.22-0.33-1.87-0.33H5.37v10.66H10.39z"/>
			</g>
			<g>
				<path class="st0" d="M41.27,71.06v2.22H26.35V52.84c-0.05-0.5-0.13-0.89-0.23-1.16c-0.1-0.27-0.29-0.53-0.56-0.77
					c-0.18-0.18-0.44-0.37-0.77-0.57c-0.33-0.2-0.78-0.36-1.33-0.49l-0.02-0.75h17.84v2.41h-12.2v8.44h10.87v2.24H29.07v8.88H41.27z
					"/>
			</g>
			<g>
				<path class="st0" d="M59.75,52.05c-0.69-0.28-1.43-0.56-2.21-0.82c-0.78-0.26-1.55-0.45-2.33-0.56s-1.53-0.11-2.28,0.01
					c-0.75,0.12-1.44,0.41-2.07,0.89c-0.39,0.32-0.67,0.69-0.86,1.12c-0.19,0.42-0.28,0.89-0.28,1.39c0,0.67,0.14,1.24,0.41,1.7
					c0.27,0.46,0.62,0.91,1.04,1.33c0.67,0.49,1.36,0.92,2.07,1.29c0.71,0.37,1.42,0.74,2.13,1.1c0.71,0.36,1.4,0.74,2.07,1.14
					c0.66,0.4,1.28,0.86,1.86,1.39c0.51,0.5,0.93,1.06,1.25,1.68c0.32,0.62,0.53,1.26,0.65,1.92c0.12,0.66,0.13,1.34,0.03,2.02
					c-0.1,0.68-0.3,1.33-0.61,1.95c-0.33,0.72-0.8,1.32-1.41,1.8c-0.6,0.48-1.26,0.87-1.98,1.15c-0.71,0.28-1.46,0.49-2.25,0.61
					c-0.79,0.12-1.53,0.18-2.24,0.18c-0.99,0-1.95-0.07-2.88-0.22c-0.93-0.15-1.84-0.32-2.74-0.51v-2.37c1,0.45,2.01,0.82,3.02,1.1
					c1.01,0.28,2.05,0.42,3.12,0.42c0.76,0,1.44-0.09,2.05-0.27c0.6-0.18,1.12-0.45,1.54-0.81c0.88-0.8,1.31-1.9,1.31-3.32
					c0-0.64-0.14-1.25-0.42-1.81c-0.28-0.57-0.65-1.04-1.11-1.43c-0.66-0.45-1.34-0.86-2.05-1.24c-0.71-0.37-1.41-0.74-2.1-1.11
					c-0.69-0.37-1.36-0.75-2.01-1.16c-0.64-0.41-1.23-0.87-1.76-1.4c-1.21-1.21-1.81-2.63-1.81-4.27c0-1.88,0.68-3.32,2.03-4.32
					c0.48-0.37,1-0.67,1.57-0.9c0.57-0.23,1.17-0.39,1.8-0.5c0.62-0.11,1.27-0.17,1.93-0.18c0.66-0.01,1.31,0.01,1.95,0.06
					c0.64,0.05,1.26,0.13,1.87,0.22c0.61,0.1,1.17,0.2,1.69,0.32V52.05z"/>
			</g>
			<g>
				<path class="st0" d="M72.56,66.33v6.56h-2.8V53.09c0-0.54-0.06-0.96-0.17-1.26c-0.12-0.3-0.24-0.54-0.39-0.72
					c-0.09-0.1-0.19-0.22-0.3-0.34c-0.11-0.12-0.25-0.24-0.42-0.34c-0.17-0.1-0.38-0.21-0.63-0.32c-0.25-0.11-0.56-0.21-0.94-0.3
					v-0.69h5.64V66.33z"/>
			</g>
			<g>
				<path class="st0" d="M124.51,71.06v2.22h-14.92V52.84c-0.05-0.5-0.13-0.89-0.23-1.16c-0.1-0.27-0.29-0.53-0.56-0.77
					c-0.18-0.18-0.44-0.37-0.77-0.57c-0.33-0.2-0.78-0.36-1.33-0.49l-0.02-0.75h17.84v2.41h-12.2v8.44h10.87v2.24h-10.87v8.88
					H124.51z"/>
			</g>
			<g>
				<path class="st0" d="M152.1,73.15h-2.01l-15-18.96v19.03h-2.14V51.91c-0.09-0.32-0.24-0.62-0.46-0.89
					c-0.19-0.22-0.48-0.43-0.85-0.64c-0.37-0.21-0.87-0.32-1.49-0.35v-0.89l4.88,0.02l14.98,18.59V49.17h2.09V73.15z"/>
			</g>
			<g>
				<path class="st0" d="M162.54,67.57c0.55,0.66,1.18,1.23,1.88,1.72c0.7,0.49,1.45,0.87,2.26,1.14c0.8,0.27,1.63,0.43,2.48,0.49
					c0.85,0.06,1.71-0.02,2.57-0.22c0.4-0.09,0.85-0.26,1.36-0.5c0.51-0.24,1.01-0.51,1.52-0.81c0.5-0.3,0.99-0.6,1.46-0.91
					c0.47-0.31,0.86-0.59,1.17-0.83v2.8c-1.11,0.93-2.33,1.64-3.66,2.14c-1.33,0.5-2.73,0.75-4.18,0.75
					c-1.08-0.01-2.12-0.16-3.11-0.45c-0.99-0.29-1.92-0.69-2.79-1.2c-0.87-0.51-1.66-1.12-2.36-1.83c-0.71-0.71-1.31-1.51-1.81-2.37
					c-0.5-0.87-0.89-1.8-1.17-2.8c-0.28-1-0.42-2.04-0.42-3.12c0-0.62,0.05-1.2,0.15-1.76c0.1-0.55,0.21-1.05,0.33-1.49
					c0.12-0.44,0.22-0.78,0.33-1.04c0.1-0.26,0.15-0.4,0.15-0.42c0.41-0.95,0.94-1.84,1.58-2.65c0.64-0.82,1.38-1.53,2.2-2.13
					c0.82-0.6,1.72-1.1,2.68-1.49c0.96-0.39,1.98-0.64,3.03-0.77c0.51-0.04,1.06-0.05,1.64-0.03c0.58,0.02,1.17,0.08,1.77,0.19
					c0.6,0.11,1.2,0.28,1.81,0.5c0.61,0.23,1.21,0.52,1.8,0.88c0.1-0.08,0.21-0.16,0.33-0.26c0.12-0.1,0.23-0.22,0.33-0.38
					c0.1-0.15,0.21-0.35,0.32-0.59c0.11-0.24,0.22-0.55,0.32-0.94h0.71v6.54h-0.29c-0.44-0.51-0.94-0.99-1.52-1.44
					c-0.57-0.44-1.18-0.82-1.82-1.14c-0.64-0.32-1.31-0.56-2.01-0.74c-0.69-0.18-1.4-0.27-2.1-0.27c-1.29,0-2.49,0.24-3.6,0.73
					c-1.11,0.49-2.07,1.18-2.89,2.07c-0.84,0.88-1.49,1.88-1.95,3c-0.46,1.13-0.69,2.33-0.69,3.62c0,1.12,0.19,2.2,0.57,3.23
					C161.31,65.83,161.85,66.76,162.54,67.57z"/>
			</g>
			<g>
				<path class="st0" d="M200.71,71.06v2.22h-14.92V52.84c-0.05-0.5-0.13-0.89-0.23-1.16c-0.1-0.27-0.29-0.53-0.56-0.77
					c-0.18-0.18-0.44-0.37-0.77-0.57c-0.34-0.2-0.78-0.36-1.33-0.49l-0.02-0.75h17.84v2.41h-12.2v8.44h10.87v2.24h-10.87v8.88
					H200.71z"/>
			</g>
			<g>
				<path class="st0" d="M219.18,52.05c-0.69-0.28-1.43-0.56-2.21-0.82c-0.78-0.26-1.55-0.45-2.33-0.56
					c-0.77-0.11-1.53-0.11-2.28,0.01c-0.75,0.12-1.44,0.41-2.07,0.89c-0.39,0.32-0.67,0.69-0.86,1.12
					c-0.19,0.42-0.28,0.89-0.28,1.39c0,0.67,0.13,1.24,0.41,1.7c0.27,0.46,0.62,0.91,1.04,1.33c0.67,0.49,1.36,0.92,2.07,1.29
					c0.71,0.37,1.42,0.74,2.13,1.1c0.71,0.36,1.4,0.74,2.07,1.14c0.66,0.4,1.28,0.86,1.86,1.39c0.51,0.5,0.93,1.06,1.25,1.68
					c0.32,0.62,0.53,1.26,0.65,1.92c0.12,0.66,0.12,1.34,0.03,2.02c-0.1,0.68-0.3,1.33-0.61,1.95c-0.33,0.72-0.8,1.32-1.41,1.8
					c-0.6,0.48-1.26,0.87-1.98,1.15c-0.71,0.28-1.46,0.49-2.25,0.61c-0.78,0.12-1.53,0.18-2.24,0.18c-0.99,0-1.95-0.07-2.88-0.22
					s-1.84-0.32-2.74-0.51v-2.37c1,0.45,2.01,0.82,3.02,1.1c1.01,0.28,2.05,0.42,3.12,0.42c0.76,0,1.44-0.09,2.05-0.27
					c0.6-0.18,1.12-0.45,1.54-0.81c0.87-0.8,1.31-1.9,1.31-3.32c0-0.64-0.14-1.25-0.42-1.81c-0.28-0.57-0.65-1.04-1.11-1.43
					c-0.66-0.45-1.34-0.86-2.05-1.24c-0.71-0.37-1.41-0.74-2.1-1.11c-0.69-0.37-1.36-0.75-2.01-1.16c-0.64-0.41-1.23-0.87-1.76-1.4
					c-1.21-1.21-1.81-2.63-1.81-4.27c0-1.88,0.68-3.32,2.03-4.32c0.48-0.37,1-0.67,1.57-0.9c0.57-0.23,1.17-0.39,1.8-0.5
					c0.62-0.11,1.27-0.17,1.93-0.18c0.66-0.01,1.31,0.01,1.95,0.06c0.64,0.05,1.26,0.13,1.87,0.22c0.61,0.1,1.17,0.2,1.69,0.32
					V52.05z"/>
			</g>
			<g>
				<path class="st0" d="M100.61,58.02c-0.28-1.02-0.68-1.98-1.19-2.88c-0.51-0.89-1.12-1.71-1.83-2.43
					c-0.71-0.73-1.51-1.35-2.38-1.88c-0.88-0.53-1.81-0.94-2.82-1.23c-1-0.29-2.05-0.43-3.15-0.43h-7.49h-0.1l-3.46,0.08v0.73
					c0.4,0.1,0.72,0.21,0.97,0.32c0.24,0.11,0.45,0.23,0.62,0.35c0.17,0.12,0.3,0.24,0.39,0.35c0.09,0.11,0.18,0.22,0.27,0.32
					c0.07,0.07,0.12,0.15,0.18,0.23h3.27h2.82h1.97c1.38,0,2.65,0.24,3.82,0.71c1.17,0.48,2.18,1.15,3.03,2.01
					c0.85,0.86,1.51,1.89,1.99,3.07c0.48,1.18,0.71,2.48,0.71,3.88c0,1.42-0.24,2.72-0.71,3.91c-0.48,1.19-1.14,2.21-1.99,3.07
					c-0.85,0.86-1.86,1.52-3.03,2.01c-1.17,0.48-2.45,0.72-3.82,0.72H83.9v-4.21V54.36h-2.8v18.96h8.15c1.09,0,2.14-0.14,3.15-0.43
					c1-0.29,1.94-0.7,2.82-1.23c0.87-0.53,1.67-1.16,2.38-1.89c0.71-0.73,1.33-1.55,1.83-2.45c0.51-0.9,0.9-1.87,1.19-2.9
					c0.28-1.03,0.42-2.1,0.42-3.2C101.04,60.11,100.9,59.04,100.61,58.02z"/>
			</g>
		</g>
		<g>
			<path class="st0" d="M2.39,95.62c0-2.65,1.97-4.44,4.51-4.44c1.73,0,2.81,0.89,3.44,1.92l-1.27,0.67
				c-0.41-0.72-1.25-1.25-2.16-1.25c-1.7,0-2.96,1.29-2.96,3.1c0,1.79,1.26,3.1,2.96,3.1c0.91,0,1.75-0.54,2.16-1.25l1.29,0.64
				c-0.66,1.03-1.73,1.94-3.45,1.94C4.36,100.06,2.39,98.26,2.39,95.62z"/>
			<path class="st0" d="M14.77,99.91v-8.59h1.51v8.59H14.77z"/>
			<path class="st0" d="M21.33,99.91v-8.59h4.22c1.58,0,2.45,0.98,2.45,2.19c0,1.07-0.7,1.8-1.49,1.97c0.93,0.14,1.66,1.06,1.66,2.1
				c0,1.34-0.88,2.33-2.5,2.33H21.33z M26.45,93.75c0-0.63-0.44-1.11-1.2-1.11h-2.42v2.22h2.42C26.02,94.86,26.45,94.41,26.45,93.75
				z M26.62,97.39c0-0.64-0.45-1.2-1.3-1.2h-2.49v2.4h2.49C26.13,98.58,26.62,98.13,26.62,97.39z"/>
			<path class="st0" d="M32.91,96.51v-5.19h1.53v5.15c0,1.37,0.76,2.25,2.19,2.25s2.19-0.89,2.19-2.25v-5.15h1.53v5.19
				c0,2.13-1.22,3.55-3.72,3.55C34.15,100.06,32.91,98.64,32.91,96.51z"/>
			<path class="st0" d="M45.41,99.91v-8.59h4.22c1.58,0,2.45,0.98,2.45,2.19c0,1.07-0.7,1.8-1.49,1.97c0.93,0.14,1.66,1.06,1.66,2.1
				c0,1.34-0.88,2.33-2.5,2.33H45.41z M50.53,93.75c0-0.63-0.44-1.11-1.2-1.11h-2.42v2.22h2.42C50.09,94.86,50.53,94.41,50.53,93.75
				z M50.7,97.39c0-0.64-0.45-1.2-1.3-1.2h-2.49v2.4h2.49C50.21,98.58,50.7,98.13,50.7,97.39z"/>
			<path class="st0" d="M56.99,96.51v-5.19h1.53v5.15c0,1.37,0.76,2.25,2.19,2.25s2.19-0.89,2.19-2.25v-5.15h1.53v5.19
				c0,2.13-1.22,3.55-3.72,3.55C58.22,100.06,56.99,98.64,56.99,96.51z"/>
			<path class="st0" d="M74.39,99.91L72.5,96.7h-1.51v3.21h-1.51v-8.59h3.77c1.7,0,2.82,1.09,2.82,2.69c0,1.52-1,2.36-2.05,2.52
				l2.11,3.37H74.39z M74.53,94c0-0.82-0.62-1.35-1.47-1.35h-2.07v2.73h2.07C73.91,95.38,74.53,94.84,74.53,94z"/>
		</g>
		<g>
			<g>
				<g>
					<path class="st0" d="M24.13,5.56h-7.79v24.85H9.51V5.56H0V1.73C0,0.77,0.77,0,1.73,0h24.13v3.84
						C25.85,4.79,25.08,5.56,24.13,5.56z"/>
				</g>
				<g>
					<path class="st0" d="M61.52,1.73v28.69H54.7v-12.6h-12.9v12.6h-6.82V0h5.1c0.95,0,1.73,0.77,1.73,1.73v10.53h12.9V0h5.1
						C60.74,0,61.52,0.77,61.52,1.73z"/>
				</g>
				<g>
					<path class="st0" d="M80.33,5.26v7h15.29v5.08H80.33v7.82h14.61c0.95,0,1.73,0.77,1.73,1.73v3.53H73.5V0h23.16v3.53
						c0,0.95-0.77,1.73-1.73,1.73H80.33z"/>
				</g>
				<g>
					<path class="st0" d="M152.88,0v30.41h-6.56v-20.2l-8.78,11.9h-0.7l-8.78-11.9v20.2h-6.56V0h5.32c0.56,0,1.08,0.27,1.41,0.73
						l8.96,12.61l8.96-12.61c0.32-0.46,0.85-0.73,1.41-0.73H152.88z"/>
				</g>
				<g>
					<path class="st0" d="M184.5,23.94h-12.6l-2.39,6.47h-7.13L174.55,0h6.09c0.7,0,1.34,0.43,1.6,1.08l11.77,29.33h-7.13
						L184.5,23.94z M182.63,18.81L178.2,6.82l-4.43,11.99H182.63z"/>
				</g>
				<g>
					<g>
						<path class="st0" d="M220.43,20.12c0,1.42-0.12,2.79-0.37,4.13c-0.25,1.33-0.72,2.51-1.41,3.54
							c-0.69,1.03-1.69,1.85-2.98,2.48s-2.98,0.93-5.06,0.93c-2.43,0-4.49-0.58-6.17-1.74c-1.22-0.84-2.12-2.02-2.72-3.55
							c-0.38-0.97,0.19-2.06,1.2-2.31l4.47-1.09c0.09,0.75,0.43,1.39,1.02,1.91c0.59,0.52,1.27,0.78,2.02,0.78
							c0.78,0,1.39-0.2,1.82-0.59c0.43-0.39,0.75-0.88,0.95-1.46c0.2-0.58,0.33-1.21,0.37-1.89c0.04-0.68,0.07-1.31,0.07-1.89V0
							h5.05c0.95,0,1.73,0.77,1.73,1.73V20.12z"/>
					</g>
				</g>
			</g>
		</g>
	</g>
</g>
</svg>
