<?xml version="1.0" encoding="utf-8"?>
<!-- Generator: Adobe Illustrator 23.0.1, SVG Export Plug-In . SVG Version: 6.00 Build 0)  -->
<svg version="1.1" id="Layer_1" xmlns="http://www.w3.org/2000/svg" xmlns:xlink="http://www.w3.org/1999/xlink" x="0px" y="0px"
	 viewBox="0 0 163.49 149.94" style="enable-background:new 0 0 163.49 149.94;" xml:space="preserve">
<style type="text/css">
	.st0{fill:#FFFFFF;}
	.st1{display:none;clip-path:url(#XMLID_55_);}
	.st2{display:inline;fill:#FFFFFF;}
	.st3{display:none;clip-path:url(#XMLID_56_);}
	.st4{display:none;clip-path:url(#XMLID_57_);}
	.st5{display:none;clip-path:url(#XMLID_58_);}
	.st6{display:none;clip-path:url(#XMLID_59_);}
	.st7{display:none;clip-path:url(#XMLID_60_);}
	.st8{display:none;clip-path:url(#XMLID_61_);}
	.st9{display:none;clip-path:url(#XMLID_62_);}
	.st10{display:none;clip-path:url(#XMLID_63_);}
	.st11{display:none;clip-path:url(#XMLID_64_);}
	.st12{display:none;clip-path:url(#XMLID_65_);}
	.st13{display:none;clip-path:url(#XMLID_66_);}
	.st14{display:none;}
	.st15{display:inline;}
	.st16{display:none;clip-path:url(#XMLID_67_);}
	.st17{display:none;clip-path:url(#XMLID_68_);}
	.st18{display:none;clip-path:url(#XMLID_69_);}
	.st19{display:none;clip-path:url(#XMLID_70_);}
	.st20{display:none;clip-path:url(#XMLID_71_);}
	.st21{opacity:0.8;}
</style>
<g>
	<g>
		<g>
			<path class="st0" d="M17.89,104.71h-5.78v18.43H7.06v-18.43H0v-2.85c0-0.71,0.57-1.28,1.28-1.28h17.89v2.85
				C19.17,104.13,18.6,104.71,17.89,104.71z"/>
			<path class="st0" d="M45.63,101.86v21.28h-5.06v-9.35H31v9.35h-5.06v-22.56h3.78c0.71,0,1.28,0.57,1.28,1.28v7.81h9.57v-9.09
				h3.78C45.05,100.58,45.63,101.16,45.63,101.86z"/>
			<path class="st0" d="M59.58,104.48v5.19h11.34v3.77H59.58v5.8h10.84c0.71,0,1.28,0.57,1.28,1.28v2.62H54.52v-22.56h17.18v2.62
				c0,0.71-0.57,1.28-1.28,1.28H59.58z"/>
			<path class="st0" d="M113.39,100.58v22.56h-4.87v-14.98l-6.51,8.83h-0.52l-6.51-8.83v14.98h-4.87v-22.56h3.95
				c0.41,0,0.8,0.2,1.04,0.54l6.64,9.35l6.64-9.35c0.24-0.34,0.63-0.54,1.04-0.54H113.39z"/>
			<path class="st0" d="M136.84,118.34h-9.35l-1.77,4.8h-5.28l9.02-22.56h4.52c0.52,0,0.99,0.32,1.19,0.8l8.73,21.75h-5.28
				L136.84,118.34z M135.46,114.54l-3.29-8.89l-3.29,8.89H135.46z"/>
			<g>
				<path class="st0" d="M163.49,115.5c0,1.05-0.09,2.07-0.27,3.06c-0.18,0.99-0.53,1.86-1.05,2.63c-0.52,0.76-1.25,1.37-2.21,1.84
					c-0.96,0.46-2.21,0.69-3.75,0.69c-1.8,0-3.33-0.43-4.58-1.29c-0.9-0.62-1.57-1.5-2.02-2.63c-0.28-0.72,0.14-1.53,0.89-1.71
					l3.31-0.81c0.06,0.56,0.32,1.03,0.76,1.42c0.44,0.39,0.94,0.58,1.5,0.58c0.58,0,1.03-0.15,1.35-0.43
					c0.32-0.29,0.56-0.65,0.71-1.08c0.15-0.43,0.24-0.9,0.27-1.4c0.03-0.5,0.05-0.97,0.05-1.4v-14.37h3.75
					c0.71,0,1.28,0.57,1.28,1.28V115.5z"/>
			</g>
		</g>
	</g>
	<g>
		<g>
			<path class="st0" d="M107.65,37.95c0-0.11-0.02-0.22-0.07-0.32c-2.32-5.14-6.76-8.92-12-10.49c-0.84-0.25-1.7-0.44-2.57-0.58
				c-1.15-6.06-5.19-11.31-10.94-13.91c-0.2-0.09-0.43-0.09-0.64,0c-5.76,2.6-9.79,7.85-10.94,13.91c-0.88,0.13-1.74,0.33-2.58,0.58
				c-5.24,1.57-9.67,5.35-12,10.49c-0.05,0.1-0.07,0.21-0.07,0.32c0,0.11,0.02,0.22,0.07,0.32c2.32,5.14,6.76,8.92,12,10.49
				c0.84,0.25,1.7,0.44,2.58,0.58c1.15,6.06,5.19,11.31,10.94,13.91c0.1,0.05,0.21,0.07,0.32,0.07c0.11,0,0.22-0.02,0.32-0.07
				c5.76-2.6,9.79-7.85,10.94-13.91c0.87-0.13,1.74-0.32,2.57-0.58c5.24-1.57,9.67-5.35,12-10.49
				C107.62,38.17,107.65,38.06,107.65,37.95z M81.75,14.21c4.98,2.37,8.52,6.92,9.66,12.18c-0.43-0.03-0.86-0.05-1.29-0.05
				c-0.47,0-0.94,0.02-1.4,0.05c-2.44,0.18-4.79,0.84-6.93,1.88c-0.03,0-0.06,0-0.09,0c-2.55-1.24-5.39-1.93-8.33-1.93
				c-0.43,0-0.86,0.02-1.29,0.05C73.23,21.13,76.76,16.58,81.75,14.21z M91.81,30.11c0,2.1-0.38,4.14-1.08,6.05
				c-0.86-1.47-1.91-2.83-3.13-4.03c-0.01-0.01-0.01-0.01-0.01-0.02c-0.01-0.01-0.02-0.01-0.03-0.02c-1.16-1.13-2.48-2.13-3.92-2.95
				c0.51-0.2,1.02-0.39,1.55-0.55c1.58-0.46,3.24-0.71,4.94-0.71c0.52,0,1.03,0.03,1.55,0.08C91.76,28.67,91.81,29.39,91.81,30.11z
				 M91.67,47.94c-0.51,0.05-1.03,0.08-1.55,0.08c-1.7,0-3.36-0.25-4.94-0.71c-0.53-0.15-1.04-0.34-1.55-0.55
				c1.44-0.82,2.76-1.81,3.92-2.95c0.01-0.01,0.02-0.01,0.03-0.02c0.01-0.01,0.01-0.01,0.01-0.02c1.22-1.2,2.27-2.56,3.13-4.03
				c0.7,1.91,1.08,3.95,1.08,6.05C91.81,46.52,91.76,47.23,91.67,47.94z M71.68,45.79c0-2.1,0.38-4.14,1.08-6.05
				c0.86,1.47,1.91,2.83,3.13,4.03c0.01,0.01,0.01,0.02,0.02,0.02c0.01,0.01,0.02,0.01,0.04,0.02c1.16,1.13,2.47,2.12,3.92,2.94
				c-2.03,0.81-4.23,1.26-6.49,1.26c-0.52,0-1.03-0.03-1.55-0.08C71.74,47.23,71.68,46.52,71.68,45.79z M71.82,27.96
				c0.51-0.05,1.03-0.08,1.55-0.08c2.26,0,4.45,0.45,6.49,1.26c-2.98,1.69-5.41,4.13-7.09,7.02c-0.7-1.91-1.08-3.95-1.08-6.05
				C71.68,29.39,71.74,28.67,71.82,27.96z M87.3,34.75c0.05,0.06,0.09,0.13,0.14,0.2c0.7,0.93,1.31,1.93,1.82,3
				c-0.68,1.43-1.54,2.73-2.54,3.89l-3.89-3.89l3.89-3.89c0.16,0.19,0.32,0.37,0.47,0.57C87.23,34.67,87.27,34.71,87.3,34.75z
				 M81.74,30.02c1.44,0.78,2.76,1.76,3.93,2.9l-3.93,3.93l-3.93-3.93C78.98,31.78,80.31,30.8,81.74,30.02z M76.76,34.06l3.89,3.89
				l-3.89,3.89c-1-1.17-1.86-2.47-2.54-3.89C74.9,36.53,75.76,35.23,76.76,34.06z M81.74,39.04l3.93,3.93
				c-1.17,1.15-2.5,2.12-3.93,2.9c-1.44-0.78-2.76-1.76-3.93-2.9L81.74,39.04z M68.43,47.31c-4.74-1.39-8.78-4.76-10.96-9.35
				c2.19-4.59,6.22-7.96,10.96-9.35c0.59-0.17,1.2-0.31,1.82-0.42c-0.07,0.64-0.11,1.28-0.11,1.93c0,2.75,0.6,5.41,1.69,7.84
				c-1.09,2.42-1.69,5.09-1.69,7.84c0,0.65,0.05,1.3,0.11,1.93C69.63,47.61,69.03,47.48,68.43,47.31z M81.75,61.69
				c-4.98-2.37-8.52-6.92-9.66-12.18c0.43,0.03,0.85,0.05,1.29,0.05c2.94,0,5.78-0.69,8.33-1.93c0.01,0,0.03,0.01,0.03,0.01
				c0.03,0,0.04-0.01,0.06-0.01c2.15,1.04,4.49,1.7,6.93,1.88c0.46,0.03,0.93,0.05,1.4,0.05c0.43,0,0.86-0.02,1.29-0.05
				C90.26,54.78,86.73,59.32,81.75,61.69z M93.24,47.72c0.07-0.64,0.11-1.28,0.11-1.93c0-2.75-0.6-5.41-1.69-7.84
				c1.09-2.42,1.69-5.09,1.69-7.84c0-0.65-0.05-1.3-0.11-1.93c0.61,0.11,1.22,0.24,1.82,0.42c4.74,1.39,8.78,4.76,10.96,9.35
				c-2.19,4.59-6.22,7.96-10.96,9.35C94.47,47.48,93.86,47.61,93.24,47.72z"/>
			<path class="st0" d="M52.51,37.95l5.65-8.49c0.08-0.13,0.13-0.28,0.13-0.43v-5.87c0-0.43-0.34-0.77-0.77-0.77
				s-0.77,0.34-0.77,0.77v5.63l-5.81,8.72l0,0c-0.06,0.09-0.1,0.18-0.11,0.28c-0.01,0.05,0,0.1,0,0.15c0,0.05-0.01,0.1,0,0.15
				c0.02,0.1,0.06,0.19,0.11,0.28l0,0l5.81,8.72v5.63c0,0.43,0.34,0.77,0.77,0.77s0.77-0.34,0.77-0.77v-5.87
				c0-0.15-0.05-0.3-0.13-0.43L52.51,37.95z"/>
			<path class="st0" d="M112.66,37.95c0-0.05,0.01-0.1,0-0.15c-0.02-0.1-0.06-0.19-0.11-0.28l0,0l-5.81-8.72v-5.63
				c0-0.43-0.34-0.77-0.77-0.77s-0.77,0.34-0.77,0.77v5.87c0,0.15,0.05,0.3,0.13,0.43l5.65,8.49l-5.65,8.49
				c-0.08,0.13-0.13,0.28-0.13,0.43v5.87c0,0.43,0.34,0.77,0.77,0.77s0.77-0.34,0.77-0.77V47.1l5.81-8.72l0,0
				c0.06-0.09,0.09-0.18,0.11-0.28C112.67,38.05,112.66,38,112.66,37.95z"/>
			<path class="st0" d="M66.96,14.5h5.87c0.15,0,0.3-0.05,0.43-0.13l8.49-5.65l8.49,5.65c0.13,0.08,0.28,0.13,0.43,0.13h5.87
				c0.43,0,0.77-0.34,0.77-0.77s-0.34-0.77-0.77-0.77h-5.63l-8.72-5.8c-0.09-0.06-0.18-0.1-0.28-0.11c-0.01,0-0.03,0-0.04,0
				c-0.09-0.01-0.17-0.02-0.26,0c-0.1,0.02-0.19,0.06-0.27,0.11l0,0l-8.72,5.81h-5.63c-0.43,0-0.77,0.34-0.77,0.77
				S66.54,14.5,66.96,14.5z"/>
			<path class="st0" d="M96.52,61.41h-5.87c-0.15,0-0.3,0.05-0.43,0.13l-8.49,5.65l-8.49-5.65c-0.13-0.08-0.28-0.13-0.43-0.13h-5.87
				c-0.43,0-0.77,0.34-0.77,0.77s0.34,0.77,0.77,0.77h5.63l8.72,5.81c0.01,0.01,0.02,0,0.03,0.01c0.12,0.07,0.25,0.12,0.39,0.12
				s0.27-0.05,0.39-0.12c0.01-0.01,0.02,0,0.03-0.01l8.72-5.81h5.63c0.43,0,0.77-0.34,0.77-0.77S96.95,61.41,96.52,61.41z"/>
			<path class="st0" d="M81.75,3.73c-18.87,0-34.22,15.35-34.22,34.22c0,18.87,15.35,34.22,34.22,34.22
				c18.87,0,34.22-15.35,34.22-34.22C115.97,19.08,100.62,3.73,81.75,3.73z M81.75,70.63c-18.02,0-32.68-14.66-32.68-32.68
				S63.72,5.27,81.75,5.27s32.68,14.66,32.68,32.68S99.77,70.63,81.75,70.63z"/>
			<g>
				<path class="st0" d="M61.85,51.63c0.65,1.01,2.08,0.89,2.63,0.15c0.24-0.32,0.31-0.9,0.21-1.35c-0.12-0.53-0.25-0.89-0.69-1.13
					c-0.92-0.49-2.47-0.29-3.34,0.39c-0.48,0.38-0.7,0.84-0.71,1.48c0.56-0.62,1.5-1.41,2.79-0.77
					C62.39,50.28,61.46,50.7,61.85,51.63z"/>
				<path class="st0" d="M68.53,59.75c0.64,0,1.1-0.22,1.48-0.71c0.68-0.86,0.88-2.42,0.39-3.34c-0.24-0.45-0.6-0.57-1.13-0.69
					c-0.45-0.1-1.02-0.03-1.35,0.21c-0.74,0.55-0.86,1.98,0.15,2.63c0.93,0.39,1.35-0.55,1.24-0.89
					C69.94,58.25,69.14,59.19,68.53,59.75z"/>
				<path class="st0" d="M68.83,58.39c-1.07-0.02-1.7-0.46-1.89-1.42c-0.18-0.89-0.06-1.7,0.65-2.21c-0.53-0.24-0.79-0.44-1.55-1.11
					c-0.77-0.76-0.86-1.1-1.11-1.55c-0.51,0.71-1.33,0.83-2.21,0.65c-0.95-0.19-1.4-0.83-1.42-1.89c-0.73,0.13-1.43,1.29-0.99,2.31
					c0.39,0.64,0.66,0.52,0.47,0.16c-0.3-0.56,0.32-0.99,0.73-0.56c0.61,0.55-0.44,1.98-1.15,1.41c-0.38-0.3-0.75-0.13-0.6,0.49
					c0.08,0.34,0.53,0.53,1,0.45c0.31-0.06,0.41-0.12,0.72-0.35c0.18-0.17,0.22-0.4,0.26-0.38c0.09,0.36-0.02,0.88-0.25,1.26
					c-0.36,0.58-1.26,0.53-1.69,0c-0.12-0.27-0.53,0.11-0.36,0.51c0.17,0.4,0.57,0.4,0.67,0.45c-0.14,0.45-0.56,0.78-0.6,1.19
					c-0.04,0.46,0.32,1,0.3,1.47c-0.01,0.23,0.05,0.36,0.17,0.43c0.07,0.12,0.2,0.18,0.43,0.17c0.47-0.01,1.01,0.35,1.47,0.3
					c0.41-0.04,0.74-0.46,1.19-0.6c0.06,0.1,0.05,0.5,0.45,0.67c0.4,0.17,0.78-0.25,0.51-0.36c-0.53-0.43-0.58-1.34,0-1.69
					c0.38-0.23,0.9-0.34,1.26-0.25c0.02,0.04-0.2,0.08-0.38,0.26c-0.23,0.31-0.3,0.41-0.35,0.72c-0.09,0.46,0.1,0.92,0.45,1
					c0.62,0.14,0.78-0.23,0.49-0.6c-0.56-0.71,0.86-1.76,1.41-1.16c0.43,0.42,0,1.03-0.56,0.73c-0.36-0.19-0.48,0.08,0.16,0.47
					C67.54,59.83,68.7,59.12,68.83,58.39z"/>
				<path class="st0" d="M101.64,24.27c-0.65-1.01-2.08-0.89-2.63-0.15c-0.24,0.32-0.31,0.9-0.21,1.35
					c0.12,0.53,0.25,0.89,0.69,1.13c0.92,0.49,2.47,0.29,3.34-0.39c0.48-0.38,0.7-0.84,0.71-1.48c-0.56,0.62-1.5,1.41-2.79,0.77
					C101.1,25.62,102.03,25.2,101.64,24.27z"/>
				<path class="st0" d="M94.96,16.16c-0.64,0-1.1,0.22-1.48,0.71c-0.68,0.87-0.88,2.42-0.39,3.34c0.24,0.45,0.6,0.57,1.13,0.69
					c0.45,0.1,1.02,0.03,1.35-0.21c0.74-0.55,0.86-1.98-0.15-2.63c-0.93-0.39-1.35,0.55-1.24,0.89
					C93.55,17.65,94.35,16.71,94.96,16.16z"/>
				<path class="st0" d="M94.66,17.51c1.07,0.02,1.7,0.46,1.89,1.42c0.18,0.89,0.06,1.7-0.65,2.21c0.53,0.24,0.79,0.44,1.55,1.11
					c0.77,0.76,0.86,1.1,1.11,1.55c0.51-0.71,1.33-0.83,2.21-0.65c0.95,0.19,1.4,0.83,1.42,1.89c0.73-0.13,1.43-1.29,0.99-2.31
					c-0.39-0.64-0.66-0.52-0.47-0.16c0.3,0.56-0.32,0.99-0.73,0.56c-0.61-0.55,0.44-1.98,1.15-1.41c0.38,0.3,0.75,0.13,0.6-0.49
					c-0.08-0.34-0.53-0.53-1-0.45c-0.31,0.06-0.41,0.12-0.72,0.35c-0.18,0.17-0.22,0.4-0.26,0.38c-0.09-0.36,0.02-0.88,0.25-1.26
					c0.36-0.58,1.26-0.53,1.69,0c0.12,0.27,0.53-0.11,0.36-0.51c-0.17-0.4-0.57-0.4-0.67-0.45c0.14-0.45,0.56-0.78,0.6-1.19
					c0.04-0.46-0.32-1-0.3-1.47c0.01-0.23-0.05-0.36-0.17-0.43c-0.07-0.12-0.2-0.18-0.43-0.17c-0.47,0.01-1.01-0.35-1.47-0.3
					c-0.41,0.04-0.74,0.46-1.19,0.6c-0.06-0.1-0.05-0.5-0.45-0.67c-0.4-0.17-0.78,0.25-0.51,0.36c0.53,0.43,0.58,1.34,0,1.69
					c-0.38,0.23-0.9,0.34-1.26,0.25c-0.02-0.04,0.2-0.08,0.38-0.26c0.23-0.31,0.3-0.41,0.35-0.72c0.09-0.46-0.1-0.92-0.45-1
					c-0.62-0.14-0.78,0.23-0.49,0.6c0.56,0.71-0.86,1.76-1.41,1.16c-0.43-0.42,0-1.03,0.56-0.73c0.36,0.19,0.48-0.08-0.16-0.47
					C95.95,16.07,94.79,16.78,94.66,17.51z"/>
				<path class="st0" d="M68.06,18.05c-1.01,0.65-0.89,2.08-0.15,2.63c0.32,0.24,0.9,0.31,1.35,0.21c0.53-0.12,0.89-0.25,1.13-0.69
					c0.49-0.92,0.29-2.47-0.39-3.34c-0.38-0.48-0.84-0.7-1.48-0.71c0.62,0.56,1.41,1.5,0.77,2.79
					C69.42,18.6,68.99,17.67,68.06,18.05z"/>
				<path class="st0" d="M59.95,24.73c0,0.64,0.22,1.1,0.71,1.48c0.87,0.68,2.42,0.88,3.34,0.39c0.45-0.24,0.57-0.6,0.69-1.13
					c0.1-0.45,0.03-1.02-0.21-1.35c-0.55-0.74-1.98-0.86-2.63,0.15c-0.39,0.93,0.55,1.35,0.89,1.24
					C61.45,26.15,60.5,25.35,59.95,24.73z"/>
				<path class="st0" d="M59.8,20.25c0.43-0.53,1.34-0.58,1.69,0c0.23,0.38,0.34,0.9,0.25,1.26c-0.04,0.02-0.08-0.2-0.26-0.38
					c-0.31-0.23-0.41-0.3-0.72-0.35c-0.46-0.09-0.92,0.1-1,0.45c-0.14,0.62,0.23,0.78,0.6,0.49c0.71-0.56,1.76,0.86,1.16,1.41
					c-0.42,0.43-1.03,0-0.73-0.56c0.19-0.36-0.08-0.48-0.47,0.16c-0.45,1.02,0.26,2.18,0.99,2.31c0.02-1.07,0.46-1.7,1.42-1.89
					c0.89-0.18,1.7-0.06,2.21,0.65c0.24-0.53,0.44-0.79,1.11-1.55c0.76-0.77,1.1-0.86,1.55-1.11c-0.71-0.51-0.83-1.33-0.65-2.21
					c0.19-0.95,0.83-1.4,1.89-1.42c-0.13-0.73-1.29-1.43-2.31-0.99C65.88,16.92,66,17.18,66.36,17c0.56-0.3,0.99,0.32,0.56,0.73
					c-0.55,0.61-1.98-0.44-1.41-1.15c0.3-0.38,0.13-0.75-0.49-0.6c-0.34,0.08-0.53,0.53-0.45,1c0.06,0.31,0.12,0.41,0.35,0.72
					c0.17,0.18,0.4,0.22,0.38,0.26c-0.36,0.09-0.88-0.02-1.26-0.25c-0.58-0.36-0.53-1.26,0-1.69c0.27-0.12-0.11-0.53-0.51-0.36
					c-0.4,0.17-0.4,0.57-0.45,0.67c-0.45-0.14-0.78-0.56-1.19-0.6c-0.46-0.04-1,0.32-1.47,0.3c-0.23-0.01-0.36,0.05-0.43,0.17
					c-0.12,0.07-0.18,0.2-0.17,0.43c0.01,0.47-0.35,1.01-0.3,1.47c0.04,0.41,0.46,0.74,0.6,1.19c-0.1,0.06-0.5,0.05-0.67,0.45
					C59.27,20.14,59.68,20.51,59.8,20.25z"/>
				<path class="st0" d="M95.43,57.85c1.01-0.65,0.89-2.08,0.15-2.63c-0.32-0.24-0.9-0.31-1.35-0.21c-0.53,0.12-0.89,0.25-1.13,0.69
					c-0.49,0.92-0.29,2.47,0.39,3.34c0.38,0.48,0.84,0.7,1.48,0.71c-0.62-0.56-1.41-1.5-0.77-2.79
					C94.07,57.31,94.5,58.24,95.43,57.85z"/>
				<path class="st0" d="M103.54,51.17c0-0.64-0.22-1.1-0.71-1.48c-0.87-0.68-2.42-0.88-3.34-0.39c-0.45,0.24-0.57,0.6-0.69,1.13
					c-0.1,0.45-0.03,1.02,0.21,1.35c0.55,0.74,1.98,0.86,2.63-0.15c0.39-0.93-0.55-1.35-0.89-1.24
					C102.04,49.76,102.99,50.55,103.54,51.17z"/>
				<path class="st0" d="M103.69,55.66c-0.43,0.53-1.34,0.58-1.69,0c-0.23-0.38-0.34-0.9-0.25-1.26c0.04-0.02,0.08,0.2,0.26,0.38
					c0.31,0.23,0.41,0.3,0.72,0.35c0.46,0.09,0.92-0.1,1-0.45c0.14-0.62-0.23-0.78-0.6-0.49c-0.71,0.56-1.76-0.86-1.16-1.41
					c0.42-0.43,1.03,0,0.73,0.56c-0.19,0.36,0.08,0.48,0.47-0.16c0.45-1.02-0.26-2.18-0.99-2.31c-0.02,1.07-0.46,1.7-1.42,1.89
					c-0.89,0.18-1.7,0.06-2.21-0.65c-0.24,0.53-0.44,0.79-1.11,1.55c-0.76,0.77-1.1,0.86-1.55,1.11c0.71,0.51,0.83,1.33,0.65,2.21
					c-0.19,0.95-0.83,1.4-1.89,1.42c0.13,0.73,1.29,1.43,2.31,0.99c0.64-0.39,0.52-0.66,0.16-0.47c-0.56,0.3-0.99-0.32-0.56-0.73
					c0.55-0.61,1.98,0.44,1.41,1.15c-0.3,0.38-0.13,0.75,0.49,0.6c0.34-0.08,0.53-0.53,0.45-1c-0.06-0.31-0.12-0.41-0.35-0.72
					c-0.17-0.18-0.4-0.22-0.38-0.26c0.36-0.09,0.88,0.02,1.26,0.25c0.58,0.36,0.53,1.26,0,1.69c-0.27,0.12,0.11,0.53,0.51,0.36
					c0.4-0.17,0.4-0.57,0.45-0.67c0.45,0.14,0.78,0.56,1.19,0.6c0.46,0.04,1-0.32,1.47-0.3c0.23,0.01,0.36-0.05,0.43-0.17
					c0.12-0.07,0.18-0.2,0.17-0.43c-0.01-0.47,0.35-1.01,0.3-1.47c-0.04-0.41-0.46-0.74-0.6-1.19c0.1-0.06,0.5-0.05,0.67-0.45
					C104.22,55.77,103.81,55.39,103.69,55.66z"/>
			</g>
			<path class="st0" d="M81.74,25.72c0.43,0,0.77-0.34,0.77-0.77v-8.07c0-0.43-0.34-0.77-0.77-0.77s-0.77,0.34-0.77,0.77v8.07
				C80.97,25.38,81.32,25.72,81.74,25.72z"/>
			<path class="st0" d="M81.74,50.18c-0.43,0-0.77,0.34-0.77,0.77v8.07c0,0.43,0.34,0.77,0.77,0.77s0.77-0.34,0.77-0.77v-8.07
				C82.52,50.53,82.17,50.18,81.74,50.18z"/>
			<path class="st0" d="M103.59,37.95c0-0.43-0.34-0.77-0.77-0.77h-8.07c-0.43,0-0.77,0.34-0.77,0.77s0.34,0.77,0.77,0.77h8.07
				C103.24,38.72,103.59,38.38,103.59,37.95z"/>
			<path class="st0" d="M68.75,37.18h-8.07c-0.43,0-0.77,0.34-0.77,0.77s0.34,0.77,0.77,0.77h8.07c0.43,0,0.77-0.34,0.77-0.77
				S69.17,37.18,68.75,37.18z"/>
			<path class="st0" d="M81.75,0C60.82,0,43.79,17.03,43.79,37.95S60.82,75.9,81.75,75.9s37.95-17.03,37.95-37.95S102.67,0,81.75,0z
				 M81.75,74.36c-20.08,0-36.41-16.33-36.41-36.41S61.67,1.54,81.75,1.54s36.41,16.33,36.41,36.41S101.82,74.36,81.75,74.36z"/>
		</g>
	</g>
	<g>
		<path class="st0" d="M43.24,140.96v8.72h-1.32l-5.03-6.05h-0.01v6.05h-1.5v-8.72h1.32l5.03,6.05h0.01v-6.05H43.24z"/>
		<path class="st0" d="M56.55,140.96v5.62c0,2.15-1.66,3.37-3.87,3.37c-2.2,0-3.86-1.22-3.86-3.37v-5.62h1.5v5.62
			c0,1.31,1.04,2.03,2.36,2.03c1.34,0,2.38-0.72,2.38-2.03v-5.62H56.55z"/>
		<path class="st0" d="M68.3,143c-0.48-0.44-1.56-1.01-3.17-1.01c-1.04,0-1.96,0.33-1.96,1.26c0,0.95,1.3,0.99,2.62,1.08
			c1.56,0.11,4.02,0.27,4.02,2.7c0,2.11-1.76,2.92-3.85,2.92c-2.3,0-3.79-0.95-4.77-1.83l0.91-1.04c0.71,0.64,1.94,1.58,3.89,1.58
			c1.3,0,2.32-0.44,2.32-1.43c0-1.1-1-1.32-2.52-1.44c-1.92-0.13-4.11-0.29-4.11-2.4c0-2.07,1.91-2.68,3.51-2.68
			c1.84,0,3.33,0.72,4.02,1.27L68.3,143z"/>
		<path class="st0" d="M77.55,140.96h1.36l4.05,8.72h-1.64l-1.05-2.35h-4.15l-1.04,2.35h-1.56L77.55,140.96z M76.64,146.12h3.09
			l-1.5-3.38h-0.08L76.64,146.12z"/>
		<path class="st0" d="M93.27,149.68v-8.72h4.18c1.58,0,2.46,0.44,3.2,1.16c0.77,0.8,1.19,1.92,1.19,3.19c0,1.31-0.45,2.5-1.28,3.3
			c-0.75,0.67-1.54,1.07-3.11,1.07H93.27z M97.38,148.34c1.11,0,1.48-0.25,2-0.68c0.56-0.56,0.89-1.42,0.89-2.35
			c0-0.91-0.29-1.72-0.84-2.28c-0.49-0.45-0.96-0.73-2.06-0.73h-2.62v6.05H97.38z"/>
		<path class="st0" d="M114.45,140.96v5.62c0,2.15-1.66,3.37-3.87,3.37c-2.2,0-3.86-1.22-3.86-3.37v-5.62h1.5v5.62
			c0,1.31,1.04,2.03,2.36,2.03c1.34,0,2.38-0.72,2.38-2.03v-5.62H114.45z"/>
		<path class="st0" d="M122.71,140.96h1.36l4.05,8.72h-1.64l-1.05-2.35h-4.15l-1.04,2.35h-1.56L122.71,140.96z M121.8,146.12h3.09
			l-1.5-3.38h-0.08L121.8,146.12z"/>
	</g>
</g>
</svg>
