<svg width="1254" height="110" viewBox="0 0 1254 110" fill="none" xmlns="http://www.w3.org/2000/svg">
<line y1="78.5" x2="534" y2="78.5" stroke="white"/>
<line x1="738" y1="79" x2="1254" y2="79" stroke="white"/>
<path fill-rule="evenodd" clip-rule="evenodd" d="M620.135 103.936C619.578 103.381 618.636 103.047 617.857 103.047C616.428 103.047 615.425 104.179 615.425 105.542C615.425 106.813 616.296 108.025 617.967 108.025C618.657 108.025 619.467 107.823 619.913 107.49V106.167H617.836V105.158H620.946V108.045C620.115 108.651 618.94 109.034 617.897 109.034C615.8 109.034 614.24 107.469 614.24 105.532C614.24 103.593 615.82 102.038 617.846 102.038C618.899 102.038 620.024 102.462 620.925 103.229L620.135 103.936Z" fill="#FEFEFE"/>
<path fill-rule="evenodd" clip-rule="evenodd" d="M626.191 103.25V105.289H628.906C629.503 105.289 630.01 104.825 630.01 104.259C630.01 104.007 629.909 103.785 629.736 103.603C629.422 103.28 629.057 103.25 628.703 103.25H626.191ZM625.057 108.831V102.238H628.703C629.584 102.238 630.192 102.481 630.618 102.935C630.952 103.288 631.144 103.753 631.144 104.258C631.144 105.146 630.557 105.822 629.686 106.145L631.266 108.831H629.959L628.541 106.297H626.191V108.831H625.057Z" fill="#FEFEFE"/>
<path fill-rule="evenodd" clip-rule="evenodd" d="M638.194 108.023C639.623 108.023 640.747 106.892 640.747 105.519C640.747 104.156 639.623 103.045 638.194 103.045C636.776 103.045 635.672 104.156 635.672 105.519C635.672 106.892 636.776 108.023 638.194 108.023M638.196 102.036C640.282 102.036 641.944 103.591 641.944 105.519C641.944 107.478 640.282 109.032 638.196 109.032C636.109 109.032 634.479 107.478 634.479 105.519C634.479 103.591 636.109 102.036 638.196 102.036" fill="#FEFEFE"/>
<path fill-rule="evenodd" clip-rule="evenodd" d="M651.441 102.238V106.489C651.441 108.114 650.185 109.033 648.503 109.033C646.831 109.033 645.576 108.114 645.576 106.489V102.238H646.71V106.489C646.71 107.478 647.5 108.024 648.503 108.024C649.516 108.024 650.306 107.478 650.306 106.489V102.238H651.441Z" fill="#FEFEFE"/>
<path fill-rule="evenodd" clip-rule="evenodd" d="M656.807 103.25V105.289H659.319C659.603 105.289 659.997 105.268 660.321 104.966C660.514 104.785 660.626 104.532 660.626 104.269C660.626 104.007 660.524 103.785 660.352 103.603C660.048 103.28 659.643 103.25 659.319 103.25H656.807ZM655.674 108.831V102.238H659.32C660.252 102.238 660.829 102.501 661.235 102.935C661.589 103.318 661.761 103.773 661.761 104.258C661.761 104.823 661.528 105.318 661.153 105.681C660.758 106.055 660.201 106.297 659.32 106.297H656.808V108.831H655.674Z" fill="#FEFEFE"/>
<path fill-rule="evenodd" clip-rule="evenodd" d="M589.572 74.8372H585.19V88.7714H581.353V74.8372H576V72.6864C576 72.1521 576.434 71.7188 576.97 71.7188H590.542V73.8696C590.542 74.4039 590.108 74.8372 589.572 74.8372" fill="#FEFEFE"/>
<path fill-rule="evenodd" clip-rule="evenodd" d="M610.608 72.6864V88.7714H606.771V81.7071H599.512V88.7714H595.674V71.7188H598.541C599.077 71.7188 599.512 72.1521 599.512 72.6864V78.5886H606.771V71.7188H609.637C610.173 71.7188 610.608 72.1521 610.608 72.6864" fill="#FEFEFE"/>
<path fill-rule="evenodd" clip-rule="evenodd" d="M621.189 74.6672V78.5896H629.792V81.4399H621.189V85.8249H629.407C629.943 85.8249 630.378 86.2576 630.378 86.7918V88.7724H617.352V71.7197H630.378V73.6996C630.378 74.2338 629.943 74.6672 629.407 74.6672H621.189Z" fill="#FEFEFE"/>
<path fill-rule="evenodd" clip-rule="evenodd" d="M662 71.7188V88.7714H658.309V77.4434L653.372 84.1182H652.981L648.044 77.4434V88.7714H644.354V71.7188H647.347C647.662 71.7188 647.957 71.8708 648.139 72.1258L653.177 79.1974L658.214 72.1258C658.397 71.8708 658.691 71.7188 659.006 71.7188H662Z" fill="#FEFEFE"/>
<path fill-rule="evenodd" clip-rule="evenodd" d="M678.74 82.2682L676.247 75.5445L673.754 82.2682H678.74ZM679.79 85.1414H672.702L671.358 88.7714H667.35L674.193 71.7188H677.619C678.015 71.7188 678.372 71.9592 678.519 72.3253L685.142 88.7714H681.135L679.79 85.1414Z" fill="#FEFEFE"/>
<mask id="mask0" mask-type="alpha" maskUnits="userSpaceOnUse" x="689" y="71" width="11" height="19">
<path fill-rule="evenodd" clip-rule="evenodd" d="M689.412 71.7188H700V89.2099H689.412V71.7188Z" fill="white"/>
</mask>
<g mask="url(#mask0)">
<path fill-rule="evenodd" clip-rule="evenodd" d="M700 82.9985C700 83.7944 699.931 84.5655 699.792 85.3124C699.654 86.0593 699.389 86.7214 698.998 87.2981C698.608 87.874 698.049 88.3373 697.324 88.6859C696.599 89.0353 695.65 89.2099 694.477 89.2099C693.108 89.2099 691.951 88.8847 691.007 88.2357C690.322 87.7643 689.812 87.1022 689.479 86.2471C689.265 85.7019 689.584 85.0909 690.155 84.9513L692.668 84.3382C692.717 84.7606 692.909 85.1172 693.243 85.4096C693.577 85.7026 693.955 85.8481 694.38 85.8481C694.82 85.8481 695.161 85.7392 695.406 85.5199C695.65 85.2999 695.83 85.0288 695.943 84.7036C696.057 84.3791 696.126 84.0254 696.151 83.6439C696.175 83.2624 696.188 82.9094 696.188 82.5841V71.7188H699.03C699.566 71.7188 700 72.1514 700 72.6864V82.9985Z" fill="#FEFEFE"/>
</g>
<path fill-rule="evenodd" clip-rule="evenodd" d="M623.65 40.8311H635.961V28.5603H634.574V38.7789C634.574 39.1494 634.273 39.4491 633.902 39.4491H625.708C625.337 39.4491 625.036 39.1494 625.036 38.7789V30.6132C625.036 30.2427 625.337 29.943 625.708 29.943H628.439C628.811 29.943 629.112 30.2427 629.112 30.6132V35.3863H630.499V28.5603H623.65V40.8311ZM636.634 42.1732H622.979C622.607 42.1732 622.307 41.8736 622.307 41.503V27.8919C622.307 27.5213 622.607 27.2217 622.979 27.2217H631.172C631.544 27.2217 631.845 27.5213 631.845 27.8919V36.059C631.845 36.4295 631.544 36.7292 631.172 36.7292H628.44C628.068 36.7292 627.768 36.4295 627.768 36.059V31.2851H626.382V38.1105H633.23V27.8919C633.23 27.5213 633.531 27.2217 633.903 27.2217H636.634C637.006 27.2217 637.307 27.5213 637.307 27.8919V41.503C637.307 41.8736 637.006 42.1732 636.634 42.1732V42.1732Z" fill="#FEFEFE"/>
<path fill-rule="evenodd" clip-rule="evenodd" d="M634.576 24.4995H635.962V12.2294H623.652V24.4995H630.5V17.6741H629.113V22.4473C629.113 22.8185 628.813 23.1182 628.441 23.1182H625.711C625.338 23.1182 625.037 22.8185 625.037 22.4473V14.2808C625.037 13.9103 625.338 13.6107 625.711 13.6107H633.904C634.275 13.6107 634.576 13.9103 634.576 14.2808V24.4995ZM636.634 25.8402H633.904C633.532 25.8402 633.231 25.5405 633.231 25.17V14.9521H626.383V21.7775H627.769V17.0043C627.769 16.6338 628.069 16.3334 628.441 16.3334H631.172C631.544 16.3334 631.845 16.6338 631.845 17.0043V25.17C631.845 25.5405 631.544 25.8402 631.172 25.8402H622.979C622.607 25.8402 622.307 25.5405 622.307 25.17V11.5596C622.307 11.189 622.607 10.8887 622.979 10.8887H636.634C637.006 10.8887 637.307 11.189 637.307 11.5596V25.17C637.307 25.5405 637.006 25.8402 636.634 25.8402V25.8402Z" fill="#FEFEFE"/>
<path fill-rule="evenodd" clip-rule="evenodd" d="M645.5 24.4995H652.348V12.2294H640.037V24.4995H641.423V14.2808C641.423 13.9103 641.725 13.6107 642.096 13.6107H650.29C650.661 13.6107 650.962 13.9103 650.962 14.2808V22.4473C650.962 22.8185 650.661 23.1182 650.29 23.1182H647.558C647.187 23.1182 646.886 22.8185 646.886 22.4473V17.6741H645.5V24.4995ZM653.021 25.8402H644.828C644.457 25.8402 644.156 25.5405 644.156 25.17V17.0043C644.156 16.6338 644.457 16.3334 644.828 16.3334H647.559C647.931 16.3334 648.232 16.6338 648.232 17.0043V21.7775H649.617V14.9521H642.769V25.17C642.769 25.5405 642.468 25.8402 642.096 25.8402H639.366C638.994 25.8402 638.693 25.5405 638.693 25.17V11.5596C638.693 11.189 638.994 10.8887 639.366 10.8887H653.021C653.393 10.8887 653.693 11.189 653.693 11.5596V25.17C653.693 25.5405 653.393 25.8402 653.021 25.8402V25.8402Z" fill="#FEFEFE"/>
<path fill-rule="evenodd" clip-rule="evenodd" d="M640.037 40.8311H652.348V28.5603H645.5V35.3863H646.886V30.6132C646.886 30.2427 647.187 29.943 647.558 29.943H650.289C650.661 29.943 650.961 30.2427 650.961 30.6132V38.7789C650.961 39.1494 650.661 39.4491 650.289 39.4491H642.096C641.724 39.4491 641.423 39.1494 641.423 38.7789V28.5603H640.037V40.8311ZM653.021 42.1732H639.366C638.994 42.1732 638.693 41.8736 638.693 41.503V27.8919C638.693 27.5213 638.994 27.2217 639.366 27.2217H642.096C642.468 27.2217 642.769 27.5213 642.769 27.8919V38.1105H649.617V31.2851H648.231V36.059C648.231 36.4295 647.931 36.7292 647.559 36.7292H644.828C644.456 36.7292 644.155 36.4295 644.155 36.059V27.8919C644.155 27.5213 644.456 27.2217 644.828 27.2217H653.021C653.393 27.2217 653.693 27.5213 653.693 27.8919V41.503C653.693 41.8736 653.393 42.1732 653.021 42.1732V42.1732Z" fill="#FEFEFE"/>
<path fill-rule="evenodd" clip-rule="evenodd" d="M640.037 46.2774H657.81V6.78645H640.037V8.167H655.751C656.123 8.167 656.424 8.46738 656.424 8.83791V44.2259C656.424 44.5965 656.123 44.8961 655.751 44.8961H640.037V46.2774ZM658.484 47.6167H639.366C638.994 47.6167 638.693 47.3171 638.693 46.9465V44.2249C638.693 43.8544 638.994 43.554 639.366 43.554H655.079V9.50707H639.366C638.994 9.50707 638.693 9.20743 638.693 8.83689V6.11452C638.693 5.74471 638.994 5.44434 639.366 5.44434H658.484C658.855 5.44434 659.156 5.74471 659.156 6.11452V46.9465C659.156 47.3171 658.855 47.6167 658.484 47.6167V47.6167Z" fill="#FEFEFE"/>
<path fill-rule="evenodd" clip-rule="evenodd" d="M618.188 46.2774H635.962V44.8961H620.247C619.876 44.8961 619.575 44.5965 619.575 44.2259V8.83791C619.575 8.46738 619.876 8.167 620.247 8.167H635.962V6.78645H618.188V46.2774ZM636.636 47.6167H617.518C617.146 47.6167 616.846 47.3171 616.846 46.9465V6.11452C616.846 5.74471 617.146 5.44434 617.518 5.44434H636.636C637.008 5.44434 637.308 5.74471 637.308 6.11452V8.83689C637.308 9.20743 637.008 9.50707 636.636 9.50707H620.923V43.554H636.636C637.008 43.554 637.308 43.8544 637.308 44.2249V46.9465C637.308 47.3171 637.008 47.6167 636.636 47.6167V47.6167Z" fill="#FEFEFE"/>
<path fill-rule="evenodd" clip-rule="evenodd" d="M614.788 39.86C614.416 39.86 614.115 39.5604 614.115 39.1898V13.8714C614.115 13.5008 614.416 13.2012 614.788 13.2012C615.159 13.2012 615.46 13.5008 615.46 13.8714V39.1898C615.46 39.5604 615.159 39.86 614.788 39.86" fill="#FEFEFE"/>
<path fill-rule="evenodd" clip-rule="evenodd" d="M612.057 31.4684C611.685 31.4684 611.385 31.1687 611.385 30.7982V22.262C611.385 21.8914 611.685 21.5918 612.057 21.5918C612.429 21.5918 612.73 21.8914 612.73 22.262V30.7982C612.73 31.1687 612.429 31.4684 612.057 31.4684" fill="#FEFEFE"/>
<path fill-rule="evenodd" clip-rule="evenodd" d="M650.701 4.06204H625.299C624.928 4.06204 624.627 3.7624 624.627 3.39186C624.627 3.02132 624.928 2.72168 625.299 2.72168H650.701C651.073 2.72168 651.373 3.02132 651.373 3.39186C651.373 3.7624 651.073 4.06204 650.701 4.06204" fill="#FEFEFE"/>
<path fill-rule="evenodd" clip-rule="evenodd" d="M642.28 1.34036H633.715C633.344 1.34036 633.043 1.04072 633.043 0.67018C633.043 0.299644 633.344 0 633.715 0H642.28C642.651 0 642.952 0.299644 642.952 0.67018C642.952 1.04072 642.651 1.34036 642.28 1.34036" fill="#FEFEFE"/>
<path fill-rule="evenodd" clip-rule="evenodd" d="M650.701 50.3384H625.299C624.928 50.3384 624.627 50.038 624.627 49.6682C624.627 49.2977 624.928 48.998 625.299 48.998H650.701C651.073 48.998 651.373 49.2977 651.373 49.6682C651.373 50.038 651.073 50.3384 650.701 50.3384" fill="#FEFEFE"/>
<path fill-rule="evenodd" clip-rule="evenodd" d="M642.28 53.062H633.715C633.344 53.062 633.043 52.7624 633.043 52.3919C633.043 52.0213 633.344 51.7217 633.715 51.7217H642.28C642.651 51.7217 642.952 52.0213 642.952 52.3919C642.952 52.7624 642.651 53.062 642.28 53.062" fill="#FEFEFE"/>
<path fill-rule="evenodd" clip-rule="evenodd" d="M661.217 39.86C660.846 39.86 660.545 39.5604 660.545 39.1898V13.8714C660.545 13.5008 660.846 13.2012 661.217 13.2012C661.589 13.2012 661.89 13.5008 661.89 13.8714V39.1898C661.89 39.5604 661.589 39.86 661.217 39.86" fill="#FEFEFE"/>
<path fill-rule="evenodd" clip-rule="evenodd" d="M663.944 31.4684C663.572 31.4684 663.271 31.1687 663.271 30.7982V22.262C663.271 21.8914 663.572 21.5918 663.944 21.5918C664.316 21.5918 664.616 21.8914 664.616 22.262V30.7982C664.616 31.1687 664.316 31.4684 663.944 31.4684" fill="#FEFEFE"/>
</svg>
