<svg width="16" height="16" viewBox="0 0 16 16" fill="none" xmlns="http://www.w3.org/2000/svg">
<path fill-rule="evenodd" clip-rule="evenodd" d="M7.17157 1.83808C7.92172 1.08793 8.93913 0.666504 10 0.666504H12C12.3682 0.666504 12.6667 0.964981 12.6667 1.33317V3.99984C12.6667 4.36803 12.3682 4.6665 12 4.6665H10V5.99984H12C12.2053 5.99984 12.3991 6.09442 12.5255 6.25623C12.6518 6.41804 12.6966 6.62903 12.6468 6.82819L11.9801 9.49486C11.9059 9.79164 11.6392 9.99984 11.3333 9.99984H10V14.6665C10 15.0347 9.70152 15.3332 9.33333 15.3332H6.66667C6.29848 15.3332 6 15.0347 6 14.6665V9.99984H4.66667C4.29848 9.99984 4 9.70136 4 9.33317V6.6665C4 6.29831 4.29848 5.99984 4.66667 5.99984H6V4.6665C6 3.60564 6.42143 2.58822 7.17157 1.83808ZM10 1.99984C9.29276 1.99984 8.61448 2.28079 8.11438 2.78089C7.61428 3.28098 7.33333 3.95926 7.33333 4.6665V6.6665C7.33333 7.03469 7.03486 7.33317 6.66667 7.33317H5.33333V8.6665H6.66667C7.03486 8.6665 7.33333 8.96498 7.33333 9.33317V13.9998H8.66667V9.33317C8.66667 8.96498 8.96514 8.6665 9.33333 8.6665H10.8128L11.1461 7.33317H9.33333C8.96514 7.33317 8.66667 7.03469 8.66667 6.6665V4.6665C8.66667 4.31288 8.80714 3.97374 9.05719 3.7237C9.30724 3.47365 9.64638 3.33317 10 3.33317H11.3333V1.99984H10Z" fill="white"/>
</svg>
