<svg width="16" height="16" viewBox="0 0 16 16" fill="none" xmlns="http://www.w3.org/2000/svg">
<path fill-rule="evenodd" clip-rule="evenodd" d="M4.66602 1.99984C3.19326 1.99984 1.99935 3.19374 1.99935 4.6665V11.3332C1.99935 12.8059 3.19326 13.9998 4.66602 13.9998H11.3327C12.8054 13.9998 13.9993 12.8059 13.9993 11.3332V4.6665C13.9993 3.19374 12.8054 1.99984 11.3327 1.99984H4.66602ZM0.666016 4.6665C0.666016 2.45736 2.45688 0.666504 4.66602 0.666504H11.3327C13.5418 0.666504 15.3327 2.45736 15.3327 4.6665V11.3332C15.3327 13.5423 13.5418 15.3332 11.3327 15.3332H4.66602C2.45688 15.3332 0.666016 13.5423 0.666016 11.3332V4.6665Z" fill="white"/>
<path fill-rule="evenodd" clip-rule="evenodd" d="M8.32202 5.99267C7.90589 5.93096 7.48091 6.00204 7.10751 6.19579C6.73411 6.38954 6.43131 6.69609 6.24218 7.07185C6.05305 7.44761 5.98722 7.87344 6.05405 8.28877C6.12088 8.7041 6.31697 9.08778 6.61444 9.38525C6.9119 9.68271 7.29558 9.8788 7.71091 9.94563C8.12624 10.0125 8.55207 9.94663 8.92783 9.7575C9.30359 9.56837 9.61015 9.26557 9.8039 8.89217C9.99764 8.51877 10.0687 8.09379 10.007 7.67766C9.94407 7.2532 9.74628 6.86024 9.44286 6.55682C9.13944 6.2534 8.74648 6.05561 8.32202 5.99267ZM6.49341 5.01229C7.11575 4.68937 7.82406 4.57091 8.51759 4.67375C9.22503 4.77866 9.87997 5.10831 10.3857 5.61401C10.8914 6.11971 11.221 6.77465 11.3259 7.48209C11.4288 8.17563 11.3103 8.88393 10.9874 9.50627C10.6645 10.1286 10.1535 10.6333 9.52728 10.9485C8.90102 11.2637 8.1913 11.3734 7.49908 11.262C6.80687 11.1506 6.16739 10.8238 5.67163 10.3281C5.17586 9.83229 4.84904 9.19282 4.73765 8.5006C4.62626 7.80838 4.73598 7.09866 5.0512 6.4724C5.36642 5.84613 5.87108 5.3352 6.49341 5.01229Z" fill="white"/>
</svg>
