<svg width="16" height="16" viewBox="0 0 16 16" fill="none" xmlns="http://www.w3.org/2000/svg">
<g clip-path="url(#clip0)">
<path d="M5.53248 14.5998C3.79915 14.5998 1.99915 14.1331 0.39915 13.1998C0.132484 13.0665 -0.000849612 12.7331 0.0658171 12.4665C0.132484 12.1998 0.39915 11.9998 0.665817 11.9998C1.79915 12.0665 2.93248 11.7998 3.93248 11.3331C1.46582 9.7998 0.79915 7.66647 0.732484 5.9998C0.665817 4.06647 1.33248 2.46647 1.39915 2.3998C1.46582 2.1998 1.66582 1.9998 1.93248 1.9998C2.19915 1.9998 2.39915 2.06647 2.53248 2.26647C3.66582 3.86647 5.39915 4.86647 7.33248 4.9998C7.33248 3.93314 7.79915 2.93314 8.59915 2.1998C9.99915 0.999805 12.0658 0.999805 13.4658 2.1998C13.9992 1.9998 14.5325 1.73314 14.9992 1.3998C15.1992 1.26647 15.5325 1.26647 15.7325 1.3998C15.9325 1.53314 16.0658 1.86647 15.9992 2.13314C15.7992 3.06647 15.3325 3.93314 14.6658 4.66647C14.6658 4.7998 14.6658 4.86647 14.6658 4.9998C14.6658 8.66647 13.0658 11.7331 10.1992 13.3331C8.79915 14.1998 7.19915 14.5998 5.53248 14.5998ZM3.33248 12.9998C5.53248 13.5331 7.73248 13.2665 9.59915 12.1998C11.9992 10.7998 13.3992 8.13314 13.3992 4.9998C13.3992 4.86647 13.3992 4.73314 13.3325 4.5998C13.2658 4.39981 13.3325 4.13314 13.5325 3.9998C13.6658 3.86647 13.7992 3.66647 13.9325 3.53314C13.7992 3.59981 13.5992 3.66647 13.4658 3.66647C13.1992 3.73314 12.9325 3.66647 12.7992 3.46647C11.9325 2.53314 10.4658 2.3998 9.53248 3.26647C8.93248 3.66647 8.66582 4.33314 8.66582 4.9998V5.66647C8.66582 5.9998 8.39915 6.33314 7.99915 6.33314C5.79915 6.39981 3.73248 5.53314 2.26582 3.9998C1.86582 5.73314 1.73248 8.9998 5.59915 10.6665C5.79915 10.7998 5.99915 10.9998 5.99915 11.2665C5.99915 11.5331 5.93248 11.7331 5.73248 11.8665C4.93248 12.3998 4.13248 12.7998 3.33248 12.9998Z" fill="white"/>
</g>
<defs>
<clipPath id="clip0">
<rect width="16" height="16" fill="white"/>
</clipPath>
</defs>
</svg>
