<?xml version="1.0" encoding="utf-8"?>
<!-- Generator: Adobe Illustrator 23.0.1, SVG Export Plug-In . SVG Version: 6.00 Build 0)  -->
<svg version="1.1" id="Layer_1" xmlns="http://www.w3.org/2000/svg" xmlns:xlink="http://www.w3.org/1999/xlink" x="0px" y="0px"
	 viewBox="0 0 186.35 65.5" style="enable-background:new 0 0 186.35 65.5;" xml:space="preserve">
<style type="text/css">
	.st0{fill:#FFFFFF;}
	.st1{display:none;clip-path:url(#XMLID_55_);}
	.st2{display:inline;fill:#FFFFFF;}
	.st3{display:none;clip-path:url(#XMLID_56_);}
	.st4{display:none;clip-path:url(#XMLID_57_);}
	.st5{display:none;clip-path:url(#XMLID_58_);}
	.st6{display:none;clip-path:url(#XMLID_59_);}
	.st7{display:none;clip-path:url(#XMLID_60_);}
	.st8{display:none;clip-path:url(#XMLID_61_);}
	.st9{display:none;clip-path:url(#XMLID_62_);}
	.st10{display:none;clip-path:url(#XMLID_63_);}
	.st11{display:none;clip-path:url(#XMLID_64_);}
	.st12{display:none;clip-path:url(#XMLID_65_);}
	.st13{display:none;clip-path:url(#XMLID_66_);}
	.st14{display:none;}
	.st15{display:inline;}
	.st16{display:none;clip-path:url(#XMLID_67_);}
	.st17{display:none;clip-path:url(#XMLID_68_);}
	.st18{display:none;clip-path:url(#XMLID_69_);}
	.st19{display:none;clip-path:url(#XMLID_70_);}
	.st20{display:none;clip-path:url(#XMLID_71_);}
	.st21{opacity:0.8;}
</style>
<g>
	<g>
		<g>
			<path class="st0" d="M69.28,64.1c-0.32,0.36-0.47,0.55-0.79,0.91c-0.97,0.13-1.45,0.21-2.42,0.35c-0.41-0.26-0.61-0.39-1.03-0.64
				c-0.08-0.48-0.12-0.73-0.19-1.21c0.57-0.09,0.85-0.13,1.41-0.22c0.04,0.24,0.05,0.37,0.09,0.61c0.57-0.09,0.85-0.13,1.42-0.21
				c-0.1-0.67-0.14-1.01-0.24-1.68c-0.78,0.11-1.17,0.17-1.94,0.29c-0.42-0.26-0.62-0.39-1.04-0.65c-0.18-1.15-0.27-1.73-0.46-2.88
				c0.32-0.38,0.49-0.56,0.81-0.94c1.01-0.15,1.51-0.23,2.52-0.37c0.42,0.26,0.62,0.4,1.04,0.66c0.06,0.47,0.09,0.7,0.16,1.17
				c-0.58,0.08-0.87,0.12-1.44,0.2c-0.03-0.23-0.05-0.34-0.08-0.57c-0.59,0.08-0.88,0.13-1.46,0.21c0.1,0.67,0.15,1.01,0.25,1.68
				c0.79-0.12,1.18-0.18,1.97-0.29c0.41,0.27,0.61,0.4,1.02,0.67C69.04,62.36,69.12,62.94,69.28,64.1z"/>
			<path class="st0" d="M74.94,60.82c-0.34,0.36-0.51,0.54-0.84,0.9c-0.78,0.08-1.17,0.13-1.95,0.22c0.12,1.03,0.18,1.54,0.3,2.57
				c-0.56,0.07-0.84,0.1-1.4,0.17c-0.31-2.52-0.63-5.04-0.94-7.56c1.38-0.17,2.08-0.25,3.46-0.4c0.41,0.28,0.62,0.42,1.03,0.7
				C74.74,58.78,74.81,59.46,74.94,60.82z M73.45,60.37c-0.1-0.88-0.14-1.32-0.24-2.21c-0.59,0.06-0.89,0.1-1.48,0.17
				c0.1,0.88,0.15,1.32,0.26,2.21C72.57,60.47,72.86,60.44,73.45,60.37z"/>
			<path class="st0" d="M81.33,62.89c-0.34,0.34-0.51,0.51-0.85,0.86c-1.05,0.07-1.57,0.12-2.62,0.21
				c-0.39-0.29-0.58-0.43-0.97-0.71c-0.22-2.4-0.33-3.6-0.55-6c0.34-0.35,0.52-0.53,0.86-0.88c1.09-0.09,1.64-0.14,2.73-0.22
				c0.4,0.29,0.6,0.44,1,0.73C81.09,59.29,81.17,60.49,81.33,62.89z M79.86,62.38c-0.14-1.92-0.21-2.87-0.36-4.79
				c-0.66,0.05-1,0.08-1.66,0.13c0.16,1.92,0.24,2.87,0.4,4.79C78.89,62.45,79.21,62.43,79.86,62.38z"/>
			<path class="st0" d="M87.6,63.38c-0.6,0.02-0.91,0.03-1.51,0.05c-0.53-1.22-0.8-1.83-1.35-3.05c-0.17,0.01-0.26,0.01-0.42,0.02
				c0.06,1.24,0.09,1.86,0.15,3.1c-0.57,0.03-0.85,0.04-1.41,0.08c-0.14-2.53-0.29-5.07-0.43-7.6c1.41-0.08,2.12-0.11,3.53-0.17
				c0.39,0.31,0.58,0.46,0.96,0.77c0.04,1.12,0.06,1.68,0.09,2.8c-0.38,0.37-0.57,0.56-0.95,0.93C86.8,61.53,87.07,62.15,87.6,63.38
				z M84.24,59c0.6-0.03,0.9-0.04,1.5-0.07c-0.03-0.68-0.04-1.02-0.07-1.7c-0.61,0.02-0.91,0.04-1.51,0.07
				C84.19,57.98,84.21,58.32,84.24,59z"/>
			<path class="st0" d="M93.49,57.08c-0.58,0-0.87,0-1.45,0c0.02,2.48,0.03,3.73,0.04,6.21c-0.57,0-0.85,0.01-1.41,0.02
				c-0.04-2.48-0.05-3.73-0.09-6.21c-0.58,0.01-0.87,0.01-1.45,0.03c-0.01-0.56-0.02-0.84-0.03-1.41c1.76-0.04,2.64-0.05,4.39-0.05
				C93.49,56.23,93.49,56.52,93.49,57.08z"/>
			<path class="st0" d="M99.44,62.6c-0.37,0.31-0.56,0.46-0.93,0.77c-0.97-0.03-1.46-0.04-2.44-0.05c-0.36-0.32-0.54-0.48-0.9-0.81
				c0.01-0.49,0.01-0.74,0.01-1.23c0.57,0.01,0.86,0.01,1.43,0.02c0,0.25-0.01,0.37-0.01,0.62c0.57,0.01,0.86,0.02,1.44,0.03
				c0.02-0.68,0.03-1.02,0.04-1.7c-0.78-0.02-1.18-0.03-1.96-0.04c-0.37-0.33-0.55-0.49-0.92-0.81c0.01-1.17,0.02-1.75,0.03-2.91
				c0.38-0.32,0.57-0.47,0.96-0.79c1.02,0.02,1.52,0.03,2.54,0.06c0.37,0.33,0.55,0.49,0.91,0.82c-0.02,0.47-0.02,0.71-0.04,1.18
				c-0.58-0.02-0.87-0.03-1.45-0.04c0.01-0.23,0.01-0.34,0.01-0.57c-0.59-0.02-0.88-0.02-1.47-0.03c-0.01,0.68-0.02,1.02-0.03,1.7
				c0.79,0.01,1.19,0.02,1.98,0.05c0.36,0.33,0.54,0.5,0.89,0.83C99.49,60.85,99.47,61.43,99.44,62.6z"/>
			<path class="st0" d="M108.84,63.16c-0.39,0.29-0.58,0.43-0.97,0.72c-1.34-0.11-2.02-0.16-3.36-0.24c0.16-2.53,0.32-5.07,0.47-7.6
				c1.4,0.09,2.1,0.14,3.51,0.25c0.35,0.35,0.52,0.52,0.87,0.88c-0.08,0.93-0.12,1.4-0.2,2.33c-0.25,0.24-0.37,0.37-0.61,0.61
				c0.2,0.29,0.3,0.43,0.5,0.72C108.96,61.76,108.92,62.23,108.84,63.16z M106.23,59.23c0.59,0.04,0.89,0.06,1.48,0.11
				c0.05-0.68,0.08-1.01,0.13-1.69c-0.6-0.05-0.9-0.07-1.5-0.11C106.3,58.21,106.28,58.55,106.23,59.23z M106.01,62.33
				c0.58,0.04,0.87,0.06,1.46,0.11c0.05-0.68,0.08-1.01,0.13-1.69c-0.59-0.05-0.88-0.07-1.47-0.11
				C106.08,61.31,106.06,61.65,106.01,62.33z"/>
			<path class="st0" d="M113.83,64.46c-0.06-0.69-0.09-1.03-0.15-1.72c-0.59-0.07-0.89-0.1-1.49-0.16
				c-0.21,0.66-0.31,0.99-0.52,1.65c-0.57-0.06-0.86-0.09-1.43-0.14c0.74-2.48,1.51-4.96,2.3-7.42c0.82,0.09,1.24,0.13,2.06,0.22
				c0.24,2.58,0.46,5.16,0.65,7.75C114.69,64.56,114.41,64.53,113.83,64.46z M113.56,61.31c-0.08-0.93-0.13-1.39-0.22-2.32
				c-0.29,0.89-0.43,1.33-0.71,2.22C113,61.25,113.19,61.27,113.56,61.31z"/>
			<path class="st0" d="M121.44,65.5c-0.6-0.09-0.9-0.14-1.5-0.23c-0.29-1.3-0.44-1.95-0.75-3.25c-0.17-0.02-0.25-0.04-0.42-0.06
				c-0.17,1.23-0.26,1.84-0.43,3.07c-0.56-0.08-0.84-0.12-1.41-0.19c0.33-2.52,0.67-5.03,1-7.55c1.4,0.19,2.11,0.29,3.51,0.5
				c0.32,0.37,0.48,0.56,0.81,0.93c-0.17,1.11-0.26,1.66-0.43,2.76c-0.45,0.29-0.67,0.44-1.11,0.74
				C121.01,63.54,121.15,64.19,121.44,65.5z M118.97,60.57c0.6,0.08,0.89,0.13,1.49,0.22c0.1-0.67,0.15-1.01,0.25-1.68
				c-0.6-0.09-0.9-0.13-1.5-0.22C119.11,59.56,119.06,59.89,118.97,60.57z"/>
		</g>
	</g>
	<g>
		<polygon class="st0" points="78.7,8.68 80.83,9.8 80.43,7.43 82.15,5.75 79.77,5.4 78.7,3.25 77.64,5.4 75.26,5.75 76.98,7.43 
			76.57,9.8 		"/>
		<polygon class="st0" points="107.64,8.68 109.77,9.8 109.37,7.43 111.09,5.75 108.71,5.4 107.64,3.25 106.58,5.4 104.2,5.75 
			105.92,7.43 105.52,9.8 		"/>
		<polygon class="st0" points="93.17,5.43 95.3,6.55 94.9,4.18 96.62,2.5 94.24,2.16 93.17,0 92.11,2.16 89.73,2.5 91.45,4.18 
			91.05,6.55 		"/>
	</g>
	<g>
		<path class="st0" d="M15.25,52.1c-0.56-2.48-0.84-3.73-1.41-6.26c-2.52,0.42-3.78,0.64-6.29,1.1c-0.59,2.86-0.88,4.31-1.47,7.23
			C3.65,54.75,2.43,55.05,0,55.67C2.06,44.73,4.24,33.8,6.55,22.91c2.84,0,5.67,0,8.51,0c2.04,9.33,4.14,18.64,6.31,27.94
			C18.92,51.32,17.69,51.57,15.25,52.1z M12.67,40.54c-0.64-2.92-1.27-5.85-1.91-8.78c-0.67,3.1-1.34,6.19-1.99,9.3
			C10.33,40.85,11.11,40.75,12.67,40.54z"/>
		<path class="st0" d="M39.24,47.8c-5,0.75-9.98,1.58-14.96,2.49c0.08-9.13,0.17-18.26,0.25-27.38c2.43,0,3.64,0,6.07,0
			c-0.07,7.15-0.15,14.3-0.22,21.45c2.97-0.4,5.94-0.78,8.92-1.15C39.27,45.05,39.26,45.97,39.24,47.8z"/>
		<path class="st0" d="M60.57,42.98c-1.57,1.06-2.35,1.6-3.92,2.7c-4.84,0.5-9.67,1.06-14.49,1.7c0.09-8.16,0.19-16.32,0.28-24.48
			c4.82,0,9.64,0,14.45,0c1.54,0.96,2.31,1.43,3.86,2.35c-0.03,2.76-0.04,4.14-0.07,6.89c-0.94,0.81-1.42,1.22-2.36,2.05
			c0.93,0.76,1.39,1.13,2.32,1.88C60.61,38.84,60.6,40.22,60.57,42.98z M48.38,32.56c2.49-0.12,3.73-0.18,6.22-0.29
			c0.02-2.05,0.03-3.07,0.06-5.12c-2.49,0.05-3.73,0.07-6.22,0.13C48.41,29.39,48.4,30.45,48.38,32.56z M48.27,42.23
			c2.49-0.25,3.74-0.36,6.23-0.57c0.02-2.05,0.03-3.07,0.06-5.12c-2.49,0.15-3.74,0.24-6.23,0.42
			C48.3,39.06,48.29,40.12,48.27,42.23z"/>
		<path class="st0" d="M78.18,44.2c-0.58-1.87-0.87-2.81-1.44-4.7c-2.55,0.09-3.83,0.14-6.37,0.26c-0.6,1.96-0.9,2.95-1.51,4.93
			c-2.49,0.16-3.73,0.25-6.21,0.46c2.22-7.42,4.48-14.84,6.77-22.24c2.84,0,5.67,0,8.51,0c2.13,7.04,4.29,14.07,6.48,21.1
			C81.91,44.06,80.67,44.1,78.18,44.2z M75.54,35.6c-0.77-2.54-1.16-3.82-1.92-6.38c-0.8,2.59-1.21,3.89-2.01,6.5
			C73.18,35.66,73.97,35.64,75.54,35.6z"/>
		<path class="st0" d="M99.74,26.79c-2.41-0.01-3.61-0.01-6.02-0.01c0,5.71,0,11.41,0,17.12c-2.45,0-3.67,0-6.12,0.04
			c0.01-5.72,0.02-11.44,0.04-17.15c-2.41,0.01-3.61,0.01-6.02,0.03c0.01-1.56,0.01-2.35,0.02-3.91c6.03,0,12.05,0,18.08,0
			C99.74,24.46,99.74,25.24,99.74,26.79z"/>
		<path class="st0" d="M122.36,45.04c-2.61-0.2-3.91-0.29-6.53-0.45c-1.73-3.01-3.48-6.01-5.24-9c-0.72-0.02-1.08-0.03-1.8-0.05
			c0.02,2.9,0.03,5.79,0.05,8.69c-2.45-0.1-3.67-0.14-6.11-0.21c-0.02-7.04-0.05-14.08-0.07-21.12c4.85,0,9.69,0,14.54,0
			c1.55,0.91,2.33,1.38,3.88,2.32c0.02,2.7,0.05,5.4,0.07,8.1c-1.65,0.98-2.47,1.46-4.12,2.43
			C118.83,38.83,120.61,41.93,122.36,45.04z M108.77,31.59c2.52,0.04,3.78,0.07,6.3,0.13c-0.01-1.93-0.02-2.9-0.04-4.84
			c-2.51-0.03-3.77-0.04-6.29-0.06C108.76,28.73,108.76,29.69,108.77,31.59z"/>
		<path class="st0" d="M144.35,44.86c-1.55,0.83-2.32,1.24-3.88,2.04c-3.76-0.46-7.53-0.88-11.3-1.26c-1.56-1.1-2.34-1.64-3.9-2.69
			c-0.06-5.9-0.12-11.79-0.18-17.69c1.53-0.93,2.3-1.4,3.83-2.35c3.75,0,7.51,0,11.26,0c1.57,1.01,2.36,1.52,3.93,2.57
			C144.2,31.94,144.27,38.4,144.35,44.86z M138.25,42.25c-0.06-4.99-0.12-9.98-0.17-14.96c-2.76-0.06-4.14-0.09-6.91-0.14
			c0.05,4.83,0.11,9.65,0.16,14.47C134.1,41.85,135.48,41.98,138.25,42.25z"/>
		<path class="st0" d="M165.43,48.01c-1.52,0.9-2.29,1.34-3.81,2.19c-3.46-0.64-6.94-1.24-10.42-1.78
			c-1.57-1.31-2.36-1.95-3.93-3.19c-0.02-1.61-0.03-2.41-0.05-4.01c2.42,0.26,3.63,0.4,6.04,0.69c0.01,0.84,0.01,1.25,0.02,2.09
			c2.44,0.32,3.66,0.49,6.1,0.85c-0.02-2.4-0.04-3.6-0.06-5.99c-2.75-0.29-5.5-0.57-8.25-0.82c-1.57-1.22-2.36-1.81-3.93-2.97
			c-0.04-3.18-0.07-6.36-0.11-9.54c1.55-1.02,2.32-1.55,3.87-2.62c3.48,0,6.97,0,10.45,0c1.55,1.14,2.33,1.72,3.88,2.93
			c0.01,1.74,0.02,2.61,0.04,4.35c-2.42-0.12-3.62-0.18-6.04-0.29c-0.01-0.81-0.01-1.21-0.02-2.02c-2.44-0.08-3.66-0.12-6.11-0.19
			c0.02,2.3,0.04,3.46,0.06,5.76c2.76,0.18,5.53,0.38,8.29,0.59c1.55,1.26,2.33,1.91,3.87,3.24
			C165.37,40.85,165.4,44.43,165.43,48.01z"/>
		<path class="st0" d="M186.35,52.25c-1.89,1.73-1.89,1.73-3.8,3.42c-4.34-1.37-6.1-1.98-10.33-3.34c-1.55-1.56-2.33-2.32-3.89-3.8
			c-0.01-1.84-0.02-2.76-0.03-4.61c2.41,0.36,3.61,0.55,6.01,0.94c0.01,0.97,0.01,1.45,0.01,2.42c2.42,0.44,3.63,0.67,6.05,1.14
			c-0.01-2.79-0.01-4.18-0.02-6.97c-2.73-0.39-5.47-0.75-8.2-1.1c-1.56-1.43-2.34-2.13-3.9-3.49c-0.03-3.65-0.05-7.3-0.08-10.95
			c1.55-1.17,2.33-1.77,3.88-3.01c3.48,0,6.97,0,10.45,0c1.55,1.33,2.32,2.01,3.86,3.42c0,2.04,0,3.05,0,5.09
			c-2.41-0.16-3.61-0.24-6.03-0.38c0-0.94,0-1.41-0.01-2.35c-2.44-0.11-3.66-0.16-6.1-0.26c0.01,2.66,0.02,4,0.04,6.66
			c2.75,0.25,5.51,0.51,8.26,0.78c1.54,1.49,2.3,2.25,3.83,3.83C186.35,43.88,186.35,48.07,186.35,52.25z"/>
	</g>
</g>
</svg>
