<?xml version="1.0" encoding="utf-8"?>
<!-- Generator: Adobe Illustrator 23.0.1, SVG Export Plug-In . SVG Version: 6.00 Build 0)  -->
<svg version="1.1" id="Layer_1" xmlns="http://www.w3.org/2000/svg" xmlns:xlink="http://www.w3.org/1999/xlink" x="0px" y="0px"
	 viewBox="0 0 291.13 88" style="enable-background:new 0 0 291.13 88;" xml:space="preserve">
<style type="text/css">
	.st0{fill:#FFFFFF;}
	.st1{display:none;clip-path:url(#XMLID_55_);}
	.st2{display:inline;fill:#FFFFFF;}
	.st3{display:none;clip-path:url(#XMLID_56_);}
	.st4{display:none;clip-path:url(#XMLID_57_);}
	.st5{display:none;clip-path:url(#XMLID_58_);}
	.st6{display:none;clip-path:url(#XMLID_59_);}
	.st7{display:none;clip-path:url(#XMLID_60_);}
	.st8{display:none;clip-path:url(#XMLID_61_);}
	.st9{display:none;clip-path:url(#XMLID_62_);}
	.st10{display:none;clip-path:url(#XMLID_63_);}
	.st11{display:none;clip-path:url(#XMLID_64_);}
	.st12{display:none;clip-path:url(#XMLID_65_);}
	.st13{display:none;clip-path:url(#XMLID_66_);}
	.st14{display:none;}
	.st15{display:inline;}
	.st16{display:none;clip-path:url(#XMLID_67_);}
	.st17{display:none;clip-path:url(#XMLID_68_);}
	.st18{display:none;clip-path:url(#XMLID_69_);}
	.st19{display:none;clip-path:url(#XMLID_70_);}
	.st20{display:none;clip-path:url(#XMLID_71_);}
	.st21{opacity:0.8;}
</style>
<g>
	<path class="st0" d="M193.02,60.32c0-0.1,0.04-0.12,0.1-0.12h0.75c0.67,0,1.14,0.18,1.5,0.43c1.3,0.89,1.63,2.2,1.63,2.97
		c0,1.85-1.2,2.36-2.13,2.36c-0.39,0-0.79-0.02-1.24-0.2c-0.55-0.22-0.61-0.55-0.61-1.65V60.32z M193.02,55.17
		c0-0.18,0.04-0.26,0.16-0.28c0.18-0.04,0.51-0.04,0.75-0.04c1.5,0,2.17,1.4,2.17,2.52c0,0.81-0.34,1.42-0.79,1.77
		c-0.3,0.24-0.79,0.3-1.36,0.3c-0.39,0-0.65-0.02-0.81-0.06c-0.06-0.02-0.12-0.04-0.12-0.18V55.17z M190.78,61.88
		c0,1.53,0,2.85-0.08,3.56c-0.06,0.49-0.16,0.81-0.51,0.89c-0.16,0.04-0.35,0.06-0.61,0.06c-0.22,0-0.28,0.1-0.28,0.18
		c0,0.12,0.12,0.18,0.33,0.18c0.35,0,0.79-0.02,1.2-0.04c0.41,0,0.79-0.02,0.98-0.02c0.28,0,0.88,0.02,1.47,0.04
		c0.59,0.04,1.18,0.06,1.38,0.06c3.19,0,4.6-1.85,4.6-3.64c0-1.97-1.77-3.17-3.19-3.62c0.98-0.63,1.95-1.63,1.95-2.93
		c0-0.89-0.55-2.5-3.68-2.5c-0.59,0-1.73,0.04-2.6,0.04c-0.33,0-1.43-0.04-2.34-0.04c-0.26,0-0.39,0.04-0.39,0.16
		c0,0.12,0.12,0.18,0.3,0.18c0.26,0,0.55,0.02,0.69,0.06c0.55,0.16,0.71,0.33,0.75,0.9c0.02,0.53,0.02,1,0.02,3.54V61.88z
		 M175.07,61.39c0,2.42,0.69,3.66,1.57,4.43c1.26,1.1,3.05,1.14,3.96,1.14c1.12,0,2.44-0.18,3.66-1.2c1.45-1.2,1.65-3.17,1.65-5.04
		v-1.79c0-2.54,0.02-3.01,0.04-3.54c0.04-0.59,0.16-0.83,0.63-0.91c0.22-0.04,0.31-0.06,0.51-0.06c0.2,0,0.3-0.06,0.3-0.18
		c0-0.12-0.12-0.16-0.35-0.16c-0.67,0-1.83,0.04-2.03,0.04c-0.02,0-1.18-0.04-2.07-0.04c-0.24,0-0.35,0.04-0.35,0.16
		c0,0.12,0.1,0.18,0.3,0.18c0.2,0,0.49,0.02,0.63,0.06c0.55,0.16,0.69,0.33,0.73,0.91c0.02,0.53,0.04,1,0.04,3.54v2.11
		c0,1.71-0.04,3.17-1,4.07c-0.69,0.67-1.57,0.89-2.32,0.89c-0.59,0-1.42-0.06-2.19-0.67c-0.85-0.67-1.32-1.61-1.32-4.05v-2.34
		c0-2.54,0-3.01,0.04-3.54c0.04-0.59,0.18-0.83,0.63-0.91c0.22-0.04,0.31-0.06,0.51-0.06c0.18,0,0.28-0.06,0.28-0.18
		c0-0.12-0.12-0.16-0.37-0.16c-0.63,0-1.79,0.04-2.22,0.04c-0.51,0-1.67-0.04-2.6-0.04c-0.26,0-0.37,0.04-0.37,0.16
		c0,0.12,0.1,0.18,0.3,0.18c0.24,0,0.53,0.02,0.67,0.06c0.55,0.16,0.71,0.32,0.75,0.91c0.04,0.53,0.02,1,0.02,3.54V61.39z
		 M167.28,58.92c0-2.54,0-3.01,0.04-3.54c0.04-0.59,0.18-0.83,0.65-0.9c0.2-0.04,0.47-0.06,0.67-0.06c0.22,0,0.32-0.06,0.32-0.18
		c0-0.12-0.12-0.16-0.37-0.16c-0.67,0-2.08,0.04-2.5,0.04c-0.47,0-1.57-0.04-2.38-0.04c-0.26,0-0.37,0.04-0.37,0.16
		c0,0.12,0.1,0.18,0.3,0.18c0.22,0,0.43,0.02,0.57,0.06c0.55,0.16,0.71,0.33,0.75,0.9c0.02,0.53,0.02,1,0.02,3.54v2.95
		c0,1.53,0,2.85-0.08,3.56c-0.06,0.49-0.16,0.81-0.51,0.89c-0.16,0.04-0.35,0.06-0.61,0.06c-0.22,0-0.28,0.1-0.28,0.18
		c0,0.12,0.12,0.18,0.34,0.18c0.35,0,0.79-0.02,1.2-0.04c0.41,0,0.79-0.02,0.98-0.02c0.71,0,1.43,0.02,2.3,0.04
		c0.87,0.04,1.87,0.06,3.11,0.06c0.91,0,0.98-0.08,1.1-0.45c0.14-0.49,0.26-1.73,0.26-1.93s-0.04-0.37-0.16-0.37
		c-0.14,0-0.18,0.1-0.2,0.26c-0.04,0.31-0.22,0.79-0.43,1c-0.43,0.45-1.1,0.47-2.03,0.47c-1.34,0-2.01-0.1-2.3-0.35
		c-0.37-0.32-0.37-1.38-0.37-3.52V58.92z M156.26,67.01c1.26,0,2.76-0.14,3.54-0.45c0.33-0.14,0.41-0.24,0.51-0.57
		c0.2-0.67,0.43-2.38,0.43-2.62c0-0.16-0.04-0.3-0.18-0.3c-0.16,0-0.2,0.08-0.25,0.39c-0.08,0.35-0.33,0.92-0.67,1.3
		c-0.79,0.91-1.85,1.1-3.6,1.1c-2.64,0-6.2-2.32-6.2-7.01c0-1.91,0.37-3.78,1.81-5.1c0.87-0.79,1.99-1.22,3.7-1.22
		c1.81,0,3.35,0.53,4,1.22c0.49,0.51,0.75,1.2,0.77,1.81c0,0.28,0.04,0.43,0.2,0.43c0.18,0,0.22-0.16,0.24-0.45
		c0.04-0.39,0.02-1.48,0.06-2.13c0.04-0.69,0.1-0.92,0.1-1.08c0-0.12-0.08-0.22-0.29-0.24c-0.59-0.06-1.22-0.24-1.97-0.33
		c-0.91-0.12-1.63-0.2-2.85-0.2c-2.93,0-4.8,0.79-6.22,2.08c-1.89,1.73-2.3,4.05-2.3,5.39c0,1.91,0.51,4.11,2.44,5.81
		C151.3,66.42,153.57,67.01,156.26,67.01 M133.3,60.56c0-0.12,0.04-0.14,0.12-0.14c0.3,0,2.34,0.02,2.78,0.06
		c0.53,0.04,0.75,0.37,0.83,0.61c0.08,0.2,0.12,0.39,0.12,0.51c0,0.12,0.06,0.24,0.16,0.24c0.18,0,0.2-0.24,0.2-0.37
		c0-0.12,0.02-0.89,0.06-1.22c0.06-0.53,0.14-0.98,0.14-1.08c0-0.1-0.04-0.16-0.1-0.16c-0.1,0-0.14,0.08-0.24,0.18
		c-0.16,0.22-0.41,0.28-0.73,0.3c-0.26,0.02-0.49,0.02-0.79,0.02l-2.42,0.02c-0.1,0-0.12-0.06-0.12-0.16V55.3
		c0-0.2,0.06-0.24,0.16-0.24l2.88,0.06c0.65,0.02,0.98,0.28,1.1,0.51c0.12,0.24,0.1,0.49,0.1,0.63c0,0.2,0.1,0.28,0.22,0.28
		s0.16-0.2,0.18-0.34c0.02-0.19,0.06-1.18,0.08-1.36c0.06-0.43,0.14-0.63,0.14-0.75c0-0.08-0.06-0.16-0.12-0.16
		c-0.1,0-0.18,0.08-0.28,0.1c-0.18,0.04-0.39,0.06-0.71,0.08c-0.41,0.02-4.25,0-4.92,0c-0.49,0-1.59-0.04-2.48-0.04
		c-0.28,0-0.41,0.04-0.41,0.16c0,0.12,0.14,0.18,0.3,0.18c0.26,0,0.55,0.02,0.69,0.06c0.55,0.14,0.71,0.33,0.75,0.9
		c0.02,0.53,0.02,1,0.02,3.54v2.95c0,1.61,0,2.85-0.08,3.56c-0.06,0.49-0.16,0.81-0.51,0.89c-0.16,0.04-0.35,0.06-0.61,0.06
		c-0.2,0-0.26,0.1-0.26,0.18c0,0.14,0.12,0.18,0.35,0.18c0.65,0,1.75-0.06,2.2-0.06c0.45,0,1.67,0.06,2.77,0.06
		c0.26,0,0.37-0.06,0.37-0.18c0-0.08-0.08-0.18-0.3-0.18c-0.24,0-0.61-0.02-0.85-0.06c-0.51-0.08-0.63-0.39-0.69-0.89
		c-0.08-0.71-0.1-1.89-0.1-3.5V60.56z M122.04,58.92c0-2.54,0-3.01,0.04-3.54c0.04-0.59,0.18-0.83,0.65-0.9
		c0.2-0.04,0.47-0.06,0.67-0.06c0.22,0,0.31-0.06,0.31-0.18c0-0.12-0.12-0.16-0.37-0.16c-0.67,0-2.08,0.04-2.5,0.04
		c-0.47,0-1.57-0.04-2.38-0.04c-0.26,0-0.37,0.04-0.37,0.16c0,0.12,0.1,0.18,0.3,0.18c0.22,0,0.43,0.02,0.57,0.06
		c0.55,0.16,0.71,0.33,0.75,0.9c0.02,0.53,0.02,1,0.02,3.54v2.95c0,1.53,0,2.85-0.08,3.56c-0.06,0.49-0.16,0.81-0.51,0.89
		c-0.16,0.04-0.35,0.06-0.61,0.06c-0.22,0-0.28,0.1-0.28,0.18c0,0.12,0.12,0.18,0.33,0.18c0.35,0,0.79-0.02,1.2-0.04
		c0.41,0,0.79-0.02,0.98-0.02c0.71,0,1.43,0.02,2.3,0.04c0.87,0.04,1.87,0.06,3.11,0.06c0.9,0,0.98-0.08,1.1-0.45
		c0.14-0.49,0.26-1.73,0.26-1.93s-0.04-0.37-0.16-0.37c-0.14,0-0.18,0.1-0.2,0.26c-0.04,0.31-0.22,0.79-0.43,1
		c-0.43,0.45-1.1,0.47-2.03,0.47c-1.34,0-2.01-0.1-2.3-0.35c-0.37-0.32-0.37-1.38-0.37-3.52V58.92z M109.55,66.05
		c-3.27,0-5.24-2.72-5.24-6.16c0-4.13,2.26-5.16,4.19-5.16c2.8,0,5.02,2.28,5.02,5.98C113.53,65.48,110.77,66.05,109.55,66.05
		 M108.84,66.95c4.47,0,7.26-3.01,7.26-6.85c0-3.84-2.71-6.26-7.08-6.26c-5.25,0-7.26,3.7-7.26,6.55
		C101.76,63.37,103.8,66.95,108.84,66.95 M98.16,63.25c0-0.98,0-1.77,0.02-2.36c0.02-0.69,0.22-1.02,0.75-1.12
		c0.24-0.04,0.37-0.06,0.53-0.06c0.14,0,0.25-0.04,0.25-0.16c0-0.16-0.14-0.2-0.39-0.2c-0.65,0-1.69,0.06-2.3,0.06
		c-0.59,0-1.83-0.06-2.85-0.06c-0.28,0-0.41,0.04-0.41,0.2c0,0.12,0.12,0.16,0.3,0.16c0.28,0,0.61,0.02,0.77,0.06
		c0.65,0.14,0.83,0.45,0.85,1.12c0.02,0.59,0.02,1.34,0.02,2.32v1.85c0,0.34-0.08,0.59-0.37,0.73c-0.47,0.22-1.16,0.22-1.67,0.22
		c-4.15,0-6.85-3.17-6.85-7.4c0-2.42,0.71-3.9,1.81-4.82c1.38-1.14,2.81-1.22,3.9-1.22c2.22,0,3.8,0.9,4.39,1.54
		c0.51,0.55,0.61,1.18,0.67,1.63c0.02,0.16,0.06,0.26,0.2,0.26c0.16,0,0.22-0.1,0.22-0.41c0-2.46,0.14-3.01,0.14-3.23
		c0-0.14-0.04-0.22-0.28-0.24c-0.45-0.02-1.14-0.14-1.55-0.22c-0.39-0.08-2.13-0.31-3.48-0.31c-1.65,0-3.41,0.14-5.29,1.28
		c-1.79,1.08-3.42,3.29-3.42,6.44c0,5.43,4.27,7.71,9.09,7.71c1.53,0,3.46-0.22,4.74-0.88c0.24-0.14,0.26-0.18,0.26-0.71V63.25z"/>
	<path class="st0" d="M283.93,30.37c0-3.33,0-3.95,0.05-4.64c0.05-0.77,0.23-1.08,0.85-1.19c0.26-0.05,0.62-0.08,0.88-0.08
		c0.28,0,0.41-0.08,0.41-0.23c0-0.15-0.15-0.21-0.49-0.21c-0.88,0-2.73,0.05-3.28,0.05c-0.62,0-2.06-0.05-3.12-0.05
		c-0.33,0-0.49,0.05-0.49,0.21c0,0.15,0.13,0.23,0.39,0.23c0.28,0,0.57,0.03,0.75,0.08c0.72,0.21,0.93,0.44,0.98,1.19
		c0.03,0.7,0.03,1.32,0.03,4.64v3.87c0,2.01,0,3.74-0.1,4.67c-0.08,0.64-0.21,1.06-0.67,1.16c-0.21,0.05-0.46,0.08-0.8,0.08
		c-0.28,0-0.36,0.13-0.36,0.23c0,0.15,0.15,0.23,0.44,0.23c0.46,0,1.03-0.03,1.57-0.05c0.54,0,1.03-0.03,1.29-0.03
		c0.93,0,1.88,0.03,3.02,0.05c1.13,0.05,2.45,0.08,4.07,0.08c1.19,0,1.29-0.1,1.44-0.59c0.18-0.65,0.34-2.27,0.34-2.53
		c0-0.26-0.05-0.49-0.21-0.49c-0.18,0-0.23,0.13-0.26,0.34c-0.05,0.41-0.28,1.03-0.57,1.31c-0.57,0.59-1.44,0.62-2.66,0.62
		c-1.75,0-2.63-0.13-3.02-0.46c-0.49-0.41-0.49-1.81-0.49-4.62V30.37z M265.52,33.88c-0.08,0-0.13-0.05-0.08-0.15l2.19-5.55
		c0.03-0.08,0.05-0.21,0.13-0.21c0.05,0,0.08,0.13,0.1,0.21l2.14,5.57c0.03,0.08,0,0.13-0.1,0.13H265.52z M270.39,35.09
		c0.1,0,0.18,0.03,0.23,0.15l1.75,4.41c0.1,0.26-0.05,0.46-0.21,0.49c-0.23,0.03-0.28,0.1-0.28,0.23c0,0.15,0.26,0.15,0.67,0.18
		c1.91,0.05,3.56,0.05,4.36,0.05c0.85,0,0.98-0.05,0.98-0.23c0-0.15-0.1-0.23-0.31-0.23c-0.26,0-0.52-0.03-0.85-0.08
		c-0.41-0.08-1.06-0.36-1.93-2.35c-1.44-3.33-5.24-12.3-5.78-13.51c-0.23-0.49-0.34-0.7-0.67-0.7c-0.23,0-0.41,0.26-0.67,0.88
		l-5.93,13.8c-0.46,1.11-0.85,1.78-1.88,1.93c-0.21,0-0.46,0.03-0.67,0.03c-0.18,0-0.26,0.1-0.26,0.23c0,0.18,0.13,0.23,0.41,0.23
		c1.19,0,2.4-0.08,2.63-0.08c0.72,0,1.78,0.08,2.53,0.08c0.23,0,0.36-0.05,0.36-0.23c0-0.13-0.05-0.23-0.33-0.23h-0.34
		c-0.7,0-0.9-0.23-0.9-0.62c0-0.26,0.1-0.8,0.33-1.34l1.21-2.94c0.05-0.13,0.08-0.15,0.21-0.15H270.39z M243.03,28.67h0.08
		c0.44,0.39,2.84,3.04,5.31,5.42c2.37,2.29,5.21,5,6.63,6.32c0.23,0.23,0.54,0.46,0.93,0.46c0.18,0,0.36-0.21,0.36-0.7l0.26-13.82
		c0.03-1.24,0.21-1.63,0.82-1.81c0.28-0.08,0.46-0.08,0.7-0.08c0.26,0,0.39-0.1,0.39-0.23c0-0.18-0.21-0.21-0.52-0.21
		c-1.11,0-1.96,0.05-2.22,0.05c-0.49,0-1.7-0.05-2.89-0.05c-0.33,0-0.57,0.03-0.57,0.21c0,0.13,0.08,0.23,0.36,0.23
		c0.31,0,0.85,0,1.19,0.13c0.54,0.21,0.75,0.59,0.77,1.93l0.23,9.75h-0.1c-0.34-0.31-3.35-3.4-4.9-4.93
		c-3.3-3.22-6.71-6.71-6.99-6.99c-0.39-0.39-0.7-0.72-0.98-0.72c-0.23,0-0.39,0.31-0.39,0.75l-0.21,13c-0.03,1.91-0.1,2.5-0.7,2.66
		c-0.31,0.08-0.72,0.1-1.03,0.1c-0.21,0-0.36,0.1-0.36,0.23c0,0.21,0.21,0.23,0.52,0.23c1.16,0,2.24-0.08,2.45-0.08
		c0.41,0,1.47,0.08,2.94,0.08c0.31,0,0.52-0.05,0.52-0.23c0-0.13-0.13-0.23-0.39-0.23c-0.36,0-0.8-0.03-1.19-0.15
		c-0.44-0.15-0.72-0.67-0.77-2.37L243.03,28.67z M228.53,39.71c-4.28,0-6.86-3.56-6.86-8.07c0-5.42,2.97-6.76,5.49-6.76
		c3.66,0,6.58,2.99,6.58,7.84C233.74,38.96,230.13,39.71,228.53,39.71 M227.61,40.9c5.85,0,9.52-3.95,9.52-8.97
		c0-5.03-3.56-8.2-9.28-8.2c-6.89,0-9.52,4.85-9.52,8.59C218.32,36.2,221,40.9,227.61,40.9 M210.04,34.24c0,2.11,0,3.87-0.1,4.77
		c-0.08,0.64-0.21,0.95-0.67,1.06c-0.21,0.05-0.46,0.08-0.8,0.08c-0.28,0-0.36,0.13-0.36,0.23c0,0.15,0.16,0.23,0.44,0.23
		c0.9,0,2.45-0.08,2.97-0.08c0.62,0,2.17,0.08,3.66,0.08c0.26,0,0.44-0.08,0.44-0.23c0-0.1-0.1-0.23-0.36-0.23
		c-0.34,0-0.85-0.03-1.16-0.08c-0.67-0.1-0.82-0.44-0.9-1.03c-0.1-0.93-0.1-2.68-0.1-4.8v-3.87c0-3.33,0-3.95,0.05-4.64
		c0.05-0.77,0.23-1.08,0.85-1.19c0.26-0.05,0.44-0.08,0.67-0.08c0.23,0,0.36-0.05,0.36-0.26c0-0.13-0.18-0.18-0.46-0.18
		c-0.88,0-2.35,0.05-2.91,0.05c-0.65,0-2.19-0.05-3.04-0.05c-0.36,0-0.54,0.05-0.54,0.18c0,0.21,0.13,0.26,0.36,0.26
		c0.28,0,0.57,0.03,0.82,0.1c0.49,0.15,0.72,0.41,0.77,1.16c0.03,0.7,0.03,1.32,0.03,4.64V34.24z M196.22,34.24
		c0,2.01,0,3.74-0.1,4.67c-0.08,0.64-0.21,1.06-0.67,1.16c-0.18,0.05-0.46,0.08-0.8,0.08c-0.28,0-0.36,0.13-0.36,0.23
		c0,0.15,0.15,0.23,0.44,0.23c0.9,0,2.45-0.08,2.97-0.08c0.64,0,2.17,0.08,3.66,0.08c0.26,0,0.44-0.08,0.44-0.23
		c0-0.1-0.1-0.23-0.36-0.23c-0.34,0-0.85-0.03-1.16-0.08c-0.67-0.1-0.8-0.52-0.88-1.14c-0.1-0.95-0.13-2.68-0.13-4.69v-8.87
		l2.86,0.05c2.04,0.02,2.63,0.7,2.68,1.26l0.03,0.23c0.03,0.34,0.08,0.44,0.26,0.44c0.13,0,0.18-0.13,0.21-0.36
		c0-0.57,0.05-2.19,0.05-2.66c0-0.34-0.03-0.46-0.18-0.46c-0.08,0-0.26,0.05-0.62,0.1c-0.34,0.05-0.82,0.1-1.55,0.1h-9.21
		c-0.75,0-1.6-0.03-2.27-0.1c-0.57-0.08-0.8-0.26-0.98-0.26c-0.13,0-0.21,0.13-0.26,0.41c-0.05,0.18-0.49,2.29-0.49,2.66
		c0,0.23,0.05,0.36,0.21,0.36s0.21-0.1,0.26-0.28c0.05-0.16,0.15-0.44,0.39-0.75c0.34-0.49,0.88-0.65,2.19-0.67l3.38-0.08V34.24z
		 M179.51,33.88c-0.08,0-0.13-0.05-0.08-0.15l2.19-5.55c0.03-0.08,0.05-0.21,0.13-0.21c0.05,0,0.08,0.13,0.1,0.21l2.14,5.57
		c0.03,0.08,0,0.13-0.1,0.13H179.51z M184.38,35.09c0.1,0,0.18,0.03,0.23,0.15l1.75,4.41c0.1,0.26-0.05,0.46-0.21,0.49
		c-0.23,0.03-0.28,0.1-0.28,0.23c0,0.15,0.26,0.15,0.67,0.18c1.91,0.05,3.56,0.05,4.36,0.05c0.85,0,0.98-0.05,0.98-0.23
		c0-0.15-0.1-0.23-0.31-0.23c-0.26,0-0.52-0.03-0.85-0.08c-0.41-0.08-1.06-0.36-1.93-2.35c-1.44-3.33-5.24-12.3-5.78-13.51
		c-0.23-0.49-0.33-0.7-0.67-0.7c-0.23,0-0.41,0.26-0.67,0.88l-5.93,13.8c-0.46,1.11-0.85,1.78-1.88,1.93
		c-0.21,0-0.46,0.03-0.67,0.03c-0.18,0-0.26,0.1-0.26,0.23c0,0.18,0.13,0.23,0.41,0.23c1.19,0,2.4-0.08,2.63-0.08
		c0.72,0,1.78,0.08,2.53,0.08c0.23,0,0.36-0.05,0.36-0.23c0-0.13-0.05-0.23-0.34-0.23h-0.34c-0.7,0-0.9-0.23-0.9-0.62
		c0-0.26,0.1-0.8,0.33-1.34l1.21-2.94c0.05-0.13,0.08-0.15,0.21-0.15H184.38z M154.8,26.27h0.08c0.46,0.49,3.33,3.71,6.14,6.5
		c2.68,2.66,5.98,6.04,7.61,7.58c0.28,0.28,0.59,0.57,0.88,0.57c0.23,0,0.34-0.23,0.34-0.8l0.28-16.27
		c0.03-1.44,0.23-1.99,0.95-2.19c0.31-0.08,0.52-0.08,0.77-0.08c0.31,0,0.46-0.08,0.46-0.23c0-0.21-0.26-0.23-0.59-0.23
		c-1.26,0-2.24,0.08-2.53,0.08c-0.54,0-1.78-0.08-3.12-0.08c-0.39,0-0.67,0.03-0.67,0.23c0,0.15,0.1,0.23,0.41,0.23
		c0.36,0,0.98,0,1.37,0.15c0.62,0.26,0.85,0.75,0.88,2.32l0.26,11.58h-0.13c-0.44-0.41-3.92-4.13-5.67-5.88
		c-3.77-3.74-7.69-7.94-7.99-8.28c-0.44-0.46-0.67-0.8-0.96-0.8c-0.26,0-0.34,0.36-0.34,0.88l-0.23,15.27
		c-0.03,2.24-0.13,2.99-0.8,3.2c-0.36,0.1-0.82,0.13-1.16,0.13c-0.26,0-0.41,0.05-0.41,0.21c0,0.23,0.23,0.26,0.57,0.26
		c1.34,0,2.55-0.08,2.79-0.08c0.49,0,1.52,0.08,3.2,0.08c0.36,0,0.59-0.05,0.59-0.26c0-0.15-0.15-0.21-0.44-0.21
		c-0.41,0-0.9-0.03-1.34-0.18c-0.52-0.18-0.85-0.85-0.9-2.86L154.8,26.27z M133.86,34.24c0,2.11,0,3.87-0.1,4.77
		c-0.08,0.64-0.21,0.95-0.67,1.06c-0.21,0.05-0.46,0.08-0.8,0.08c-0.28,0-0.36,0.13-0.36,0.23c0,0.15,0.15,0.23,0.44,0.23
		c0.9,0,2.45-0.08,2.97-0.08c0.62,0,2.17,0.08,3.66,0.08c0.26,0,0.44-0.08,0.44-0.23c0-0.1-0.1-0.23-0.36-0.23
		c-0.34,0-0.85-0.03-1.16-0.08c-0.67-0.1-0.83-0.44-0.9-1.03c-0.1-0.93-0.1-2.68-0.1-4.8v-3.87c0-3.33,0-3.95,0.05-4.64
		c0.05-0.77,0.23-1.08,0.85-1.19c0.26-0.05,0.44-0.08,0.67-0.08c0.23,0,0.36-0.05,0.36-0.26c0-0.13-0.18-0.18-0.46-0.18
		c-0.88,0-2.35,0.05-2.91,0.05c-0.64,0-2.19-0.05-3.04-0.05c-0.36,0-0.54,0.05-0.54,0.18c0,0.21,0.13,0.26,0.36,0.26
		c0.28,0,0.57,0.03,0.83,0.1c0.49,0.15,0.72,0.41,0.77,1.16c0.03,0.7,0.03,1.32,0.03,4.64V34.24z M122.15,30.37
		c0-3.33,0-3.95,0.05-4.64c0.05-0.77,0.23-1.08,0.85-1.19c0.26-0.05,0.62-0.08,0.88-0.08c0.28,0,0.41-0.08,0.41-0.23
		c0-0.15-0.15-0.21-0.49-0.21c-0.88,0-2.73,0.05-3.28,0.05c-0.62,0-2.06-0.05-3.12-0.05c-0.34,0-0.49,0.05-0.49,0.21
		c0,0.15,0.13,0.23,0.39,0.23c0.28,0,0.57,0.03,0.75,0.08c0.72,0.21,0.93,0.44,0.98,1.19c0.03,0.7,0.03,1.32,0.03,4.64v3.87
		c0,2.01,0,3.74-0.1,4.67c-0.08,0.64-0.21,1.06-0.67,1.16c-0.21,0.05-0.46,0.08-0.8,0.08c-0.28,0-0.36,0.13-0.36,0.23
		c0,0.15,0.15,0.23,0.44,0.23c0.46,0,1.03-0.03,1.57-0.05c0.54,0,1.03-0.03,1.29-0.03c0.93,0,1.88,0.03,3.02,0.05
		c1.13,0.05,2.45,0.08,4.07,0.08c1.19,0,1.29-0.1,1.44-0.59c0.18-0.65,0.34-2.27,0.34-2.53c0-0.26-0.05-0.49-0.21-0.49
		c-0.18,0-0.23,0.13-0.26,0.34c-0.05,0.41-0.28,1.03-0.57,1.31c-0.57,0.59-1.44,0.62-2.66,0.62c-1.75,0-2.63-0.13-3.02-0.46
		c-0.49-0.41-0.49-1.81-0.49-4.62V30.37z M103.73,33.88c-0.08,0-0.13-0.05-0.08-0.15l2.19-5.55c0.02-0.08,0.05-0.21,0.13-0.21
		c0.05,0,0.08,0.13,0.1,0.21l2.14,5.57c0.03,0.08,0,0.13-0.1,0.13H103.73z M108.61,35.09c0.1,0,0.18,0.03,0.23,0.15l1.75,4.41
		c0.1,0.26-0.05,0.46-0.21,0.49c-0.23,0.03-0.28,0.1-0.28,0.23c0,0.15,0.26,0.15,0.67,0.18c1.91,0.05,3.56,0.05,4.36,0.05
		c0.85,0,0.98-0.05,0.98-0.23c0-0.15-0.1-0.23-0.31-0.23c-0.26,0-0.52-0.03-0.85-0.08c-0.41-0.08-1.06-0.36-1.93-2.35
		c-1.44-3.33-5.24-12.3-5.78-13.51c-0.23-0.49-0.33-0.7-0.67-0.7c-0.23,0-0.41,0.26-0.67,0.88l-5.93,13.8
		c-0.46,1.11-0.85,1.78-1.88,1.93c-0.21,0-0.46,0.03-0.67,0.03c-0.18,0-0.26,0.1-0.26,0.23c0,0.18,0.13,0.23,0.41,0.23
		c1.19,0,2.4-0.08,2.63-0.08c0.72,0,1.78,0.08,2.53,0.08c0.23,0,0.36-0.05,0.36-0.23c0-0.13-0.05-0.23-0.34-0.23h-0.34
		c-0.7,0-0.9-0.23-0.9-0.62c0-0.26,0.1-0.8,0.34-1.34l1.21-2.94c0.05-0.13,0.08-0.15,0.21-0.15H108.61z M93.83,36.23
		c0,2.68-1.96,3.3-3.12,3.3c-0.59,0-1.19-0.03-1.88-0.31c-0.83-0.34-0.9-0.77-0.9-2.48v-6.11c0-0.13,0.05-0.18,0.15-0.18
		c0.39,0,0.65,0,1.11,0.03c1.01,0.05,1.6,0.23,2.14,0.62C93.29,32.46,93.83,34.63,93.83,36.23 M87.93,22.66
		c0-0.28,0.05-0.39,0.23-0.44c0.26-0.05,0.49-0.05,0.85-0.05c2.22,0,3.22,2.27,3.22,4c0,1.26-0.39,2.19-1.06,2.73
		c-0.44,0.39-1.01,0.49-1.86,0.49c-0.59,0-0.98-0.03-1.21-0.08c-0.1-0.03-0.18-0.08-0.18-0.28V22.66z M84.83,33.13
		c0,2.37,0,4.41-0.13,5.49c-0.1,0.75-0.23,1.31-0.75,1.42c-0.23,0.05-0.54,0.1-0.93,0.1c-0.31,0-0.41,0.08-0.41,0.21
		c0,0.18,0.18,0.26,0.52,0.26c0.52,0,1.19-0.05,1.78-0.05c0.62-0.03,1.19-0.03,1.47-0.03c0.39,0,1.16,0.03,1.93,0.08
		c0.75,0.03,1.5,0.08,1.81,0.08c4.75,0,6.89-2.86,6.89-5.62c0-3.02-2.58-4.85-4.69-5.57c1.42-1.13,2.63-2.4,2.63-4.51
		c0-1.37-0.83-3.87-5.49-3.87c-0.88,0-1.88,0.08-3.15,0.08c-0.52,0-2.14-0.08-3.51-0.08c-0.39,0-0.57,0.05-0.57,0.23
		c0,0.18,0.16,0.23,0.44,0.23c0.36,0,0.8,0.03,1.01,0.08c0.85,0.18,1.06,0.59,1.11,1.47c0.05,0.83,0.05,1.55,0.05,5.47V33.13z"/>
	<path class="st0" d="M30.38,60.56l-1.52-0.71c-0.01,0.01-0.02,0.02-0.03,0.03c-0.09,0.07-0.19,0.14-0.27,0.21c0,0,0,0-0.01,0.01
		l0.49,1.65l2.15,0.95C30.4,60.55,30.38,60.56,30.38,60.56 M23.99,65.74l1.41,0.87c-0.1-1.77-0.13-1.77-0.13-1.77l-1.36-0.93
		L23.99,65.74z M34.28,23.42c0,0,0.35-0.27,0.7-0.56c-0.27-0.29-0.94-0.92-1.09-1.43c-0.06-0.21-0.71-0.21-0.68-0.61
		c0.03-0.39-0.12-0.46-0.27-1.2c-0.38-0.49-1.08-1.39-1.71-2.14c-0.17-0.19-0.35-0.37-0.51-0.53c0.01,0.23,0.04,0.97,0.27,1.97
		c0.15,0.46,0.32,0.78,0.44,0.92c0.26,0.29,0.51,1.85,0.67,2.46c0.16,0.61,1.12,1.08,1.6,1.34c0.08,0.04,0.19,0.06,0.32,0.07
		c0.03,0,0.06-0.01,0.09-0.01C34.13,23.63,34.26,23.5,34.28,23.42 M40.36,20.3c-0.11-0.63-0.63-1.16-0.8-1.06
		c-0.31,0.28-0.54,0.54-0.62,0.8c-0.1,0.31-0.32,0.36-0.02,0.86c0.29,0.49,1.01,0.6,1.25,0.47C40.42,21.25,40.49,20.73,40.36,20.3
		 M42.76,35.95c0.34-1.83,0.97-5.11,0.32-7.54c-0.27-1.03-0.24,1.08-0.28,1.61c-0.14,0.98-0.61,3.61-1.59,5.11
		c-0.98,1.5-1.99,1.98-1.33,2.32c0.33,0.17,1.86,0.24,2.4,0.07C42.82,37.35,42.59,36.82,42.76,35.95 M43.71,36.27
		c0.15,1.39-0.57,0.97-0.49,2.15c0.22,0.89,0.9,1.39,0.9,3.4c0.03,2.79-0.02,11.13-2.21,18.01c-0.01,0.01-0.13,0.39-0.46,0.56
		c-0.19,0.1-0.35,0.12-0.48,0.35c-0.13,0.24-0.24,0.55-0.34,0.9c-1.25-0.66-1.97-1.06-1.99-1.07c0.56-0.03,1.05-0.12,1.05-0.12
		c1-0.14,1.32-0.47,1.81-2.12c1-3.33,1.6-8.88,1.6-8.88s-1.91,5.7-2.91,7.6c-0.85,1.61-2.46,2.74-2.94,3.06
		c0.01-0.02,0.02-0.05,0.02-0.07c-0.02-0.02-0.03-0.03-0.05-0.05c-0.09,0.05-0.27,0.18-0.55,0.47c-0.43,0.46-1.2,0.67-2.29,0.68
		c0.03,0,0.04,0.01,0.04,0.01c-0.49,0.08-7.05,4.51-7.73,4.86c-0.68,0.35-2.12,1.47-2.12,1.47c-0.26,0.26,0.23,0.15-0.39,0.77
		c-0.85,0.85-1.85,2.37-2.06,3.14c-0.14,0.54-0.39,0.98-1.23,0.93c-0.84-0.04-1.06-1.31-1.09-2.34c-0.03-1.03,0.61-2.14,0.93-2.62
		c0.28-0.41,0.21-0.56,0.17-1.02c-0.04-0.5-0.31-1.62,0.02-2.16c0.39-0.64,0.5-0.88,1.5-0.75c0.72,0.09,0.77,0.19,1.14,0.35
		c0.01,0.01,0.26,0.1,0.26,0.1c0.04,0.01,0.09,0.01,0.13,0.01c0.33,0.08,0.7,0.04,1.1-0.2l0.24,1.18l1.68,0.65
		c-0.44-1.67-0.39-1.69-0.39-1.69l-1.11-0.47c0,0,0.01-0.01,0.01-0.01c0.2-0.19,0.46-0.45,0.73-0.74l0.39,1.23l1.81,0.77
		c-0.57-1.73-0.58-1.76-0.58-1.76l-1.35-0.52c0.36-0.39,0.72-0.79,1-1.11c-0.03,0.03-0.05,0.06-0.08,0.09l0.44,1.53l1.89,0.86
		c-0.72-1.93-0.66-1.9-0.69-1.98l-1.51-0.57c0.2-0.23,0.35-0.41,0.41-0.51c0.07-0.11,0.31-0.32,0.61-0.55h0l0.01-0.01
		c0.09-0.07,0.18-0.14,0.27-0.21c0.01-0.01,0.02-0.02,0.03-0.03c0.41-0.3,0.85-0.61,1.16-0.79v0c0.06-0.04,0.12-0.07,0.17-0.1
		c-0.05,0.03-0.11,0.06-0.17,0.1l0.37,1.5l2.5,1.12c-0.91-2.2-0.97-2.49-0.97-2.49l-1.25-0.52l0,0c0.09-0.09,0.16-0.19,0.21-0.3
		c0.02-0.01,0.03-0.01,0.03-0.01c0-0.01,0.01-0.02,0.01-0.04l-0.01,0c0.01-0.02,0.02-0.05,0.03-0.07c0.08-0.19,0.12-0.37,0.15-0.49
		c0.05-0.11,0.16-0.26,0.42-0.52c0.28-0.28,0.52-0.36,0.79-0.4c0.3-0.07,0.57-0.07,0.74-0.06c0.24-0.27,0.45-0.6,0.65-0.97
		c0.54-1.2,1.21-3.36,1.48-5.5c0.09-0.76,0.11-1.38,0.08-1.71c0,0-0.63-1.38-1.32-3.28c-0.19-0.52-1.14-1.3,1.24-5.97
		c0.25-0.51,0.46-0.88,0.46-0.88s-0.49-0.61-0.48-0.88c0.01-0.27,0.13-0.76,0.1-0.91c-0.03-0.15-0.59-2.43-1.04-3.31
		c-0.48-1.18-2.29-2.89-2.82-5.35c-0.25-1.8-1.03-2.34-1.97-4.18c-0.02-0.05-0.04-0.11-0.05-0.16c-0.01-0.01-0.01-0.01-0.02-0.02
		c-0.16-0.52-0.33-0.97-0.46-1.85c-0.14-0.8-0.23-1.79-0.2-3.11c0-0.16,0-0.32,0-0.48c0-0.46,0-0.92,0.01-1.33
		c0.01-0.63,0.01-1.15,0.01-1.35c-0.47,0.36-1.35,0.83-2.56,0.64l0-0.01l-0.23,0.04c0,0-11.53,24.31-12.05,25.45
		c-0.28,0.83-0.11,1.17,0.23,1.98c0.31,0.5,0.61,0.92,1.04,0.88v0c-0.03,0.08-0.07,0.14-0.11,0.2c-0.08,0.16-0.21,0.3-0.42,0.41
		c-0.53,0.25-1.74-0.25-1.78-2.03c-0.01-1.25,0.27-1.55,0.53-2.05c0.26-0.49,12.04-25.22,12.04-25.22s-0.05-0.35,0.03-0.85
		c0.07-0.44,0.19-1.13,0.55-1.65c0.48-0.63,0.58-0.7,0.92-0.84c0,0,0.36-0.97,0.73-0.87c0.39,0.1,0.47,0.17,0.05,0.99
		c0,0,1.29,0.1,1.98,1.43c0.2,0.42,0.77,0.68,1.11,0.87c0.26,0.15,2.32,1.2,3.34,1.73l0.01-0.01c0.01,0.01,0.03,0.03,0.04,0.04
		c0.07,0.03,0.12,0.06,0.18,0.09c1.43-0.92,2.82-0.99,3.16-0.96c0.4,0.04,0.72,0.15,1.69,0.15c0.94,0,1.65,0.15,1.84,0.85
		c0.05,0.23,0.09,0.48-0.7,0.92c2.34-0.69,1.3,0.05,0.59,0.51c-0.47,0.31-0.52,0.37-0.52,0.37s-0.16,0.17,0.31,0.69
		c0.65,0.73,0.79,1.01,0.48,1.19c-0.31,0.18-0.34,0.2-0.29,0.59c0.02,0.17,0.06,0.29,0.1,0.42c0.07,0.05,0.14,0.09,0.2,0.13
		c0.02,0,0.04,0,0.05,0.01c1.94,0.26,2.56,2.22,2.63,2.8C44.81,29.69,43.76,32,43.71,36.27 M36.45,61.18l-0.07-0.04l0.15-0.06
		C36.51,61.12,36.48,61.15,36.45,61.18 M40.59,61.78c-0.13,0.51-0.23,1.1-0.3,1.7c-0.9-0.53-1.95-0.98-1.95-0.98l-1.16,0.46
		c0-0.4,0-0.8,0.02-1.19l1.14,0.73L40.59,61.78z M37.16,60.39c0.01-0.03,0.01-0.04,0.02-0.07c0.01,0.01,0.02,0.02,0.03,0.03
		c0.01-0.01,0.02-0.01,0.03-0.01C37.21,60.35,37.19,60.36,37.16,60.39 M37.28,60.4c0.31,0.17,0.85,0.19,1.34,0.17l-1.4,0.55
		c0.02-0.26,0.04-0.52,0.07-0.77C37.29,60.36,37.29,60.38,37.28,60.4 M36.34,72.01c0-0.62,0.42-1.49,0.42-1.49
		c0.23-0.42,0.27-0.59,0.31-0.86c-0.01,0.06-0.02,0.11-0.03,0.17l0.77,0.6l1.76-0.63c-0.9-0.47-1.62-0.85-1.62-0.85l-0.78,0.33
		c-0.01,0.02-0.01,0.03-0.01,0.05c0.05-0.18,0.11-0.42,0.16-0.76c0,0,0,0.01,0,0.01l0.64,0.37l1.7-0.64
		c-0.85-0.46-1.58-0.93-1.58-0.93l-0.7,0.37c0,0.01,0,0.02,0,0.04c0.01-0.23,0-0.49-0.01-0.79l0.71,0.39l1.75-0.71
		c-1.03-0.49-1.7-0.82-1.7-0.82l-0.82,0.38c-0.02-0.27-0.04-0.55-0.06-0.86l0.84,0.48l1.91-0.69c-0.94-0.46-1.82-0.9-1.82-0.9
		l-0.97,0.38c-0.01-0.31-0.03-0.62-0.03-0.94l1,0.56l2.09-0.72c-0.07,0.52-0.12,1.05-0.17,1.54c-0.17,1.66-0.36,4.59-0.36,4.63
		c0.02-0.01,0.2-0.06,0.36,0.18c0.14,0.22,0.84,1.05,1.26,1.4c0.53,0.43,2.47,0.8,2.62,1.97c0.05,0.42-0.62,0.64-1.26,0.64
		c-0.75,0-1.1-0.48-2.11-0.53c-1-0.04-1.36-0.66-1.57-0.86c-0.2-0.2-0.81-0.07-0.95-0.06c-0.14,0.01-1.02,0.08-1.5-0.18
		C36.49,72.19,36.4,72.11,36.34,72.01L36.34,72.01z M59.55,43.83C59.38,21.35,46.71,3.23,31.24,3.34
		C15.78,3.46,3.38,21.77,3.54,44.24c0.17,22.47,12.84,40.6,28.31,40.48C47.32,84.61,59.72,66.3,59.55,43.83"/>
	<path class="st0" d="M31.38,2.33l-0.15,0c-7.73,0.06-14.99,4.39-20.44,12.2c-5.54,7.94-8.54,18.48-8.46,29.68
		c0.18,22.86,13.36,41.46,29.39,41.46l0.15,0c7.73-0.06,14.99-4.39,20.44-12.2c5.54-7.94,8.54-18.48,8.46-29.68
		C60.59,20.93,47.41,2.33,31.38,2.33 M31.72,88C14.41,88,0.19,68.36,0,44.23c-0.09-11.68,3.06-22.7,8.88-31.03
		C14.78,4.75,22.71,0.06,31.21,0l0.17,0c17.3,0,31.53,19.64,31.71,43.77c0.09,11.68-3.06,22.7-8.87,31.03
		c-5.9,8.45-13.83,13.14-22.33,13.2L31.72,88z"/>
</g>
</svg>
