<?xml version="1.0" encoding="utf-8"?>
<!-- Generator: Adobe Illustrator 23.0.1, SVG Export Plug-In . SVG Version: 6.00 Build 0)  -->
<svg version="1.1" id="Layer_1" xmlns="http://www.w3.org/2000/svg" xmlns:xlink="http://www.w3.org/1999/xlink" x="0px" y="0px"
	 viewBox="0 0 164.01 78.27" style="enable-background:new 0 0 164.01 78.27;" xml:space="preserve">
<style type="text/css">
	.st0{fill:#FFFFFF;}
	.st1{display:none;clip-path:url(#XMLID_55_);}
	.st2{display:inline;fill:#FFFFFF;}
	.st3{display:none;clip-path:url(#XMLID_56_);}
	.st4{display:none;clip-path:url(#XMLID_57_);}
	.st5{display:none;clip-path:url(#XMLID_58_);}
	.st6{display:none;clip-path:url(#XMLID_59_);}
	.st7{display:none;clip-path:url(#XMLID_60_);}
	.st8{display:none;clip-path:url(#XMLID_61_);}
	.st9{display:none;clip-path:url(#XMLID_62_);}
	.st10{display:none;clip-path:url(#XMLID_63_);}
	.st11{display:none;clip-path:url(#XMLID_64_);}
	.st12{display:none;clip-path:url(#XMLID_65_);}
	.st13{display:none;clip-path:url(#XMLID_66_);}
	.st14{display:none;}
	.st15{display:inline;}
	.st16{display:none;clip-path:url(#XMLID_67_);}
	.st17{display:none;clip-path:url(#XMLID_68_);}
	.st18{display:none;clip-path:url(#XMLID_69_);}
	.st19{display:none;clip-path:url(#XMLID_70_);}
	.st20{display:none;clip-path:url(#XMLID_71_);}
	.st21{opacity:0.8;}
</style>
<g>
	<path class="st0" d="M71.91,73.74c0.59-0.24,1.04-0.92,1.04-1.67c0-0.5-0.2-0.94-0.55-1.3c-0.4-0.4-1.04-0.72-1.98-0.72h-4.97v8.22
		h5.07c1.18,0,1.72-0.33,2.13-0.71c0.55-0.53,0.76-1.15,0.76-1.75C73.41,74.81,72.87,73.97,71.91,73.74z M66.86,71.31h3.41
		c0.39,0,0.69,0.09,0.92,0.31c0.18,0.18,0.29,0.43,0.29,0.71c0,0.3-0.13,0.6-0.34,0.82c-0.23,0.23-0.53,0.3-0.87,0.3h-3.41V71.31z
		 M71.59,76.64c-0.25,0.25-0.63,0.38-1.02,0.38h-3.71v-2.43h3.71c0.42,0,0.78,0.18,1.03,0.44c0.2,0.22,0.33,0.48,0.33,0.78
		S71.81,76.42,71.59,76.64z"/>
	<path class="st0" d="M79.68,70.05l-3.82,8.22h1.47l0.98-2.22h3.92l0.99,2.22h1.55l-3.82-8.22H79.68z M78.82,74.92l1.42-3.18h0.08
		l1.41,3.18H78.82z"/>
	<polygon class="st0" points="89.16,70.05 87.75,70.05 87.75,78.27 94.21,78.27 94.21,77.02 89.16,77.02 	"/>
	<rect x="97.15" y="70.05" class="st0" width="1.41" height="8.22"/>
	<rect x="24.62" y="0.31" class="st0" width="3.3" height="25.96"/>
	<path class="st0" d="M20.4,22.97h-1.65c-0.62,0-1.24-1.03-1.24-1.03L9.79,11.33L20.4,0.31h-4.64L3.3,13.29V0.31H0v25.96h3.3v-8.04
		l4.22-4.43l7.52,10.3c0,0,1.44,2.16,3.71,2.16h1.65V22.97z"/>
	<path class="st0" d="M83.14,8.86c-0.1-5.05-4.22-8.55-9.27-8.55h-8.65v25.96h3.3v-8.96h5.36C78.91,17.31,83.14,13.91,83.14,8.86z
		 M73.87,14.01h-5.36V3.71h5.36c3.3,0,5.87,1.96,5.87,5.15C79.74,12.05,77.06,14.01,73.87,14.01z"/>
	<polygon class="st0" points="85.1,3.71 93.23,3.71 93.23,26.27 96.53,26.27 96.53,3.71 104.77,3.71 104.77,0.31 85.1,0.31 	"/>
	<path class="st0" d="M118.16,26.58c7.11,0,12.98-5.98,12.98-13.29c0-7.31-5.87-13.29-12.98-13.29c-7.11,0-12.98,5.98-12.98,13.29
		C105.18,20.6,110.95,26.58,118.16,26.58z M118.16,3.4c5.25,0,9.58,4.43,9.58,9.89c0,5.46-4.33,9.89-9.58,9.89
		c-5.25,0-9.58-4.43-9.58-9.89C108.58,7.83,112.91,3.4,118.16,3.4z"/>
	<polygon class="st0" points="152.37,20.09 138.36,0.41 135.06,0.41 135.06,26.27 138.36,26.27 138.36,6.28 152.88,26.27 
		155.66,26.27 155.66,0.41 152.37,0.41 	"/>
	<polygon class="st0" points="56.87,26.27 60.16,26.27 60.16,0.31 56.76,0.31 46.57,14.01 36.47,0.31 32.97,0.31 32.97,26.27 
		36.26,26.27 36.26,6.18 45.74,18.65 47.49,18.65 56.87,6.18 	"/>
	<path class="st0" d="M6.59,39.77H5.77c-0.1,0-0.21,0.1-0.21,0.21v3.3H1.24v-3.3c0-0.1-0.1-0.21-0.21-0.21H0.21
		c-0.1,0-0.21,0.1-0.21,0.21v7.83c0,0.1,0.1,0.21,0.21,0.21h0.82c0.1,0,0.21-0.1,0.21-0.21v-3.4h4.33v3.4c0,0.1,0.1,0.21,0.21,0.21
		h0.82c0.1,0,0.21-0.1,0.21-0.21v-7.83C6.8,39.87,6.7,39.77,6.59,39.77z"/>
	<path class="st0" d="M13.8,39.66c-2.37,0-4.22,1.85-4.22,4.33c0,2.37,1.85,4.22,4.22,4.22c2.37,0,4.22-1.85,4.22-4.22
		S16.17,39.66,13.8,39.66z M13.8,46.98c-1.65,0-3.09-1.34-3.09-3.09c0-1.65,1.44-3.09,3.09-3.09c1.75,0,3.09,1.44,3.09,3.09
		C16.9,45.64,15.45,46.98,13.8,46.98z"/>
	<path class="st0" d="M25.03,39.87h-5.15c-0.1,0-0.21,0.1-0.21,0.21v0.62c0,0.1,0.1,0.21,0.21,0.21h1.96v7.01
		c0,0.1,0.1,0.21,0.21,0.21h0.82c0.1,0,0.21-0.1,0.21-0.21V40.9h1.96c0.1,0,0.21-0.1,0.21-0.21v-0.62
		C25.24,39.97,25.14,39.87,25.03,39.87z"/>
	<path class="st0" d="M32.55,39.77h-4.74c-0.1,0-0.21,0.1-0.21,0.21v7.73c0,0.1,0.1,0.21,0.21,0.21h4.74c0.1,0,0.21-0.1,0.21-0.21
		v-0.62c0-0.1-0.1-0.21-0.21-0.21h-3.71V44.3h3.19c0.1,0,0.21-0.1,0.21-0.21v-0.62c0-0.1-0.1-0.21-0.21-0.21h-3.19V40.8h3.71
		c0.1,0,0.21-0.1,0.21-0.21v-0.62C32.76,39.87,32.66,39.77,32.55,39.77z"/>
	<path class="st0" d="M40.08,46.98h-3.19v-7.01c0-0.1-0.1-0.21-0.21-0.21h-0.82c-0.1,0-0.21,0.1-0.21,0.21v7.83
		c0,0.1,0.1,0.21,0.21,0.21h4.22c0.1,0,0.21-0.1,0.21-0.21v-0.62C40.28,47.08,40.18,46.98,40.08,46.98z"/>
	<path class="st0" d="M44.81,43.27c-1.03-0.41-1.55-0.82-1.55-1.55c0-0.41,0.31-1.03,1.34-1.03c0.72,0,1.55,0.62,1.65,0.62
		c0.21,0.1,0.31,0.1,0.41-0.1c0.1-0.1,0.21-0.31,0.31-0.41c0.1-0.21,0-0.31-0.1-0.41c-0.1-0.1-0.93-0.72-2.16-0.72
		c-1.85,0-2.58,1.24-2.58,2.16c0,1.34,0.93,1.96,2.16,2.47c1.13,0.52,1.75,0.93,1.75,1.65c0,0.62-0.52,1.13-1.34,1.13
		s-1.75-0.72-1.85-0.82c-0.1-0.1-0.31-0.1-0.41,0.1c-0.1,0.21-0.21,0.41-0.31,0.52c-0.1,0.21,0,0.31,0,0.41
		c0.21,0.21,1.13,0.93,2.58,0.93c1.55,0,2.68-1.03,2.68-2.27C47.39,44.51,46.15,43.78,44.81,43.27z"/>
	<path class="st0" d="M59.13,46.05c0.31-0.52,0.62-1.34,0.72-2.27c0-0.1,0.1-0.41-0.21-0.41l-0.52-0.1c-0.21,0-0.31,0-0.31,0.31
		c0,0.62-0.1,1.24-0.41,1.75l-1.65-1.65c0.52-0.41,1.65-1.13,1.65-2.27c0-1.03-0.82-1.85-2.16-1.85c-1.44,0-2.16,1.03-2.16,1.96
		c0,0.72,0.41,1.24,0.82,1.75l0.31,0.31c-0.41,0.31-1.65,1.03-1.65,2.37c0,1.13,0.82,2.16,2.37,2.16c1.34,0,2.16-0.62,2.58-1.13
		l0.93,0.93c0.21,0.21,0.41,0.1,0.52,0l0.31-0.31c0.21-0.21,0.1-0.41,0-0.52L59.13,46.05z M56.25,40.59c0.72,0,1.13,0.52,1.13,1.03
		c0,0.72-0.93,1.24-1.13,1.55l-0.31-0.31c-0.41-0.41-0.72-0.82-0.72-1.24C55.22,41,55.63,40.59,56.25,40.59z M56.04,47.18
		c-0.72,0-1.34-0.52-1.34-1.24c0-0.93,0.72-1.44,1.13-1.65l1.96,2.06C57.49,46.77,56.87,47.18,56.04,47.18z"/>
	<path class="st0" d="M72.53,42.34c0-1.44-1.13-2.58-2.58-2.58h-3.09c-0.1,0-0.21,0.1-0.21,0.21v7.73c0,0.1,0.1,0.21,0.21,0.21h0.72
		c0.1,0,0.21-0.1,0.21-0.21v-2.99h1.75l1.55,3.19c0,0,0.1,0.1,0.21,0.1h0.93c0.21,0,0.31-0.21,0.21-0.31l-1.65-2.99
		C71.81,44.3,72.53,43.47,72.53,42.34z M69.95,43.78h-2.16V40.9h2.16c0.72,0,1.44,0.72,1.44,1.44
		C71.39,43.17,70.67,43.78,69.95,43.78z"/>
	<path class="st0" d="M80.67,47.7v-0.62c0-0.1-0.1-0.21-0.21-0.21h-3.71V44.3h3.19c0.1,0,0.21-0.1,0.21-0.21v-0.62
		c0-0.1-0.1-0.21-0.21-0.21h-3.19V40.8h3.71c0.1,0,0.21-0.1,0.21-0.21v-0.62c0-0.1-0.1-0.21-0.21-0.21h-4.74
		c-0.1,0-0.21,0.1-0.21,0.21v7.73c0,0.1,0.1,0.21,0.21,0.21h4.74C80.56,47.9,80.67,47.8,80.67,47.7z"/>
	<path class="st0" d="M85.82,43.27c-1.03-0.41-1.55-0.82-1.55-1.55c0-0.41,0.31-1.03,1.34-1.03c0.72,0,1.55,0.62,1.65,0.62
		c0.21,0.1,0.31,0.1,0.41-0.1c0.1-0.1,0.21-0.31,0.31-0.41c0.1-0.21,0-0.31-0.1-0.41c-0.1-0.1-0.93-0.72-2.16-0.72
		c-1.85,0-2.58,1.24-2.58,2.16c0,1.34,0.93,1.96,2.16,2.47c1.13,0.52,1.75,0.93,1.75,1.65c0,0.62-0.52,1.13-1.34,1.13
		c-0.82,0-1.75-0.72-1.85-0.82c-0.1-0.1-0.31-0.1-0.41,0.1c-0.1,0.21-0.21,0.31-0.31,0.52c-0.21,0.21-0.1,0.31,0,0.41
		c0.21,0.21,1.13,0.93,2.58,0.93c1.55,0,2.68-1.03,2.68-2.27C88.39,44.51,87.16,43.78,85.82,43.27z"/>
	<path class="st0" d="M95.4,39.87h-5.15c-0.1,0-0.21,0.1-0.21,0.21v0.62c0,0.1,0.1,0.21,0.21,0.21h1.96v7.01
		c0,0.1,0.1,0.21,0.21,0.21h0.82c0.1,0,0.21-0.1,0.21-0.21V40.9h1.96c0.1,0,0.21-0.1,0.21-0.21v-0.62
		C95.6,39.97,95.5,39.87,95.4,39.87z"/>
	<path class="st0" d="M100.55,39.77c0,0-0.1-0.1-0.21-0.1h-0.1c-0.1,0-0.21,0-0.21,0.1l-3.61,8.04c-0.1,0.1,0,0.31,0.1,0.31h0.72
		c0.21,0,0.31-0.1,0.31-0.21c0.21-0.62,0.52-1.13,0.72-1.65h3.91l0.72,1.65c0.1,0.1,0.21,0.21,0.31,0.21h0.72
		c0.21,0,0.31-0.1,0.21-0.31L100.55,39.77z M98.8,45.23l1.44-3.3h0.1l1.44,3.3H98.8z"/>
	<path class="st0" d="M112.4,39.87h-0.82c-0.1,0-0.21,0.1-0.21,0.21v4.94c0,1.13-0.72,2.06-1.96,2.06c-1.24,0-1.96-0.93-1.96-2.16
		v-4.94c0-0.1-0.1-0.21-0.21-0.21h-0.82c-0.1,0-0.21,0.1-0.21,0.21v5.05c0,1.75,1.34,3.19,3.19,3.19c1.85,0,3.19-1.34,3.19-3.19
		v-4.94C112.6,39.97,112.5,39.87,112.4,39.87z"/>
	<path class="st0" d="M121.87,42.34c0-1.44-1.13-2.58-2.58-2.58h-3.09c-0.1,0-0.21,0.1-0.21,0.21v7.73c0,0.1,0.1,0.21,0.21,0.21
		h0.72c0.1,0,0.21-0.1,0.21-0.21v-2.99h1.75l1.55,3.19c0,0,0.1,0.1,0.21,0.1h0.93c0.21,0,0.31-0.21,0.21-0.31l-1.65-2.99
		C121.15,44.3,121.87,43.47,121.87,42.34z M119.3,43.78h-2.16V40.9h2.16c0.72,0,1.44,0.72,1.44,1.44
		C120.74,43.17,120.02,43.78,119.3,43.78z"/>
	<path class="st0" d="M127.95,39.77c0,0-0.1-0.1-0.21-0.1h-0.1c-0.1,0-0.21,0-0.21,0.1l-3.61,8.04c-0.1,0.1,0,0.31,0.1,0.31h0.72
		c0.21,0,0.31-0.1,0.31-0.21c0.21-0.62,0.52-1.13,0.72-1.65h3.91l0.72,1.65c0.1,0.1,0.21,0.21,0.31,0.21h0.72
		c0.21,0,0.31-0.1,0.21-0.31L127.95,39.77z M126.2,45.23l1.44-3.3h0.1l1.44,3.3H126.2z"/>
	<path class="st0" d="M140.42,39.77h-0.72c-0.1,0-0.21,0.1-0.21,0.21v5.67l-5.15-5.98h-0.31c-0.1,0-0.21,0.1-0.21,0.21v8.04
		c0,0.1,0.1,0.21,0.21,0.21h0.72c0.1,0,0.21-0.1,0.21-0.21v-5.77l5.15,6.08h0.31c0.1,0,0.21-0.1,0.21-0.21v-8.04
		C140.62,39.87,140.52,39.77,140.42,39.77z"/>
	<path class="st0" d="M148.45,39.87h-5.15c-0.1,0-0.21,0.1-0.21,0.21v0.62c0,0.1,0.1,0.21,0.21,0.21h1.96l0,7.01
		c0,0.1,0.1,0.21,0.21,0.21h0.82c0.1,0,0.21-0.1,0.21-0.21V40.9h1.96c0.1,0,0.21-0.1,0.21-0.21v-0.62
		C148.66,39.97,148.56,39.87,148.45,39.87z"/>
	<path class="st0" d="M153.09,43.27c-1.03-0.41-1.55-0.82-1.55-1.55c0-0.41,0.31-1.03,1.34-1.03c0.72,0,1.55,0.62,1.65,0.62
		c0.21,0.1,0.31,0.1,0.41-0.1c0.1-0.1,0.21-0.31,0.31-0.41c0.1-0.21,0-0.31-0.1-0.41c-0.1-0.1-0.93-0.72-2.16-0.72
		c-1.85,0-2.58,1.24-2.58,2.16c0,1.34,0.93,1.96,2.16,2.47c1.13,0.52,1.75,0.93,1.75,1.65c0,0.62-0.52,1.13-1.34,1.13
		c-0.82,0-1.75-0.72-1.85-0.82c-0.1-0.1-0.31,0-0.41,0.1c-0.1,0.21-0.21,0.41-0.31,0.52c-0.1,0.21,0,0.31,0,0.41
		c0.21,0.21,1.13,0.93,2.58,0.93c1.55,0,2.68-1.03,2.68-2.27C155.66,44.51,154.43,43.78,153.09,43.27z"/>
	<path class="st0" d="M162.26,3.09c0-0.72-0.52-1.03-1.03-1.03h-1.24c-0.1,0-0.31,0-0.31,0.21v2.68c0,0.1,0.1,0.21,0.21,0.21h0.31
		c0.1,0,0.21-0.1,0.21-0.21V4.02h0.62l0.41,1.03c0,0,0,0.1,0.1,0.1h0.41c0.1,0,0.21-0.1,0.1-0.21c-0.1-0.31-0.21-0.62-0.31-0.93
		C161.95,3.91,162.26,3.71,162.26,3.09z M161.12,3.61h-0.72V2.68h0.72c0.21,0,0.41,0.1,0.41,0.52
		C161.54,3.4,161.33,3.61,161.12,3.61z"/>
	<path class="st0" d="M160.92,0.62c-1.65,0-3.09,1.44-2.99,3.09c0,1.65,1.34,2.99,2.99,2.99c1.75,0,3.09-1.34,3.09-2.99
		C164.01,1.96,162.57,0.62,160.92,0.62z M160.92,6.18c-1.34,0-2.47-1.13-2.47-2.47c0-1.34,1.13-2.47,2.47-2.47
		c1.34,0,2.47,1.13,2.47,2.47C163.39,5.05,162.26,6.18,160.92,6.18z"/>
</g>
</svg>
