<?xml version="1.0" encoding="utf-8"?>
<!-- Generator: Adobe Illustrator 23.0.1, SVG Export Plug-In . SVG Version: 6.00 Build 0)  -->
<svg version="1.1" id="Layer_1" xmlns="http://www.w3.org/2000/svg" xmlns:xlink="http://www.w3.org/1999/xlink" x="0px" y="0px"
	 viewBox="0 0 192.98 103.47" style="enable-background:new 0 0 192.98 103.47;" xml:space="preserve">
<style type="text/css">
	.st0{fill:#FFFFFF;}
	.st1{display:none;clip-path:url(#XMLID_55_);}
	.st2{display:inline;fill:#FFFFFF;}
	.st3{display:none;clip-path:url(#XMLID_56_);}
	.st4{display:none;clip-path:url(#XMLID_57_);}
	.st5{display:none;clip-path:url(#XMLID_58_);}
	.st6{display:none;clip-path:url(#XMLID_59_);}
	.st7{display:none;clip-path:url(#XMLID_60_);}
	.st8{display:none;clip-path:url(#XMLID_61_);}
	.st9{display:none;clip-path:url(#XMLID_62_);}
	.st10{display:none;clip-path:url(#XMLID_63_);}
	.st11{display:none;clip-path:url(#XMLID_64_);}
	.st12{display:none;clip-path:url(#XMLID_65_);}
	.st13{display:none;clip-path:url(#XMLID_66_);}
	.st14{display:none;}
	.st15{display:inline;}
	.st16{display:none;clip-path:url(#XMLID_67_);}
	.st17{display:none;clip-path:url(#XMLID_68_);}
	.st18{display:none;clip-path:url(#XMLID_69_);}
	.st19{display:none;clip-path:url(#XMLID_70_);}
	.st20{display:none;clip-path:url(#XMLID_71_);}
	.st21{opacity:0.8;}
</style>
<g>
	<polygon class="st0" points="57.05,40.49 54.56,22.38 45.59,40.49 44.13,40.49 35.04,22.23 32.57,40.49 28.66,40.49 32.74,11.91 
		34.1,11.91 44.87,33.57 55.53,11.91 56.89,11.91 61.01,40.49 	"/>
	<polygon class="st0" points="74.09,15.84 74.09,23.18 86.95,23.18 86.95,27.07 74.09,27.07 74.09,36.57 86.95,36.57 86.95,40.49 
		70.11,40.49 70.11,11.91 87.07,11.91 87.07,15.84 	"/>
	<polygon class="st0" points="99.66,40.49 99.66,11.91 103.66,11.91 103.66,36.61 114.19,36.61 114.19,40.49 	"/>
	<rect x="124.98" y="11.91" class="st0" width="3.96" height="28.58"/>
	<path class="st0" d="M160.79,40.49l-4.31-8.99h-11.06l-4.27,8.99h-4.43l13.54-28.58h1.46l13.37,28.58H160.79z M148.96,4.15
		c0.52,0.19,1.06,0.39,1.62,0.61c0.56,0.22,1.13,0.42,1.7,0.61c0.57,0.19,1.1,0.28,1.59,0.26c0.58-0.01,1.11-0.13,1.58-0.34
		c0.48-0.21,0.9-0.49,1.27-0.84c0.38-0.34,0.71-0.74,1.01-1.18c0.3-0.45,0.57-0.92,0.8-1.41L156.07,0
		c-0.12,0.18-0.25,0.39-0.41,0.62c-0.16,0.23-0.34,0.46-0.53,0.67c-0.19,0.21-0.41,0.39-0.63,0.53c-0.23,0.14-0.47,0.22-0.71,0.23
		c-0.32,0.01-0.71-0.07-1.16-0.25c-0.45-0.18-0.93-0.39-1.46-0.61c-0.52-0.23-1.08-0.43-1.66-0.6c-0.58-0.17-1.17-0.26-1.75-0.24
		c-0.61,0.03-1.14,0.14-1.59,0.34c-0.45,0.2-0.86,0.47-1.21,0.8c-0.36,0.33-0.69,0.71-0.99,1.13c-0.3,0.42-0.61,0.85-0.92,1.29
		l2.57,1.96c0.09-0.18,0.2-0.39,0.33-0.61c0.13-0.23,0.28-0.44,0.45-0.64c0.17-0.2,0.36-0.37,0.56-0.51
		c0.21-0.14,0.43-0.21,0.66-0.22C147.99,3.87,148.44,3.96,148.96,4.15 M150.98,19.76l-3.73,7.87h7.44L150.98,19.76z"/>
	<path class="st0" d="M8.1,71.33c-0.47,0.44-1.01,0.77-1.63,0.98c-0.62,0.21-1.31,0.32-2.07,0.32H0V57.25h3.25
		c1.23,0,2.17,0.15,2.83,0.45c0.68,0.3,1.22,0.76,1.63,1.39c0.4,0.61,0.61,1.31,0.61,2.09c0,0.61-0.13,1.18-0.38,1.69
		c-0.25,0.51-0.62,0.96-1.11,1.33c0.24,0.11,0.47,0.23,0.68,0.35c0.21,0.12,0.4,0.25,0.58,0.39c0.46,0.38,0.81,0.84,1.06,1.38
		c0.25,0.54,0.37,1.12,0.37,1.76C9.51,69.36,9.04,70.44,8.1,71.33 M2.12,59.34v4.07h0.51c0.51,0,0.94-0.02,1.29-0.07
		c0.35-0.05,0.63-0.11,0.84-0.19c0.42-0.17,0.75-0.43,0.99-0.78c0.25-0.35,0.37-0.75,0.37-1.19c0-0.27-0.05-0.52-0.14-0.75
		c-0.09-0.22-0.24-0.42-0.44-0.58c-0.21-0.16-0.48-0.29-0.82-0.38c-0.34-0.09-0.75-0.13-1.24-0.13H2.12z M6.75,66.62
		c-0.38-0.43-0.91-0.73-1.59-0.9c-0.23-0.05-0.55-0.1-0.97-0.13c-0.41-0.03-0.94-0.05-1.58-0.05h-0.5v5h1.5c0.54,0,1-0.02,1.36-0.07
		c0.36-0.05,0.65-0.12,0.88-0.21c0.43-0.18,0.79-0.47,1.06-0.88c0.27-0.4,0.41-0.82,0.41-1.27C7.31,67.56,7.12,67.06,6.75,66.62"/>
	<path class="st0" d="M24.15,72.64l-2.32-4.84h-5.95l-2.3,4.84h-2.39l7.29-15.39h0.79l7.2,15.39H24.15z M18.87,61.46l-2.01,4.24h4
		L18.87,61.46z"/>
	<polygon class="st0" points="40.84,72.64 31.57,62.05 31.57,72.64 29.38,72.64 29.38,57.25 30.19,57.25 39.53,67.97 39.53,57.25 
		41.64,57.25 41.64,72.64 	"/>
	<path class="st0" d="M59.26,69.18c-0.69,1.19-1.56,2.06-2.63,2.62c-1.08,0.56-2.57,0.84-4.45,0.84h-5.03V57.25h3.4
		c2.21,0,3.85,0.19,4.92,0.55c1.51,0.53,2.69,1.44,3.52,2.73c0.84,1.28,1.27,2.81,1.27,4.59C60.26,66.65,59.93,68.01,59.26,69.18
		 M57.13,61.69c-0.65-0.95-1.55-1.6-2.7-1.95c-0.44-0.13-1.03-0.23-1.76-0.3c-0.74-0.07-1.64-0.1-2.72-0.1h-0.71v11.24h1.37
		c1.04,0,1.9-0.03,2.58-0.09c0.68-0.06,1.2-0.15,1.58-0.27c1.05-0.34,1.86-0.94,2.45-1.81c0.29-0.44,0.51-0.93,0.67-1.47
		c0.15-0.54,0.23-1.14,0.23-1.8C58.11,63.79,57.78,62.64,57.13,61.69"/>
	<path class="st0" d="M74.02,69.77c-0.28,0.88-0.83,1.65-1.65,2.28c-0.84,0.65-1.84,0.97-3,0.97c-1.26,0-2.35-0.3-3.26-0.91
		c-0.91-0.62-1.53-1.43-1.84-2.43c-0.19-0.63-0.28-1.7-0.28-3.21v-9.23h2.14v9.23c0,0.52,0,0.95,0.02,1.27
		c0.01,0.32,0.03,0.54,0.04,0.67c0.07,0.57,0.23,1.01,0.46,1.32c0.12,0.17,0.27,0.32,0.45,0.47c0.18,0.15,0.4,0.28,0.65,0.4
		c0.51,0.25,1.02,0.37,1.54,0.37c0.33,0,0.66-0.05,0.97-0.16c0.31-0.1,0.59-0.26,0.84-0.45c0.25-0.19,0.47-0.43,0.66-0.71
		c0.18-0.28,0.32-0.59,0.4-0.94c0.04-0.16,0.08-0.42,0.1-0.79c0.03-0.37,0.04-0.85,0.04-1.44v-9.23h2.13v9.23
		C74.43,67.83,74.29,68.93,74.02,69.77"/>
	<polygon class="st0" points="91.44,72.64 82.17,62.05 82.17,72.64 79.98,72.64 79.98,57.25 80.79,57.25 90.13,67.97 90.13,57.25 
		92.24,57.25 92.24,72.64 	"/>
	<path class="st0" d="M110.58,70.92c-1.42,1.4-3.29,2.1-5.62,2.1c-2.82,0-5.07-0.97-6.74-2.91c-1.28-1.49-1.92-3.21-1.92-5.18
		c0-1.46,0.37-2.81,1.1-4.07c0.72-1.26,1.73-2.24,3.01-2.94c1.28-0.71,2.72-1.07,4.32-1.07c0.65,0,1.28,0.06,1.89,0.17
		c0.61,0.12,1.21,0.3,1.8,0.55c0.59,0.26,1.18,0.59,1.77,0.99c0.59,0.4,1.18,0.89,1.78,1.47l-1.63,1.55c-0.52-0.5-1-0.91-1.46-1.23
		c-0.45-0.31-0.91-0.57-1.38-0.77c-0.48-0.21-0.95-0.36-1.39-0.46c-0.45-0.1-0.9-0.15-1.33-0.15c-1.1,0-2.16,0.27-3.16,0.82
		c-0.99,0.54-1.76,1.28-2.3,2.2c-0.54,0.92-0.82,1.89-0.82,2.91c0,1.05,0.28,2.05,0.85,3c0.56,0.94,1.34,1.69,2.34,2.24
		c1,0.54,2.09,0.81,3.3,0.81c0.74,0,1.41-0.1,2-0.3c0.6-0.2,1.15-0.5,1.65-0.91c0.88-0.71,1.44-1.62,1.69-2.74h-4.66v-2.09h7.03
		c-0.01,1.34-0.19,2.5-0.54,3.47C111.82,69.37,111.29,70.21,110.58,70.92"/>
	<path class="st0" d="M137.1,69.18c-0.69,1.19-1.56,2.06-2.63,2.62c-1.08,0.56-2.56,0.84-4.44,0.84h-5.03V57.25h3.4
		c2.21,0,3.85,0.19,4.92,0.55c1.51,0.53,2.69,1.44,3.52,2.73c0.84,1.28,1.27,2.81,1.27,4.59C138.1,66.65,137.77,68.01,137.1,69.18
		 M134.96,61.69c-0.65-0.95-1.55-1.6-2.7-1.95c-0.44-0.13-1.03-0.23-1.76-0.3c-0.74-0.07-1.64-0.1-2.71-0.1h-0.71v11.24h1.37
		c1.04,0,1.9-0.03,2.57-0.09c0.68-0.06,1.2-0.15,1.58-0.27c1.05-0.34,1.86-0.94,2.45-1.81c0.29-0.44,0.51-0.93,0.67-1.47
		c0.15-0.54,0.23-1.14,0.23-1.8C135.95,63.79,135.62,62.64,134.96,61.69"/>
	<path class="st0" d="M153.3,72.64l-2.32-4.84h-5.95l-2.3,4.84h-2.39l7.29-15.39h0.78l7.2,15.39H153.3z M148.02,61.46l-2.01,4.24h4
		L148.02,61.46z"/>
	<path class="st0" d="M171.09,70.92c-1.42,1.4-3.29,2.1-5.62,2.1c-2.82,0-5.07-0.97-6.74-2.91c-1.28-1.49-1.92-3.21-1.92-5.18
		c0-1.46,0.37-2.81,1.1-4.07c0.72-1.26,1.73-2.24,3.01-2.94c1.28-0.71,2.72-1.07,4.32-1.07c0.65,0,1.28,0.06,1.89,0.17
		c0.61,0.12,1.21,0.3,1.8,0.55c0.59,0.26,1.18,0.59,1.77,0.99c0.59,0.4,1.18,0.89,1.78,1.47l-1.63,1.55c-0.51-0.5-1-0.91-1.45-1.23
		c-0.46-0.31-0.92-0.57-1.38-0.77c-0.48-0.21-0.95-0.36-1.39-0.46c-0.45-0.1-0.9-0.15-1.33-0.15c-1.1,0-2.16,0.27-3.16,0.82
		c-0.99,0.54-1.76,1.28-2.3,2.2c-0.54,0.92-0.82,1.89-0.82,2.91c0,1.05,0.28,2.05,0.85,3c0.56,0.94,1.34,1.69,2.34,2.24
		c1,0.54,2.09,0.81,3.3,0.81c0.74,0,1.41-0.1,2-0.3c0.6-0.2,1.15-0.5,1.65-0.91c0.88-0.71,1.44-1.62,1.69-2.74h-4.65v-2.09h7.03
		c-0.01,1.34-0.19,2.5-0.54,3.47S171.8,70.21,171.09,70.92"/>
	<path class="st0" d="M190.62,70.67c-1.56,1.57-3.47,2.35-5.73,2.35c-2.27,0-4.19-0.78-5.77-2.34c-1.57-1.55-2.36-3.44-2.36-5.67
		c0-1.47,0.36-2.84,1.07-4.11c0.71-1.26,1.69-2.24,2.93-2.96c1.24-0.72,2.58-1.08,4.02-1.08c2.32,0,4.27,0.78,5.85,2.33
		c1.57,1.56,2.35,3.48,2.35,5.74C192.98,67.19,192.19,69.1,190.62,70.67 M190,61.93c-0.53-0.91-1.26-1.63-2.18-2.16
		c-0.94-0.54-1.93-0.82-2.98-0.82c-1.04,0-2.02,0.27-2.94,0.82c-0.92,0.54-1.65,1.27-2.18,2.18c-0.52,0.91-0.77,1.93-0.77,3.06
		c0,1.66,0.57,3.06,1.72,4.21c1.16,1.14,2.55,1.72,4.18,1.72c1.07,0,2.07-0.27,3-0.8c0.92-0.52,1.64-1.24,2.16-2.16
		c0.52-0.91,0.78-1.92,0.78-3.05c0-0.56-0.07-1.09-0.2-1.59C190.46,62.85,190.26,62.37,190,61.93"/>
	<rect x="60.17" y="81.76" class="st0" width="71.87" height="0.66"/>
	<rect x="58.66" y="94.45" class="st0" width="0.88" height="8.79"/>
	<polygon class="st0" points="63.03,103.25 63.03,94.45 63.22,94.45 69.07,101.19 69.07,94.45 69.94,94.45 69.94,103.25 
		69.74,103.25 63.94,96.59 63.94,103.25 	"/>
	<path class="st0" d="M73.55,103.25v-8.79h1.82c1.32,0,2.27,0.1,2.86,0.32c0.85,0.3,1.52,0.82,2,1.55c0.48,0.74,0.72,1.62,0.72,2.64
		c0,0.88-0.19,1.65-0.57,2.32c-0.38,0.67-0.88,1.16-1.48,1.48c-0.61,0.32-1.46,0.48-2.56,0.48H73.55z M74.39,102.42h1.02
		c1.22,0,2.06-0.08,2.53-0.23c0.66-0.21,1.18-0.6,1.56-1.16c0.38-0.56,0.57-1.24,0.57-2.05c0-0.85-0.2-1.57-0.61-2.18
		c-0.41-0.6-0.98-1.01-1.72-1.24c-0.55-0.17-1.46-0.25-2.72-0.25h-0.62V102.42z"/>
	<path class="st0" d="M88.32,94.23c1.33,0,2.44,0.45,3.34,1.33c0.9,0.89,1.35,1.98,1.35,3.28c0,1.29-0.45,2.38-1.35,3.28
		c-0.89,0.9-1.98,1.35-3.27,1.35c-1.3,0-2.4-0.44-3.3-1.34c-0.9-0.89-1.35-1.97-1.35-3.24c0-0.85,0.2-1.63,0.61-2.35
		c0.41-0.72,0.97-1.29,1.67-1.7C86.73,94.43,87.5,94.23,88.32,94.23 M88.36,95.09c-0.65,0-1.27,0.17-1.85,0.51
		c-0.58,0.34-1.04,0.8-1.36,1.37c-0.33,0.57-0.49,1.21-0.49,1.92c0,1.04,0.36,1.93,1.08,2.65c0.73,0.72,1.6,1.08,2.62,1.08
		c0.68,0,1.31-0.17,1.89-0.5c0.58-0.33,1.03-0.78,1.36-1.36c0.33-0.58,0.49-1.21,0.49-1.92c0-0.7-0.16-1.33-0.49-1.89
		c-0.32-0.57-0.78-1.02-1.37-1.36C89.65,95.25,89.02,95.09,88.36,95.09"/>
	<polygon class="st0" points="96.25,103.25 96.25,94.45 96.44,94.45 102.29,101.19 102.29,94.45 103.16,94.45 103.16,103.25 
		102.96,103.25 97.16,96.59 97.16,103.25 	"/>
	<polygon class="st0" points="106.77,94.45 111.81,94.45 111.81,95.31 107.65,95.31 107.65,98.07 111.78,98.07 111.78,98.93 
		107.65,98.93 107.65,102.39 111.78,102.39 111.78,103.25 106.77,103.25 	"/>
	<path class="st0" d="M113.89,101.61l0.75-0.45c0.53,0.97,1.13,1.45,1.82,1.45c0.3,0,0.57-0.07,0.83-0.21
		c0.26-0.14,0.46-0.32,0.59-0.55c0.13-0.23,0.2-0.48,0.2-0.74c0-0.29-0.1-0.58-0.3-0.87c-0.27-0.39-0.78-0.86-1.51-1.41
		c-0.73-0.55-1.19-0.95-1.37-1.2c-0.31-0.41-0.47-0.86-0.47-1.35c0-0.38,0.09-0.73,0.28-1.05c0.18-0.31,0.44-0.56,0.77-0.74
		c0.33-0.18,0.69-0.27,1.08-0.27c0.41,0,0.8,0.1,1.16,0.31c0.36,0.2,0.74,0.58,1.14,1.13l-0.72,0.54c-0.33-0.44-0.61-0.73-0.85-0.86
		c-0.23-0.14-0.49-0.21-0.76-0.21c-0.36,0-0.65,0.11-0.87,0.32c-0.23,0.21-0.34,0.48-0.34,0.8c0,0.19,0.04,0.38,0.12,0.55
		c0.08,0.18,0.22,0.38,0.43,0.59c0.12,0.11,0.49,0.4,1.14,0.88c0.76,0.56,1.28,1.06,1.57,1.5c0.28,0.44,0.42,0.88,0.42,1.32
		c0,0.64-0.24,1.19-0.73,1.66c-0.49,0.47-1.07,0.71-1.77,0.71c-0.53,0-1.02-0.14-1.45-0.43
		C114.66,102.76,114.26,102.28,113.89,101.61"/>
	<rect x="122.24" y="94.45" class="st0" width="0.88" height="8.79"/>
	<path class="st0" d="M130.2,94.45l4.1,8.79h-0.95l-1.38-2.89h-3.79l-1.37,2.89h-0.98l4.16-8.79H130.2z M130.09,96.32l-1.51,3.18
		h3.01L130.09,96.32z"/>
</g>
</svg>
