<?xml version="1.0" encoding="utf-8"?>
<!-- Generator: Adobe Illustrator 23.0.1, SVG Export Plug-In . SVG Version: 6.00 Build 0)  -->
<svg version="1.1" id="Layer_1" xmlns="http://www.w3.org/2000/svg" xmlns:xlink="http://www.w3.org/1999/xlink" x="0px" y="0px"
	 viewBox="0 0 344.99 88" style="enable-background:new 0 0 344.99 88;" xml:space="preserve">
<style type="text/css">
	.st0{fill:#FFFFFF;}
	.st1{display:none;clip-path:url(#XMLID_55_);}
	.st2{display:inline;fill:#FFFFFF;}
	.st3{display:none;clip-path:url(#XMLID_56_);}
	.st4{display:none;clip-path:url(#XMLID_57_);}
	.st5{display:none;clip-path:url(#XMLID_58_);}
	.st6{display:none;clip-path:url(#XMLID_59_);}
	.st7{display:none;clip-path:url(#XMLID_60_);}
	.st8{display:none;clip-path:url(#XMLID_61_);}
	.st9{display:none;clip-path:url(#XMLID_62_);}
	.st10{display:none;clip-path:url(#XMLID_63_);}
	.st11{display:none;clip-path:url(#XMLID_64_);}
	.st12{display:none;clip-path:url(#XMLID_65_);}
	.st13{display:none;clip-path:url(#XMLID_66_);}
	.st14{display:none;}
	.st15{display:inline;}
	.st16{display:none;clip-path:url(#XMLID_67_);}
	.st17{display:none;clip-path:url(#XMLID_68_);}
	.st18{display:none;clip-path:url(#XMLID_69_);}
	.st19{display:none;clip-path:url(#XMLID_70_);}
	.st20{display:none;clip-path:url(#XMLID_71_);}
	.st21{opacity:0.8;}
</style>
<g>
	<g>
		<g>
			<path class="st0" d="M88.52,40.93c1.35,0,2.77-0.23,4.03-1.04c1.83-1.19,2.38-2.94,2.38-4.41c0-2.41-1.09-4.16-4.16-6.47
				l-0.71-0.53c-2.11-1.6-2.69-2.49-2.69-3.65c0-1.52,1.14-2.61,3.02-2.61c1.65,0,2.38,0.76,2.77,1.24
				c0.53,0.66,0.66,1.45,0.66,1.67c0,0.3,0.08,0.46,0.25,0.46c0.2,0,0.28-0.2,0.28-0.76c0-1.98,0.1-2.71,0.1-3.04
				c0-0.18-0.13-0.25-0.35-0.3c-0.66-0.18-1.73-0.43-3.37-0.43c-3.53,0-5.86,2-5.86,4.8c0,2.06,0.96,3.83,3.76,6.01l1.17,0.91
				c2.11,1.65,2.49,2.82,2.49,4.06c0,1.34-1.12,2.89-3.4,2.89c-1.57,0-3.07-0.69-3.63-2.56c-0.13-0.43-0.23-0.96-0.23-1.29
				c0-0.2-0.03-0.43-0.25-0.43c-0.2,0-0.28,0.28-0.3,0.66c-0.03,0.41-0.13,1.93-0.13,3.32c0,0.56,0.08,0.68,0.48,0.86
				C85.91,40.76,87.05,40.93,88.52,40.93L88.52,40.93z M100.47,34.31c0,1.98,0,3.68-0.1,4.59c-0.08,0.63-0.2,1.04-0.66,1.14
				c-0.2,0.05-0.46,0.08-0.79,0.08c-0.28,0-0.35,0.13-0.35,0.23c0,0.15,0.15,0.23,0.43,0.23c0.46,0,1.02-0.03,1.55-0.05
				c0.53,0,1.01-0.03,1.27-0.03c0.66,0,1.5,0.03,2.59,0.05c1.09,0.05,2.44,0.08,4.11,0.08c0.84,0,1.04,0,1.19-0.56
				c0.13-0.43,0.3-1.9,0.3-2.38c0-0.23-0.03-0.51-0.2-0.51c-0.15,0-0.2,0.1-0.25,0.33c-0.15,0.89-0.41,1.34-0.96,1.6
				c-0.58,0.25-1.52,0.28-2.11,0.28c-2.28,0-2.97-0.33-3.02-1.8c-0.03-0.63,0-2.46,0-3.2v-1.73c0-0.13,0.03-0.23,0.13-0.23
				c0.56,0,3.1,0.05,3.5,0.1c0.84,0.08,1.12,0.41,1.24,0.84c0.05,0.28,0.05,0.56,0.08,0.79c0,0.1,0.05,0.18,0.2,0.18
				c0.2,0,0.23-0.3,0.23-0.48c0-0.15,0.05-1.01,0.1-1.45c0.13-1.09,0.18-1.45,0.18-1.57c0-0.13-0.08-0.23-0.18-0.23
				c-0.1,0-0.18,0.13-0.35,0.28c-0.2,0.23-0.53,0.28-1.07,0.33c-0.51,0.05-3.4,0.05-3.91,0.05c-0.13,0-0.15-0.1-0.15-0.23v-5.33
				c0-0.13,0.05-0.2,0.15-0.2c0.46,0,3.12,0.05,3.5,0.1c1.12,0.1,1.29,0.41,1.47,0.79c0.13,0.25,0.15,0.63,0.15,0.79
				c0,0.18,0.03,0.28,0.18,0.28c0.18,0,0.23-0.25,0.25-0.35c0.05-0.25,0.1-1.19,0.13-1.42c0.05-0.99,0.18-1.24,0.18-1.4
				c0-0.1-0.03-0.2-0.15-0.2c-0.1,0-0.23,0.08-0.36,0.1c-0.18,0.03-0.53,0.1-0.94,0.13c-0.43,0.03-5.38,0-6.09,0
				c-0.63,0-2.05-0.05-3.22-0.05c-0.33,0-0.51,0.05-0.51,0.2c0,0.15,0.15,0.23,0.38,0.23c0.33,0,0.71,0.03,0.89,0.08
				c0.71,0.2,0.91,0.43,0.96,1.17c0.03,0.68,0.03,1.29,0.03,4.57V34.31L100.47,34.31z M116.23,28.83h0.08
				c0.43,0.38,2.79,2.99,5.23,5.33c2.33,2.26,5.12,4.92,6.52,6.22c0.23,0.23,0.53,0.46,0.91,0.46c0.18,0,0.35-0.2,0.35-0.68
				l0.25-13.6c0.03-1.22,0.2-1.6,0.81-1.78c0.28-0.08,0.46-0.08,0.68-0.08c0.25,0,0.38-0.1,0.38-0.23c0-0.18-0.2-0.2-0.51-0.2
				c-1.09,0-1.93,0.05-2.18,0.05c-0.48,0-1.67-0.05-2.84-0.05c-0.33,0-0.56,0.03-0.56,0.2c0,0.13,0.08,0.23,0.35,0.23
				c0.3,0,0.84,0,1.17,0.13c0.53,0.2,0.74,0.58,0.76,1.9l0.23,9.59h-0.1c-0.33-0.3-3.3-3.35-4.82-4.85c-3.25-3.17-6.6-6.6-6.88-6.88
				c-0.38-0.38-0.68-0.71-0.96-0.71c-0.23,0-0.38,0.3-0.38,0.74l-0.2,12.79c-0.03,1.88-0.1,2.46-0.68,2.61
				c-0.3,0.08-0.71,0.1-1.01,0.1c-0.2,0-0.36,0.1-0.36,0.23c0,0.2,0.2,0.23,0.51,0.23c1.14,0,2.21-0.08,2.41-0.08
				c0.41,0,1.45,0.08,2.89,0.08c0.3,0,0.51-0.05,0.51-0.23c0-0.13-0.13-0.23-0.38-0.23c-0.36,0-0.79-0.03-1.17-0.15
				c-0.43-0.15-0.71-0.66-0.76-2.33L116.23,28.83L116.23,28.83z M143.15,35.15c0.1,0,0.18,0.03,0.23,0.15l1.73,4.34
				c0.1,0.25-0.05,0.46-0.2,0.48c-0.23,0.03-0.28,0.1-0.28,0.23c0,0.15,0.25,0.15,0.66,0.18c1.88,0.05,3.5,0.05,4.29,0.05
				c0.84,0,0.96-0.05,0.96-0.23c0-0.15-0.1-0.23-0.3-0.23c-0.25,0-0.51-0.03-0.84-0.08c-0.41-0.08-1.04-0.36-1.9-2.31
				c-1.42-3.27-5.15-12.1-5.68-13.29c-0.23-0.48-0.33-0.69-0.66-0.69c-0.23,0-0.41,0.25-0.66,0.86l-5.84,13.57
				c-0.46,1.09-0.84,1.75-1.85,1.9c-0.2,0-0.46,0.03-0.66,0.03c-0.18,0-0.25,0.1-0.25,0.23c0,0.18,0.13,0.23,0.41,0.23
				c1.17,0,2.36-0.08,2.59-0.08c0.71,0,1.75,0.08,2.49,0.08c0.23,0,0.35-0.05,0.35-0.23c0-0.13-0.05-0.23-0.33-0.23h-0.33
				c-0.69,0-0.89-0.23-0.89-0.61c0-0.25,0.1-0.79,0.33-1.32l1.19-2.89c0.05-0.13,0.08-0.15,0.2-0.15H143.15L143.15,35.15z
				 M138.35,33.96c-0.08,0-0.13-0.05-0.08-0.15l2.16-5.46c0.03-0.08,0.05-0.2,0.13-0.2c0.05,0,0.08,0.13,0.1,0.2l2.11,5.48
				c0.03,0.08,0,0.13-0.1,0.13H138.35L138.35,33.96z M154.99,36.75c0,0.35,0,1.24-0.08,2.16c-0.05,0.63-0.23,1.04-0.69,1.14
				c-0.2,0.05-0.48,0.08-0.79,0.08c-0.25,0-0.36,0.13-0.36,0.23c0,0.18,0.18,0.23,0.48,0.23c0.84,0,2.33-0.08,2.89-0.08
				c0.61,0,2.11,0.08,3.5,0.08c0.3,0,0.48-0.08,0.48-0.23c0-0.1-0.13-0.23-0.38-0.23c-0.3,0-0.79-0.03-1.12-0.08
				c-0.66-0.1-0.86-0.51-0.91-1.14c-0.05-0.91-0.05-1.8-0.05-2.16v-1.73c0-0.71-0.05-1.37,0.28-2.16c0.41-0.91,3.6-6.04,4.34-6.9
				c0.48-0.58,0.69-0.79,1.17-1.01c0.33-0.15,0.74-0.25,0.96-0.25c0.25,0,0.43-0.1,0.43-0.25c0-0.13-0.15-0.18-0.41-0.18
				c-0.43,0-1.9,0.05-2.38,0.05c-0.66,0-1.45-0.05-2.18-0.05c-0.25,0-0.38,0.05-0.38,0.2c0,0.18,0.2,0.2,0.41,0.25
				c0.38,0.08,0.48,0.28,0.48,0.48c0,0.28-0.1,0.66-0.33,1.14c-0.33,0.66-3.04,5.28-3.32,5.78c-0.38-0.61-3.3-5.66-3.7-6.32
				c-0.18-0.3-0.28-0.56-0.28-0.74c0-0.18,0.13-0.28,0.3-0.33c0.35-0.1,0.51-0.1,0.51-0.28c0-0.15-0.13-0.2-0.33-0.2
				c-1.01,0-2.06,0.05-2.54,0.05c-0.74,0-2.41-0.05-2.79-0.05c-0.28,0-0.43,0.05-0.43,0.2c0,0.15,0.15,0.23,0.33,0.23
				c0.28,0,0.66,0.13,0.94,0.28c0.43,0.23,0.89,0.74,1.45,1.52c0.79,1.14,3.83,5.89,3.98,6.22c0.3,0.63,0.51,1.09,0.51,2.26V36.75
				L154.99,36.75z M173.77,35.15c0.1,0,0.18,0.03,0.23,0.15l1.73,4.34c0.1,0.25-0.05,0.46-0.2,0.48c-0.23,0.03-0.28,0.1-0.28,0.23
				c0,0.15,0.25,0.15,0.66,0.18c1.88,0.05,3.5,0.05,4.29,0.05c0.84,0,0.96-0.05,0.96-0.23c0-0.15-0.1-0.23-0.3-0.23
				c-0.25,0-0.51-0.03-0.84-0.08c-0.41-0.08-1.04-0.36-1.9-2.31c-1.42-3.27-5.15-12.1-5.68-13.29c-0.23-0.48-0.33-0.69-0.66-0.69
				c-0.23,0-0.41,0.25-0.66,0.86l-5.84,13.57c-0.46,1.09-0.84,1.75-1.85,1.9c-0.2,0-0.46,0.03-0.66,0.03c-0.18,0-0.25,0.1-0.25,0.23
				c0,0.18,0.13,0.23,0.41,0.23c1.17,0,2.36-0.08,2.59-0.08c0.71,0,1.75,0.08,2.49,0.08c0.23,0,0.36-0.05,0.36-0.23
				c0-0.13-0.05-0.23-0.33-0.23h-0.33c-0.69,0-0.89-0.23-0.89-0.61c0-0.25,0.1-0.79,0.33-1.32l1.19-2.89
				c0.05-0.13,0.08-0.15,0.2-0.15H173.77L173.77,35.15z M168.97,33.96c-0.08,0-0.13-0.05-0.08-0.15l2.16-5.46
				c0.03-0.08,0.05-0.2,0.13-0.2c0.05,0,0.08,0.13,0.1,0.2l2.11,5.48c0.03,0.08,0,0.13-0.1,0.13H168.97L168.97,33.96z M185.24,28.83
				h0.08c0.43,0.38,2.79,2.99,5.23,5.33c2.33,2.26,5.12,4.92,6.52,6.22c0.23,0.23,0.53,0.46,0.91,0.46c0.18,0,0.35-0.2,0.35-0.68
				l0.25-13.6c0.03-1.22,0.2-1.6,0.81-1.78c0.28-0.08,0.46-0.08,0.68-0.08c0.25,0,0.38-0.1,0.38-0.23c0-0.18-0.2-0.2-0.51-0.2
				c-1.09,0-1.93,0.05-2.18,0.05c-0.48,0-1.67-0.05-2.84-0.05c-0.33,0-0.56,0.03-0.56,0.2c0,0.13,0.08,0.23,0.35,0.23
				c0.3,0,0.84,0,1.17,0.13c0.53,0.2,0.74,0.58,0.76,1.9l0.23,9.59h-0.1c-0.33-0.3-3.3-3.35-4.82-4.85c-3.25-3.17-6.6-6.6-6.88-6.88
				c-0.38-0.38-0.68-0.71-0.96-0.71c-0.23,0-0.38,0.3-0.38,0.74l-0.2,12.79c-0.03,1.88-0.1,2.46-0.69,2.61
				c-0.3,0.08-0.71,0.1-1.01,0.1c-0.2,0-0.36,0.1-0.36,0.23c0,0.2,0.2,0.23,0.51,0.23c1.14,0,2.21-0.08,2.41-0.08
				c0.41,0,1.45,0.08,2.89,0.08c0.3,0,0.51-0.05,0.51-0.23c0-0.13-0.13-0.23-0.38-0.23c-0.35,0-0.79-0.03-1.17-0.15
				c-0.43-0.15-0.71-0.66-0.76-2.33L185.24,28.83L185.24,28.83z M212.66,26.47h0.08c0.46,0.48,3.27,3.65,6.04,6.39
				c2.64,2.61,5.89,5.94,7.48,7.46c0.28,0.28,0.58,0.56,0.86,0.56c0.23,0,0.33-0.23,0.33-0.79l0.28-16.01
				c0.03-1.42,0.23-1.95,0.94-2.16c0.3-0.08,0.51-0.08,0.76-0.08c0.3,0,0.46-0.08,0.46-0.23c0-0.2-0.25-0.23-0.58-0.23
				c-1.24,0-2.21,0.08-2.49,0.08c-0.53,0-1.75-0.08-3.07-0.08c-0.38,0-0.66,0.03-0.66,0.23c0,0.15,0.1,0.23,0.41,0.23
				c0.35,0,0.96,0,1.34,0.15c0.61,0.25,0.84,0.74,0.86,2.28l0.25,11.39h-0.13c-0.43-0.41-3.86-4.06-5.58-5.78
				c-3.7-3.68-7.56-7.81-7.86-8.14c-0.43-0.46-0.66-0.79-0.94-0.79c-0.25,0-0.33,0.36-0.33,0.86l-0.23,15.02
				c-0.03,2.21-0.13,2.94-0.79,3.15c-0.36,0.1-0.81,0.13-1.14,0.13c-0.25,0-0.41,0.05-0.41,0.2c0,0.23,0.23,0.25,0.56,0.25
				c1.32,0,2.51-0.08,2.74-0.08c0.48,0,1.5,0.08,3.15,0.08c0.36,0,0.58-0.05,0.58-0.25c0-0.15-0.15-0.2-0.43-0.2
				c-0.41,0-0.89-0.03-1.32-0.18c-0.51-0.18-0.84-0.84-0.89-2.82L212.66,26.47L212.66,26.47z M241.51,35.15
				c0.1,0,0.18,0.03,0.23,0.15l1.73,4.34c0.1,0.25-0.05,0.46-0.2,0.48c-0.23,0.03-0.28,0.1-0.28,0.23c0,0.15,0.25,0.15,0.66,0.18
				c1.88,0.05,3.5,0.05,4.29,0.05c0.84,0,0.96-0.05,0.96-0.23c0-0.15-0.1-0.23-0.3-0.23c-0.25,0-0.51-0.03-0.84-0.08
				c-0.41-0.08-1.04-0.36-1.9-2.31c-1.42-3.27-5.15-12.1-5.68-13.29c-0.23-0.48-0.33-0.69-0.66-0.69c-0.23,0-0.41,0.25-0.66,0.86
				l-5.84,13.57c-0.46,1.09-0.84,1.75-1.85,1.9c-0.2,0-0.46,0.03-0.66,0.03c-0.18,0-0.25,0.1-0.25,0.23c0,0.18,0.13,0.23,0.41,0.23
				c1.17,0,2.36-0.08,2.59-0.08c0.71,0,1.75,0.08,2.49,0.08c0.23,0,0.35-0.05,0.35-0.23c0-0.13-0.05-0.23-0.33-0.23h-0.33
				c-0.68,0-0.89-0.23-0.89-0.61c0-0.25,0.1-0.79,0.33-1.32l1.19-2.89c0.05-0.13,0.08-0.15,0.2-0.15H241.51L241.51,35.15z
				 M236.71,33.96c-0.08,0-0.13-0.05-0.08-0.15l2.16-5.46c0.03-0.08,0.05-0.2,0.13-0.2c0.05,0,0.08,0.13,0.1,0.2l2.11,5.48
				c0.03,0.08,0,0.13-0.1,0.13H236.71L236.71,33.96z M252.9,34.31c0,1.98,0,3.68-0.1,4.59c-0.08,0.63-0.2,1.04-0.66,1.14
				c-0.18,0.05-0.46,0.08-0.79,0.08c-0.28,0-0.36,0.13-0.36,0.23c0,0.15,0.15,0.23,0.43,0.23c0.89,0,2.41-0.08,2.92-0.08
				c0.63,0,2.13,0.08,3.6,0.08c0.25,0,0.43-0.08,0.43-0.23c0-0.1-0.1-0.23-0.35-0.23c-0.33,0-0.84-0.03-1.14-0.08
				c-0.66-0.1-0.79-0.51-0.86-1.12c-0.1-0.94-0.13-2.64-0.13-4.62v-8.73l2.82,0.05c2,0.03,2.59,0.68,2.64,1.24l0.03,0.23
				c0.03,0.33,0.08,0.43,0.25,0.43c0.13,0,0.18-0.13,0.2-0.35c0-0.56,0.05-2.16,0.05-2.61c0-0.33-0.03-0.46-0.18-0.46
				c-0.08,0-0.25,0.05-0.61,0.1c-0.33,0.05-0.81,0.1-1.52,0.1h-9.06c-0.74,0-1.57-0.03-2.23-0.1c-0.56-0.08-0.79-0.25-0.96-0.25
				c-0.13,0-0.2,0.13-0.25,0.41c-0.05,0.18-0.48,2.26-0.48,2.61c0,0.23,0.05,0.36,0.2,0.36c0.15,0,0.2-0.1,0.25-0.28
				c0.05-0.15,0.15-0.43,0.38-0.74c0.33-0.48,0.86-0.63,2.16-0.66l3.32-0.08V34.31L252.9,34.31z M266.24,34.31
				c0,2.08,0,3.81-0.1,4.69c-0.08,0.63-0.2,0.94-0.66,1.04c-0.2,0.05-0.46,0.08-0.79,0.08c-0.28,0-0.35,0.13-0.35,0.23
				c0,0.15,0.15,0.23,0.43,0.23c0.89,0,2.41-0.08,2.92-0.08c0.61,0,2.13,0.08,3.6,0.08c0.25,0,0.43-0.08,0.43-0.23
				c0-0.1-0.1-0.23-0.35-0.23c-0.33,0-0.84-0.03-1.14-0.08c-0.66-0.1-0.81-0.43-0.89-1.02c-0.1-0.91-0.1-2.64-0.1-4.72v-3.81
				c0-3.27,0-3.88,0.05-4.57c0.05-0.76,0.23-1.07,0.84-1.17c0.25-0.05,0.43-0.08,0.66-0.08c0.23,0,0.36-0.05,0.36-0.25
				c0-0.13-0.18-0.18-0.46-0.18c-0.86,0-2.31,0.05-2.87,0.05c-0.63,0-2.16-0.05-2.99-0.05c-0.36,0-0.53,0.05-0.53,0.18
				c0,0.2,0.13,0.25,0.36,0.25c0.28,0,0.56,0.03,0.81,0.1c0.48,0.15,0.71,0.41,0.76,1.14c0.03,0.68,0.03,1.29,0.03,4.57V34.31
				L266.24,34.31z M283.27,40.86c5.76,0,9.36-3.88,9.36-8.83c0-4.95-3.5-8.07-9.13-8.07c-6.77,0-9.36,4.77-9.36,8.45
				C274.13,36.24,276.77,40.86,283.27,40.86L283.27,40.86z M284.18,39.69c-4.21,0-6.75-3.5-6.75-7.94c0-5.33,2.92-6.65,5.4-6.65
				c3.6,0,6.47,2.94,6.47,7.71C289.31,38.95,285.75,39.69,284.18,39.69L284.18,39.69z M298.19,28.83h0.08
				c0.43,0.38,2.79,2.99,5.23,5.33c2.33,2.26,5.13,4.92,6.52,6.22c0.23,0.23,0.53,0.46,0.91,0.46c0.18,0,0.35-0.2,0.35-0.68
				l0.25-13.6c0.03-1.22,0.2-1.6,0.81-1.78c0.28-0.08,0.46-0.08,0.69-0.08c0.25,0,0.38-0.1,0.38-0.23c0-0.18-0.2-0.2-0.51-0.2
				c-1.09,0-1.93,0.05-2.18,0.05c-0.48,0-1.67-0.05-2.84-0.05c-0.33,0-0.56,0.03-0.56,0.2c0,0.13,0.08,0.23,0.35,0.23
				c0.3,0,0.84,0,1.17,0.13c0.53,0.2,0.74,0.58,0.76,1.9l0.23,9.59h-0.1c-0.33-0.3-3.3-3.35-4.82-4.85c-3.25-3.17-6.6-6.6-6.88-6.88
				c-0.38-0.38-0.69-0.71-0.96-0.71c-0.23,0-0.38,0.3-0.38,0.74l-0.2,12.79c-0.03,1.88-0.1,2.46-0.68,2.61
				c-0.3,0.08-0.71,0.1-1.02,0.1c-0.2,0-0.35,0.1-0.35,0.23c0,0.2,0.2,0.23,0.51,0.23c1.14,0,2.21-0.08,2.41-0.08
				c0.41,0,1.45,0.08,2.89,0.08c0.3,0,0.51-0.05,0.51-0.23c0-0.13-0.13-0.23-0.38-0.23c-0.35,0-0.79-0.03-1.17-0.15
				c-0.43-0.15-0.71-0.66-0.76-2.33L298.19,28.83L298.19,28.83z M324.85,35.15c0.1,0,0.18,0.03,0.23,0.15l1.73,4.34
				c0.1,0.25-0.05,0.46-0.2,0.48c-0.23,0.03-0.28,0.1-0.28,0.23c0,0.15,0.25,0.15,0.66,0.18c1.88,0.05,3.5,0.05,4.29,0.05
				c0.84,0,0.96-0.05,0.96-0.23c0-0.15-0.1-0.23-0.3-0.23c-0.25,0-0.51-0.03-0.84-0.08c-0.41-0.08-1.04-0.36-1.9-2.31
				c-1.42-3.27-5.15-12.1-5.68-13.29c-0.23-0.48-0.33-0.69-0.66-0.69c-0.23,0-0.41,0.25-0.66,0.86l-5.84,13.57
				c-0.46,1.09-0.84,1.75-1.85,1.9c-0.2,0-0.46,0.03-0.66,0.03c-0.18,0-0.25,0.1-0.25,0.23c0,0.18,0.13,0.23,0.41,0.23
				c1.17,0,2.36-0.08,2.59-0.08c0.71,0,1.75,0.08,2.49,0.08c0.23,0,0.35-0.05,0.35-0.23c0-0.13-0.05-0.23-0.33-0.23h-0.33
				c-0.68,0-0.89-0.23-0.89-0.61c0-0.25,0.1-0.79,0.33-1.32l1.19-2.89c0.05-0.13,0.08-0.15,0.2-0.15H324.85L324.85,35.15z
				 M320.05,33.96c-0.08,0-0.13-0.05-0.08-0.15l2.16-5.46c0.03-0.08,0.05-0.2,0.13-0.2c0.05,0,0.08,0.13,0.1,0.2l2.11,5.48
				c0.03,0.08,0,0.13-0.1,0.13H320.05L320.05,33.96z M337.91,30.51c0-3.27,0-3.88,0.05-4.57c0.05-0.76,0.23-1.07,0.84-1.17
				c0.25-0.05,0.61-0.08,0.86-0.08c0.28,0,0.41-0.08,0.41-0.23c0-0.15-0.15-0.2-0.48-0.2c-0.86,0-2.69,0.05-3.22,0.05
				c-0.61,0-2.03-0.05-3.07-0.05c-0.33,0-0.48,0.05-0.48,0.2c0,0.15,0.13,0.23,0.38,0.23c0.28,0,0.56,0.03,0.74,0.08
				c0.71,0.2,0.91,0.43,0.96,1.17c0.03,0.68,0.03,1.29,0.03,4.57v3.81c0,1.98,0,3.68-0.1,4.59c-0.08,0.63-0.2,1.04-0.66,1.14
				c-0.2,0.05-0.46,0.08-0.79,0.08c-0.28,0-0.35,0.13-0.35,0.23c0,0.15,0.15,0.23,0.43,0.23c0.46,0,1.01-0.03,1.55-0.05
				c0.53,0,1.01-0.03,1.27-0.03c0.91,0,1.85,0.03,2.97,0.05c1.12,0.05,2.41,0.08,4.01,0.08c1.17,0,1.27-0.1,1.42-0.58
				c0.18-0.63,0.33-2.23,0.33-2.49c0-0.25-0.05-0.48-0.2-0.48c-0.18,0-0.23,0.13-0.25,0.33c-0.05,0.41-0.28,1.01-0.56,1.29
				c-0.56,0.58-1.42,0.61-2.61,0.61c-1.73,0-2.59-0.13-2.97-0.46c-0.48-0.41-0.48-1.78-0.48-4.54V30.51L337.91,30.51z"/>
		</g>
		<g>
			<path class="st0" d="M98.34,63.3c0-0.98,0-1.76,0.02-2.35c0.02-0.68,0.22-1.02,0.74-1.12c0.23-0.04,0.37-0.06,0.53-0.06
				c0.14,0,0.25-0.04,0.25-0.16c0-0.16-0.14-0.2-0.39-0.2c-0.65,0-1.68,0.06-2.29,0.06c-0.59,0-1.82-0.06-2.84-0.06
				c-0.27,0-0.41,0.04-0.41,0.2c0,0.12,0.12,0.16,0.29,0.16c0.27,0,0.61,0.02,0.76,0.06c0.65,0.14,0.82,0.45,0.84,1.12
				c0.02,0.59,0.02,1.33,0.02,2.31v1.84c0,0.33-0.08,0.59-0.37,0.72c-0.47,0.22-1.15,0.22-1.66,0.22c-4.13,0-6.81-3.15-6.81-7.35
				c0-2.41,0.7-3.87,1.8-4.79c1.37-1.13,2.8-1.21,3.87-1.21c2.21,0,3.78,0.9,4.36,1.53c0.51,0.55,0.61,1.17,0.67,1.62
				c0.02,0.16,0.06,0.25,0.2,0.25c0.16,0,0.22-0.1,0.22-0.41c0-2.44,0.14-2.99,0.14-3.21c0-0.14-0.04-0.22-0.27-0.23
				c-0.45-0.02-1.13-0.14-1.55-0.22c-0.39-0.08-2.11-0.31-3.46-0.31c-1.64,0-3.38,0.14-5.26,1.27c-1.78,1.08-3.4,3.27-3.4,6.4
				c0,5.4,4.24,7.67,9.04,7.67c1.53,0,3.44-0.22,4.71-0.88c0.23-0.14,0.25-0.18,0.25-0.7V63.3L98.34,63.3z M108.97,66.98
				c4.44,0,7.22-2.99,7.22-6.81c0-3.81-2.7-6.22-7.04-6.22c-5.22,0-7.22,3.68-7.22,6.51C101.92,63.42,103.96,66.98,108.97,66.98
				L108.97,66.98z M109.67,66.08c-3.25,0-5.2-2.7-5.2-6.12c0-4.11,2.25-5.13,4.17-5.13c2.78,0,4.99,2.27,4.99,5.95
				C113.62,65.51,110.88,66.08,109.67,66.08L109.67,66.08z M122.09,58.99c0-2.52,0-2.99,0.04-3.52c0.04-0.59,0.18-0.82,0.65-0.9
				c0.2-0.04,0.47-0.06,0.67-0.06c0.22,0,0.31-0.06,0.31-0.18c0-0.12-0.12-0.16-0.37-0.16c-0.67,0-2.07,0.04-2.48,0.04
				c-0.47,0-1.56-0.04-2.37-0.04c-0.25,0-0.37,0.04-0.37,0.16c0,0.12,0.1,0.18,0.29,0.18c0.22,0,0.43,0.02,0.57,0.06
				c0.55,0.16,0.7,0.33,0.74,0.9c0.02,0.53,0.02,1,0.02,3.52v2.93c0,1.53,0,2.84-0.08,3.54c-0.06,0.49-0.16,0.8-0.51,0.88
				c-0.16,0.04-0.35,0.06-0.61,0.06c-0.22,0-0.27,0.1-0.27,0.18c0,0.12,0.12,0.18,0.33,0.18c0.35,0,0.78-0.02,1.19-0.04
				c0.41,0,0.78-0.02,0.98-0.02c0.7,0,1.43,0.02,2.29,0.04c0.86,0.04,1.86,0.06,3.09,0.06c0.9,0,0.98-0.08,1.1-0.45
				c0.14-0.49,0.25-1.72,0.25-1.92c0-0.2-0.04-0.37-0.16-0.37c-0.14,0-0.18,0.1-0.2,0.25c-0.04,0.31-0.22,0.78-0.43,1
				c-0.43,0.45-1.1,0.47-2.02,0.47c-1.33,0-1.99-0.1-2.29-0.35c-0.37-0.31-0.37-1.37-0.37-3.5V58.99L122.09,58.99z M133.28,60.62
				c0-0.12,0.04-0.14,0.12-0.14c0.29,0,2.33,0.02,2.76,0.06c0.53,0.04,0.74,0.37,0.82,0.61c0.08,0.2,0.12,0.39,0.12,0.51
				c0,0.12,0.06,0.23,0.16,0.23c0.18,0,0.2-0.23,0.2-0.37c0-0.12,0.02-0.88,0.06-1.21c0.06-0.53,0.14-0.98,0.14-1.08
				c0-0.1-0.04-0.16-0.1-0.16c-0.1,0-0.14,0.08-0.23,0.18c-0.16,0.22-0.41,0.27-0.72,0.29c-0.25,0.02-0.49,0.02-0.78,0.02
				l-2.41,0.02c-0.1,0-0.12-0.06-0.12-0.16V55.4c0-0.2,0.06-0.23,0.16-0.23l2.86,0.06c0.65,0.02,0.98,0.27,1.1,0.51
				c0.12,0.23,0.1,0.49,0.1,0.63c0,0.2,0.1,0.27,0.22,0.27c0.12,0,0.16-0.2,0.18-0.33c0.02-0.2,0.06-1.17,0.08-1.35
				c0.06-0.43,0.14-0.63,0.14-0.74c0-0.08-0.06-0.16-0.12-0.16c-0.1,0-0.18,0.08-0.27,0.1c-0.18,0.04-0.39,0.06-0.7,0.08
				c-0.41,0.02-4.23,0-4.89,0c-0.49,0-1.58-0.04-2.46-0.04c-0.27,0-0.41,0.04-0.41,0.16c0,0.12,0.14,0.18,0.29,0.18
				c0.25,0,0.55,0.02,0.68,0.06c0.55,0.14,0.7,0.33,0.74,0.9c0.02,0.53,0.02,1,0.02,3.52v2.93c0,1.6,0,2.84-0.08,3.54
				c-0.06,0.49-0.16,0.8-0.51,0.88c-0.16,0.04-0.35,0.06-0.61,0.06c-0.2,0-0.25,0.1-0.25,0.18c0,0.14,0.12,0.18,0.35,0.18
				c0.65,0,1.74-0.06,2.19-0.06c0.45,0,1.66,0.06,2.76,0.06c0.25,0,0.37-0.06,0.37-0.18c0-0.08-0.08-0.18-0.29-0.18
				c-0.23,0-0.61-0.02-0.84-0.06c-0.51-0.08-0.63-0.39-0.68-0.88c-0.08-0.7-0.1-1.88-0.1-3.48V60.62L133.28,60.62z M156.11,67.03
				c1.25,0,2.74-0.14,3.52-0.45c0.33-0.14,0.41-0.23,0.51-0.57c0.2-0.67,0.43-2.37,0.43-2.6c0-0.16-0.04-0.29-0.18-0.29
				c-0.16,0-0.2,0.08-0.25,0.39c-0.08,0.35-0.33,0.92-0.67,1.29c-0.78,0.9-1.84,1.1-3.58,1.1c-2.62,0-6.16-2.31-6.16-6.96
				c0-1.9,0.37-3.76,1.8-5.07c0.86-0.78,1.98-1.21,3.68-1.21c1.8,0,3.33,0.53,3.97,1.21c0.49,0.51,0.74,1.19,0.76,1.8
				c0,0.27,0.04,0.43,0.2,0.43c0.18,0,0.22-0.16,0.23-0.45c0.04-0.39,0.02-1.47,0.06-2.11c0.04-0.68,0.1-0.92,0.1-1.08
				c0-0.12-0.08-0.22-0.29-0.23c-0.59-0.06-1.21-0.23-1.96-0.33c-0.9-0.12-1.62-0.2-2.84-0.2c-2.91,0-4.77,0.78-6.18,2.07
				c-1.88,1.72-2.29,4.03-2.29,5.36c0,1.9,0.51,4.09,2.43,5.77C151.18,66.45,153.43,67.03,156.11,67.03L156.11,67.03z M167.06,58.99
				c0-2.52,0-2.99,0.04-3.52c0.04-0.59,0.18-0.82,0.65-0.9c0.2-0.04,0.47-0.06,0.67-0.06c0.22,0,0.31-0.06,0.31-0.18
				c0-0.12-0.12-0.16-0.37-0.16c-0.67,0-2.07,0.04-2.48,0.04c-0.47,0-1.56-0.04-2.37-0.04c-0.25,0-0.37,0.04-0.37,0.16
				c0,0.12,0.1,0.18,0.29,0.18c0.22,0,0.43,0.02,0.57,0.06c0.55,0.16,0.7,0.33,0.74,0.9c0.02,0.53,0.02,1,0.02,3.52v2.93
				c0,1.53,0,2.84-0.08,3.54c-0.06,0.49-0.16,0.8-0.51,0.88c-0.16,0.04-0.35,0.06-0.61,0.06c-0.22,0-0.27,0.1-0.27,0.18
				c0,0.12,0.12,0.18,0.33,0.18c0.35,0,0.78-0.02,1.19-0.04c0.41,0,0.78-0.02,0.98-0.02c0.7,0,1.43,0.02,2.29,0.04
				c0.86,0.04,1.86,0.06,3.09,0.06c0.9,0,0.98-0.08,1.1-0.45c0.14-0.49,0.25-1.72,0.25-1.92c0-0.2-0.04-0.37-0.16-0.37
				c-0.14,0-0.18,0.1-0.2,0.25c-0.04,0.31-0.22,0.78-0.43,1c-0.43,0.45-1.1,0.47-2.01,0.47c-1.33,0-2-0.1-2.29-0.35
				c-0.37-0.31-0.37-1.37-0.37-3.5V58.99L167.06,58.99z M174.8,61.44c0,2.41,0.68,3.64,1.57,4.4c1.25,1.1,3.03,1.13,3.93,1.13
				c1.12,0,2.43-0.18,3.64-1.19c1.45-1.19,1.64-3.15,1.64-5.01v-1.78c0-2.52,0.02-2.99,0.04-3.52c0.04-0.59,0.16-0.82,0.63-0.9
				c0.22-0.04,0.31-0.06,0.51-0.06s0.29-0.06,0.29-0.18c0-0.12-0.12-0.16-0.35-0.16c-0.67,0-1.82,0.04-2.01,0.04
				c0,0-1.17-0.04-2.05-0.04c-0.23,0-0.35,0.04-0.35,0.16c0,0.12,0.1,0.18,0.29,0.18s0.49,0.02,0.63,0.06
				c0.55,0.16,0.68,0.33,0.72,0.9c0.02,0.53,0.04,1,0.04,3.52v2.09c0,1.7-0.04,3.15-1,4.05c-0.68,0.67-1.56,0.88-2.31,0.88
				c-0.59,0-1.41-0.06-2.17-0.67c-0.84-0.67-1.31-1.6-1.31-4.03v-2.33c0-2.52,0-2.99,0.04-3.52c0.04-0.59,0.18-0.82,0.63-0.9
				c0.22-0.04,0.31-0.06,0.51-0.06c0.18,0,0.27-0.06,0.27-0.18c0-0.12-0.12-0.16-0.37-0.16c-0.63,0-1.78,0.04-2.21,0.04
				c-0.51,0-1.66-0.04-2.58-0.04c-0.25,0-0.37,0.04-0.37,0.16c0,0.12,0.1,0.18,0.29,0.18c0.23,0,0.53,0.02,0.67,0.06
				c0.55,0.16,0.7,0.31,0.74,0.9c0.04,0.53,0.02,1,0.02,3.52V61.44L174.8,61.44z M190.41,61.93c0,1.53,0,2.84-0.08,3.54
				c-0.06,0.49-0.16,0.8-0.51,0.88c-0.16,0.04-0.35,0.06-0.61,0.06c-0.22,0-0.27,0.1-0.27,0.18c0,0.12,0.12,0.18,0.33,0.18
				c0.35,0,0.78-0.02,1.19-0.04c0.41,0,0.78-0.02,0.98-0.02c0.27,0,0.88,0.02,1.47,0.04c0.59,0.04,1.17,0.06,1.37,0.06
				c3.17,0,4.58-1.84,4.58-3.62c0-1.96-1.76-3.15-3.17-3.6c0.98-0.63,1.94-1.62,1.94-2.91c0-0.88-0.55-2.48-3.66-2.48
				c-0.59,0-1.72,0.04-2.58,0.04c-0.33,0-1.43-0.04-2.33-0.04c-0.25,0-0.39,0.04-0.39,0.16c0,0.12,0.12,0.18,0.29,0.18
				c0.25,0,0.55,0.02,0.68,0.06c0.55,0.16,0.7,0.33,0.74,0.9c0.02,0.53,0.02,1,0.02,3.52V61.93L190.41,61.93z M192.64,55.26
				c0-0.18,0.04-0.25,0.16-0.27c0.18-0.04,0.51-0.04,0.74-0.04c1.49,0,2.15,1.39,2.15,2.5c0,0.8-0.33,1.41-0.78,1.76
				c-0.29,0.23-0.78,0.29-1.35,0.29c-0.39,0-0.65-0.02-0.8-0.06c-0.06-0.02-0.12-0.04-0.12-0.18V55.26L192.64,55.26z M192.64,60.38
				c0-0.1,0.04-0.12,0.1-0.12h0.74c0.67,0,1.13,0.18,1.49,0.43c1.29,0.88,1.62,2.19,1.62,2.95c0,1.84-1.19,2.35-2.11,2.35
				c-0.39,0-0.78-0.02-1.23-0.2c-0.55-0.22-0.61-0.55-0.61-1.64V60.38L192.64,60.38z"/>
		</g>
	</g>
	<g>
		<g>
			<path class="st0" d="M59.56,43.79C59.39,21.31,46.71,3.18,31.24,3.29C15.77,3.41,3.36,21.73,3.53,44.21
				c0.17,22.48,12.85,40.61,28.32,40.5C47.32,84.59,59.73,66.27,59.56,43.79L59.56,43.79z M36.34,71.99c0-0.62,0.42-1.49,0.42-1.49
				c0.23-0.42,0.27-0.59,0.31-0.86c-0.01,0.06-0.02,0.11-0.03,0.17l0.77,0.6l1.76-0.63c-0.9-0.47-1.62-0.85-1.62-0.85l-0.78,0.33
				c-0.01,0.02-0.01,0.03-0.01,0.05c0.05-0.18,0.11-0.42,0.16-0.76c0,0,0,0.01,0,0.01l0.64,0.37l1.7-0.64
				c-0.85-0.46-1.58-0.93-1.58-0.93l-0.7,0.37c0,0.01,0,0.02,0,0.04c0.01-0.23,0-0.49-0.01-0.79l0.71,0.39l1.76-0.71
				c-1.03-0.49-1.7-0.82-1.7-0.82l-0.82,0.38c-0.02-0.27-0.04-0.56-0.06-0.86l0.84,0.48l1.91-0.69c-0.94-0.46-1.82-0.9-1.82-0.9
				l-0.97,0.38c-0.01-0.31-0.03-0.62-0.03-0.94l1,0.56l2.09-0.72c-0.07,0.52-0.12,1.05-0.17,1.54c-0.17,1.66-0.36,4.59-0.36,4.63
				c0.02-0.01,0.21-0.06,0.36,0.18c0.14,0.22,0.84,1.05,1.26,1.4c0.53,0.43,2.47,0.8,2.62,1.97c0.05,0.42-0.62,0.64-1.26,0.64
				c-0.75,0-1.1-0.49-2.11-0.53c-1-0.04-1.36-0.66-1.57-0.86c-0.2-0.2-0.81-0.07-0.95-0.06c-0.14,0.01-1.02,0.08-1.5-0.18
				C36.48,72.17,36.4,72.09,36.34,71.99L36.34,71.99L36.34,71.99z M37.28,60.37c0.31,0.17,0.85,0.19,1.34,0.17l-1.4,0.55
				c0.02-0.26,0.04-0.52,0.07-0.77C37.29,60.34,37.28,60.35,37.28,60.37L37.28,60.37z M37.15,60.36c0.01-0.03,0.01-0.04,0.02-0.07
				c0.01,0.01,0.02,0.02,0.03,0.03c0.01-0.01,0.02-0.01,0.03-0.01C37.21,60.32,37.19,60.33,37.15,60.36L37.15,60.36z M40.59,61.76
				c-0.13,0.51-0.22,1.1-0.3,1.7c-0.9-0.53-1.95-0.98-1.95-0.98l-1.16,0.46c0-0.4,0-0.8,0.02-1.19l1.14,0.73L40.59,61.76
				L40.59,61.76z M36.45,61.16l-0.07-0.04l0.15-0.06C36.51,61.09,36.48,61.13,36.45,61.16L36.45,61.16z M43.71,36.23
				c0.16,1.39-0.57,0.97-0.49,2.15c0.22,0.89,0.9,1.39,0.9,3.4c0.03,2.79-0.02,11.13-2.21,18.02c-0.01,0.01-0.13,0.39-0.46,0.56
				c-0.19,0.1-0.35,0.12-0.48,0.35c-0.14,0.24-0.25,0.55-0.34,0.9c-1.25-0.66-1.97-1.06-1.99-1.07c0.56-0.03,1.05-0.12,1.05-0.12
				c1.01-0.14,1.32-0.47,1.81-2.12c1-3.33,1.6-8.89,1.6-8.89s-1.91,5.7-2.91,7.6c-0.85,1.61-2.46,2.74-2.94,3.06
				c0.01-0.02,0.02-0.05,0.02-0.07c-0.02-0.02-0.03-0.03-0.05-0.05c-0.09,0.05-0.27,0.18-0.55,0.47c-0.43,0.46-1.2,0.67-2.3,0.68
				c0.03,0,0.04,0.01,0.04,0.01c-0.49,0.08-7.06,4.52-7.73,4.86c-0.68,0.35-2.12,1.47-2.12,1.47c-0.26,0.26,0.23,0.15-0.39,0.77
				c-0.85,0.85-1.85,2.37-2.06,3.14c-0.14,0.54-0.39,0.98-1.23,0.93c-0.84-0.04-1.06-1.31-1.09-2.34c-0.03-1.03,0.61-2.15,0.93-2.62
				c0.28-0.41,0.21-0.56,0.17-1.02c-0.04-0.5-0.31-1.62,0.02-2.16c0.39-0.64,0.5-0.88,1.51-0.75c0.72,0.09,0.77,0.19,1.14,0.35
				c0.01,0.01,0.26,0.1,0.26,0.1c0.04,0.01,0.09,0.01,0.13,0.01c0.33,0.08,0.7,0.04,1.1-0.2l0.24,1.18l1.68,0.65
				c-0.44-1.67-0.39-1.69-0.39-1.69l-1.11-0.47c0,0,0.01,0,0.01-0.01c0.2-0.19,0.46-0.45,0.73-0.74l0.39,1.23l1.81,0.77
				c-0.57-1.73-0.58-1.76-0.58-1.76l-1.35-0.52c0.36-0.39,0.72-0.79,1-1.11c-0.03,0.03-0.05,0.06-0.08,0.09l0.45,1.53l1.89,0.86
				c-0.71-1.93-0.66-1.9-0.69-1.98l-1.51-0.57c0.2-0.23,0.35-0.41,0.41-0.51c0.07-0.11,0.31-0.32,0.61-0.55v0c0,0,0,0,0,0
				c0.09-0.07,0.18-0.14,0.27-0.21c0.01-0.01,0.02-0.02,0.03-0.03l0,0c0.41-0.3,0.85-0.61,1.16-0.79l0,0
				c0.06-0.04,0.12-0.07,0.17-0.1c-0.05,0.03-0.11,0.06-0.17,0.1l0.37,1.5l2.5,1.12c-0.91-2.2-0.97-2.49-0.97-2.49l-1.25-0.52l0,0
				c0.09-0.09,0.16-0.19,0.21-0.3c0.02-0.01,0.03-0.01,0.03-0.01c0-0.01,0.01-0.02,0.01-0.04c0,0,0,0,0,0
				c0.01-0.02,0.01-0.05,0.02-0.07c0.08-0.19,0.12-0.37,0.15-0.49c0.05-0.11,0.16-0.26,0.42-0.52c0.28-0.28,0.52-0.37,0.79-0.4
				c0.3-0.07,0.57-0.07,0.74-0.06c0.24-0.27,0.45-0.6,0.65-0.97c0.54-1.2,1.21-3.36,1.48-5.51c0.09-0.76,0.11-1.38,0.08-1.71
				c0,0-0.63-1.38-1.32-3.28c-0.19-0.52-1.14-1.3,1.24-5.97c0.25-0.51,0.46-0.88,0.46-0.88s-0.48-0.61-0.48-0.88
				c0.01-0.27,0.14-0.76,0.1-0.91c-0.03-0.15-0.59-2.43-1.04-3.31c-0.48-1.18-2.29-2.89-2.83-5.35c-0.25-1.8-1.03-2.34-1.97-4.18
				c-0.02-0.05-0.04-0.11-0.05-0.16c-0.01-0.01-0.01-0.01-0.02-0.02c-0.16-0.52-0.33-0.97-0.46-1.85c-0.14-0.8-0.23-1.79-0.2-3.12
				c0-0.16,0-0.32,0-0.48c0-0.46,0-0.92,0.01-1.33c0.01-0.63,0.01-1.15,0.01-1.35c-0.47,0.36-1.35,0.83-2.56,0.64l0-0.01l-0.23,0.04
				c0,0-11.54,24.32-12.05,25.46c-0.28,0.83-0.11,1.17,0.23,1.98c0.31,0.5,0.61,0.92,1.04,0.88v0c-0.03,0.08-0.07,0.14-0.11,0.2
				c-0.08,0.16-0.22,0.3-0.42,0.41c-0.53,0.25-1.74-0.25-1.78-2.03c-0.01-1.25,0.27-1.55,0.53-2.05
				c0.26-0.49,12.04-25.23,12.04-25.23s-0.05-0.35,0.03-0.85c0.07-0.44,0.19-1.13,0.55-1.65c0.48-0.63,0.58-0.7,0.92-0.84
				c0,0,0.36-0.97,0.73-0.87c0.39,0.1,0.47,0.17,0.05,0.99c0,0,1.29,0.1,1.98,1.43c0.2,0.42,0.77,0.68,1.11,0.87
				c0.26,0.15,2.32,1.2,3.34,1.73l0.01-0.01c0.01,0.01,0.03,0.03,0.04,0.04c0.07,0.03,0.12,0.06,0.18,0.09
				c1.43-0.92,2.82-0.99,3.17-0.96c0.4,0.04,0.72,0.15,1.69,0.15c0.94,0,1.65,0.15,1.84,0.85c0.05,0.23,0.09,0.48-0.7,0.92
				c2.34-0.69,1.3,0.05,0.59,0.51c-0.46,0.31-0.52,0.37-0.52,0.37s-0.16,0.17,0.31,0.69c0.65,0.73,0.79,1.01,0.48,1.19
				c-0.31,0.18-0.34,0.2-0.29,0.59c0.02,0.17,0.06,0.29,0.1,0.42c0.07,0.05,0.14,0.09,0.2,0.13c0.02,0,0.04,0,0.05,0.01
				c1.94,0.26,2.56,2.22,2.63,2.8C44.81,29.65,43.76,31.96,43.71,36.23L43.71,36.23z M42.76,35.91c0.34-1.83,0.97-5.11,0.32-7.54
				c-0.27-1.03-0.24,1.08-0.28,1.62c-0.14,0.98-0.61,3.62-1.59,5.11c-0.98,1.5-1.99,1.98-1.33,2.32c0.33,0.17,1.86,0.24,2.4,0.07
				C42.82,37.32,42.59,36.79,42.76,35.91L42.76,35.91z M40.36,20.26c-0.11-0.63-0.63-1.17-0.8-1.06c-0.3,0.28-0.54,0.54-0.62,0.8
				c-0.09,0.31-0.32,0.36-0.02,0.86c0.29,0.49,1.01,0.6,1.26,0.47C40.41,21.21,40.48,20.68,40.36,20.26L40.36,20.26z M34.27,23.38
				c0,0,0.35-0.27,0.7-0.56c-0.27-0.29-0.94-0.93-1.09-1.44c-0.06-0.21-0.71-0.21-0.68-0.61c0.03-0.39-0.12-0.46-0.27-1.2
				c-0.38-0.49-1.08-1.39-1.71-2.14c-0.17-0.19-0.34-0.37-0.51-0.53c0.01,0.23,0.04,0.97,0.28,1.97c0.15,0.46,0.32,0.79,0.44,0.92
				c0.26,0.29,0.51,1.85,0.67,2.46c0.16,0.61,1.12,1.08,1.6,1.34c0.08,0.04,0.19,0.06,0.32,0.07c0.03,0,0.06-0.01,0.09-0.01
				C34.12,23.58,34.26,23.46,34.27,23.38L34.27,23.38z M23.98,65.72l1.41,0.87c-0.1-1.77-0.13-1.77-0.13-1.77l-1.36-0.93
				L23.98,65.72L23.98,65.72z M30.38,60.53l-1.52-0.71c-0.01,0.01-0.02,0.02-0.03,0.03c-0.09,0.07-0.19,0.14-0.27,0.2
				c0,0,0,0-0.01,0.01l0.49,1.65l2.15,0.95C30.4,60.52,30.38,60.53,30.38,60.53L30.38,60.53z"/>
		</g>
		<g>
			<path class="st0" d="M31.71,88C14.4,88,0.19,68.41,0,44.23c-0.09-11.68,3.06-22.7,8.88-31.03C14.77,4.75,22.7,0.06,31.21,0
				c0.06,0,0.11,0,0.17,0C48.69,0,62.9,19.59,63.08,43.77c0.09,11.68-3.06,22.7-8.88,31.03c-5.9,8.45-13.83,13.14-22.33,13.2
				C31.83,88,31.77,88,31.71,88z M31.37,2.3c-0.05,0-0.1,0-0.15,0c-7.74,0.06-15,4.39-20.46,12.22C5.22,22.45,2.21,33,2.3,44.21
				C2.47,67.14,15.66,85.7,31.71,85.71c0.05,0,0.1,0,0.15,0c7.74-0.06,15-4.39,20.46-12.22c5.54-7.94,8.55-18.49,8.46-29.7
				C60.61,20.87,47.43,2.3,31.37,2.3z"/>
		</g>
	</g>
</g>
</svg>
