<?xml version="1.0" encoding="utf-8"?>
<!-- Generator: Adobe Illustrator 23.0.1, SVG Export Plug-In . SVG Version: 6.00 Build 0)  -->
<svg version="1.1" id="Layer_1" xmlns="http://www.w3.org/2000/svg" xmlns:xlink="http://www.w3.org/1999/xlink" x="0px" y="0px"
	 viewBox="0 0 303.32 98.78" style="enable-background:new 0 0 303.32 98.78;" xml:space="preserve">
<style type="text/css">
	.st0{fill:#FFFFFF;}
	.st1{display:none;clip-path:url(#XMLID_55_);}
	.st2{display:inline;fill:#FFFFFF;}
	.st3{display:none;clip-path:url(#XMLID_56_);}
	.st4{display:none;clip-path:url(#XMLID_57_);}
	.st5{display:none;clip-path:url(#XMLID_58_);}
	.st6{display:none;clip-path:url(#XMLID_59_);}
	.st7{display:none;clip-path:url(#XMLID_60_);}
	.st8{display:none;clip-path:url(#XMLID_61_);}
	.st9{display:none;clip-path:url(#XMLID_62_);}
	.st10{display:none;clip-path:url(#XMLID_63_);}
	.st11{display:none;clip-path:url(#XMLID_64_);}
	.st12{display:none;clip-path:url(#XMLID_65_);}
	.st13{display:none;clip-path:url(#XMLID_66_);}
	.st14{display:none;}
	.st15{display:inline;}
	.st16{display:none;clip-path:url(#XMLID_67_);}
	.st17{display:none;clip-path:url(#XMLID_68_);}
	.st18{display:none;clip-path:url(#XMLID_69_);}
	.st19{display:none;clip-path:url(#XMLID_70_);}
	.st20{display:none;clip-path:url(#XMLID_71_);}
	.st21{opacity:0.8;}
</style>
<g>
	<g>
		<g>
			<g>
				<path class="st0" d="M136.83,12.49h-3.3v10.52h-2.89V12.49h-4.03v-1.62c0-0.4,0.33-0.73,0.73-0.73h10.21v1.62
					C137.56,12.16,137.24,12.49,136.83,12.49z"/>
			</g>
		</g>
		<g>
			<g>
				<path class="st0" d="M158.77,10.87v12.14h-2.89v-5.33h-5.46v5.33h-2.89V10.14h2.16c0.4,0,0.73,0.33,0.73,0.73v4.46h5.46v-5.19
					h2.16C158.45,10.14,158.77,10.46,158.77,10.87z"/>
			</g>
		</g>
		<g>
			<g>
				<path class="st0" d="M173.04,12.36v2.96h6.47v2.15h-6.47v3.31h6.18c0.4,0,0.73,0.33,0.73,0.73v1.5h-9.8V10.14h9.8v1.5
					c0,0.4-0.33,0.73-0.73,0.73H173.04z"/>
			</g>
		</g>
		<g>
			<g>
				<path class="st0" d="M216.68,10.14v12.87h-2.78v-8.55l-3.71,5.04h-0.29l-3.72-5.04v8.55h-2.78V10.14h2.25
					c0.24,0,0.46,0.11,0.6,0.31l3.79,5.34l3.79-5.34c0.14-0.19,0.36-0.31,0.6-0.31H216.68z"/>
			</g>
		</g>
		<g>
			<g>
				<path class="st0" d="M236.61,20.27h-5.33l-1.01,2.74h-3.02l5.15-12.87h2.58c0.3,0,0.57,0.18,0.68,0.46l4.98,12.42h-3.02
					L236.61,20.27z M235.82,18.1l-1.88-5.08l-1.88,5.08H235.82z"/>
			</g>
		</g>
		<g>
			<g>
				<g>
					<path class="st0" d="M257.41,18.65c0,0.6-0.05,1.18-0.16,1.75c-0.1,0.56-0.3,1.06-0.6,1.5c-0.29,0.44-0.71,0.78-1.26,1.05
						c-0.55,0.26-1.26,0.4-2.14,0.4c-1.03,0-1.9-0.25-2.61-0.74c-0.52-0.36-0.9-0.86-1.15-1.5c-0.16-0.41,0.08-0.87,0.51-0.98
						l1.89-0.46c0.04,0.32,0.18,0.59,0.43,0.81c0.25,0.22,0.54,0.33,0.86,0.33c0.33,0,0.59-0.08,0.77-0.25
						c0.18-0.17,0.32-0.37,0.4-0.62c0.09-0.25,0.14-0.51,0.16-0.8c0.02-0.29,0.03-0.55,0.03-0.8v-8.2h2.14
						c0.4,0,0.73,0.33,0.73,0.73V18.65z"/>
				</g>
			</g>
		</g>
	</g>
	<g>
		<g>
			<path class="st0" d="M131.43,52.78c-0.12,0.78-0.16,1.43-0.16,2.08c0,2.53,0.78,5.01,3.63,5.01c2.12,0,4.4-1.34,5.05-2.12
				c0.24,0.12,0.45,0.29,0.65,0.53c-1.75,2.53-4.89,4.28-7.74,4.28c-3.54,0-5.34-2.65-5.34-6.56c0-6.68,5.42-14.14,11.12-14.14
				c3.14,0,4.36,2.2,4.36,4.03C142.99,49.77,137.45,52.01,131.43,52.78z M131.59,51.6c4.93-0.98,7.82-2.69,7.82-5.3
				c0-0.98-0.45-2.45-2.2-2.45C134.28,43.86,132.36,47.89,131.59,51.6z"/>
		</g>
		<g>
			<path class="st0" d="M156.6,47.44c2.61-3.38,3.99-5.54,5.95-5.54c0.98,0,1.51,0.98,1.51,1.83c0,0.65-0.12,2.12-1.51,2.12
				c-0.9,0-3.14,0.04-5.66,3.34l-1.3,1.75l1.02,3.18c1.3,4.03,2.12,6.19,5.66,6.52v1.47h-6.64l-2.52-7.9l-2.2,2.89
				c-2.73,3.3-4.12,5.5-6.07,5.5c-0.98,0-1.51-0.98-1.51-1.83c0-0.65,0.08-2.12,1.51-2.12c0.86,0,3.14-0.04,5.66-3.34l2.08-2.69
				l-0.77-2.45c-1.3-4.03-1.87-6.23-5.66-6.11V42.6l6.64-0.41l2.32,7.21L156.6,47.44z"/>
		</g>
		<g>
			<path class="st0" d="M169.44,62.27c-0.49,2.61-0.82,4.28-0.82,5.42c0,2.12,1.02,2.28,3.87,2.4l-0.29,1.47l-2.24-0.08
				c-1.3-0.04-2.97-0.08-4.44-0.08c-1.26,0-2.28,0.04-3.05,0.08c-0.45,0.04-0.82,0.04-1.14,0.04l0.29-1.38
				c3.05-0.33,3.34-1.47,5.3-11.69l0.98-5.05c0.65-3.54,1.06-5.66,1.06-7.09c0-1.96-0.81-2.24-2.81-2.24l0.33-1.47l6.76-0.41
				l-2.04,10.06c2.28-5.54,5.21-10.39,9.33-10.39c3.1,0,4.48,2.81,4.48,6.19c0,6.11-4.36,14.5-11.69,14.5
				C172.37,62.56,171.03,62.44,169.44,62.27z M169.97,59.5c1.3,0.94,2.57,1.14,3.5,1.14c5.38,0,7.86-6.4,7.86-10.92
				c0-2.77-0.89-4.93-2.65-4.93C175.35,44.8,171.48,52.86,169.97,59.5z"/>
		</g>
		<g>
			<path class="st0" d="M191.32,52.78c-0.12,0.78-0.16,1.43-0.16,2.08c0,2.53,0.78,5.01,3.63,5.01c2.12,0,4.4-1.34,5.05-2.12
				c0.24,0.12,0.45,0.29,0.65,0.53c-1.75,2.53-4.89,4.28-7.74,4.28c-3.54,0-5.34-2.65-5.34-6.56c0-6.68,5.42-14.14,11.12-14.14
				c3.14,0,4.36,2.2,4.36,4.03C202.89,49.77,197.35,52.01,191.32,52.78z M191.48,51.6c4.93-0.98,7.82-2.69,7.82-5.3
				c0-0.98-0.45-2.45-2.2-2.45C194.17,43.86,192.26,47.89,191.48,51.6z"/>
		</g>
		<g>
			<path class="st0" d="M217.43,41.86c1.67,0,2.28,0.77,2.28,2.04c0,1.43-0.77,2.16-1.96,2.16c-1.02,0-1.55-0.53-2.2-0.53
				c-2.97,0-6.03,11.2-7.01,16.58h-3.3l1.71-8.72c0.69-3.54,1.1-5.62,1.1-7.05c0-1.96-0.86-2.28-2.85-2.28l0.33-1.47l6.84-0.41
				l-1.83,9.04C212.67,45.16,214.62,41.86,217.43,41.86z"/>
		</g>
		<g>
			<path class="st0" d="M223.67,46.31c0-1.96-0.86-2.24-2.85-2.24l0.33-1.47l6.84-0.41l-1.79,8.72c-0.78,3.75-1.22,6.07-1.22,7.5
				c0,1.91,0.77,2.24,2.69,2.24l-0.33,1.47h-6.6l1.79-8.72C223.3,49.85,223.67,47.73,223.67,46.31z M227.7,32.21
				c1.1,0,1.87,0.94,1.87,2.24c0,1.47-1.02,2.73-2.28,2.73c-1.1,0-1.83-0.86-1.83-2.2C225.46,33.8,226.32,32.21,227.7,32.21z"/>
		</g>
		<g>
			<path class="st0" d="M234.83,52.78c-0.12,0.78-0.16,1.43-0.16,2.08c0,2.53,0.78,5.01,3.63,5.01c2.12,0,4.4-1.34,5.05-2.12
				c0.24,0.12,0.45,0.29,0.65,0.53c-1.75,2.53-4.89,4.28-7.74,4.28c-3.54,0-5.34-2.65-5.34-6.56c0-6.68,5.42-14.14,11.12-14.14
				c3.14,0,4.36,2.2,4.36,4.03C246.4,49.77,240.86,52.01,234.83,52.78z M235,51.6c4.93-0.98,7.82-2.69,7.82-5.3
				c0-0.98-0.45-2.45-2.2-2.45C237.69,43.86,235.77,47.89,235,51.6z"/>
		</g>
		<g>
			<path class="st0" d="M263.64,41.86c2.52,0,3.58,1.87,3.58,3.95c0,0.45-0.04,0.9-0.16,1.34l-0.81,3.75
				c-0.82,3.71-1.26,5.95-1.26,7.41c0,1.91,0.81,2.32,2.73,2.32l-0.33,1.47h-6.84l1.71-8.27l1.47-6.6c0.2-0.98,0.04-2.4-1.55-2.4
				c-4.2,0-8.96,9.94-10.1,17.27h-3.3l1.71-8.72c0.69-3.54,1.1-5.62,1.1-7.05c0-1.96-0.85-2.28-2.85-2.28l0.33-1.47l6.84-0.41
				l-2.08,9.94C256.92,45.33,260.22,41.86,263.64,41.86z"/>
		</g>
		<g>
			<path class="st0" d="M274.6,54.82c0,2.89,0.82,5.05,3.63,5.05c2.28,0,4.48-1.34,5.13-2.12c0.24,0.08,0.45,0.24,0.65,0.53
				c-1.75,2.53-4.89,4.28-7.74,4.28c-3.42,0-5.38-2.44-5.38-6.68c0-5.95,3.99-13.93,11.28-13.93c2.97,0,4.48,1.47,4.48,2.81
				c0,0.85-0.57,1.87-1.91,1.87c-2.12,0-1.55-2.69-4.15-2.69C276.51,43.94,274.6,50.42,274.6,54.82z"/>
		</g>
		<g>
			<path class="st0" d="M291.75,52.78c-0.12,0.78-0.16,1.43-0.16,2.08c0,2.53,0.78,5.01,3.63,5.01c2.12,0,4.4-1.34,5.05-2.12
				c0.24,0.12,0.45,0.29,0.65,0.53c-1.75,2.53-4.89,4.28-7.74,4.28c-3.54,0-5.34-2.65-5.34-6.56c0-6.68,5.42-14.14,11.12-14.14
				c3.14,0,4.36,2.2,4.36,4.03C303.32,49.77,297.78,52.01,291.75,52.78z M291.92,51.6c4.93-0.98,7.82-2.69,7.82-5.3
				c0-0.98-0.45-2.45-2.2-2.45C294.6,43.86,292.69,47.89,291.92,51.6z"/>
		</g>
	</g>
	<g>
		<g>
			<path class="st0" d="M132.16,83.62c-0.37-0.33-1.16-0.77-2.29-0.77c-0.79,0-1.61,0.28-1.61,1.06c0,0.79,1.02,0.83,2.02,0.89
				c1.08,0.08,2.82,0.18,2.82,1.83c0,1.44-1.28,2.02-2.76,2.02c-1.57,0-2.57-0.65-3.25-1.27l0.5-0.57c0.52,0.48,1.38,1.13,2.76,1.13
				c1.05,0,1.92-0.38,1.92-1.21c0-0.93-0.95-1.07-2-1.14c-1.33-0.08-2.85-0.18-2.85-1.61c0-1.41,1.35-1.84,2.46-1.84
				c1.28,0,2.28,0.51,2.75,0.9L132.16,83.62z"/>
		</g>
		<g>
			<path class="st0" d="M139.75,88.49v-6.18h0.82v6.18H139.75z"/>
		</g>
		<g>
			<path class="st0" d="M153.36,88.49V83.8h-0.05l-2.23,3.76h-0.17l-2.23-3.76h-0.05v4.68h-0.78v-6.18h0.87l2.31,3.89h0.02
				l2.31-3.89h0.83v6.18H153.36z"/>
		</g>
		<g>
			<path class="st0" d="M161.44,88.49v-6.18h3.34c0.8,0,1.34,0.22,1.73,0.62c0.31,0.34,0.47,0.76,0.47,1.19
				c0,0.51-0.21,0.96-0.55,1.28c-0.37,0.36-0.89,0.57-1.65,0.57h-2.52v2.52H161.44z M162.27,83.04v2.2h2.52
				c0.35,0,0.74-0.05,1.06-0.35c0.21-0.2,0.33-0.47,0.33-0.76c0-0.27-0.1-0.51-0.29-0.72c-0.29-0.31-0.69-0.38-1.1-0.38H162.27z"/>
		</g>
		<g>
			<path class="st0" d="M174.32,82.31v5.45h3.9v0.73h-4.72v-6.18H174.32z"/>
		</g>
		<g>
			<path class="st0" d="M188.75,82.31l-2.54,3.28v2.89h-0.82v-2.89l-2.54-3.28h1.04l1.94,2.56l1.95-2.56H188.75z"/>
		</g>
		<g>
			<path class="st0" d="M202.21,88.49v-6.18h3.58c0.69,0,1.18,0.22,1.5,0.54c0.27,0.26,0.42,0.6,0.42,0.97
				c0,0.6-0.37,1.14-0.88,1.31c0.75,0.15,1.2,0.79,1.2,1.55c0,0.44-0.16,0.9-0.56,1.28c-0.33,0.31-0.77,0.53-1.59,0.53H202.21z
				 M203.03,83.04v1.92h2.79c0.29,0,0.56-0.08,0.75-0.27c0.19-0.19,0.3-0.45,0.3-0.71c0-0.25-0.1-0.46-0.26-0.63
				c-0.22-0.21-0.51-0.3-0.9-0.3H203.03z M203.03,85.62v2.14h2.89c0.36,0,0.71-0.1,0.95-0.34c0.21-0.2,0.32-0.47,0.32-0.75
				c0-0.26-0.11-0.51-0.29-0.69c-0.21-0.22-0.51-0.36-0.85-0.36H203.03z"/>
		</g>
		<g>
			<path class="st0" d="M218.25,85.6h-2.5v2.16h4.36v0.73h-5.18v-6.18h4.97v0.73h-4.14v1.84h2.5V85.6z"/>
		</g>
		<g>
			<path class="st0" d="M225.85,88.49l2.87-6.18h0.78l2.87,6.18h-0.9l-0.84-1.86h-3.09l-0.83,1.86H225.85z M227.83,85.97h2.5
				l-1.22-2.7h-0.06L227.83,85.97z"/>
		</g>
		<g>
			<path class="st0" d="M243.97,82.31v3.98c0,1.5-1.16,2.35-2.72,2.35c-1.54,0-2.71-0.85-2.71-2.35v-3.98h0.81v3.98
				c0,1.05,0.83,1.63,1.89,1.63c1.08,0,1.9-0.58,1.9-1.63v-3.98H243.97z"/>
		</g>
		<g>
			<path class="st0" d="M250.26,82.31h5.62v0.73h-2.39v5.45h-0.82v-5.45h-2.4V82.31z"/>
		</g>
		<g>
			<path class="st0" d="M262.29,88.49v-6.18h0.82v6.18H262.29z"/>
		</g>
		<g>
			<path class="st0" d="M270.38,88.49v-6.18h4.88v0.73h-4.06v1.89h2.5v0.73h-2.5v2.83H270.38z"/>
		</g>
		<g>
			<path class="st0" d="M286.88,82.31v3.98c0,1.5-1.16,2.35-2.72,2.35c-1.54,0-2.71-0.85-2.71-2.35v-3.98h0.81v3.98
				c0,1.05,0.83,1.63,1.89,1.63c1.08,0,1.9-0.58,1.9-1.63v-3.98H286.88z"/>
		</g>
		<g>
			<path class="st0" d="M294.84,82.31v5.45h3.9v0.73h-4.72v-6.18H294.84z"/>
		</g>
	</g>
	<g>
		<g>
			<g>
				<g>
					<path class="st0" d="M46.86,78.51H21.52c-0.69,0-1.25-0.56-1.25-1.25V51.93c0-0.69,0.56-1.25,1.25-1.25h15.2
						c0.69,0,1.25,0.56,1.25,1.25v15.2c0,0.69-0.56,1.25-1.25,1.25h-5.07c-0.69,0-1.25-0.56-1.25-1.25v-8.89h-2.57v12.71h12.71
						V51.93c0-0.69,0.56-1.25,1.25-1.25h5.07c0.69,0,1.25,0.56,1.25,1.25v25.34C48.11,77.95,47.55,78.51,46.86,78.51z M22.77,76.02
						h22.84V53.17h-2.57V72.2c0,0.69-0.56,1.25-1.25,1.25h-15.2c-0.69,0-1.25-0.56-1.25-1.25v-15.2c0-0.69,0.56-1.25,1.25-1.25h5.07
						c0.69,0,1.25,0.56,1.25,1.25v8.89h2.57V53.17H22.77V76.02z"/>
				</g>
				<g>
					<path class="st0" d="M46.86,48.11h-5.07c-0.69,0-1.25-0.56-1.25-1.25V27.83H27.84v12.71h2.57v-8.89c0-0.69,0.56-1.25,1.25-1.25
						h5.07c0.69,0,1.25,0.56,1.25,1.25v15.2c0,0.69-0.56,1.25-1.25,1.25h-15.2c-0.69,0-1.25-0.56-1.25-1.25V21.52
						c0-0.69,0.56-1.25,1.25-1.25h25.34c0.69,0,1.25,0.56,1.25,1.25v25.34C48.11,47.55,47.55,48.11,46.86,48.11z M43.04,45.61h2.57
						V22.77H22.77v22.84h12.71V32.9H32.9v8.89c0,0.69-0.56,1.25-1.25,1.25h-5.07c-0.69,0-1.25-0.56-1.25-1.25v-15.2
						c0-0.69,0.56-1.25,1.25-1.25h15.2c0.69,0,1.25,0.56,1.25,1.25V45.61z"/>
				</g>
				<g>
					<path class="st0" d="M77.27,48.11h-15.2c-0.69,0-1.25-0.56-1.25-1.25v-15.2c0-0.69,0.56-1.25,1.25-1.25h5.07
						c0.69,0,1.25,0.56,1.25,1.25v8.89h2.57V27.83H58.24v19.02c0,0.69-0.56,1.25-1.25,1.25h-5.07c-0.69,0-1.25-0.56-1.25-1.25V21.52
						c0-0.69,0.56-1.25,1.25-1.25h25.34c0.69,0,1.25,0.56,1.25,1.25v25.34C78.51,47.55,77.96,48.11,77.27,48.11z M63.31,45.61h12.71
						V22.77H53.17v22.84h2.57V26.59c0-0.69,0.56-1.25,1.25-1.25h15.2c0.69,0,1.25,0.56,1.25,1.25v15.2c0,0.69-0.56,1.25-1.25,1.25
						h-5.07c-0.69,0-1.25-0.56-1.25-1.25V32.9h-2.57V45.61z"/>
				</g>
				<g>
					<path class="st0" d="M77.27,78.51H51.93c-0.69,0-1.25-0.56-1.25-1.25V51.93c0-0.69,0.56-1.25,1.25-1.25H57
						c0.69,0,1.25,0.56,1.25,1.25v19.02h12.71V58.24h-2.57v8.89c0,0.69-0.56,1.25-1.25,1.25h-5.07c-0.69,0-1.25-0.56-1.25-1.25
						v-15.2c0-0.69,0.56-1.25,1.25-1.25h15.2c0.69,0,1.25,0.56,1.25,1.25v25.34C78.51,77.95,77.96,78.51,77.27,78.51z M53.17,76.02
						h22.84V53.17H63.31v12.71h2.57v-8.89c0-0.69,0.56-1.25,1.25-1.25h5.07c0.69,0,1.25,0.56,1.25,1.25v15.2
						c0,0.69-0.56,1.25-1.25,1.25H57c-0.69,0-1.25-0.56-1.25-1.25V53.17h-2.57V76.02z"/>
				</g>
				<g>
					<path class="st0" d="M87.4,88.65H51.93c-0.69,0-1.25-0.56-1.25-1.25v-5.07c0-0.69,0.56-1.25,1.25-1.25h29.16V17.7H51.93
						c-0.69,0-1.25-0.56-1.25-1.25v-5.07c0-0.69,0.56-1.25,1.25-1.25H87.4c0.69,0,1.25,0.56,1.25,1.25V87.4
						C88.65,88.09,88.09,88.65,87.4,88.65z M53.17,86.15h32.98V12.63H53.17v2.57h29.16c0.69,0,1.25,0.56,1.25,1.25v65.88
						c0,0.69-0.56,1.25-1.25,1.25H53.17V86.15z"/>
				</g>
				<g>
					<path class="st0" d="M46.86,88.65H11.38c-0.69,0-1.25-0.56-1.25-1.25V11.38c0-0.69,0.56-1.25,1.25-1.25h35.48
						c0.69,0,1.25,0.56,1.25,1.25v5.07c0,0.69-0.56,1.25-1.25,1.25H17.7v63.39h29.16c0.69,0,1.25,0.56,1.25,1.25v5.07
						C48.11,88.09,47.55,88.65,46.86,88.65z M12.63,86.15h32.98v-2.57H16.45c-0.69,0-1.25-0.56-1.25-1.25V16.45
						c0-0.69,0.56-1.25,1.25-1.25h29.16v-2.57H12.63V86.15z"/>
				</g>
			</g>
			<g>
				<path class="st0" d="M6.32,74.21c-0.69,0-1.25-0.56-1.25-1.25V25.83c0-0.69,0.56-1.25,1.25-1.25s1.25,0.56,1.25,1.25v47.13
					C7.56,73.65,7.01,74.21,6.32,74.21z"/>
			</g>
			<g>
				<path class="st0" d="M1.25,58.59C0.56,58.59,0,58.03,0,57.34l0-15.89c0-0.69,0.56-1.25,1.25-1.25s1.25,0.56,1.25,1.25v15.89
					C2.5,58.03,1.94,58.59,1.25,58.59z"/>
			</g>
			<g>
				<g>
					<path class="st0" d="M72.96,7.56H25.83c-0.69,0-1.25-0.56-1.25-1.25s0.56-1.25,1.25-1.25h47.14c0.69,0,1.25,0.56,1.25,1.25
						S73.65,7.56,72.96,7.56z"/>
				</g>
				<g>
					<path class="st0" d="M57.34,2.5H41.45c-0.69,0-1.25-0.56-1.25-1.25S40.76,0,41.45,0l15.89,0c0.69,0,1.25,0.56,1.25,1.25
						S58.03,2.5,57.34,2.5z"/>
				</g>
			</g>
			<g>
				<g>
					<path class="st0" d="M72.96,93.72H25.83c-0.69,0-1.25-0.56-1.25-1.25s0.56-1.25,1.25-1.25h47.14c0.69,0,1.25,0.56,1.25,1.25
						S73.65,93.72,72.96,93.72z"/>
				</g>
				<g>
					<path class="st0" d="M57.34,98.78H41.45c-0.69,0-1.25-0.56-1.25-1.25c0-0.69,0.56-1.25,1.25-1.25h15.89
						c0.69,0,1.25,0.56,1.25,1.25C58.59,98.23,58.03,98.78,57.34,98.78z"/>
				</g>
			</g>
			<g>
				<path class="st0" d="M92.47,74.21c-0.69,0-1.25-0.56-1.25-1.25V25.83c0-0.69,0.56-1.25,1.25-1.25s1.25,0.56,1.25,1.25v47.13
					C93.72,73.65,93.16,74.21,92.47,74.21z"/>
			</g>
			<g>
				<path class="st0" d="M97.54,58.59c-0.69,0-1.25-0.56-1.25-1.25V41.45c0-0.69,0.56-1.25,1.25-1.25c0.69,0,1.25,0.56,1.25,1.25
					v15.89C98.78,58.03,98.23,58.59,97.54,58.59z"/>
			</g>
		</g>
	</g>
</g>
</svg>
