<?xml version="1.0" encoding="utf-8"?>
<!-- Generator: Adobe Illustrator 23.0.1, SVG Export Plug-In . SVG Version: 6.00 Build 0)  -->
<svg version="1.1" id="Layer_1" xmlns="http://www.w3.org/2000/svg" xmlns:xlink="http://www.w3.org/1999/xlink" x="0px" y="0px"
	 viewBox="0 0 163.49 149.94" style="enable-background:new 0 0 163.49 149.94;" xml:space="preserve">
<style type="text/css">
	.st0{fill:#FFFFFF;}
	.st1{display:none;clip-path:url(#XMLID_55_);}
	.st2{display:inline;fill:#FFFFFF;}
	.st3{display:none;clip-path:url(#XMLID_56_);}
	.st4{display:none;clip-path:url(#XMLID_57_);}
	.st5{display:none;clip-path:url(#XMLID_58_);}
	.st6{display:none;clip-path:url(#XMLID_59_);}
	.st7{display:none;clip-path:url(#XMLID_60_);}
	.st8{display:none;clip-path:url(#XMLID_61_);}
	.st9{display:none;clip-path:url(#XMLID_62_);}
	.st10{display:none;clip-path:url(#XMLID_63_);}
	.st11{display:none;clip-path:url(#XMLID_64_);}
	.st12{display:none;clip-path:url(#XMLID_65_);}
	.st13{display:none;clip-path:url(#XMLID_66_);}
	.st14{display:none;}
	.st15{display:inline;}
	.st16{display:none;clip-path:url(#XMLID_67_);}
	.st17{display:none;clip-path:url(#XMLID_68_);}
	.st18{display:none;clip-path:url(#XMLID_69_);}
	.st19{display:none;clip-path:url(#XMLID_70_);}
	.st20{display:none;clip-path:url(#XMLID_71_);}
	.st21{opacity:0.8;}
</style>
<g>
	<g>
		<path class="st0" d="M57.36,149.68v-8.72h4.18c1.58,0,2.46,0.44,3.2,1.16c0.77,0.8,1.19,1.92,1.19,3.19c0,1.31-0.45,2.5-1.28,3.3
			c-0.75,0.67-1.54,1.07-3.11,1.07H57.36z M61.48,148.34c1.11,0,1.48-0.25,2-0.68c0.56-0.56,0.89-1.42,0.89-2.35
			c0-0.91-0.29-1.72-0.84-2.28c-0.49-0.45-0.96-0.73-2.06-0.73h-2.62v6.05H61.48z"/>
		<path class="st0" d="M73.72,140.96h1.36l4.05,8.72h-1.64l-1.05-2.35h-4.15l-1.04,2.35h-1.56L73.72,140.96z M72.81,146.12h3.09
			l-1.5-3.38h-0.08L72.81,146.12z"/>
		<path class="st0" d="M90.57,143.2c-0.73-0.73-1.98-1.18-3-1.18c-1.88,0-3.2,1.5-3.2,3.3c0,1.68,1.15,3.29,3.35,3.29
			c0.91,0,1.98-0.27,2.56-0.71v-1.75h-2.74v-1.34h4.1v3.82c-1.1,0.8-2.64,1.31-4.02,1.31c-2.76,0-4.82-2.07-4.82-4.63
			s2.08-4.62,4.75-4.62c1.39,0,2.87,0.56,4.06,1.58L90.57,143.2z"/>
		<path class="st0" d="M101.19,140.69c2.75,0,4.94,2.06,4.94,4.61c0,2.59-2.19,4.65-4.94,4.65c-2.75,0-4.9-2.06-4.9-4.65
			C96.29,142.74,98.44,140.69,101.19,140.69z M101.19,148.61c1.88,0,3.37-1.5,3.37-3.31c0-1.8-1.48-3.27-3.37-3.27
			c-1.87,0-3.33,1.47-3.33,3.27C97.86,147.11,99.32,148.61,101.19,148.61z"/>
	</g>
	<g>
		<g>
			<path class="st0" d="M17.89,104.71h-5.78v18.43H7.06v-18.43H0v-2.85c0-0.71,0.57-1.28,1.28-1.28h17.89v2.85
				C19.17,104.13,18.6,104.71,17.89,104.71z"/>
			<path class="st0" d="M45.63,101.86v21.28h-5.06v-9.35H31v9.35h-5.06v-22.56h3.78c0.71,0,1.28,0.57,1.28,1.28v7.81h9.57v-9.09
				h3.78C45.05,100.58,45.63,101.16,45.63,101.86z"/>
			<path class="st0" d="M59.58,104.48v5.19h11.34v3.77H59.58v5.8h10.84c0.71,0,1.28,0.57,1.28,1.28v2.62H54.52v-22.56h17.18v2.62
				c0,0.71-0.57,1.28-1.28,1.28H59.58z"/>
			<path class="st0" d="M113.39,100.58v22.56h-4.87v-14.98l-6.51,8.83h-0.52l-6.51-8.83v14.98h-4.87v-22.56h3.95
				c0.41,0,0.8,0.2,1.04,0.54l6.64,9.35l6.64-9.35c0.24-0.34,0.63-0.54,1.04-0.54H113.39z"/>
			<path class="st0" d="M136.84,118.34h-9.35l-1.77,4.8h-5.28l9.02-22.56h4.52c0.52,0,0.99,0.32,1.19,0.8l8.73,21.75h-5.28
				L136.84,118.34z M135.46,114.54l-3.29-8.89l-3.29,8.89H135.46z"/>
			<g>
				<path class="st0" d="M163.49,115.5c0,1.05-0.09,2.07-0.27,3.06c-0.18,0.99-0.53,1.86-1.05,2.63c-0.52,0.76-1.25,1.37-2.21,1.84
					c-0.96,0.46-2.21,0.69-3.75,0.69c-1.8,0-3.33-0.43-4.58-1.29c-0.9-0.62-1.57-1.5-2.02-2.63c-0.28-0.72,0.14-1.53,0.89-1.71
					l3.31-0.81c0.06,0.56,0.32,1.03,0.76,1.42c0.44,0.39,0.94,0.58,1.5,0.58c0.58,0,1.03-0.15,1.35-0.43
					c0.32-0.29,0.56-0.65,0.71-1.08c0.15-0.43,0.24-0.9,0.27-1.4c0.03-0.5,0.05-0.97,0.05-1.4v-14.37h3.75
					c0.71,0,1.28,0.57,1.28,1.28V115.5z"/>
			</g>
		</g>
	</g>
	<g>
		<g>
			<path class="st0" d="M57.48,48.23c0,0.43,0.34,0.77,0.77,0.77h2.94c4.67,0,8.66-2.92,10.28-7.02c0.09,0.23,0.19,0.45,0.3,0.68
				c0.02,0.03,0.02,0.06,0.04,0.09c1.21,2.49,3.32,4.47,5.91,5.49c-4.1,1.61-7.02,5.61-7.02,10.28v2.94c0,0.43,0.34,0.77,0.77,0.77
				c0.74,0,1.46-0.08,2.17-0.22v3.85c0,0.43,0.34,0.77,0.77,0.77c1.4,0,2.75-0.27,4.02-0.73c0.71,1.33,1.66,2.51,2.84,3.49
				c0.14,0.12,0.32,0.18,0.49,0.18c0.22,0,0.44-0.09,0.59-0.28l2.79-3.35c1.26,0.45,2.6,0.69,3.96,0.69c0.43,0,0.77-0.34,0.77-0.77
				V62c0.7,0.14,1.42,0.22,2.17,0.22c0.43,0,0.77-0.34,0.77-0.77v-2.94c0-4.67-2.92-8.66-7.02-10.28c2.17-0.85,4-2.37,5.25-4.3
				c0.01-0.01,0.02-0.01,0.02-0.02c0.03-0.03,0.04-0.07,0.05-0.11c0.36-0.58,0.67-1.18,0.92-1.82c1.61,4.1,5.61,7.02,10.28,7.02
				h2.94c0.43,0,0.77-0.34,0.77-0.77c0-0.74-0.08-1.47-0.22-2.17h3.85c0.43,0,0.77-0.34,0.77-0.77c0-1.4-0.27-2.75-0.73-4.02
				c1.33-0.72,2.51-1.66,3.49-2.84c0.27-0.33,0.23-0.81-0.1-1.09l-3.35-2.78c0.45-1.26,0.69-2.6,0.69-3.96
				c0-0.43-0.34-0.77-0.77-0.77h-3.85c0.14-0.7,0.22-1.42,0.22-2.17c0-0.43-0.34-0.77-0.77-0.77h-2.94c-4.67,0-8.66,2.92-10.28,7.02
				c-1.12-2.85-3.4-5.13-6.25-6.25c4.1-1.61,7.02-5.61,7.02-10.28v-2.94c0-0.43-0.34-0.77-0.77-0.77c-0.74,0-1.46,0.08-2.17,0.22
				v-3.85c0-0.43-0.34-0.77-0.77-0.77c-1.4,0-2.75,0.27-4.02,0.73c-0.71-1.33-1.66-2.51-2.84-3.49c-0.04-0.04-0.1-0.05-0.14-0.08
				c-0.13-0.07-0.28-0.11-0.42-0.1c-0.1,0.01-0.19,0.04-0.28,0.08c-0.09,0.05-0.17,0.11-0.24,0.19l-2.78,3.35
				c-1.26-0.45-2.6-0.69-3.96-0.69c-0.43,0-0.77,0.34-0.77,0.77v3.85c-0.7-0.14-1.42-0.22-2.17-0.22c-0.43,0-0.77,0.34-0.77,0.77
				v2.94c0,4.67,2.92,8.66,7.02,10.28c-2.85,1.12-5.13,3.4-6.25,6.25c-1.61-4.1-5.61-7.02-10.28-7.02h-2.94
				c-0.43,0-0.77,0.34-0.77,0.77c0,0.74,0.08,1.47,0.22,2.17h-3.85c-0.43,0-0.77,0.34-0.77,0.77c0,1.4,0.27,2.75,0.73,4.02
				c-1.33,0.71-2.51,1.66-3.49,2.84c-0.14,0.16-0.19,0.37-0.17,0.56c0.02,0.2,0.11,0.39,0.28,0.52l3.35,2.78
				c-0.45,1.26-0.69,2.6-0.69,3.96c0,0.43,0.34,0.77,0.77,0.77h3.85C57.56,46.77,57.48,47.49,57.48,48.23z M61.19,47.46h-2.13
				c0.39-4.88,4.49-8.74,9.47-8.74h2.13C70.26,43.61,66.17,47.46,61.19,47.46z M80.97,49.04v2.13c0,4.98-3.85,9.07-8.74,9.47v-2.13
				C72.24,53.53,76.09,49.44,80.97,49.04z M81.75,55.2c0.5,1.28,1.24,2.44,2.15,3.43c-1.45,3.63-4.84,6.1-8.72,6.39v-3.45
				C78.18,60.49,80.58,58.16,81.75,55.2z M81.68,67.67c-0.73-0.71-1.35-1.51-1.84-2.39c0.67-0.35,1.3-0.78,1.89-1.25
				c0.6,0.48,1.25,0.91,1.93,1.26L81.68,67.67z M88.32,65.01c-1.97-0.15-3.84-0.86-5.41-2.05c0.89-0.93,1.62-2.01,2.17-3.2
				c0.96,0.78,2.05,1.39,3.24,1.81V65.01z M91.25,58.51v2.13c-4.88-0.39-8.74-4.49-8.74-9.47v-2.13
				C87.4,49.44,91.25,53.53,91.25,58.51z M81.75,47.46c-3.67,0-6.85-2.09-8.43-5.13l1.62-2.64c0.23,0.03,0.37,0.12,0.59,0.32
				c0.35,0.31,0.82,0.73,1.72,0.73c0.9,0,1.37-0.42,1.72-0.73c0.27-0.23,0.39-0.34,0.7-0.34s0.43,0.11,0.7,0.34
				c0.35,0.31,0.82,0.73,1.72,0.73c0.9,0,1.37-0.42,1.72-0.73c0.27-0.23,0.39-0.34,0.7-0.34l0.11,0c0.42,0.05,0.8-0.26,0.85-0.69
				c0.04-0.42-0.27-0.8-0.69-0.85c-0.08-0.01-0.17-0.01-0.26-0.01c-0.9,0-1.37,0.42-1.72,0.73c-0.27,0.23-0.39,0.34-0.7,0.34
				s-0.43-0.11-0.7-0.34c-0.35-0.31-0.82-0.73-1.72-0.73c-0.9,0-1.37,0.42-1.72,0.73c-0.27,0.23-0.39,0.34-0.7,0.34
				s-0.43-0.11-0.7-0.34c-0.2-0.17-0.45-0.38-0.78-0.53l0.78-1.26c0.27-0.45,0.77-0.72,1.29-0.72h8.12c0.52,0,1.02,0.28,1.29,0.72
				l3.06,4.98c-0.06,0.13-0.12,0.26-0.19,0.39c-0.2-0.06-0.42-0.11-0.68-0.11c-0.9,0-1.37,0.42-1.72,0.73
				c-0.27,0.23-0.39,0.34-0.7,0.34s-0.43-0.11-0.7-0.34c-0.35-0.31-0.82-0.73-1.72-0.73c-0.9,0-1.37,0.42-1.72,0.73
				c-0.27,0.23-0.39,0.34-0.7,0.34s-0.43-0.11-0.7-0.34c-0.35-0.31-0.82-0.73-1.72-0.73c-0.43,0-0.77,0.34-0.77,0.77
				s0.34,0.77,0.77,0.77c0.31,0,0.43,0.11,0.7,0.34c0.35,0.31,0.82,0.73,1.72,0.73s1.37-0.42,1.72-0.73
				c0.27-0.23,0.39-0.34,0.7-0.34c0.31,0,0.43,0.11,0.7,0.34c0.35,0.31,0.82,0.73,1.72,0.73s1.37-0.42,1.72-0.73
				c0.15-0.13,0.26-0.21,0.38-0.27C87.38,46.08,84.72,47.46,81.75,47.46z M92.83,38.72h2.13c4.98,0,9.07,3.85,9.47,8.74h-2.13
				C97.32,47.46,93.23,43.61,92.83,38.72z M98.99,37.95c1.28-0.5,2.44-1.24,3.43-2.15c3.63,1.45,6.1,4.84,6.39,8.72h-3.46
				C104.28,41.52,101.95,39.12,98.99,37.95z M111.46,38.02c-0.71,0.73-1.51,1.35-2.39,1.84c-0.35-0.67-0.78-1.3-1.25-1.89
				c0.48-0.6,0.91-1.25,1.26-1.93L111.46,38.02z M108.8,31.38c-0.15,1.97-0.86,3.84-2.05,5.41c-0.93-0.89-2.01-1.62-3.2-2.17
				c0.78-0.96,1.39-2.05,1.81-3.24H108.8z M102.3,28.44h2.13c-0.39,4.88-4.49,8.74-9.47,8.74h-2.13
				C93.23,32.3,97.32,28.44,102.3,28.44z M82.52,26.86v-2.13c0-4.98,3.85-9.07,8.74-9.47v2.13C91.25,22.38,87.4,26.47,82.52,26.86z
				 M81.75,20.71c-0.5-1.28-1.24-2.44-2.15-3.43c1.45-3.63,4.84-6.1,8.72-6.39v3.45C85.31,15.41,82.91,17.75,81.75,20.71z
				 M81.81,8.23c0.73,0.71,1.35,1.51,1.84,2.39c-0.67,0.35-1.3,0.78-1.89,1.25c-0.6-0.48-1.25-0.91-1.93-1.26L81.81,8.23z
				 M75.17,10.89c1.97,0.15,3.84,0.86,5.41,2.05c-0.89,0.93-1.62,2.01-2.17,3.2c-0.96-0.78-2.05-1.39-3.24-1.81V10.89z M72.24,17.39
				v-2.13c4.88,0.39,8.74,4.49,8.74,9.47v2.13C76.09,26.47,72.24,22.38,72.24,17.39z M81.75,28.44c5.24,0,9.51,4.27,9.51,9.51
				c0,0.77-0.1,1.51-0.27,2.22l-2.41-3.92c-0.55-0.9-1.55-1.45-2.6-1.45h-8.12c-1.05,0-2.05,0.56-2.6,1.46l-2.64,4.28
				c-0.23-0.82-0.37-1.69-0.37-2.58C72.24,32.71,76.5,28.44,81.75,28.44z M70.66,37.18h-2.13c-4.98,0-9.07-3.85-9.47-8.74h2.13
				C66.17,28.44,70.26,32.3,70.66,37.18z M64.5,37.95c-1.28,0.5-2.44,1.24-3.43,2.15c-3.63-1.45-6.1-4.84-6.39-8.72h3.46
				C59.21,34.38,61.54,36.79,64.5,37.95z M52.03,37.88c0.71-0.73,1.51-1.35,2.39-1.84c0.35,0.67,0.78,1.3,1.25,1.89
				c-0.48,0.6-0.91,1.25-1.26,1.93L52.03,37.88z M54.69,44.52c0.15-1.97,0.86-3.84,2.05-5.41c0.93,0.89,2.01,1.62,3.2,2.17
				c-0.78,0.96-1.39,2.05-1.81,3.24H54.69z"/>
			<path class="st0" d="M81.75,72.18c18.87,0,34.22-15.35,34.22-34.22c0-18.87-15.35-34.22-34.22-34.22S47.52,19.08,47.52,37.95
				C47.52,56.82,62.87,72.18,81.75,72.18z M81.75,5.27c18.02,0,32.68,14.66,32.68,32.68S99.77,70.63,81.75,70.63
				S49.06,55.97,49.06,37.95S63.72,5.27,81.75,5.27z"/>
			<path class="st0" d="M97.14,20.14v1.92l1.92-1.92C98.44,20.01,97.78,20.01,97.14,20.14z"/>
			<path class="st0" d="M99.55,20.64l-3.65,3.65l2.95,0C99.57,23.15,99.81,21.84,99.55,20.64z"/>
			<path class="st0" d="M93.51,26.69c1.55,0.33,3.31-0.16,4.6-1.45c0.08-0.08,0.16-0.16,0.23-0.25l-3.13,0L93.51,26.69z"/>
			<path class="st0" d="M96.44,22.76v-2.43c-0.71,0.25-1.39,0.67-1.98,1.26c-1.29,1.29-1.78,3.05-1.45,4.6L96.44,22.76z"/>
			<path class="st0" d="M66.35,55.76v-1.92l-1.92,1.92C65.05,55.89,65.71,55.89,66.35,55.76z"/>
			<path class="st0" d="M64.63,51.62c-0.71,1.13-0.95,2.45-0.69,3.65l3.65-3.65L64.63,51.62z"/>
			<path class="st0" d="M69.98,49.22c-1.55-0.33-3.31,0.16-4.6,1.45c-0.08,0.08-0.16,0.16-0.23,0.25l3.13,0L69.98,49.22z"/>
			<path class="st0" d="M67.05,53.14v2.43c0.71-0.25,1.39-0.67,1.98-1.26c1.29-1.29,1.78-3.05,1.45-4.6L67.05,53.14z"/>
			<path class="st0" d="M99.56,53.35h-1.92l1.92,1.92C99.69,54.64,99.69,53.99,99.56,53.35z"/>
			<path class="st0" d="M95.41,55.07c1.13,0.71,2.45,0.95,3.65,0.69l-3.65-3.65L95.41,55.07z"/>
			<path class="st0" d="M94.46,54.31c0.08,0.08,0.16,0.16,0.25,0.23l0-3.13l-1.7-1.7C92.68,51.26,93.17,53.02,94.46,54.31z"/>
			<path class="st0" d="M93.51,49.22l3.43,3.43h2.43c-0.25-0.71-0.67-1.39-1.26-1.98C96.81,49.38,95.06,48.89,93.51,49.22z"/>
			<path class="st0" d="M63.93,22.56h1.92l-1.92-1.92C63.8,21.26,63.8,21.91,63.93,22.56z"/>
			<path class="st0" d="M68.08,20.84c-1.13-0.71-2.45-0.95-3.65-0.69l3.65,3.65L68.08,20.84z"/>
			<path class="st0" d="M69.03,21.59c-0.08-0.08-0.16-0.16-0.25-0.23l0,3.13l1.7,1.7C70.81,24.64,70.32,22.88,69.03,21.59z"/>
			<path class="st0" d="M69.98,26.69l-3.43-3.43h-2.43c0.25,0.71,0.67,1.39,1.26,1.98C66.68,26.53,68.43,27.02,69.98,26.69z"/>
			<path class="st0" d="M105.74,50.72c-0.37-0.21-0.84-0.08-1.05,0.29c-2.35,4.12-5.77,7.53-9.88,9.88
				c-0.37,0.21-0.5,0.68-0.29,1.05c0.14,0.25,0.4,0.39,0.67,0.39c0.13,0,0.26-0.03,0.38-0.1c4.36-2.49,7.97-6.1,10.46-10.46
				C106.24,51.41,106.11,50.93,105.74,50.72z"/>
			<path class="st0" d="M94.85,15.04c4.1,2.35,7.5,5.76,9.84,9.86c0.14,0.25,0.4,0.39,0.67,0.39c0.13,0,0.26-0.03,0.38-0.1
				c0.37-0.21,0.5-0.68,0.29-1.05c-2.47-4.34-6.07-7.95-10.41-10.43c-0.37-0.21-0.84-0.09-1.05,0.28
				C94.36,14.35,94.48,14.82,94.85,15.04z"/>
			<path class="st0" d="M57.75,25.18c0.12,0.07,0.25,0.1,0.38,0.1c0.27,0,0.53-0.14,0.67-0.39c2.35-4.12,5.77-7.54,9.88-9.88
				c0.37-0.21,0.5-0.68,0.29-1.05c-0.21-0.37-0.68-0.5-1.05-0.29c-4.36,2.49-7.97,6.1-10.46,10.46
				C57.25,24.5,57.38,24.97,57.75,25.18z"/>
			<path class="st0" d="M67.71,62.11c0.12,0.07,0.26,0.11,0.39,0.11c0.27,0,0.52-0.14,0.67-0.38c0.21-0.37,0.09-0.84-0.28-1.05
				c-4.03-2.35-7.38-5.73-9.69-9.77c-0.21-0.37-0.68-0.5-1.05-0.29c-0.37,0.21-0.5,0.68-0.29,1.05
				C59.9,56.06,63.45,59.63,67.71,62.11z"/>
			<path class="st0" d="M81.75,75.9c20.93,0,37.95-17.03,37.95-37.95S102.67,0,81.75,0C60.82,0,43.79,17.03,43.79,37.95
				S60.82,75.9,81.75,75.9z M81.75,1.54c20.08,0,36.41,16.33,36.41,36.41s-16.33,36.41-36.41,36.41
				c-20.08,0-36.41-16.33-36.41-36.41S61.67,1.54,81.75,1.54z"/>
		</g>
	</g>
</g>
</svg>
