<svg width="72" height="63" viewBox="0 0 72 63" fill="none" xmlns="http://www.w3.org/2000/svg">
<path fill-rule="evenodd" clip-rule="evenodd" d="M25.4186 60.0541C25.0976 59.7332 24.555 59.5406 24.1061 59.5406C23.2835 59.5406 22.7058 60.1943 22.7058 60.9819C22.7058 61.7166 23.2075 62.4168 24.1699 62.4168C24.5668 62.4168 25.0335 62.2998 25.2902 62.1077V61.3434H24.0943V60.7602H25.8852V62.4282C25.4068 62.7783 24.7303 63 24.1294 63C22.9216 63 22.0234 62.0954 22.0234 60.976C22.0234 59.8557 22.9335 58.9575 24.1002 58.9575C24.7066 58.9575 25.3544 59.2024 25.8734 59.6458L25.4186 60.0541Z" fill="#C4964B"/>
<path fill-rule="evenodd" clip-rule="evenodd" d="M28.9057 59.6575V60.8357H30.469C30.8132 60.8357 31.105 60.5675 31.105 60.2407C31.105 60.095 31.0467 59.9666 30.9474 59.8615C30.7667 59.6748 30.5564 59.6575 30.3524 59.6575H28.9057ZM28.2527 62.8834V59.074H30.3527C30.8603 59.074 31.2103 59.2142 31.4553 59.4764C31.6478 59.6808 31.7585 59.9489 31.7585 60.2407C31.7585 60.7542 31.4202 61.1448 30.9186 61.3315L31.8286 62.8834H31.0761L30.2594 61.4189H28.906V62.8834H28.2527Z" fill="#C4964B"/>
<path fill-rule="evenodd" clip-rule="evenodd" d="M35.8232 62.4166C36.6458 62.4166 37.2932 61.7634 37.2932 60.9699C37.2932 60.1823 36.6458 59.5405 35.8232 59.5405C35.0065 59.5405 34.3706 60.1823 34.3706 60.9699C34.3706 61.7634 35.0065 62.4166 35.8232 62.4166ZM35.8194 58.9573C37.0208 58.9573 37.9777 59.856 37.9777 60.9699C37.9777 62.1016 37.0208 62.9998 35.8194 62.9998C34.6176 62.9998 33.6785 62.1016 33.6785 60.9699C33.6785 59.856 34.6176 58.9573 35.8194 58.9573Z" fill="#C4964B"/>
<path fill-rule="evenodd" clip-rule="evenodd" d="M43.4477 59.074V61.53C43.4477 62.4692 42.7244 63 41.7561 63C40.7933 63 40.0703 62.4692 40.0703 61.53V59.074H40.7236V61.53C40.7236 62.1014 41.1784 62.4168 41.7561 62.4168C42.3392 62.4168 42.7945 62.1014 42.7945 61.53V59.074H43.4477Z" fill="#C4964B"/>
<path fill-rule="evenodd" clip-rule="evenodd" d="M46.5366 59.6575V60.8357H47.9833C48.1467 60.8357 48.3739 60.8239 48.5606 60.649C48.6716 60.5443 48.7358 60.3982 48.7358 60.2466C48.7358 60.095 48.6775 59.9666 48.5783 59.8615C48.4031 59.6748 48.17 59.6575 47.9833 59.6575H46.5366ZM45.8835 62.8834V59.074H47.9836C48.5203 59.074 48.8526 59.226 49.0861 59.4764C49.2901 59.6981 49.3893 59.9608 49.3893 60.2407C49.3893 60.5676 49.255 60.8535 49.0393 61.0633C48.8116 61.2791 48.4907 61.4189 47.9836 61.4189H46.5368V62.8834H45.8835Z" fill="#C4964B"/>
<path fill-rule="evenodd" clip-rule="evenodd" d="M7.81602 43.2411H5.29246V51.2924H3.08266V43.2411H0V41.9984C0 41.6897 0.249991 41.4393 0.558679 41.4393H8.37512V42.682C8.37512 42.9907 8.1247 43.2411 7.81602 43.2411Z" fill="#C4964B"/>
<path fill-rule="evenodd" clip-rule="evenodd" d="M19.9314 41.9984V51.2924H17.7216V47.2107H13.541V51.2924H11.3308V41.4393H12.9819C13.2906 41.4393 13.541 41.6897 13.541 41.9984V45.4088H17.7216V41.4393H19.3723C19.681 41.4393 19.9314 41.6897 19.9314 41.9984Z" fill="#C4964B"/>
<path fill-rule="evenodd" clip-rule="evenodd" d="M26.023 43.1427V45.4091H30.9777V47.056H26.023V49.5897H30.7564C31.0651 49.5897 31.3155 49.8397 31.3155 50.1484V51.2927H23.8132V41.4396H31.3155V42.5836C31.3155 42.8923 31.0651 43.1427 30.7564 43.1427H26.023Z" fill="#C4964B"/>
<path fill-rule="evenodd" clip-rule="evenodd" d="M49.5286 41.4395V51.2926H47.4033V44.7472L44.56 48.6039H44.3345L41.4913 44.7472V51.2926H39.366V41.4395H41.0901C41.2713 41.4395 41.4411 41.5273 41.5458 41.6747L44.4473 45.7607L47.3484 41.6747C47.4535 41.5273 47.6233 41.4395 47.8044 41.4395H49.5286Z" fill="#C4964B"/>
<path fill-rule="evenodd" clip-rule="evenodd" d="M59.1691 47.5343L57.7333 43.6493L56.2976 47.5343H59.1691ZM59.7742 49.1952H55.692L54.918 51.2927H52.6094L56.5505 41.4396H58.5234C58.7519 41.4396 58.9571 41.5785 59.042 41.7901L62.8565 51.2927H60.5483L59.7742 49.1952Z" fill="#C4964B"/>
<mask id="mask0" mask-type="alpha" maskUnits="userSpaceOnUse" x="65" y="41" width="7" height="11">
<path fill-rule="evenodd" clip-rule="evenodd" d="M65.3171 41.4396H71.4147V51.546H65.3171V41.4396Z" fill="white"/>
</mask>
<g mask="url(#mask0)">
<path fill-rule="evenodd" clip-rule="evenodd" d="M71.4148 47.9571C71.4148 48.4169 71.3751 48.8624 71.2953 49.294C71.2155 49.7256 71.0631 50.1082 70.838 50.4414C70.6129 50.7741 70.2911 51.0418 69.8739 51.2433C69.4563 51.4451 68.9098 51.546 68.2342 51.546C67.4458 51.546 66.7794 51.3581 66.2355 50.9831C65.8411 50.7108 65.5476 50.3282 65.3555 49.8341C65.2326 49.5191 65.4163 49.1661 65.7448 49.0854L67.1924 48.7311C67.2207 48.9752 67.3309 49.1813 67.5235 49.3502C67.7156 49.5195 67.9335 49.6035 68.178 49.6035C68.4314 49.6035 68.6282 49.5406 68.7692 49.4139C68.9098 49.2868 69.0133 49.1302 69.0783 48.9423C69.1442 48.7548 69.1839 48.5504 69.1983 48.3299C69.2122 48.1095 69.2194 47.9056 69.2194 47.7176V41.4396H70.8561C71.1648 41.4396 71.4148 41.6896 71.4148 41.9987V47.9571Z" fill="#C4964B"/>
</g>
<path fill-rule="evenodd" clip-rule="evenodd" d="M27.4428 23.5929H34.5325V16.5028H33.734V22.4071C33.734 22.6212 33.5608 22.7944 33.3467 22.7944H28.6282C28.4141 22.7944 28.2409 22.6212 28.2409 22.4071V17.689C28.2409 17.4749 28.4141 17.3018 28.6282 17.3018H30.2007C30.4153 17.3018 30.5884 17.4749 30.5884 17.689V20.4469H31.3869V16.5028H27.4428V23.5929ZM34.9201 24.3674H27.0559C26.8418 24.3674 26.6687 24.1943 26.6687 23.9802V16.1156C26.6687 15.9015 26.8418 15.7284 27.0559 15.7284H31.7745C31.9886 15.7284 32.1617 15.9015 32.1617 16.1156V20.8346C32.1617 21.0487 31.9886 21.2219 31.7745 21.2219H30.2011C29.987 21.2219 29.8139 21.0487 29.8139 20.8346V18.0763H29.0157V22.02H32.9599V16.1156C32.9599 15.9015 33.133 15.7284 33.3471 15.7284H34.9201C35.1342 15.7284 35.3073 15.9015 35.3073 16.1156V23.9802C35.3073 24.1943 35.1342 24.3674 34.9201 24.3674Z" fill="#C4964B"/>
<path fill-rule="evenodd" clip-rule="evenodd" d="M33.7359 14.1557H34.534V7.06604H27.4448V14.1557H31.3885V10.212H30.5899V12.97C30.5899 13.1845 30.4168 13.3576 30.2027 13.3576H28.6301C28.4156 13.3576 28.2425 13.1845 28.2425 12.97V8.25138C28.2425 8.03728 28.4156 7.86415 28.6301 7.86415H33.3487C33.5628 7.86415 33.7359 8.03728 33.7359 8.25138V14.1557ZM34.9201 14.9301H33.3475C33.1334 14.9301 32.9603 14.757 32.9603 14.5429V8.63896H29.0162V12.5827H29.8143V9.82473C29.8143 9.61063 29.9874 9.43708 30.2015 9.43708H31.7745C31.9886 9.43708 32.1622 9.61063 32.1622 9.82473V14.5429C32.1622 14.757 31.9886 14.9301 31.7745 14.9301H27.0559C26.8418 14.9301 26.6687 14.757 26.6687 14.5429V6.67873C26.6687 6.46463 26.8418 6.29108 27.0559 6.29108H34.9201C35.1342 6.29108 35.3077 6.46463 35.3077 6.67873V14.5429C35.3077 14.757 35.1342 14.9301 34.9201 14.9301Z" fill="#C4964B"/>
<path fill-rule="evenodd" clip-rule="evenodd" d="M40.025 14.1557H43.9687V7.06603H36.879V14.1557H37.6771V8.25138C37.6771 8.03728 37.8507 7.86415 38.0643 7.86415H42.7833C42.9974 7.86415 43.1706 8.03728 43.1706 8.25138V12.97C43.1706 13.1845 42.9974 13.3576 42.7833 13.3576H41.2103C40.9962 13.3576 40.8231 13.1845 40.8231 12.97V10.212H40.025V14.1557ZM44.3549 14.9301H39.6367C39.4227 14.9301 39.2495 14.757 39.2495 14.5429V9.82473C39.2495 9.61063 39.4227 9.43708 39.6367 9.43708H41.2093C41.4234 9.43708 41.597 9.61063 41.597 9.82473V12.5827H42.3947V8.63896H38.4506V14.5429C38.4506 14.757 38.2774 14.9301 38.0633 14.9301H36.4907C36.2767 14.9301 36.1035 14.757 36.1035 14.5429V6.67873C36.1035 6.46463 36.2767 6.29108 36.4907 6.29108H44.3549C44.569 6.29108 44.7421 6.46463 44.7421 6.67873V14.5429C44.7421 14.757 44.569 14.9301 44.3549 14.9301Z" fill="#C4964B"/>
<path fill-rule="evenodd" clip-rule="evenodd" d="M36.879 23.5929H43.9687V16.5028H40.025V20.4469H40.8231V17.689C40.8231 17.4749 40.9962 17.3018 41.2103 17.3018H42.7829C42.997 17.3018 43.1701 17.4749 43.1701 17.689V22.4072C43.1701 22.6213 42.997 22.7944 42.7829 22.7944H38.0643C37.8502 22.7944 37.6771 22.6213 37.6771 22.4072V16.5028H36.879V23.5929ZM44.3549 24.3674H36.4907C36.2767 24.3674 36.1035 24.1943 36.1035 23.9802V16.1156C36.1035 15.9015 36.2767 15.7284 36.4907 15.7284H38.0633C38.2774 15.7284 38.4506 15.9015 38.4506 16.1156V22.02H42.3947V18.0763H41.5966V20.8346C41.5966 21.0487 41.4234 21.2219 41.2093 21.2219H39.6363C39.4222 21.2219 39.2491 21.0487 39.2491 20.8346V16.1156C39.2491 15.9015 39.4222 15.7284 39.6363 15.7284H44.3549C44.569 15.7284 44.7421 15.9015 44.7421 16.1156V23.9802C44.7421 24.1943 44.569 24.3674 44.3549 24.3674Z" fill="#C4964B"/>
<path fill-rule="evenodd" clip-rule="evenodd" d="M36.879 26.7387H47.1142V3.92071H36.879V4.7184H45.9285C46.1426 4.7184 46.3161 4.89196 46.3161 5.10606V25.5534C46.3161 25.7675 46.1426 25.9406 45.9285 25.9406H36.879V26.7387ZM47.5009 27.5131H36.4907C36.2767 27.5131 36.1035 27.3399 36.1035 27.1258V25.5533C36.1035 25.3392 36.2767 25.1656 36.4907 25.1656H45.5402V5.49319H36.4907C36.2767 5.49319 36.1035 5.32005 36.1035 5.10595V3.53295C36.1035 3.31928 36.2767 3.14572 36.4907 3.14572H47.5009C47.715 3.14572 47.8881 3.31928 47.8881 3.53295V27.1258C47.8881 27.3399 47.715 27.5131 47.5009 27.5131Z" fill="#C4964B"/>
<path fill-rule="evenodd" clip-rule="evenodd" d="M24.2983 26.7387H34.534V25.9405H25.4841C25.27 25.9405 25.0968 25.7674 25.0968 25.5533V5.106C25.0968 4.8919 25.27 4.71834 25.4841 4.71834H34.534V3.92065H24.2983V26.7387ZM34.9196 27.513H23.9094C23.6954 27.513 23.5222 27.3399 23.5222 27.1258V3.53292C23.5222 3.31925 23.6954 3.14569 23.9094 3.14569H34.9196C35.1337 3.14569 35.3068 3.31925 35.3068 3.53292V5.10592C35.3068 5.32002 35.1337 5.49316 34.9196 5.49316H25.8701V25.1656H34.9196C35.1337 25.1656 35.3068 25.3391 35.3068 25.5532V27.1258C35.3068 27.3399 35.1337 27.513 34.9196 27.513Z" fill="#C4964B"/>
<path fill-rule="evenodd" clip-rule="evenodd" d="M22.3372 23.0313C22.1231 23.0313 21.95 22.8581 21.95 22.644V8.01492C21.95 7.80082 22.1231 7.62769 22.3372 7.62769C22.5513 7.62769 22.7244 7.80082 22.7244 8.01492V22.644C22.7244 22.8581 22.5513 23.0313 22.3372 23.0313Z" fill="#C4964B"/>
<path fill-rule="evenodd" clip-rule="evenodd" d="M20.7669 18.1829C20.5528 18.1829 20.3796 18.0098 20.3796 17.7957V12.8634C20.3796 12.6493 20.5528 12.4762 20.7669 12.4762C20.981 12.4762 21.1541 12.6493 21.1541 12.8634V17.7957C21.1541 18.0098 20.981 18.1829 20.7669 18.1829Z" fill="#C4964B"/>
<path fill-rule="evenodd" clip-rule="evenodd" d="M43.021 2.34728H28.3919C28.1782 2.34728 28.0046 2.17414 28.0046 1.96005C28.0046 1.74595 28.1782 1.57281 28.3919 1.57281H43.021C43.2351 1.57281 43.4082 1.74595 43.4082 1.96005C43.4082 2.17414 43.2351 2.34728 43.021 2.34728Z" fill="#C4964B"/>
<path fill-rule="evenodd" clip-rule="evenodd" d="M38.1737 0.774465H33.2415C33.0274 0.774465 32.8542 0.601329 32.8542 0.387232C32.8542 0.173136 33.0274 0 33.2415 0H38.1737C38.3878 0 38.561 0.173136 38.561 0.387232C38.561 0.601329 38.3878 0.774465 38.1737 0.774465Z" fill="#C4964B"/>
<path fill-rule="evenodd" clip-rule="evenodd" d="M43.021 29.0861H28.3919C28.1782 29.0861 28.0046 28.9126 28.0046 28.6989C28.0046 28.4848 28.1782 28.3116 28.3919 28.3116H43.021C43.2351 28.3116 43.4082 28.4848 43.4082 28.6989C43.4082 28.9126 43.2351 29.0861 43.021 29.0861Z" fill="#C4964B"/>
<path fill-rule="evenodd" clip-rule="evenodd" d="M38.1737 30.6592H33.2415C33.0274 30.6592 32.8542 30.486 32.8542 30.2719C32.8542 30.0578 33.0274 29.8847 33.2415 29.8847H38.1737C38.3878 29.8847 38.561 30.0578 38.561 30.2719C38.561 30.486 38.3878 30.6592 38.1737 30.6592Z" fill="#C4964B"/>
<path fill-rule="evenodd" clip-rule="evenodd" d="M49.0755 23.0313C48.8614 23.0313 48.6882 22.8581 48.6882 22.644V8.01492C48.6882 7.80082 48.8614 7.62769 49.0755 7.62769C49.2896 7.62769 49.4627 7.80082 49.4627 8.01492V22.644C49.4627 22.8581 49.2896 23.0313 49.0755 23.0313Z" fill="#C4964B"/>
<path fill-rule="evenodd" clip-rule="evenodd" d="M50.649 18.1829C50.4349 18.1829 50.2617 18.0098 50.2617 17.7957V12.8634C50.2617 12.6493 50.4349 12.4762 50.649 12.4762C50.863 12.4762 51.0362 12.6493 51.0362 12.8634V17.7957C51.0362 18.0098 50.863 18.1829 50.649 18.1829Z" fill="#C4964B"/>
</svg>
