<svg width="72" height="63" viewBox="0 0 72 63" fill="none" xmlns="http://www.w3.org/2000/svg">
<path fill-rule="evenodd" clip-rule="evenodd" d="M25.4186 60.0541C25.0976 59.7332 24.555 59.5406 24.1061 59.5406C23.2835 59.5406 22.7058 60.1943 22.7058 60.9819C22.7058 61.7166 23.2075 62.4168 24.1699 62.4168C24.5668 62.4168 25.0335 62.2998 25.2902 62.1077V61.3434H24.0943V60.7602H25.8852V62.4282C25.4068 62.7783 24.7303 63 24.1294 63C22.9216 63 22.0234 62.0954 22.0234 60.976C22.0234 59.8557 22.9335 58.9575 24.1002 58.9575C24.7066 58.9575 25.3544 59.2024 25.8734 59.6458L25.4186 60.0541Z" fill="white"/>
<path fill-rule="evenodd" clip-rule="evenodd" d="M28.9051 59.6575V60.8357H30.4684C30.8125 60.8357 31.1043 60.5675 31.1043 60.2407C31.1043 60.095 31.0461 59.9666 30.9468 59.8615C30.7661 59.6748 30.5558 59.6575 30.3518 59.6575H28.9051ZM28.252 62.8834V59.074H30.352C30.8595 59.074 31.2096 59.2142 31.4545 59.4764C31.6471 59.6808 31.7577 59.9489 31.7577 60.2407C31.7577 60.7542 31.4195 61.1448 30.9178 61.3315L31.8278 62.8834H31.0753L30.2586 61.4189H28.9052V62.8834H28.252Z" fill="white"/>
<path fill-rule="evenodd" clip-rule="evenodd" d="M35.821 62.4167C36.6436 62.4167 37.291 61.7634 37.291 60.9699C37.291 60.1824 36.6436 59.5405 35.821 59.5405C35.0043 59.5405 34.3684 60.1824 34.3684 60.9699C34.3684 61.7634 35.0043 62.4167 35.821 62.4167ZM35.8187 58.9573C37.0201 58.9573 37.977 59.856 37.977 60.9699C37.977 62.1016 37.0201 62.9998 35.8187 62.9998C34.6169 62.9998 33.6777 62.1016 33.6777 60.9699C33.6777 59.856 34.6169 58.9573 35.8187 58.9573Z" fill="white"/>
<path fill-rule="evenodd" clip-rule="evenodd" d="M43.4477 59.074V61.53C43.4477 62.4692 42.7244 63 41.7561 63C40.7933 63 40.0703 62.4692 40.0703 61.53V59.074H40.7236V61.53C40.7236 62.1014 41.1784 62.4168 41.7561 62.4168C42.3392 62.4168 42.7945 62.1014 42.7945 61.53V59.074H43.4477Z" fill="white"/>
<path fill-rule="evenodd" clip-rule="evenodd" d="M46.5361 59.6575V60.8357H47.9828C48.1462 60.8357 48.3734 60.8239 48.5601 60.649C48.6711 60.5443 48.7353 60.3982 48.7353 60.2466C48.7353 60.095 48.677 59.9666 48.5778 59.8615C48.4026 59.6748 48.1695 59.6575 47.9828 59.6575H46.5361ZM45.8828 62.8834V59.074H47.9828C48.5195 59.074 48.8519 59.226 49.0854 59.4764C49.2894 59.6981 49.3886 59.9608 49.3886 60.2407C49.3886 60.5676 49.2543 60.8535 49.0385 61.0633C48.8109 61.2791 48.49 61.4189 47.9828 61.4189H46.5361V62.8834H45.8828Z" fill="white"/>
<path fill-rule="evenodd" clip-rule="evenodd" d="M7.81602 43.2411H5.29246V51.2924H3.08266V43.2411H0V41.9984C0 41.6897 0.249991 41.4393 0.558679 41.4393H8.37512V42.682C8.37512 42.9907 8.1247 43.2411 7.81602 43.2411Z" fill="white"/>
<path fill-rule="evenodd" clip-rule="evenodd" d="M19.9307 41.9984V51.2924H17.7209V47.2107H13.5403V51.2924H11.3301V41.4393H12.9812C13.2899 41.4393 13.5403 41.6897 13.5403 41.9984V45.4088H17.7209V41.4393H19.3716C19.6803 41.4393 19.9307 41.6897 19.9307 41.9984Z" fill="white"/>
<path fill-rule="evenodd" clip-rule="evenodd" d="M26.0223 43.1427V45.4091H30.9769V47.056H26.0223V49.5897H30.7557C31.0643 49.5897 31.3148 49.8397 31.3148 50.1484V51.2927H23.8125V41.4396H31.3148V42.5836C31.3148 42.8923 31.0643 43.1427 30.7557 43.1427H26.0223Z" fill="white"/>
<path fill-rule="evenodd" clip-rule="evenodd" d="M49.5279 41.4395V51.2926H47.4025V44.7472L44.5593 48.6039H44.3338L41.4906 44.7472V51.2926H39.3652V41.4395H41.0894C41.2706 41.4395 41.4403 41.5273 41.5451 41.6747L44.4466 45.7607L47.3476 41.6747C47.4528 41.5273 47.6225 41.4395 47.8037 41.4395H49.5279Z" fill="white"/>
<path fill-rule="evenodd" clip-rule="evenodd" d="M59.1687 47.5343L57.7329 43.6493L56.2972 47.5343H59.1687ZM59.7742 49.1952H55.692L54.918 51.2927H52.6094L56.5505 41.4396H58.5234C58.7519 41.4396 58.9571 41.5785 59.042 41.7901L62.8565 51.2927H60.5483L59.7742 49.1952Z" fill="white"/>
<mask id="mask0" mask-type="alpha" maskUnits="userSpaceOnUse" x="65" y="41" width="7" height="11">
<path fill-rule="evenodd" clip-rule="evenodd" d="M65.3164 41.4396H71.414V51.546H65.3164V41.4396Z" fill="white"/>
</mask>
<g mask="url(#mask0)">
<path fill-rule="evenodd" clip-rule="evenodd" d="M71.4141 47.9571C71.4141 48.4169 71.3744 48.8624 71.2946 49.294C71.2148 49.7256 71.0623 50.1082 70.8373 50.4414C70.6122 50.7741 70.2904 51.0418 69.8732 51.2433C69.4555 51.4451 68.9091 51.546 68.2335 51.546C67.4451 51.546 66.7787 51.3581 66.2348 50.9831C65.8404 50.7108 65.5469 50.3282 65.3548 49.8341C65.2319 49.5191 65.4156 49.1661 65.7441 49.0854L67.1917 48.7311C67.22 48.9752 67.3302 49.1813 67.5228 49.3502C67.7149 49.5195 67.9328 49.6035 68.1773 49.6035C68.4307 49.6035 68.6274 49.5406 68.7685 49.4139C68.9091 49.2868 69.0126 49.1302 69.0776 48.9423C69.1435 48.7548 69.1832 48.5504 69.1975 48.3299C69.2115 48.1095 69.2186 47.9056 69.2186 47.7176V41.4396H70.8554C71.1641 41.4396 71.4141 41.6896 71.4141 41.9987V47.9571Z" fill="white"/>
</g>
<path fill-rule="evenodd" clip-rule="evenodd" d="M27.4417 23.5929H34.5314V16.5028H33.7329V22.4072C33.7329 22.6213 33.5598 22.7944 33.3457 22.7944H28.6271C28.413 22.7944 28.2399 22.6213 28.2399 22.4072V17.689C28.2399 17.4749 28.413 17.3018 28.6271 17.3018H30.1997C30.4142 17.3018 30.5873 17.4749 30.5873 17.689V20.4469H31.3859V16.5028H27.4417V23.5929ZM34.9194 24.3674H27.0552C26.8411 24.3674 26.668 24.1943 26.668 23.9802V16.1156C26.668 15.9015 26.8411 15.7284 27.0552 15.7284H31.7738C31.9879 15.7284 32.161 15.9015 32.161 16.1156V20.8346C32.161 21.0487 31.9879 21.2219 31.7738 21.2219H30.2004C29.9863 21.2219 29.8131 21.0487 29.8131 20.8346V18.0763H29.015V22.02H32.9591V16.1156C32.9591 15.9015 33.1323 15.7284 33.3464 15.7284H34.9194C35.1335 15.7284 35.3066 15.9015 35.3066 16.1156V23.9802C35.3066 24.1943 35.1335 24.3674 34.9194 24.3674Z" fill="white"/>
<path fill-rule="evenodd" clip-rule="evenodd" d="M33.7353 14.1557H34.5334V7.06603H27.4441V14.1557H31.3878V10.212H30.5893V12.97C30.5893 13.1845 30.4161 13.3576 30.202 13.3576H28.6295C28.4149 13.3576 28.2418 13.1845 28.2418 12.97V8.25138C28.2418 8.03728 28.4149 7.86415 28.6295 7.86415H33.348C33.5621 7.86415 33.7353 8.03728 33.7353 8.25138V14.1557ZM34.9194 14.9301H33.3468C33.1327 14.9301 32.9595 14.757 32.9595 14.5429V8.63896H29.0154V12.5827H29.8135V9.82473C29.8135 9.61063 29.9867 9.43708 30.2008 9.43708H31.7738C31.9879 9.43708 32.1614 9.61063 32.1614 9.82473V14.5429C32.1614 14.757 31.9879 14.9301 31.7738 14.9301H27.0552C26.8411 14.9301 26.668 14.757 26.668 14.5429V6.67873C26.668 6.46463 26.8411 6.29108 27.0552 6.29108H34.9194C35.1335 6.29108 35.307 6.46463 35.307 6.67873V14.5429C35.307 14.757 35.1335 14.9301 34.9194 14.9301Z" fill="white"/>
<path fill-rule="evenodd" clip-rule="evenodd" d="M40.025 14.1557H43.9687V7.06603H36.879V14.1557H37.6771V8.25138C37.6771 8.03728 37.8507 7.86415 38.0643 7.86415H42.7833C42.9974 7.86415 43.1706 8.03728 43.1706 8.25138V12.97C43.1706 13.1845 42.9974 13.3576 42.7833 13.3576H41.2103C40.9962 13.3576 40.8231 13.1845 40.8231 12.97V10.212H40.025V14.1557ZM44.3549 14.9301H39.6367C39.4227 14.9301 39.2495 14.757 39.2495 14.5429V9.82473C39.2495 9.61063 39.4227 9.43708 39.6367 9.43708H41.2093C41.4234 9.43708 41.597 9.61063 41.597 9.82473V12.5827H42.3947V8.63896H38.4506V14.5429C38.4506 14.757 38.2774 14.9301 38.0633 14.9301H36.4907C36.2767 14.9301 36.1035 14.757 36.1035 14.5429V6.67873C36.1035 6.46463 36.2767 6.29108 36.4907 6.29108H44.3549C44.569 6.29108 44.7421 6.46463 44.7421 6.67873V14.5429C44.7421 14.757 44.569 14.9301 44.3549 14.9301Z" fill="white"/>
<path fill-rule="evenodd" clip-rule="evenodd" d="M36.879 23.5929H43.9687V16.5028H40.025V20.4469H40.8231V17.689C40.8231 17.4749 40.9962 17.3018 41.2103 17.3018H42.7829C42.997 17.3018 43.1701 17.4749 43.1701 17.689V22.4072C43.1701 22.6213 42.997 22.7944 42.7829 22.7944H38.0643C37.8502 22.7944 37.6771 22.6213 37.6771 22.4072V16.5028H36.879V23.5929ZM44.3549 24.3674H36.4907C36.2767 24.3674 36.1035 24.1943 36.1035 23.9802V16.1156C36.1035 15.9015 36.2767 15.7284 36.4907 15.7284H38.0633C38.2774 15.7284 38.4506 15.9015 38.4506 16.1156V22.02H42.3947V18.0763H41.5966V20.8346C41.5966 21.0487 41.4234 21.2219 41.2093 21.2219H39.6363C39.4222 21.2219 39.2491 21.0487 39.2491 20.8346V16.1156C39.2491 15.9015 39.4222 15.7284 39.6363 15.7284H44.3549C44.569 15.7284 44.7421 15.9015 44.7421 16.1156V23.9802C44.7421 24.1943 44.569 24.3674 44.3549 24.3674Z" fill="white"/>
<path fill-rule="evenodd" clip-rule="evenodd" d="M36.879 26.7387H47.1142V3.92068H36.879V4.71837H45.9285C46.1426 4.71837 46.3161 4.89193 46.3161 5.10603V25.5533C46.3161 25.7674 46.1426 25.9406 45.9285 25.9406H36.879V26.7387ZM47.5009 27.513H36.4907C36.2767 27.513 36.1035 27.3399 36.1035 27.1258V25.5532C36.1035 25.3391 36.2767 25.1656 36.4907 25.1656H45.5402V5.49316H36.4907C36.2767 5.49316 36.1035 5.32002 36.1035 5.10592V3.53292C36.1035 3.31925 36.2767 3.14569 36.4907 3.14569H47.5009C47.715 3.14569 47.8881 3.31925 47.8881 3.53292V27.1258C47.8881 27.3399 47.715 27.513 47.5009 27.513Z" fill="white"/>
<path fill-rule="evenodd" clip-rule="evenodd" d="M24.2976 26.7387H34.5333V25.9406H25.4833C25.2692 25.9406 25.0961 25.7674 25.0961 25.5533V5.10603C25.0961 4.89193 25.2692 4.71837 25.4833 4.71837H34.5333V3.92068H24.2976V26.7387ZM34.9189 27.513H23.9087C23.6946 27.513 23.5215 27.3399 23.5215 27.1258V3.53292C23.5215 3.31925 23.6946 3.14569 23.9087 3.14569H34.9189C35.133 3.14569 35.3061 3.31925 35.3061 3.53292V5.10592C35.3061 5.32002 35.133 5.49316 34.9189 5.49316H25.8694V25.1656H34.9189C35.133 25.1656 35.3061 25.3391 35.3061 25.5532V27.1258C35.3061 27.3399 35.133 27.513 34.9189 27.513Z" fill="white"/>
<path fill-rule="evenodd" clip-rule="evenodd" d="M22.3365 23.0313C22.1224 23.0313 21.9492 22.8581 21.9492 22.644V8.01492C21.9492 7.80082 22.1224 7.62769 22.3365 7.62769C22.5505 7.62769 22.7237 7.80082 22.7237 8.01492V22.644C22.7237 22.8581 22.5505 23.0313 22.3365 23.0313Z" fill="white"/>
<path fill-rule="evenodd" clip-rule="evenodd" d="M20.7661 18.1829C20.552 18.1829 20.3789 18.0098 20.3789 17.7957V12.8634C20.3789 12.6493 20.552 12.4762 20.7661 12.4762C20.9802 12.4762 21.1534 12.6493 21.1534 12.8634V17.7957C21.1534 18.0098 20.9802 18.1829 20.7661 18.1829Z" fill="white"/>
<path fill-rule="evenodd" clip-rule="evenodd" d="M43.0202 2.34728H28.3911C28.1775 2.34728 28.0039 2.17414 28.0039 1.96005C28.0039 1.74595 28.1775 1.57281 28.3911 1.57281H43.0202C43.2343 1.57281 43.4075 1.74595 43.4075 1.96005C43.4075 2.17414 43.2343 2.34728 43.0202 2.34728Z" fill="white"/>
<path fill-rule="evenodd" clip-rule="evenodd" d="M38.173 0.774465H33.2407C33.0267 0.774465 32.8535 0.601329 32.8535 0.387232C32.8535 0.173136 33.0267 0 33.2407 0H38.173C38.3871 0 38.5602 0.173136 38.5602 0.387232C38.5602 0.601329 38.3871 0.774465 38.173 0.774465Z" fill="white"/>
<path fill-rule="evenodd" clip-rule="evenodd" d="M43.0202 29.0861H28.3911C28.1775 29.0861 28.0039 28.9126 28.0039 28.6989C28.0039 28.4848 28.1775 28.3116 28.3911 28.3116H43.0202C43.2343 28.3116 43.4075 28.4848 43.4075 28.6989C43.4075 28.9126 43.2343 29.0861 43.0202 29.0861Z" fill="white"/>
<path fill-rule="evenodd" clip-rule="evenodd" d="M38.173 30.6592H33.2407C33.0267 30.6592 32.8535 30.486 32.8535 30.2719C32.8535 30.0578 33.0267 29.8847 33.2407 29.8847H38.173C38.3871 29.8847 38.5602 30.0578 38.5602 30.2719C38.5602 30.486 38.3871 30.6592 38.173 30.6592Z" fill="white"/>
<path fill-rule="evenodd" clip-rule="evenodd" d="M49.0747 23.0313C48.8606 23.0313 48.6875 22.8581 48.6875 22.644V8.01492C48.6875 7.80082 48.8606 7.62769 49.0747 7.62769C49.2888 7.62769 49.462 7.80082 49.462 8.01492V22.644C49.462 22.8581 49.2888 23.0313 49.0747 23.0313Z" fill="white"/>
<path fill-rule="evenodd" clip-rule="evenodd" d="M50.649 18.1829C50.4349 18.1829 50.2617 18.0098 50.2617 17.7957V12.8634C50.2617 12.6493 50.4349 12.4762 50.649 12.4762C50.863 12.4762 51.0362 12.6493 51.0362 12.8634V17.7957C51.0362 18.0098 50.863 18.1829 50.649 18.1829Z" fill="white"/>
</svg>
