<?xml version="1.0" encoding="utf-8"?>
<!-- Generator: Adobe Illustrator 23.0.1, SVG Export Plug-In . SVG Version: 6.00 Build 0)  -->
<svg version="1.1" id="Layer_1" xmlns="http://www.w3.org/2000/svg" xmlns:xlink="http://www.w3.org/1999/xlink" x="0px" y="0px"
	 viewBox="0 0 182.89 40.16" style="enable-background:new 0 0 182.89 40.16;" xml:space="preserve">
<style type="text/css">
	.st0{fill:#FFFFFF;}
	.st1{display:none;clip-path:url(#XMLID_55_);}
	.st2{display:inline;fill:#FFFFFF;}
	.st3{display:none;clip-path:url(#XMLID_56_);}
	.st4{display:none;clip-path:url(#XMLID_57_);}
	.st5{display:none;clip-path:url(#XMLID_58_);}
	.st6{display:none;clip-path:url(#XMLID_59_);}
	.st7{display:none;clip-path:url(#XMLID_60_);}
	.st8{display:none;clip-path:url(#XMLID_61_);}
	.st9{display:none;clip-path:url(#XMLID_62_);}
	.st10{display:none;clip-path:url(#XMLID_63_);}
	.st11{display:none;clip-path:url(#XMLID_64_);}
	.st12{display:none;clip-path:url(#XMLID_65_);}
	.st13{display:none;clip-path:url(#XMLID_66_);}
	.st14{display:none;}
	.st15{display:inline;}
	.st16{display:none;clip-path:url(#XMLID_67_);}
	.st17{display:none;clip-path:url(#XMLID_68_);}
	.st18{display:none;clip-path:url(#XMLID_69_);}
	.st19{display:none;clip-path:url(#XMLID_70_);}
	.st20{display:none;clip-path:url(#XMLID_71_);}
	.st21{opacity:0.8;}
</style>
<g>
	<path class="st0" d="M0,40.16L5.01,6.58L4.07,1.19h5.28l7.07,38.97h-5.04L10,29.22h-4L5.3,40.16H0z M6.1,26.66h3.74L7.95,9.73
		L6.1,26.66z"/>
	<path class="st0" d="M22.28,1.19h4.8c4.59,0,7.26,1.87,7.26,6.73v13.83c0,5.23-3.63,7.21-7.95,7.21h-0.11v11.21h-4V1.19z
		 M30.34,22.28V9.25c0-3.47-0.96-4.43-3.63-4.43h-0.43v20.5h0.8C29.7,25.32,30.34,24.15,30.34,22.28z"/>
	<path class="st0" d="M40.24,1.19h4.8c4.59,0,7.26,1.87,7.26,6.73v9.02c0,4.22,0.25,6.44-1.62,7.28l-0.57,0.3l2.99,15.64h-4.06
		l-2.03-12.81c-0.21-1.33-1.12-2.03-2.78-1.28v14.09h-4V1.19z M48.3,20.14V9.25c0-3.47-0.96-4.43-3.63-4.43h-0.43v17.59h1.01
		C47.08,22.31,48.3,22.01,48.3,20.14z"/>
	<path class="st0" d="M60.06,34.08V8.21c0-5.09,2.88-7.01,6.35-7.01c3.74,0,5.71,1.61,5.71,6.08v25.88c0,5.09-2.88,7.01-6.35,7.01
		C62.09,40.16,60.06,38.55,60.06,34.08z M64.07,7.69v24.63c0,3.74,1.07,4.31,2.35,4.31c1.39,0,1.71-1.14,1.71-2.96V9.04
		c0-3.74-1.01-4.31-2.08-4.31C64.44,4.73,64.07,5.87,64.07,7.69z"/>
	<path class="st0" d="M90.05,33.6L90.05,33.6l-2.11-32.4h3.84v38.97h-4.29l-5.27-32.4l0,0l1.07,32.4H79.5V1.19h4.78L90.05,33.6z"/>
	<path class="st0" d="M113.34,22.57h5.14v17.54h-4.44l0.5-3.79c-0.75,2.55-1.98,3.79-3.86,3.79c-2.3,0-3.64-1.66-3.64-6.26V7.22
		c0-5.24,2.73-7.22,5.99-7.22c2.78,0,5.45,1.66,5.45,4.97c0,2.73,0,11.87,0,11.87h-5.15l1.73-11.61c0-1.73-2.03-1.73-2.03-1.73
		c-1.95,0-1.98,1.85-1.98,3.17v25.35c0,3.85,0.75,4.44,1.55,4.44c1.18,0,1.76-1.71,1.76-5.46v-5.57h-1.04V22.57z"/>
	<path class="st0" d="M148.88,40.11h-4.01V1.07h4.01V40.11z"/>
	<path class="st0" d="M160.33,36.63h5.78v3.48h-9.79V1.07h4.01V36.63z"/>
	<path class="st0" d="M177.11,36.63h5.78v3.48h-9.79V1.07h4.01V36.63z"/>
	<path class="st0" d="M125.36,1.14h4.8c4.59,0,7.26,1.87,7.26,6.73v9.02c0,4.22,0.25,6.44-1.62,7.28l-0.57,0.3l2.99,15.64h-4.06
		l-2.03-12.81c-0.21-1.33-1.12-2.03-2.78-1.28v14.09h-4V1.14z M133.42,20.09V9.2c0-3.47-0.96-4.43-3.63-4.43h-0.43v17.59h1.01
		C132.2,22.26,133.42,21.96,133.42,20.09z"/>
</g>
</svg>
