<?xml version="1.0" encoding="utf-8"?>
<!-- Generator: Adobe Illustrator 23.0.1, SVG Export Plug-In . SVG Version: 6.00 Build 0)  -->
<svg version="1.1" id="Layer_1" xmlns="http://www.w3.org/2000/svg" xmlns:xlink="http://www.w3.org/1999/xlink" x="0px" y="0px"
	 viewBox="0 0 115.41 99.08" style="enable-background:new 0 0 115.41 99.08;" xml:space="preserve">
<style type="text/css">
	.st0{fill:#FFFFFF;}
	.st1{display:none;clip-path:url(#XMLID_55_);}
	.st2{display:inline;fill:#FFFFFF;}
	.st3{display:none;clip-path:url(#XMLID_56_);}
	.st4{display:none;clip-path:url(#XMLID_57_);}
	.st5{display:none;clip-path:url(#XMLID_58_);}
	.st6{display:none;clip-path:url(#XMLID_59_);}
	.st7{display:none;clip-path:url(#XMLID_60_);}
	.st8{display:none;clip-path:url(#XMLID_61_);}
	.st9{display:none;clip-path:url(#XMLID_62_);}
	.st10{display:none;clip-path:url(#XMLID_63_);}
	.st11{display:none;clip-path:url(#XMLID_64_);}
	.st12{display:none;clip-path:url(#XMLID_65_);}
	.st13{display:none;clip-path:url(#XMLID_66_);}
	.st14{display:none;}
	.st15{display:inline;}
	.st16{display:none;clip-path:url(#XMLID_67_);}
	.st17{display:none;clip-path:url(#XMLID_68_);}
	.st18{display:none;clip-path:url(#XMLID_69_);}
	.st19{display:none;clip-path:url(#XMLID_70_);}
	.st20{display:none;clip-path:url(#XMLID_71_);}
	.st21{opacity:0.8;}
</style>
<g>
	<path class="st0" d="M46.19,93.91c0.67-0.27,1.19-1.05,1.19-1.91c0-0.58-0.23-1.08-0.63-1.48c-0.46-0.46-1.19-0.82-2.25-0.82h-5.67
		v9.37h5.79c1.35,0,1.97-0.37,2.42-0.8c0.63-0.6,0.86-1.31,0.86-1.99C47.9,95.13,47.28,94.17,46.19,93.91z M40.43,91.14h3.89
		c0.45,0,0.79,0.1,1.05,0.36c0.2,0.2,0.33,0.49,0.33,0.8c0,0.34-0.14,0.69-0.39,0.93c-0.26,0.26-0.6,0.34-0.99,0.34h-3.89V91.14z
		 M45.83,97.21c-0.29,0.29-0.72,0.43-1.16,0.43h-4.23v-2.77h4.23c0.47,0,0.89,0.2,1.18,0.5c0.23,0.24,0.37,0.55,0.37,0.89
		C46.22,96.61,46.07,96.97,45.83,97.21z"/>
	<path class="st0" d="M55.05,89.71l-4.35,9.37h1.68l1.12-2.53h4.46l1.13,2.53h1.77l-4.35-9.37H55.05z M54.07,95.26l1.62-3.63h0.09
		l1.61,3.63H54.07z"/>
	<polygon class="st0" points="65.87,89.71 64.26,89.71 64.26,99.08 71.62,99.08 71.62,97.64 65.87,97.64 	"/>
	<rect x="74.98" y="89.71" class="st0" width="1.61" height="9.37"/>
	<path class="st0" d="M56.12,0H0v56.1c18.71,0,37.41,0,56.12,0C56.12,37.4,56.12,18.7,56.12,0z M44.84,48.01
		c-2.77,2.11-5.97,3.65-9.36,4.46c-3.89,0.93-8,0.91-11.89-0.04c-3.3-0.82-6.43-2.32-9.14-4.38c-2.92-2.22-5.35-5.09-7.05-8.35
		c-2.79-5.27-3.56-11.55-2.19-17.35c1.07-4.61,3.48-8.89,6.87-12.19c3.99-3.95,9.35-6.48,14.94-7.03c2.51-0.28,5.06-0.14,7.54,0.35
		c4.5,0.9,8.73,3.07,12.09,6.2c1.87,1.74,3.5,3.75,4.73,5.98c-4.65,2.65-9.3,5.3-13.94,7.97c-0.92-1.59-2.31-2.91-3.97-3.69
		c-1.54-0.73-3.29-1.03-4.97-0.8c-2.03,0.24-3.95,1.21-5.36,2.68c-1.42,1.46-2.32,3.43-2.49,5.46c-0.31,3.17,1.23,6.44,3.88,8.21
		c2.31,1.62,5.4,2.03,8.06,1.08c2.04-0.71,3.79-2.19,4.86-4.06c4.63,2.68,9.3,5.32,13.94,7.98C49.76,43.42,47.49,45.97,44.84,48.01z
		"/>
	<path class="st0" d="M108.23,52.1c0-16.03,0-32.05,0-48.08c-5.34,0-10.67,0.01-16.01,0c-0.01,6.69,0,13.37-0.01,20.06
		C86.84,17.4,81.52,10.7,76.16,4.02c-5.34,0-10.67,0-16.01,0c-0.01,16.03,0,32.05,0,48.08c0.06,0,0.19,0,0.25,0
		c4.31,0,8.63,0.02,12.94,0c0.12,0,0.23,0,0.35,0c0.83,0,1.65,0.01,2.48,0c0.01-6.67-0.01-13.35,0.01-20.02
		c5.33,6.68,10.67,13.34,16,20.02c1.38,0.01,2.76,0,4.13,0.01c2.44-0.01,4.87,0.01,7.31,0c1.38,0.02,2.76-0.01,4.14,0.01
		C107.91,52.1,108.07,52.1,108.23,52.1z"/>
	<path class="st0" d="M5.36,65.01c-0.88,0-1.59-0.97-1.31-1.81c0.15-0.54,0.64-0.97,1.2-1.03c0.57-0.09,1.1,0.24,1.42,0.69
		c0.62-0.34,1.23-0.71,1.85-1.06c-0.48-0.77-1.22-1.39-2.1-1.64c-1.03-0.31-2.18-0.11-3.06,0.51c-0.78,0.55-1.32,1.41-1.47,2.35
		c-0.08,0.69-0.03,1.42,0.28,2.06c0.52,1.19,1.74,2,3.03,2.09h0.46c1.18-0.1,2.26-0.78,2.87-1.79c-0.62-0.35-1.23-0.7-1.85-1.07
		C6.39,64.73,5.9,65.06,5.36,65.01z"/>
	<path class="st0" d="M35.03,60.05c-0.06,0-0.12,0-0.18,0c-0.91,0.01-1.81,0.42-2.44,1.08c-0.64,0.64-0.98,1.54-1.01,2.44
		c0.01,0.82,0.28,1.65,0.81,2.29c0.58,0.73,1.47,1.19,2.39,1.32h0.74c0.93-0.13,1.83-0.58,2.41-1.32c0.61-0.72,0.87-1.7,0.77-2.63
		C38.39,61.48,36.78,59.99,35.03,60.05z M34.82,64.89c-0.58-0.07-1.08-0.57-1.13-1.16c-0.07-0.58,0.3-1.17,0.85-1.36
		c0.13-0.05,0.27-0.08,0.4-0.08c0.59-0.01,1.17,0.41,1.3,1C36.49,64.14,35.68,65.04,34.82,64.89z"/>
	<path class="st0" d="M44.49,60.5c-0.55-0.33-1.18-0.46-1.81-0.46c-0.21,0-0.42,0.02-0.63,0.05c-0.9,0.16-1.72,0.7-2.25,1.45
		c-0.57,0.8-0.79,1.85-0.57,2.81c0.19,0.9,0.75,1.73,1.52,2.23c0.48,0.33,1.05,0.49,1.61,0.59h0.72c0.98-0.13,1.91-0.63,2.5-1.43
		c0.64-0.84,0.84-1.96,0.61-2.97C45.97,61.82,45.34,60.97,44.49,60.5z M42.43,64.86c-0.69-0.13-1.17-0.91-0.97-1.58
		c0.12-0.46,0.51-0.85,0.98-0.95c0.09-0.02,0.19-0.04,0.28-0.04c0.67,0,1.31,0.58,1.28,1.27C44.08,64.37,43.21,65.08,42.43,64.86z"
		/>
	<path class="st0" d="M92.68,60.05c-0.14-0.02-0.28-0.03-0.42-0.03c-1.35-0.01-2.68,0.82-3.23,2.06c-0.51,1.08-0.43,2.42,0.22,3.42
		c0.58,0.94,1.62,1.54,2.71,1.66h0.63c0.82-0.11,1.62-0.46,2.21-1.05c0.55-0.57,0.91-1.31,1.01-2.1c0.11-0.81-0.1-1.65-0.53-2.35
		C94.71,60.78,93.74,60.16,92.68,60.05z M92.09,64.88c-0.63-0.08-1.16-0.68-1.11-1.32c-0.02-0.51,0.34-0.97,0.8-1.17
		c0.14-0.06,0.28-0.09,0.43-0.1c0.63-0.02,1.26,0.44,1.34,1.09C93.72,64.21,92.91,65.03,92.09,64.88z"/>
	<path class="st0" d="M10.8,60.17c-0.7,2.29-1.42,4.57-2.14,6.85c0.81,0,1.62,0,2.43,0c0.11-0.38,0.21-0.77,0.33-1.15
		c0.73,0,1.46-0.02,2.19,0.01c0.15,0.37,0.21,0.76,0.35,1.14c0.8-0.01,1.6,0,2.41,0c-0.72-2.28-1.42-4.57-2.15-6.85
		C13.09,60.17,11.94,60.17,10.8,60.17z M11.91,64.19c0.2-0.71,0.4-1.42,0.6-2.13c0.24,0.7,0.43,1.42,0.62,2.13
		C12.72,64.19,12.31,64.19,11.91,64.19z"/>
	<path class="st0" d="M23.62,62.5c0-1.23-1.11-2.28-2.32-2.32c-1.41-0.03-2.83,0-4.24-0.01v6.85c0.76,0,1.51,0,2.27,0
		c0-0.67,0-1.34,0-2c0.24-0.01,0.49,0,0.74,0c0.34,0.67,0.67,1.34,1.02,2c0.84-0.01,1.68,0,2.52,0c-0.43-0.76-0.9-1.49-1.32-2.25
		c0.1-0.1,0.22-0.17,0.33-0.25C23.27,64.07,23.67,63.29,23.62,62.5z M20.79,63.32c-0.49,0-0.97,0-1.46,0c0-0.38,0-0.77,0-1.15
		c0.24,0,0.48,0,0.73,0c0.24,0,0.48,0,0.73,0c0.32-0.02,0.61,0.29,0.57,0.6C21.36,63.06,21.08,63.33,20.79,63.32z"/>
	<path class="st0" d="M24.25,62.17c0.72,0,1.43,0,2.15,0c0,1.62,0,3.23,0,4.85c0.85,0,1.7,0,2.55,0c0-1.62,0-3.23,0-4.85
		c0.72-0.01,1.44,0,2.16,0c0-0.66,0-1.33,0-1.99c-2.29,0-4.57,0-6.86,0C24.25,60.84,24.26,61.5,24.25,62.17z"/>
	<path class="st0" d="M51.57,67.02c0.76,0,1.51,0,2.27,0c-0.01-2.29-0.01-4.57,0-6.85c-0.76,0.01-1.51,0-2.27,0
		c0,0.95,0.01,1.9-0.01,2.85c-0.78-0.94-1.52-1.91-2.3-2.85c-0.76,0-1.51,0-2.27,0c0,2.28,0,4.57,0,6.85c0.75,0,1.51,0,2.26,0
		c0-0.95-0.02-1.9,0.01-2.85C50.04,65.11,50.78,66.09,51.57,67.02z"/>
	<path class="st0" d="M65.3,60.17c-0.75,0-1.5,0-2.25,0c0,0.95,0.01,1.91-0.01,2.86c-0.78-0.93-1.53-1.9-2.29-2.85
		c-0.76-0.01-1.52,0-2.28-0.01c0,2.28,0,4.57,0,6.85c0.75,0,1.5,0,2.26,0c0-0.96-0.01-1.91,0-2.87c0.78,0.94,1.53,1.92,2.31,2.86
		c0.76,0,1.51,0,2.26,0C65.3,64.74,65.3,62.46,65.3,60.17z"/>
	<path class="st0" d="M72.29,61.62c-0.01-0.48,0-0.96,0-1.45c-1.99-0.01-3.99,0-5.98-0.01c0.01,2.28,0,4.57,0,6.85
		c1.99,0,3.99,0,5.98,0c0-0.33,0-0.66,0-1c0-0.28,0-0.55,0-0.83c-1.24,0-2.48,0.01-3.72,0c-0.01-0.24-0.01-0.48-0.01-0.71
		c1.05-0.01,2.09,0,3.14,0c0-0.56,0-1.12,0-1.68c-1.04,0-2.07,0-3.11,0c-0.01-0.21-0.03-0.41-0.03-0.62c1.23-0.01,2.47-0.01,3.7,0
		C72.27,61.99,72.28,61.81,72.29,61.62z"/>
	<path class="st0" d="M73.05,62.15c0.72,0.05,1.44,0.01,2.16,0.02c0,1.62,0,3.24,0,4.86c0.85,0,1.7,0,2.55,0c0-1.62,0-3.24,0-4.85
		c0.72,0,1.43,0,2.15,0c0.02-0.66,0-1.33,0.01-1.99c-2.29-0.01-4.58,0-6.87,0C73.04,60.83,73.05,61.49,73.05,62.15z"/>
	<path class="st0" d="M85.65,63.17c-0.41-0.9-0.77-1.84-1.15-2.75c-0.39,0.92-0.76,1.84-1.14,2.76c-0.22-0.99-0.4-2-0.58-3
		c-0.77,0-1.54-0.01-2.3,0c0.46,2.28,0.85,4.57,1.33,6.85c0.62,0,1.24,0,1.87,0c0.29-0.61,0.54-1.24,0.83-1.85
		c0.28,0.61,0.55,1.23,0.81,1.85c0.63,0.01,1.27,0,1.9,0c0.44-2.28,0.87-4.56,1.3-6.84c-0.76-0.01-1.52,0-2.28,0
		C86.02,61.17,85.86,62.17,85.65,63.17z"/>
	<path class="st0" d="M103.1,62.86c0-0.18,0-0.36,0-0.54c-0.09-0.49-0.27-0.96-0.61-1.33c-0.47-0.52-1.17-0.83-1.87-0.81
		c-0.68-0.01-1.36-0.01-2.04-0.01c-0.68,0-1.36,0-2.04,0c0,2.28,0,4.56,0,6.85c0.76,0,1.52,0,2.29,0c0-0.67,0-1.35,0-2.02
		c0.24,0,0.49,0,0.73,0.01c0.32,0.67,0.67,1.34,1,2.01c0.85,0.01,1.7,0,2.55,0c-0.45-0.76-0.92-1.51-1.35-2.28
		C102.47,64.37,102.97,63.65,103.1,62.86z M100.79,62.94c-0.08,0.21-0.29,0.38-0.52,0.38c-0.49,0.01-0.97,0-1.46,0
		c0-0.38,0-0.77,0-1.15c0.49,0,0.98,0,1.47,0C100.65,62.15,100.96,62.61,100.79,62.94z"/>
	<path class="st0" d="M110.75,60.18c-0.97-0.01-1.94,0-2.92-0.01c-0.58,0.73-1.12,1.49-1.7,2.22c-0.02-0.74-0.01-1.48-0.01-2.21
		c-0.77-0.01-1.53-0.01-2.29-0.01c-0.01,2.28-0.01,4.56,0,6.85c0.76,0,1.53,0,2.29,0c0.01-0.85-0.02-1.7,0.01-2.55
		c0.56,0.85,1.13,1.7,1.7,2.55c0.97,0,1.95,0,2.92,0c-0.87-1.2-1.81-2.36-2.65-3.58C108.99,62.36,109.86,61.26,110.75,60.18z"/>
	<path class="st0" d="M111.83,65.19c0,0.1,0,0.19,0.01,0.29c0.18,0,0.37,0,0.55,0c0.01,0.52,0,1.03,0,1.55c0.12,0,0.24,0,0.36,0
		c0.01-0.52-0.03-1.04,0.04-1.55c0.18,0,0.37,0,0.55,0c0-0.1,0-0.2,0-0.3C112.84,65.18,112.33,65.18,111.83,65.19z"/>
	<path class="st0" d="M114.85,65.18c-0.13,0.49-0.23,0.99-0.34,1.48c-0.15-0.49-0.25-0.99-0.37-1.48c-0.19,0-0.37,0-0.56,0.01
		c0,0.62,0,1.23,0,1.85c0.11,0,0.23-0.01,0.35-0.01c0-0.51-0.02-1.02,0.02-1.52c0.14,0.5,0.22,1.02,0.36,1.53c0.09,0,0.27,0,0.36,0
		c0.13-0.51,0.21-1.03,0.38-1.53c0.02,0.51,0.01,1.02,0.01,1.54c0.08,0,0.25,0,0.34,0v-1.85C115.22,65.18,115.04,65.18,114.85,65.18
		z"/>
</g>
</svg>
