<svg id="Layer_1" data-name="Layer 1" xmlns="http://www.w3.org/2000/svg" viewBox="0 0 297.44 199.57"><defs><style>.cls-1{fill:#fff;}</style></defs><title>BM_Green Belle</title><path class="cls-1" d="M161.1,68.72c.93-2.56,1.49-3,4.54-3h1.24V87.38c0,2.41-.36,2.77-1.53,2.89l-1.16.12v1.45H176V90.39c-1.28-.08-1.81-.16-2.17-.48s-.52-.8-.52-2.81V65.72h1.25c2.92,0,3.61.44,4.33,2.48l1,2.93h1.48V63.75h-22.5v7.38h1.48Z"/><path class="cls-1" d="M197.94,90.39c-1.13-.08-1.65-.2-2-.52s-.56-.92-.56-2.77V78.6h9.06v8.78c0,2.33-.4,2.77-1.44,2.89l-1.08.12v1.45h11.11V90.39a2.82,2.82,0,0,1-1.72-.52c-.41-.32-.49-.76-.49-2.77V68.2c0-2.32.4-2.72,1.37-2.88l.84-.12V63.75H202V65.2c1.12.07,1.64.2,2,.52s.55.72.55,2.76v8.15h-9.06V68.2c0-2.32.4-2.76,1.44-2.88l1.09-.12V63.75H186.83V65.2a2.77,2.77,0,0,1,1.72.52c.4.32.48.76.48,2.76v18.9c0,2.33-.36,2.73-1.36,2.89l-.84.12v1.45h11.11Z"/><path class="cls-1" d="M236,89.51a6.36,6.36,0,0,1-2.4.28H229c-1.32,0-1.76-.2-1.76-1.93V78.55h3.89c2.57,0,3.57.53,3.89,2.17l.28,1.21h1.44V73.22h-1.44c-.6,3-1.36,3.37-4.41,3.37h-3.65V65.72h5.38c3.37,0,4.17.44,5,2.48l1,2.78h1.48V63.75H218.68V65.2a2.79,2.79,0,0,1,1.73.52c.4.32.48.76.48,2.76v18.9c0,2.33-.36,2.73-1.37,2.89l-.84.12v1.45h21.63l.68-7.67h-1.53C238.14,87.62,237.26,89,236,89.51Z"/><path class="cls-1" d="M170.94,146.14a20.94,20.94,0,0,0,9.86-2.32v-7.43c0-2.68.17-3,1.37-3.17v-1.44H171.9v1.44l1.32.12c1.33.12,1.77.53,1.77,2.77v7.27a8.83,8.83,0,0,1-2.89.44c-2.29,0-3.69-.68-4.65-2-1.45-1.76-1.85-4.89-1.85-10,0-9.51,1.64-12.52,6.38-12.52,3.25,0,5.05,1.37,6.22,4.74l.52,1.4h1.64v-7.82H179c-.28,1-.52,1.32-.92,1.32a2.65,2.65,0,0,1-1-.36,13.15,13.15,0,0,0-6.49-1.4c-8.63,0-11.76,5-11.76,15,0,4.42.56,7.43,1.89,9.59C162.51,144.54,165.6,146.14,170.94,146.14Z"/><path class="cls-1" d="M209.82,141.37,206,132.58a7.14,7.14,0,0,0,2.89-1.76,7.64,7.64,0,0,0,1.8-5.42,7.43,7.43,0,0,0-1.72-5.21c-1.76-1.93-4.93-2.57-10-2.57H187.47v1.44a2.75,2.75,0,0,1,1.72.53c.4.31.49.76.49,2.76v18.9c0,2.33-.37,2.73-1.37,2.89l-.84.12v1.44h11.11v-1.44c-1.16-.08-1.68-.2-2-.52s-.52-.76-.52-2.77v-7.54h3.62l3.08,8a31.82,31.82,0,0,1,1.41,4.25h9.06v-1.44C211.1,144,210.74,143.46,209.82,141.37Zm-6.95-11.23c-.72.84-1.88,1.28-3.85,1.28h-3V119.59h2.89c2,0,3.13.48,3.89,1.32,1,1,1.33,2.65,1.33,4.69S203.84,129.17,202.87,130.14Z"/><path class="cls-1" d="M235.33,143.38a6.36,6.36,0,0,1-2.4.28h-4.54c-1.32,0-1.76-.21-1.76-1.93v-9.31h3.89c2.57,0,3.57.52,3.89,2.17l.28,1.2h1.45v-8.71h-1.45c-.6,3-1.36,3.38-4.41,3.38h-3.65V119.58H232c3.37,0,4.17.44,5,2.49l1,2.77h1.49v-7.22H218v1.44a2.85,2.85,0,0,1,1.73.52c.4.32.48.77.48,2.77v18.9c0,2.33-.36,2.73-1.37,2.89l-.84.12v1.44h21.63l.68-7.66h-1.53C237.5,141.49,236.62,142.85,235.33,143.38Z"/><path class="cls-1" d="M262.7,143.38a6.39,6.39,0,0,1-2.41.28h-4.53c-1.33,0-1.77-.21-1.77-1.93v-9.31h3.9c2.56,0,3.56.52,3.89,2.17l.28,1.2h1.44v-8.71h-1.44c-.61,3-1.37,3.38-4.42,3.38H254V119.58h5.38c3.37,0,4.17.44,5,2.49l1,2.77h1.49v-7.22H245.41v1.44a2.82,2.82,0,0,1,1.72.52c.4.32.48.77.48,2.77v18.9c0,2.33-.36,2.73-1.36,2.89l-.84.12v1.44H267l.68-7.66h-1.52C264.87,141.49,264,142.85,262.7,143.38Z"/><path class="cls-1" d="M289.78,117.62v1.44a4.05,4.05,0,0,1,2.21.81c.52.51.72,1.36.72,3.93v12.72l-10.91-18.9h-9.31v1.44c1,.08,1.56.16,2,.57s.61,1.36.61,3.64v16.86c0,3.05-.48,3.65-1.73,3.93l-.84.2v1.44h7.66v-1.44a4.34,4.34,0,0,1-2.2-.81c-.52-.51-.73-1.4-.73-4v-16L290,145.7h4.86V123.15c0-3,.48-3.61,1.72-3.89l.84-.2v-1.44Z"/><path class="cls-1" d="M177.92,185.08a6.75,6.75,0,0,0,2.24-1.44,6.66,6.66,0,0,0,1.73-4.94,6.59,6.59,0,0,0-1.69-4.77c-1.76-1.85-4.89-2.45-9.95-2.45H158.82v1.45a2.75,2.75,0,0,1,1.72.52c.41.32.49.76.49,2.76v18.9c0,2.33-.36,2.73-1.37,2.89l-.84.12v1.45h12.12c5.05,0,8.22-.65,10.07-2.57a7.17,7.17,0,0,0,1.8-5.14,7,7,0,0,0-1.72-5A7.44,7.44,0,0,0,177.92,185.08Zm-10.51-11.63h2.84a5.12,5.12,0,0,1,3.85,1.24,6,6,0,0,1,1.33,4.29,5.74,5.74,0,0,1-1.25,4.1c-.76.8-1.92,1.24-3.85,1.24h-2.92Zm7.34,22.78c-.81.85-1.93,1.29-3.93,1.29h-1.77c-1.2,0-1.64-.2-1.64-1.81v-9.43h3.32a5.21,5.21,0,0,1,3.94,1.29A6.21,6.21,0,0,1,176,192,5.93,5.93,0,0,1,174.75,196.23Z"/><path class="cls-1" d="M206,197.24a6.39,6.39,0,0,1-2.41.28h-4.53c-1.32,0-1.76-.2-1.76-1.93v-9.31h3.89c2.57,0,3.57.53,3.89,2.17l.28,1.21h1.45V181h-1.45c-.6,3-1.36,3.37-4.41,3.37H197.3V173.45h5.37c3.37,0,4.18.44,5,2.48l1,2.77h1.49v-7.22H188.71v1.45a2.79,2.79,0,0,1,1.73.52c.4.32.48.76.48,2.76v18.9c0,2.33-.37,2.73-1.37,2.89l-.84.12v1.45h21.63l.68-7.67h-1.53C208.17,195.35,207.29,196.72,206,197.24Z"/><path class="cls-1" d="M232.45,197.24a6.42,6.42,0,0,1-2.41.28h-3.61c-1.33,0-1.77-.2-1.77-1.93V175.93c0-2.32.44-2.76,1.57-2.88l1.12-.12v-1.45H216.08v1.45a2.75,2.75,0,0,1,1.72.52c.4.32.48.76.48,2.76v18.9c0,2.33-.36,2.73-1.36,2.89l-.84.12v1.45h20.66l.68-7.71h-1.49C234.61,195.35,233.69,196.72,232.45,197.24Z"/><path class="cls-1" d="M258.69,197.24a6.42,6.42,0,0,1-2.41.28h-3.61c-1.33,0-1.77-.2-1.77-1.93V175.93c0-2.32.44-2.76,1.57-2.88l1.12-.12v-1.45H242.32v1.45a2.75,2.75,0,0,1,1.72.52c.4.32.48.76.48,2.76v18.9c0,2.33-.36,2.73-1.36,2.89l-.84.12v1.45H263l.68-7.71h-1.49C260.85,195.35,259.93,196.72,258.69,197.24Z"/><path class="cls-1" d="M285.85,197.24a6.39,6.39,0,0,1-2.41.28h-4.53c-1.33,0-1.77-.2-1.77-1.93v-9.31H281c2.57,0,3.56.53,3.89,2.17l.28,1.21h1.44V181h-1.44c-.61,3-1.36,3.37-4.41,3.37h-3.66V173.45h5.38c3.37,0,4.17.44,5,2.48l1.05,2.77H290v-7.22H268.56v1.45a2.75,2.75,0,0,1,1.72.52c.4.32.48.76.48,2.76v18.9c0,2.33-.36,2.73-1.36,2.89l-.84.12v1.45h21.62l.68-7.67h-1.52C288,195.35,287.13,196.72,285.85,197.24Z"/><path class="cls-1" d="M95.45,69s28.07-21.68,18.47-38.49C110.11,23.81,101.57,20.07,92.67,18q5.16-3.42,10.71-6.58l3.91-2.1s-7,2.87-17.43,8.07a120,120,0,0,0-25.18-1.92A43.26,43.26,0,0,1,81.6,21.64C45.23,41-14.93,80.85,3.39,126c0,0,15,39.43,74.66-4.7L112.2,93.73c-1.14,15.92-11.94,34-11.94,34s36.49-33.69,30.92-52C131.18,75.76,129.23,61.83,95.45,69ZM40.52,102.08C32.08,81.87,50.55,49,84.44,23.75A23.29,23.29,0,0,1,92.9,39.33a52.82,52.82,0,0,1-8.26,35.28s25.53-3.9,27.47,13.06c.1.86.15,1.74.17,2.62C96.82,98.48,48.81,121.93,40.52,102.08Z"/><path class="cls-1" d="M115.38,11.64a5.82,5.82,0,1,0-5.82-5.82A5.83,5.83,0,0,0,115.38,11.64Z"/></svg>