<?xml version="1.0" encoding="utf-8"?>
<!-- Generator: Adobe Illustrator 23.0.1, SVG Export Plug-In . SVG Version: 6.00 Build 0)  -->
<svg version="1.1" id="Layer_1" xmlns="http://www.w3.org/2000/svg" xmlns:xlink="http://www.w3.org/1999/xlink" x="0px" y="0px"
	 viewBox="0 0 283.6 49.6" style="enable-background:new 0 0 283.6 49.6;" xml:space="preserve">
<style type="text/css">
	.st0{fill:#FFFFFF;}
	.st1{display:none;clip-path:url(#XMLID_55_);}
	.st2{display:inline;fill:#FFFFFF;}
	.st3{display:none;clip-path:url(#XMLID_56_);}
	.st4{display:none;clip-path:url(#XMLID_57_);}
	.st5{display:none;clip-path:url(#XMLID_58_);}
	.st6{display:none;clip-path:url(#XMLID_59_);}
	.st7{display:none;clip-path:url(#XMLID_60_);}
	.st8{display:none;clip-path:url(#XMLID_61_);}
	.st9{display:none;clip-path:url(#XMLID_62_);}
	.st10{display:none;clip-path:url(#XMLID_63_);}
	.st11{display:none;clip-path:url(#XMLID_64_);}
	.st12{display:none;clip-path:url(#XMLID_65_);}
	.st13{display:none;clip-path:url(#XMLID_66_);}
	.st14{display:none;}
	.st15{display:inline;}
	.st16{display:none;clip-path:url(#XMLID_67_);}
	.st17{display:none;clip-path:url(#XMLID_68_);}
	.st18{display:none;clip-path:url(#XMLID_69_);}
	.st19{display:none;clip-path:url(#XMLID_70_);}
	.st20{display:none;clip-path:url(#XMLID_71_);}
	.st21{opacity:0.8;}
</style>
<g>
	<g>
		<path class="st0" d="M23.14,30.94c-0.53-0.91-1.18-1.75-1.93-2.5c-0.75-0.75-1.59-1.4-2.5-1.94c-0.91-0.54-1.91-0.96-2.96-1.26
			c-1.06-0.3-2.16-0.45-3.29-0.45c-1.15,0-2.27,0.15-3.33,0.45c-1.06,0.3-2.06,0.72-2.97,1.26c-0.91,0.54-1.75,1.19-2.5,1.94
			c-0.75,0.75-1.4,1.59-1.94,2.5c-0.54,0.91-0.96,1.91-1.26,2.98C0.15,34.99,0,36.1,0,37.24c0,1.15,0.15,2.27,0.45,3.32
			c0.3,1.05,0.72,2.05,1.26,2.96c0.54,0.91,1.19,1.75,1.94,2.49c0.75,0.74,1.59,1.39,2.51,1.92c0.91,0.53,1.91,0.95,2.97,1.24
			c1.06,0.29,2.18,0.44,3.33,0.44c1.13,0,2.23-0.15,3.29-0.44c1.05-0.29,2.05-0.71,2.96-1.24c0.91-0.53,1.75-1.18,2.5-1.92
			c0.75-0.74,1.4-1.58,1.93-2.49c0.53-0.91,0.95-1.91,1.25-2.96c0.3-1.05,0.45-2.17,0.45-3.32c0-1.14-0.15-2.25-0.45-3.32
			C24.09,32.86,23.67,31.86,23.14,30.94z M21.74,37.23c0,1.26-0.25,2.47-0.74,3.58c-0.49,1.12-1.17,2.11-2.01,2.95
			c-0.84,0.84-1.83,1.51-2.96,2c-1.12,0.49-2.33,0.73-3.6,0.73c-1.29,0-2.51-0.25-3.63-0.73c-1.13-0.49-2.12-1.16-2.96-1.99
			c-0.84-0.84-1.51-1.83-2.01-2.95c-0.49-1.12-0.74-2.32-0.74-3.58c0-1.27,0.25-2.49,0.74-3.62c0.5-1.13,1.17-2.14,2.01-2.99
			c0.84-0.85,1.83-1.53,2.96-2.02c1.12-0.49,2.35-0.74,3.63-0.74c1.26,0,2.47,0.25,3.6,0.74c1.13,0.49,2.12,1.17,2.96,2.02
			c0.84,0.85,1.51,1.85,2.01,2.99C21.49,34.74,21.74,35.96,21.74,37.23z"/>
		<path class="st0" d="M68.06,25.5c-0.09,0.35-0.19,0.64-0.29,0.85c-0.1,0.21-0.19,0.39-0.28,0.52c-0.08,0.12-0.16,0.22-0.25,0.29
			c-0.04,0.03-0.07,0.06-0.1,0.09c-0.53-0.3-1.06-0.56-1.6-0.75c-0.62-0.23-1.23-0.4-1.84-0.51c-0.6-0.11-1.2-0.18-1.78-0.19
			c-0.58-0.02-1.13-0.01-1.66,0.03c-1.06,0.13-2.09,0.39-3.06,0.78c-0.97,0.39-1.88,0.89-2.71,1.5c-0.83,0.61-1.58,1.34-2.23,2.16
			c-0.65,0.82-1.19,1.72-1.6,2.68l-0.03,0.07v0.03c-0.01,0.04-0.05,0.13-0.12,0.32c-0.11,0.27-0.22,0.62-0.34,1.06
			c-0.12,0.44-0.23,0.94-0.33,1.48c-0.1,0.56-0.16,1.16-0.16,1.79c0,1.09,0.14,2.15,0.42,3.15c0.28,1,0.67,1.95,1.18,2.83
			c0.5,0.87,1.12,1.68,1.83,2.4c0.71,0.72,1.52,1.34,2.39,1.85c0.87,0.51,1.82,0.92,2.81,1.21c1,0.29,2.05,0.45,3.15,0.46
			c1.46,0,2.88-0.26,4.22-0.76c1.34-0.5,2.58-1.23,3.69-2.16l0.14-0.12v-3.72l-0.63,0.5c-0.29,0.23-0.67,0.5-1.11,0.79
			c-0.46,0.3-0.93,0.59-1.41,0.88c-0.48,0.28-0.97,0.54-1.45,0.78c-0.47,0.23-0.89,0.38-1.25,0.46c-0.8,0.19-1.61,0.26-2.39,0.21
			c-0.79-0.05-1.58-0.21-2.33-0.46c-0.75-0.25-1.46-0.61-2.11-1.06c-0.65-0.46-1.25-1-1.77-1.61l0,0c-0.65-0.75-1.15-1.63-1.51-2.59
			c-0.35-0.97-0.53-1.98-0.53-3.03c0-1.2,0.22-2.34,0.65-3.39c0.43-1.05,1.05-2,1.83-2.82c0.75-0.82,1.66-1.47,2.69-1.93
			c1.03-0.45,2.17-0.68,3.36-0.68c0.66,0,1.32,0.08,1.96,0.25c0.65,0.17,1.29,0.4,1.89,0.7c0.6,0.3,1.18,0.66,1.72,1.07
			c0.54,0.42,1.01,0.87,1.42,1.35l0.12,0.14h0.85v-7.17h-1.38L68.06,25.5z"/>
		<path class="st0" d="M94.39,26.61l0.29,0.07c0.5,0.12,0.9,0.26,1.19,0.44c0.3,0.18,0.53,0.35,0.69,0.51
			c0.22,0.2,0.37,0.4,0.45,0.61c0.09,0.23,0.15,0.57,0.2,1.02V49.6h15.36v-2.94h-11.93v-7.91h10.63v-2.96h-10.63v-7.48h11.93v-3.13
			H94.36L94.39,26.61z"/>
		<path class="st0" d="M150.08,25.16h-5.38v1.55l0.35,0.03c0.11,0.01,0.22,0.04,0.35,0.08c0.11,0.04,0.24,0.08,0.38,0.14
			c0.13,0.05,0.27,0.12,0.39,0.21l0.04,0.02c0.45,0.23,0.5,0.46,0.5,0.62c0,0.04-0.01,0.12-0.03,0.24
			c-0.02,0.11-0.05,0.24-0.08,0.39l-9.19,21.16h3.54l3.25-7.4h9.74l3.25,7.4h3.52l-10.54-24.21L150.08,25.16z M152.63,39.24h-7.12
			l3.56-8.09L152.63,39.24z"/>
		<path class="st0" d="M204.98,42.78l-14.08-17.47l-5.35-0.02v1.63l0.37,0.02c0.54,0.02,0.97,0.12,1.28,0.29
			c0.32,0.18,0.57,0.36,0.72,0.53c0.17,0.21,0.29,0.44,0.37,0.68V49.6h2.87V31.72l13.98,17.66l0.12,0.15h2.54V25.31h-2.81V42.78z"/>
		<path class="st0" d="M232.64,26.95l0.3,0.07c0.34,0.08,0.63,0.17,0.85,0.27c0.23,0.1,0.42,0.2,0.57,0.29
			c0.13,0.08,0.24,0.17,0.32,0.26c0.11,0.12,0.2,0.23,0.28,0.31c0.11,0.15,0.22,0.35,0.32,0.61c0.1,0.25,0.14,0.62,0.14,1.1V49.6
			h3.51V25.58h-6.28V26.95z"/>
		<path class="st0" d="M269.58,31.49c0.75-0.82,1.66-1.47,2.69-1.93c1.03-0.45,2.17-0.68,3.36-0.68c0.66,0,1.32,0.08,1.96,0.25
			c0.65,0.17,1.29,0.4,1.89,0.7c0.6,0.3,1.18,0.66,1.72,1.07c0.54,0.42,1.01,0.87,1.42,1.35l0.12,0.14h0.85v-7.17h-1.38l-0.08,0.29
			c-0.09,0.36-0.19,0.64-0.29,0.85c-0.1,0.21-0.19,0.39-0.28,0.52c-0.08,0.12-0.16,0.22-0.25,0.29c-0.04,0.03-0.07,0.06-0.1,0.09
			c-0.52-0.3-1.06-0.56-1.6-0.75c-0.62-0.23-1.23-0.4-1.84-0.51c-0.6-0.11-1.2-0.18-1.78-0.19c-0.58-0.02-1.13-0.01-1.66,0.03
			c-1.06,0.13-2.09,0.39-3.06,0.78c-0.97,0.39-1.88,0.89-2.71,1.5c-0.83,0.61-1.58,1.34-2.23,2.16c-0.65,0.82-1.18,1.72-1.6,2.68
			l-0.03,0.07v0.03c-0.01,0.04-0.05,0.13-0.12,0.32c-0.11,0.27-0.22,0.62-0.34,1.06c-0.12,0.43-0.23,0.93-0.33,1.48
			c-0.1,0.56-0.16,1.16-0.16,1.79c0,1.09,0.14,2.15,0.42,3.15c0.28,1,0.68,1.95,1.18,2.83c0.5,0.87,1.12,1.68,1.83,2.4
			c0.71,0.72,1.52,1.34,2.39,1.85c0.87,0.51,1.82,0.92,2.81,1.21c1,0.29,2.05,0.45,3.15,0.46c1.46,0,2.88-0.26,4.22-0.76
			c1.34-0.5,2.58-1.23,3.69-2.16l0.14-0.12v-3.72l-0.63,0.5c-0.29,0.23-0.67,0.5-1.11,0.79c-0.45,0.3-0.93,0.59-1.41,0.88
			c-0.48,0.28-0.97,0.54-1.45,0.78c-0.47,0.23-0.89,0.38-1.25,0.46c-0.8,0.19-1.61,0.26-2.39,0.21c-0.79-0.05-1.58-0.21-2.33-0.46
			c-0.75-0.25-1.46-0.61-2.11-1.06c-0.66-0.46-1.25-1-1.77-1.61l0,0c-0.65-0.75-1.15-1.63-1.51-2.59c-0.35-0.97-0.53-1.98-0.53-3.03
			c0-1.2,0.22-2.34,0.65-3.39C268.18,33.26,268.8,32.31,269.58,31.49z"/>
	</g>
	<g>
		<g>
			<path class="st0" d="M116.07,1.66h-2.33v7.43h-2.04V1.66h-2.84V0.52c0-0.28,0.23-0.52,0.52-0.52h7.21v1.15
				C116.59,1.43,116.36,1.66,116.07,1.66z"/>
			<path class="st0" d="M127.25,0.52v8.57h-2.04V5.32h-3.86v3.77h-2.04V0h1.52c0.28,0,0.52,0.23,0.52,0.52v3.15h3.86V0h1.52
				C127.02,0,127.25,0.23,127.25,0.52z"/>
			<path class="st0" d="M132.87,1.57v2.09h4.57v1.52h-4.57v2.34h4.37c0.28,0,0.52,0.23,0.52,0.52v1.06h-6.92V0h6.92v1.06
				c0,0.28-0.23,0.52-0.52,0.52H132.87z"/>
			<path class="st0" d="M154.55,0v9.09h-1.96V3.05l-2.62,3.56h-0.21l-2.62-3.56v6.04h-1.96V0h1.59c0.17,0,0.32,0.08,0.42,0.22
				l2.68,3.77l2.68-3.77c0.1-0.14,0.25-0.22,0.42-0.22H154.55z"/>
			<path class="st0" d="M164,7.15h-3.77l-0.71,1.93h-2.13L161.02,0h1.82c0.21,0,0.4,0.13,0.48,0.32l3.52,8.76h-2.13L164,7.15z
				 M163.44,5.62l-1.32-3.58l-1.32,3.58H163.44z"/>
			<g>
				<path class="st0" d="M174.73,6.01c0,0.42-0.04,0.84-0.11,1.23c-0.07,0.4-0.21,0.75-0.42,1.06c-0.21,0.31-0.5,0.55-0.89,0.74
					c-0.39,0.19-0.89,0.28-1.51,0.28c-0.73,0-1.34-0.17-1.84-0.52c-0.36-0.25-0.63-0.6-0.81-1.06c-0.11-0.29,0.06-0.62,0.36-0.69
					l1.34-0.33c0.03,0.23,0.13,0.42,0.31,0.57c0.18,0.16,0.38,0.23,0.6,0.23c0.23,0,0.42-0.06,0.55-0.18
					c0.13-0.12,0.22-0.26,0.29-0.43c0.06-0.17,0.1-0.36,0.11-0.56c0.01-0.2,0.02-0.39,0.02-0.56V0h1.51c0.28,0,0.52,0.23,0.52,0.52
					V6.01z"/>
			</g>
		</g>
	</g>
</g>
</svg>
