<?xml version="1.0" encoding="utf-8"?>
<!-- Generator: Adobe Illustrator 23.0.1, SVG Export Plug-In . SVG Version: 6.00 Build 0)  -->
<svg version="1.1" id="Layer_1" xmlns="http://www.w3.org/2000/svg" xmlns:xlink="http://www.w3.org/1999/xlink" x="0px" y="0px"
	 viewBox="0 0 226.2 54.08" style="enable-background:new 0 0 226.2 54.08;" xml:space="preserve">
<style type="text/css">
	.st0{fill:#FFFFFF;}
	.st1{display:none;clip-path:url(#XMLID_55_);}
	.st2{display:inline;fill:#FFFFFF;}
	.st3{display:none;clip-path:url(#XMLID_56_);}
	.st4{display:none;clip-path:url(#XMLID_57_);}
	.st5{display:none;clip-path:url(#XMLID_58_);}
	.st6{display:none;clip-path:url(#XMLID_59_);}
	.st7{display:none;clip-path:url(#XMLID_60_);}
	.st8{display:none;clip-path:url(#XMLID_61_);}
	.st9{display:none;clip-path:url(#XMLID_62_);}
	.st10{display:none;clip-path:url(#XMLID_63_);}
	.st11{display:none;clip-path:url(#XMLID_64_);}
	.st12{display:none;clip-path:url(#XMLID_65_);}
	.st13{display:none;clip-path:url(#XMLID_66_);}
	.st14{display:none;}
	.st15{display:inline;}
	.st16{display:none;clip-path:url(#XMLID_67_);}
	.st17{display:none;clip-path:url(#XMLID_68_);}
	.st18{display:none;clip-path:url(#XMLID_69_);}
	.st19{display:none;clip-path:url(#XMLID_70_);}
	.st20{display:none;clip-path:url(#XMLID_71_);}
	.st21{opacity:0.8;}
</style>
<g>
	<g id="XMLID_1_">
		<path id="XMLID_20_" class="st0" d="M32.67,0v9.72H31.9c-0.31-8.8-10.08-8.95-10.44-8.95h-2.01v29.84c0,3.45,1.9,4.84,4.06,4.84
			v0.77H9.11v-0.77c2.16,0,4.06-1.39,4.06-4.84V0.77h-2.01c-0.77,0-10.08,0.15-10.39,8.95H0V0H32.67z"/>
		<path id="XMLID_18_" class="st0" d="M62.07,36.22h-9.62v-0.77c1.95-0.57,2.06-2.16,2.06-4.78V20.32c0-3.34-1.54-5.09-4.84-5.09
			c-1.95,0-3.81,1.7-4.78,3.6v11.83c0,2.83,0.26,4.27,2.11,4.73v0.82h-9.62v-0.82c1.95-0.57,2.06-2.11,2.06-4.73V3.6
			c0-1.8-0.46-2.37-2.57-2.93V0h8.03v17.7c0.93-2.83,4.99-5.71,8.28-5.71c4.17,0,6.79,1.95,6.79,8.13v10.55
			c0,2.83,0.31,4.32,2.11,4.78V36.22z"/>
		<path id="XMLID_15_" class="st0" d="M86.61,30.04c-0.67,2.52-3.65,6.64-10.13,6.64c-6.53,0-11.16-5.76-11.16-12.19
			c0-7.41,4.89-12.5,11.63-12.5s10.49,3.81,10.49,11.88H71.07c0.31,5.97,3.14,8.69,6.84,9.26c2.98,0.46,6.84-0.98,7.97-3.45
			L86.61,30.04z M82.08,23.1c0-7-2.73-10.34-5.35-10.34c-2.98,0-5.66,4.63-5.66,10.34H82.08z"/>
		<path id="XMLID_12_" class="st0" d="M115,29.17c0,6.02,2.88,6.28,5.61,6.28v0.77h-15.28v-0.77c2.37,0,3.4-2.01,3.4-6.22V6.12
			c0-3.34-1.08-5.35-3.5-5.35V0h11.16c10.24,0,17.29,1.54,17.29,10.39s-7.05,10.34-17.29,10.34H115V29.17z M116.39,19.96
			c5.66,0,10.24-0.26,10.24-9.57c0-9.47-4.68-9.62-10.24-9.62H115v19.19H116.39z"/>
		<path id="XMLID_9_" class="st0" d="M180.23,30.04c-0.67,2.52-3.65,6.64-10.13,6.64c-6.53,0-11.16-5.76-11.16-12.19
			c0-7.41,4.89-12.5,11.63-12.5c6.74,0,10.49,3.81,10.49,11.88h-16.36c0.31,5.97,3.14,8.69,6.84,9.26c2.98,0.46,6.84-0.98,7.97-3.45
			L180.23,30.04z M175.7,23.1c0-7-2.73-10.34-5.35-10.34c-2.98,0-5.66,4.63-5.66,10.34H175.7z"/>
		<path id="XMLID_7_" class="st0" d="M195.25,36.68c-6.22,0-9.16-2.21-9.16-2.21v-6.74h0.77c0.57,2.73,2.01,8.18,8.39,8.18
			c4.53,0,4.53-5.04,0.62-7.61l-5.2-3.14c-4.99-3.19-6.22-6.79-3.76-10.39c0,0,1.75-2.78,6.94-2.78c5.92,0,8.44,1.59,8.44,1.59v6.02
			h-0.77c-0.51-2.42-2.06-6.84-7.67-6.84c-4.12,0-5.04,4.37-0.57,7.2l5.2,3.24c4.63,2.88,6.12,7.2,3.6,10.8
			C202.09,34,200.24,36.68,195.25,36.68z"/>
		<path id="XMLID_5_" class="st0" d="M218.14,36.68c-6.22,0-9.16-2.21-9.16-2.21v-6.74h0.77c0.57,2.73,2.01,8.18,8.39,8.18
			c4.53,0,4.53-5.04,0.62-7.61l-5.2-3.14c-4.99-3.19-6.22-6.79-3.76-10.39c0,0,1.75-2.78,6.94-2.78c5.92,0,8.44,1.59,8.44,1.59v6.02
			h-0.77c-0.51-2.42-2.06-6.84-7.67-6.84c-4.12,0-5.04,4.37-0.57,7.2l5.2,3.24c4.63,2.88,6.12,7.2,3.6,10.8
			C224.98,34,223.13,36.68,218.14,36.68z"/>
		<g id="XMLID_2_">
			<path id="XMLID_4_" class="st0" d="M149.9,16.23c0,1.01,0.58,1.89,1.45,2.31c0.04,0.03,0.09,0.04,0.14,0.07
				c0.3,0.11,0.63,0.18,0.97,0.18c1.42,0,2.58-1.15,2.58-2.56c0-1.42-1.15-2.58-2.58-2.58c-0.09,0-0.17,0-0.24,0.03
				C150.91,13.8,149.9,14.89,149.9,16.23z"/>
			<path id="XMLID_3_" class="st0" d="M152.07,12.35c-2.39-1.22-5.16-0.94-5.16-0.94c-8.31,0-7.99,5.97-7.99,6.39v12.86
				c0,2.68-0.1,4.17-2.06,4.78v0.77h9.67v-0.77c-1.85-0.51-2.11-1.9-2.11-4.78V17.39c0-4.13,3.66-6.46,7.15-5.13
				C151.57,12.25,152.63,12.65,152.07,12.35z"/>
		</g>
	</g>
	<g>
		<path class="st0" d="M27.77,49.73v-0.02c0-1.5,1.19-2.79,2.72-2.79c1,0,1.63,0.46,2.14,0.98l-0.37,0.38
			c-0.46-0.47-0.98-0.88-1.78-0.88c-1.21,0-2.16,1.02-2.16,2.29v0.02c0,1.29,0.97,2.31,2.2,2.31c0.75,0,1.34-0.39,1.79-0.89
			l0.36,0.31c-0.54,0.62-1.19,1.06-2.18,1.06C28.95,52.51,27.77,51.23,27.77,49.73z"/>
		<path class="st0" d="M35.05,50.31v-3.27h0.51v3.17c0,1.1,0.62,1.82,1.7,1.82c1.05,0,1.85-0.8,1.85-1.9v-3.09h0.51v5.34h-0.51
			v-0.99c-0.36,0.63-0.95,1.12-1.93,1.12C35.84,52.51,35.05,51.58,35.05,50.31z"/>
		<path class="st0" d="M42.62,47.04h0.51v1.52c0.42-0.95,1.31-1.64,2.37-1.6v0.57h-0.05c-1.23,0-2.31,0.93-2.31,2.67v2.19h-0.51
			V47.04z"/>
		<path class="st0" d="M47.15,50.83v-0.02c0-1.11,0.95-1.74,2.33-1.74c0.74,0,1.26,0.09,1.77,0.23v-0.23c0-1.08-0.66-1.63-1.76-1.63
			c-0.65,0-1.18,0.18-1.67,0.43l-0.19-0.45c0.59-0.27,1.16-0.46,1.89-0.46c0.72,0,1.3,0.2,1.69,0.59c0.36,0.36,0.54,0.85,0.54,1.51
			v3.33h-0.5v-0.89c-0.37,0.51-1.03,1.01-2.04,1.01C48.22,52.51,47.15,51.94,47.15,50.83z M51.26,50.38v-0.61
			c-0.45-0.11-1.05-0.24-1.81-0.24c-1.13,0-1.76,0.5-1.76,1.25v0.02c0,0.77,0.73,1.22,1.55,1.22
			C50.33,52.02,51.26,51.35,51.26,50.38z"/>
		<path class="st0" d="M54.87,51.01v-3.5H54.1v-0.47h0.77v-1.71h0.51v1.71h1.87v0.47h-1.87v3.44c0,0.76,0.45,1.04,1.07,1.04
			c0.26,0,0.48-0.05,0.78-0.19v0.48c-0.27,0.13-0.53,0.19-0.87,0.19C55.54,52.47,54.87,52.02,54.87,51.01z"/>
		<path class="st0" d="M59.3,49.72V49.7c0-1.55,1.09-2.78,2.53-2.78c1.5,0,2.45,1.21,2.45,2.79c0,0.09,0,0.13-0.01,0.21h-4.43
			c0.09,1.33,1.05,2.1,2.09,2.1c0.83,0,1.39-0.37,1.83-0.84l0.36,0.31c-0.54,0.59-1.18,1-2.21,1C60.51,52.51,59.3,51.39,59.3,49.72z
			 M63.72,49.46c-0.07-1.08-0.69-2.07-1.92-2.07c-1.06,0-1.87,0.89-1.97,2.07H63.72z"/>
		<path class="st0" d="M66.47,49.73v-0.02c0-1.74,1.31-2.79,2.6-2.79c1.07,0,1.76,0.61,2.2,1.28v-3.45h0.51v7.64h-0.51v-1.19
			c-0.46,0.7-1.14,1.32-2.2,1.32C67.78,52.51,66.47,51.47,66.47,49.73z M71.3,49.72V49.7c0-1.37-1.07-2.29-2.18-2.29
			c-1.16,0-2.09,0.85-2.09,2.28v0.02c0,1.4,0.97,2.3,2.09,2.3C70.23,52.01,71.3,51.08,71.3,49.72z"/>
		<path class="st0" d="M78.49,47.04h0.58l1.61,4.69l1.61-4.71h0.41l1.61,4.71l1.61-4.69h0.55l-1.96,5.38h-0.44l-1.59-4.57l-1.6,4.57
			h-0.44L78.49,47.04z"/>
		<path class="st0" d="M89.02,44.95h0.64v0.7h-0.64V44.95z M89.08,47.04h0.51v5.34h-0.51V47.04z"/>
		<path class="st0" d="M92.66,47.04h0.51v0.99c0.36-0.63,0.95-1.12,1.93-1.12c1.35,0,2.14,0.92,2.14,2.2v3.27h-0.51v-3.17
			c0-1.1-0.62-1.82-1.7-1.82c-1.05,0-1.85,0.8-1.85,1.9v3.09h-0.51V47.04z"/>
		<path class="st0" d="M99.76,49.72V49.7c0-1.55,1.09-2.78,2.53-2.78c1.5,0,2.45,1.21,2.45,2.79c0,0.09,0,0.13-0.01,0.21h-4.43
			c0.09,1.33,1.05,2.1,2.09,2.1c0.83,0,1.39-0.37,1.83-0.84l0.36,0.31c-0.54,0.59-1.18,1-2.21,1
			C100.97,52.51,99.76,51.39,99.76,49.72z M104.18,49.46c-0.07-1.08-0.69-2.07-1.92-2.07c-1.06,0-1.87,0.89-1.97,2.07H104.18z"/>
		<path class="st0" d="M115.73,51.22c-0.69,0.81-1.5,1.27-2.48,1.27c-1.29,0-2.25-0.84-2.25-2.03v-0.02c0-0.98,0.7-1.71,1.89-2.15
			c-0.56-0.62-0.82-1.07-0.82-1.67v-0.02c0-0.94,0.76-1.66,1.83-1.66c0.95,0,1.69,0.71,1.69,1.59v0.02c0,0.91-0.68,1.51-1.8,1.89
			l1.93,1.98c0.36-0.5,0.67-1.11,0.95-1.78l0.49,0.2c-0.33,0.75-0.69,1.41-1.09,1.95l1.35,1.39L117,52.53L115.73,51.22z
			 M115.39,50.86l-2.17-2.24c-1.16,0.4-1.67,1.08-1.67,1.79v0.02c0,0.89,0.71,1.58,1.72,1.58
			C114.08,52.01,114.78,51.57,115.39,50.86z M115.05,46.56v-0.02c0-0.65-0.5-1.15-1.16-1.15c-0.74,0-1.27,0.52-1.27,1.18v0.02
			c0,0.46,0.2,0.82,0.85,1.51C114.52,47.76,115.05,47.25,115.05,46.56z"/>
		<path class="st0" d="M123.98,47.04h0.51v1.19c0.46-0.7,1.14-1.32,2.2-1.32c1.29,0,2.6,1.04,2.6,2.77v0.02
			c0,1.74-1.31,2.79-2.6,2.79c-1.07,0-1.76-0.61-2.2-1.28v2.83h-0.51V47.04z M128.73,49.73v-0.02c0-1.4-0.97-2.3-2.09-2.3
			c-1.11,0-2.18,0.93-2.18,2.29v0.02c0,1.37,1.07,2.29,2.18,2.29C127.8,52.01,128.73,51.17,128.73,49.73z"/>
		<path class="st0" d="M131.93,47.04h0.51v1.52c0.42-0.95,1.31-1.64,2.37-1.6v0.57h-0.05c-1.24,0-2.31,0.93-2.31,2.67v2.19h-0.51
			V47.04z"/>
		<path class="st0" d="M137.17,44.95h0.64v0.7h-0.64V44.95z M137.23,47.04h0.51v5.34h-0.51V47.04z"/>
		<path class="st0" d="M140.27,47.04h0.6l2.02,4.76l2.04-4.76h0.58l-2.4,5.38h-0.44L140.27,47.04z"/>
		<path class="st0" d="M147.25,50.83v-0.02c0-1.11,0.95-1.74,2.33-1.74c0.74,0,1.26,0.09,1.77,0.23v-0.23
			c0-1.08-0.66-1.63-1.76-1.63c-0.65,0-1.18,0.18-1.67,0.43l-0.19-0.45c0.59-0.27,1.16-0.46,1.89-0.46c0.72,0,1.3,0.2,1.69,0.59
			c0.36,0.36,0.54,0.85,0.54,1.51v3.33h-0.5v-0.89c-0.37,0.51-1.03,1.01-2.04,1.01C148.31,52.51,147.25,51.94,147.25,50.83z
			 M151.36,50.38v-0.61c-0.45-0.11-1.05-0.24-1.81-0.24c-1.13,0-1.76,0.5-1.76,1.25v0.02c0,0.77,0.73,1.22,1.55,1.22
			C150.43,52.02,151.36,51.35,151.36,50.38z"/>
		<path class="st0" d="M154.97,51.01v-3.5h-0.77v-0.47h0.77v-1.71h0.51v1.71h1.87v0.47h-1.87v3.44c0,0.76,0.45,1.04,1.07,1.04
			c0.26,0,0.48-0.05,0.78-0.19v0.48c-0.27,0.13-0.53,0.19-0.87,0.19C155.64,52.47,154.97,52.02,154.97,51.01z"/>
		<path class="st0" d="M159.39,49.72V49.7c0-1.55,1.09-2.78,2.53-2.78c1.5,0,2.45,1.21,2.45,2.79c0,0.09,0,0.13-0.01,0.21h-4.43
			c0.09,1.33,1.05,2.1,2.09,2.1c0.83,0,1.39-0.37,1.83-0.84l0.36,0.31c-0.54,0.59-1.18,1-2.21,1
			C160.61,52.51,159.39,51.39,159.39,49.72z M163.82,49.46c-0.07-1.08-0.69-2.07-1.92-2.07c-1.06,0-1.87,0.89-1.97,2.07H163.82z"/>
		<path class="st0" d="M170.76,49.73v-0.02c0-1.74,1.31-2.79,2.6-2.79c1.07,0,1.76,0.61,2.2,1.28v-3.45h0.51v7.64h-0.51v-1.19
			c-0.46,0.7-1.14,1.32-2.2,1.32C172.06,52.51,170.76,51.47,170.76,49.73z M175.58,49.72V49.7c0-1.37-1.07-2.29-2.18-2.29
			c-1.16,0-2.09,0.85-2.09,2.28v0.02c0,1.4,0.97,2.3,2.09,2.3C174.51,52.01,175.58,51.08,175.58,49.72z"/>
		<path class="st0" d="M179.06,44.95h0.64v0.7h-0.64V44.95z M179.13,47.04h0.51v5.34h-0.51V47.04z"/>
		<path class="st0" d="M182.7,47.04h0.51v0.99c0.36-0.63,0.95-1.12,1.93-1.12c1.35,0,2.14,0.92,2.14,2.2v3.27h-0.51v-3.17
			c0-1.1-0.62-1.82-1.7-1.82c-1.05,0-1.85,0.8-1.85,1.9v3.09h-0.51V47.04z"/>
		<path class="st0" d="M190.17,44.95h0.64v0.7h-0.64V44.95z M190.24,47.04h0.51v5.34h-0.51V47.04z"/>
		<path class="st0" d="M193.82,47.04h0.51v0.99c0.36-0.63,0.95-1.12,1.93-1.12c1.35,0,2.14,0.92,2.14,2.2v3.27h-0.51v-3.17
			c0-1.1-0.62-1.82-1.7-1.82c-1.05,0-1.85,0.8-1.85,1.9v3.09h-0.51V47.04z"/>
		<path class="st0" d="M201.17,53.26l0.3-0.42c0.64,0.49,1.37,0.75,2.16,0.75c1.22,0,2.09-0.7,2.09-2.07v-0.77
			c-0.46,0.66-1.17,1.23-2.23,1.23c-1.29,0-2.56-0.98-2.56-2.51v-0.02c0-1.54,1.28-2.53,2.56-2.53c1.07,0,1.79,0.57,2.23,1.19v-1.07
			h0.51v4.51c0,0.77-0.25,1.38-0.68,1.81c-0.46,0.46-1.15,0.71-1.94,0.71C202.73,54.08,201.9,53.8,201.17,53.26z M205.75,49.46
			v-0.02c0-1.23-1.1-2.03-2.21-2.03c-1.12,0-2.06,0.77-2.06,2.02v0.02c0,1.2,0.96,2.04,2.06,2.04
			C204.66,51.49,205.75,50.67,205.75,49.46z"/>
	</g>
</g>
</svg>
