<?xml version="1.0" encoding="utf-8"?>
<!-- Generator: Adobe Illustrator 23.0.1, SVG Export Plug-In . SVG Version: 6.00 Build 0)  -->
<svg version="1.1" id="Layer_1" xmlns="http://www.w3.org/2000/svg" xmlns:xlink="http://www.w3.org/1999/xlink" x="0px" y="0px"
	 viewBox="0 0 163.49 149.94" style="enable-background:new 0 0 163.49 149.94;" xml:space="preserve">
<style type="text/css">
	.st0{fill:#FFFFFF;}
	.st1{display:none;clip-path:url(#XMLID_55_);}
	.st2{display:inline;fill:#FFFFFF;}
	.st3{display:none;clip-path:url(#XMLID_56_);}
	.st4{display:none;clip-path:url(#XMLID_57_);}
	.st5{display:none;clip-path:url(#XMLID_58_);}
	.st6{display:none;clip-path:url(#XMLID_59_);}
	.st7{display:none;clip-path:url(#XMLID_60_);}
	.st8{display:none;clip-path:url(#XMLID_61_);}
	.st9{display:none;clip-path:url(#XMLID_62_);}
	.st10{display:none;clip-path:url(#XMLID_63_);}
	.st11{display:none;clip-path:url(#XMLID_64_);}
	.st12{display:none;clip-path:url(#XMLID_65_);}
	.st13{display:none;clip-path:url(#XMLID_66_);}
	.st14{display:none;}
	.st15{display:inline;}
	.st16{display:none;clip-path:url(#XMLID_67_);}
	.st17{display:none;clip-path:url(#XMLID_68_);}
	.st18{display:none;clip-path:url(#XMLID_69_);}
	.st19{display:none;clip-path:url(#XMLID_70_);}
	.st20{display:none;clip-path:url(#XMLID_71_);}
	.st21{opacity:0.8;}
</style>
<g>
	<g>
		<path class="st0" d="M47.23,143c-0.48-0.44-1.56-1.01-3.17-1.01c-1.04,0-1.96,0.33-1.96,1.26c0,0.95,1.3,0.99,2.62,1.08
			c1.56,0.11,4.02,0.27,4.02,2.7c0,2.11-1.76,2.92-3.85,2.92c-2.3,0-3.79-0.95-4.77-1.83l0.91-1.04c0.71,0.64,1.94,1.58,3.89,1.58
			c1.3,0,2.32-0.44,2.32-1.43c0-1.1-1-1.32-2.52-1.44c-1.92-0.13-4.11-0.29-4.11-2.4c0-2.07,1.91-2.68,3.51-2.68
			c1.84,0,3.33,0.72,4.02,1.27L47.23,143z"/>
		<path class="st0" d="M58.47,145.79h-3.35v2.55h5.9v1.34h-7.4v-8.72h7.08v1.34h-5.58v2.16h3.35V145.79z"/>
		<path class="st0" d="M73.76,140.96v8.72h-1.32l-5.03-6.05h-0.01v6.05h-1.5v-8.72h1.32l5.03,6.05h0.01v-6.05H73.76z"/>
		<path class="st0" d="M82.37,140.96h1.36l4.05,8.72h-1.64l-1.05-2.35h-4.15l-1.04,2.35h-1.56L82.37,140.96z M81.46,146.12h3.09
			l-1.5-3.38h-0.08L81.46,146.12z"/>
		<path class="st0" d="M98.96,140.96l-3.58,4.7v4.02h-1.5v-4.02l-3.58-4.7h1.9l2.5,3.37l2.5-3.37H98.96z"/>
		<path class="st0" d="M105.53,140.96h1.36l4.05,8.72h-1.64l-1.05-2.35h-4.15l-1.04,2.35h-1.56L105.53,140.96z M104.62,146.12h3.09
			l-1.5-3.38h-0.08L104.62,146.12z"/>
		<path class="st0" d="M123.37,140.96v8.72h-1.32l-5.03-6.05H117v6.05h-1.5v-8.72h1.32l5.03,6.05h0.01v-6.05H123.37z"/>
	</g>
	<g>
		<g>
			<path class="st0" d="M17.89,104.71h-5.78v18.43H7.06v-18.43H0v-2.85c0-0.71,0.57-1.28,1.28-1.28h17.89v2.85
				C19.17,104.13,18.6,104.71,17.89,104.71z"/>
			<path class="st0" d="M45.63,101.86v21.28h-5.06v-9.35H31v9.35h-5.06v-22.56h3.78c0.71,0,1.28,0.57,1.28,1.28v7.81h9.57v-9.09
				h3.78C45.05,100.58,45.63,101.16,45.63,101.86z"/>
			<path class="st0" d="M59.58,104.48v5.19h11.34v3.77H59.58v5.8h10.84c0.71,0,1.28,0.57,1.28,1.28v2.62H54.52v-22.56h17.18v2.62
				c0,0.71-0.57,1.28-1.28,1.28H59.58z"/>
			<path class="st0" d="M113.39,100.58v22.56h-4.87v-14.98l-6.51,8.83h-0.52l-6.51-8.83v14.98h-4.87v-22.56h3.95
				c0.41,0,0.8,0.2,1.04,0.54l6.64,9.35l6.64-9.35c0.24-0.34,0.63-0.54,1.04-0.54H113.39z"/>
			<path class="st0" d="M136.84,118.34h-9.35l-1.77,4.8h-5.28l9.02-22.56h4.52c0.52,0,0.99,0.32,1.19,0.8l8.73,21.75h-5.28
				L136.84,118.34z M135.46,114.54l-3.29-8.89l-3.29,8.89H135.46z"/>
			<g>
				<path class="st0" d="M163.49,115.5c0,1.05-0.09,2.07-0.27,3.06c-0.18,0.99-0.53,1.86-1.05,2.63c-0.52,0.76-1.25,1.37-2.21,1.84
					c-0.96,0.46-2.21,0.69-3.75,0.69c-1.8,0-3.33-0.43-4.58-1.29c-0.9-0.62-1.57-1.5-2.02-2.63c-0.28-0.72,0.14-1.53,0.89-1.71
					l3.31-0.81c0.06,0.56,0.32,1.03,0.76,1.42c0.44,0.39,0.94,0.58,1.5,0.58c0.58,0,1.03-0.15,1.35-0.43
					c0.32-0.29,0.56-0.65,0.71-1.08c0.15-0.43,0.24-0.9,0.27-1.4c0.03-0.5,0.05-0.97,0.05-1.4v-14.37h3.75
					c0.71,0,1.28,0.57,1.28,1.28V115.5z"/>
			</g>
		</g>
	</g>
	<g>
		<path class="st0" d="M81.75,72.18c18.87,0,34.22-15.35,34.22-34.22c0-18.87-15.35-34.22-34.22-34.22S47.52,19.08,47.52,37.95
			C47.52,56.82,62.87,72.18,81.75,72.18z M51.62,50.6c0.58,0.23,1.12,0.27,1.6,0.3c0.72,0.04,1.24,0.08,1.85,0.69
			c0.61,0.61,0.64,1.13,0.68,1.85c0.05,0.81,0.11,1.83,1.13,2.85c1.02,1.02,2.03,1.08,2.85,1.13c0.72,0.04,1.24,0.08,1.85,0.68
			c0.61,0.61,0.64,1.13,0.68,1.85c0.05,0.81,0.11,1.83,1.13,2.85c1.02,1.02,2.03,1.08,2.85,1.13c0.72,0.05,1.24,0.08,1.85,0.69
			c0.61,0.61,0.64,1.13,0.68,1.85c0.03,0.48,0.07,1.03,0.3,1.6C61.23,64.77,54.93,58.47,51.62,50.6z M94.4,68.08
			c0.23-0.58,0.27-1.12,0.3-1.6c0.04-0.72,0.08-1.24,0.68-1.85c0.61-0.61,1.13-0.64,1.85-0.68c0.81-0.05,1.83-0.11,2.85-1.13
			c1.02-1.02,1.08-2.03,1.13-2.85c0.04-0.72,0.08-1.24,0.68-1.85c0.61-0.61,1.13-0.64,1.85-0.68c0.81-0.05,1.83-0.11,2.85-1.13
			c1.02-1.02,1.08-2.03,1.13-2.85c0.04-0.72,0.08-1.25,0.69-1.85c0.61-0.61,1.13-0.64,1.85-0.68c0.48-0.03,1.03-0.07,1.6-0.3
			C108.56,58.47,102.26,64.77,94.4,68.08z M111.88,25.3c-0.58-0.23-1.12-0.27-1.6-0.3c-0.72-0.05-1.24-0.08-1.85-0.69
			c-0.61-0.61-0.64-1.13-0.68-1.85c-0.05-0.81-0.11-1.83-1.13-2.85c-1.02-1.02-2.03-1.08-2.85-1.13c-0.72-0.04-1.24-0.08-1.85-0.68
			c-0.61-0.61-0.64-1.13-0.68-1.85c-0.05-0.81-0.11-1.83-1.13-2.85c-1.02-1.02-2.03-1.08-2.85-1.13c-0.72-0.05-1.24-0.08-1.85-0.69
			c-0.61-0.61-0.64-1.13-0.68-1.85c-0.03-0.48-0.07-1.03-0.3-1.6C102.26,11.14,108.56,17.44,111.88,25.3z M69.09,7.82
			c-0.23,0.58-0.27,1.12-0.3,1.6c-0.04,0.72-0.08,1.24-0.68,1.85c-0.61,0.61-1.13,0.64-1.85,0.68c-0.81,0.05-1.83,0.11-2.85,1.13
			c-1.02,1.02-1.08,2.03-1.13,2.85c-0.04,0.72-0.08,1.24-0.68,1.85c-0.61,0.61-1.13,0.64-1.85,0.68c-0.81,0.05-1.83,0.11-2.85,1.13
			c-1.02,1.02-1.08,2.03-1.13,2.85c-0.04,0.72-0.08,1.24-0.69,1.85s-1.13,0.64-1.85,0.69c-0.48,0.03-1.03,0.07-1.6,0.3
			C54.93,17.44,61.23,11.14,69.09,7.82z M50.83,27.44c0.03,0,0.05,0.02,0.08,0.02c0.2,0,0.39-0.08,0.55-0.23
			c0.61-0.61,1.13-0.64,1.85-0.69c0.81-0.05,1.83-0.11,2.85-1.13c1.02-1.02,1.08-2.03,1.13-2.85c0.04-0.72,0.08-1.24,0.69-1.85
			s1.13-0.64,1.85-0.68c0.81-0.05,1.83-0.11,2.85-1.13c1.02-1.02,1.08-2.03,1.13-2.85c0.04-0.72,0.08-1.24,0.68-1.85
			c0.61-0.61,1.13-0.64,1.85-0.68c0.81-0.05,1.83-0.11,2.85-1.13c1.02-1.02,1.08-2.03,1.13-2.85c0.04-0.72,0.08-1.24,0.68-1.85
			c0.17-0.17,0.23-0.4,0.21-0.63c3.31-1.13,6.83-1.77,10.52-1.77c3.68,0,7.21,0.64,10.52,1.77c-0.02,0.22,0.04,0.46,0.21,0.63
			c0.61,0.61,0.64,1.13,0.69,1.85c0.05,0.81,0.11,1.83,1.13,2.85c1.02,1.02,2.03,1.08,2.85,1.13c0.72,0.05,1.24,0.08,1.85,0.69
			c0.61,0.61,0.64,1.13,0.68,1.85c0.05,0.81,0.11,1.83,1.13,2.85s2.03,1.08,2.85,1.13c0.72,0.04,1.24,0.08,1.85,0.68
			c0.61,0.61,0.64,1.13,0.68,1.85c0.05,0.81,0.11,1.83,1.13,2.85c1.02,1.02,2.03,1.08,2.85,1.13c0.72,0.05,1.24,0.08,1.85,0.69
			c0.15,0.15,0.35,0.23,0.55,0.23c0.03,0,0.05-0.01,0.08-0.02c1.13,3.31,1.77,6.83,1.77,10.52c0,3.68-0.64,7.21-1.77,10.52
			c-0.22-0.02-0.46,0.04-0.63,0.21c-0.61,0.61-1.13,0.64-1.85,0.68c-0.81,0.05-1.83,0.11-2.85,1.13c-1.02,1.02-1.08,2.03-1.13,2.85
			c-0.04,0.72-0.08,1.24-0.69,1.85c-0.61,0.61-1.13,0.64-1.85,0.68c-0.81,0.05-1.83,0.11-2.85,1.13c-1.02,1.02-1.08,2.03-1.13,2.85
			c-0.04,0.72-0.08,1.24-0.68,1.85c-0.61,0.61-1.13,0.64-1.85,0.68c-0.81,0.05-1.83,0.11-2.85,1.13c-1.02,1.02-1.08,2.03-1.13,2.85
			c-0.04,0.72-0.08,1.24-0.69,1.85c-0.17,0.17-0.23,0.4-0.21,0.63c-3.31,1.13-6.83,1.77-10.52,1.77c-3.68,0-7.21-0.64-10.52-1.77
			c0.02-0.22-0.04-0.46-0.21-0.63c-0.61-0.61-0.64-1.13-0.68-1.85c-0.05-0.81-0.11-1.83-1.13-2.85c-1.02-1.02-2.03-1.08-2.85-1.13
			c-0.72-0.05-1.24-0.08-1.85-0.69c-0.61-0.61-0.64-1.13-0.69-1.85c-0.05-0.81-0.11-1.83-1.13-2.85s-2.03-1.08-2.85-1.13
			c-0.72-0.04-1.24-0.08-1.85-0.68c-0.61-0.61-0.64-1.13-0.69-1.85c-0.05-0.81-0.11-1.83-1.13-2.85c-1.02-1.02-2.03-1.08-2.85-1.13
			c-0.72-0.05-1.24-0.08-1.85-0.69c-0.17-0.17-0.4-0.23-0.63-0.21c-1.13-3.31-1.77-6.83-1.77-10.52
			C49.06,34.27,49.7,30.74,50.83,27.44z"/>
		<path class="st0" d="M76.46,29.26c0.14,0.14,0.34,0.23,0.55,0.23h9.48c0.2,0,0.4-0.08,0.55-0.23l6.32-6.32
			c0.14-0.14,0.23-0.34,0.23-0.55v-4.74c0-0.2-0.08-0.4-0.23-0.55l-1.58-1.58l0,0c0,0,0,0,0,0l-9.47-9.47
			c-0.14-0.14-0.33-0.23-0.55-0.23c-0.21,0-0.41,0.09-0.55,0.23l-9.47,9.47l0,0l0,0l-1.58,1.58c-0.14,0.14-0.23,0.34-0.23,0.55v4.74
			c0,0.2,0.08,0.4,0.23,0.55L76.46,29.26z M76.22,13.22l4.76,4.76v5.71l-7.61-7.61L76.22,13.22z M90.13,16.08l-7.61,7.61v-5.71
			l4.76-4.76L90.13,16.08z M82.52,15.8V8.46l3.67,3.67L82.52,15.8z M80.97,15.8l-3.67-3.67l3.67-3.67V15.8z M92.03,22.08l-5.86,5.87
			h-3.65v-1.57v-0.5l8.7-8.7l0.81,0.81V22.08z M71.46,17.98l0.81-0.81l8.7,8.7v0.5v1.57h-3.65l-5.87-5.87V17.98z"/>
		<path class="st0" d="M87.03,46.65c-0.14-0.14-0.34-0.23-0.55-0.23h-9.48c-0.2,0-0.4,0.08-0.55,0.23l-6.32,6.32
			c-0.14,0.14-0.23,0.34-0.23,0.55v4.74c0,0.2,0.08,0.4,0.23,0.55l1.58,1.58l0,0c0,0,0,0,0,0l3.95,3.95l0,0l0,0l5.53,5.52
			c0.07,0.07,0.16,0.13,0.25,0.17c0.09,0.04,0.19,0.06,0.29,0.06c0.1,0,0.2-0.02,0.29-0.06c0.09-0.04,0.18-0.1,0.25-0.17l5.52-5.52
			l0,0l0,0l3.94-3.94l0,0l0,0l1.58-1.58c0.14-0.14,0.23-0.34,0.23-0.55v-4.74c0-0.2-0.08-0.4-0.23-0.55L87.03,46.65z M87.27,62.68
			l-4.76-4.76v-5.71l7.61,7.61L87.27,62.68z M73.36,59.83l7.61-7.61v5.71l-4.76,4.76L73.36,59.83z M80.97,60.11v7.33l-3.67-3.67
			L80.97,60.11z M82.52,60.11l3.67,3.67l-3.67,3.67V60.11z M71.46,53.83l5.87-5.87h3.65c0,0,0,0.01,0,0.01v1.48v0.58l-8.7,8.7
			l-0.81-0.81V53.83z M92.03,57.93l-0.81,0.81l-8.7-8.7v-0.58v-1.48c0,0,0-0.01,0-0.01h3.65l5.86,5.87V57.93z"/>
		<path class="st0" d="M90.21,33.21v9.48c0,0.2,0.08,0.4,0.23,0.55l6.32,6.32c0.14,0.14,0.34,0.23,0.55,0.23h4.74
			c0.2,0,0.4-0.08,0.55-0.23l5.53-5.53l0,0l0,0l5.53-5.53c0.07-0.07,0.13-0.16,0.17-0.25c0.04-0.09,0.06-0.19,0.06-0.3
			s-0.02-0.2-0.06-0.3c-0.04-0.09-0.1-0.18-0.17-0.25l-11.05-11.05c-0.14-0.14-0.34-0.23-0.55-0.23H97.3c-0.2,0-0.4,0.08-0.55,0.23
			l-6.32,6.32C90.3,32.81,90.21,33.01,90.21,33.21z M101.72,48.24h-4.1l-5.87-5.87v-3.65h1.48h0.59l8.7,8.7L101.72,48.24z
			 M106.48,32.42l-4.76,4.76h-5.71l7.61-7.61L106.48,32.42z M111.23,37.18h-7.33l3.67-3.66L111.23,37.18z M107.57,42.39l-3.67-3.67
			h7.33L107.57,42.39z M103.62,46.34l-7.61-7.61h5.71l4.76,4.76L103.62,46.34z M97.62,27.67h4.1l0.81,0.81l-8.7,8.7h-0.59h-1.48
			v-3.65L97.62,27.67z"/>
		<path class="st0" d="M49.68,38.25c0.04,0.09,0.1,0.18,0.17,0.25l11.05,11.05c0.14,0.14,0.34,0.23,0.55,0.23h4.74
			c0.2,0,0.4-0.08,0.55-0.23l6.32-6.32c0.14-0.14,0.23-0.34,0.23-0.55v-9.48c0-0.2-0.08-0.4-0.23-0.55l-6.32-6.32
			c-0.14-0.14-0.34-0.23-0.55-0.23h-4.74c-0.2,0-0.4,0.08-0.55,0.23L49.85,37.41c-0.07,0.07-0.13,0.16-0.17,0.25
			C49.61,37.85,49.61,38.06,49.68,38.25z M55.92,33.52l3.67,3.67h-7.33L55.92,33.52z M59.87,29.57l7.61,7.61h-5.72l-4.76-4.76
			L59.87,29.57z M57.01,43.48l4.76-4.76h5.72l-7.61,7.61L57.01,43.48z M59.59,38.72l-3.67,3.67l-3.67-3.67H59.59z M65.87,48.24h-4.1
			l-0.81-0.81l8.7-8.7h0.64h1.43v3.65L65.87,48.24z M61.77,27.67h4.1l5.87,5.87v3.65h-1.43h-0.64l-8.7-8.7L61.77,27.67z"/>
		<rect x="76.22" y="32.42" class="st0" width="4.6" height="4.6"/>
		<rect x="82.67" y="32.42" class="st0" width="4.6" height="4.6"/>
		<rect x="76.22" y="38.88" class="st0" width="4.6" height="4.6"/>
		<rect x="82.67" y="38.88" class="st0" width="4.6" height="4.6"/>
		<path class="st0" d="M81.75,75.9c20.93,0,37.95-17.03,37.95-37.95S102.67,0,81.75,0S43.79,17.03,43.79,37.95
			S60.82,75.9,81.75,75.9z M81.75,1.54c20.08,0,36.41,16.33,36.41,36.41s-16.33,36.41-36.41,36.41S45.34,58.03,45.34,37.95
			S61.67,1.54,81.75,1.54z"/>
	</g>
</g>
</svg>
