<?xml version="1.0" encoding="utf-8"?>
<!-- Generator: Adobe Illustrator 23.0.1, SVG Export Plug-In . SVG Version: 6.00 Build 0)  -->
<svg version="1.1" id="Layer_1" xmlns="http://www.w3.org/2000/svg" xmlns:xlink="http://www.w3.org/1999/xlink" x="0px" y="0px"
	 viewBox="0 0 139.53 108.08" style="enable-background:new 0 0 139.53 108.08;" xml:space="preserve">
<style type="text/css">
	.st0{fill:#FFFFFF;}
	.st1{display:none;clip-path:url(#XMLID_55_);}
	.st2{display:inline;fill:#FFFFFF;}
	.st3{display:none;clip-path:url(#XMLID_56_);}
	.st4{display:none;clip-path:url(#XMLID_57_);}
	.st5{display:none;clip-path:url(#XMLID_58_);}
	.st6{display:none;clip-path:url(#XMLID_59_);}
	.st7{display:none;clip-path:url(#XMLID_60_);}
	.st8{display:none;clip-path:url(#XMLID_61_);}
	.st9{display:none;clip-path:url(#XMLID_62_);}
	.st10{display:none;clip-path:url(#XMLID_63_);}
	.st11{display:none;clip-path:url(#XMLID_64_);}
	.st12{display:none;clip-path:url(#XMLID_65_);}
	.st13{display:none;clip-path:url(#XMLID_66_);}
	.st14{display:none;}
	.st15{display:inline;}
	.st16{display:none;clip-path:url(#XMLID_67_);}
	.st17{display:none;clip-path:url(#XMLID_68_);}
	.st18{display:none;clip-path:url(#XMLID_69_);}
	.st19{display:none;clip-path:url(#XMLID_70_);}
	.st20{display:none;clip-path:url(#XMLID_71_);}
	.st21{opacity:0.8;}
</style>
<g>
	<path class="st0" d="M122.83,7.19c0.06,0.35,0.21,0.68,0.14,0.97c-0.22,0.95-0.64,1.91,0.8,2.31c0.11,0.03,0.16,0.53,0.14,0.8
		c-0.09,0.86-0.2,1.71,1.43,1.44c-0.08,0.14-0.17,0.29-0.25,0.43c-0.37,0.13-0.81,0.18-1.11,0.41c-0.27,0.21-0.38,0.62-0.56,0.94
		c0.32,0.1,0.63,0.23,0.96,0.28c0.36,0.06,0.74,0.06,1.11,0.05c0.4-0.01,0.92,0.08,1.17-0.13c0.85-0.73,1.28-0.27,1.65,0.45
		c0.26,0.51,0.46,1.05,0.69,1.58c-0.07,0.1-0.14,0.19-0.21,0.29c-0.52-0.22-1.03-0.45-1.61-0.69c-0.16,0.79-1.17,1.81,0.62,2.21
		c0.07,0.02,0.07,0.84-0.09,1.2c-0.16,0.36-0.84,0.65-0.81,0.9c0.12,0.87,0.37,1.76,0.73,2.57c0.3,0.66,0.83,1.22,1.44,2.07
		c1.64,0.38,2.86,1.38,2.44,2.4c-0.52,1.27-1.7,0.63-2.63,0.73c-0.07-0.69-0.14-1.31-0.21-1.97c-0.31,0.1-0.45,0.11-0.45,0.15
		c-0.27,1.35-0.54,2.69-0.78,4.05c-0.13,0.76-0.3,1.53-0.29,2.3c0.02,1.52-0.37,2.74-1.9,3.4c-0.29,0.12-0.43,0.59-0.82,0.89
		c0.25-1.32,0.09-2.36-1.45-2.89c-0.23,0.76-0.43,1.54-0.73,2.29c-0.11,0.26-0.45,0.43-0.68,0.64c-0.2-0.69-0.33-1.15-0.47-1.6
		c-0.23,0.18-0.46,0.36-0.69,0.53c0.03-0.1,0.06-0.19,0.08-0.29c-0.68-0.12-1.35-0.23-2.03-0.35c-0.08,0.85-1.41,1.42-0.5,2.53
		c0.26,0.31,0.16,0.92,0.22,1.39c-0.12,0.09-0.23,0.17-0.35,0.26c-0.9-0.65-1.79-1.31-2.84-2.07c-0.17,0.49-0.3,0.86-0.35,1
		c-0.64,0.29-1.14,0.5-1.61,0.77c-0.06,0.03,0.11,0.64,0.16,0.64c0.52-0.03,1.03-0.13,1.83-0.25c0.08,0.07,0.39,0.36,0.88,0.81
		c-1.74,0.51-3.17,0.93-4.92,1.44c1.03,0.5,1.73,0.76,2.34,1.17c0.27,0.18,0.46,0.67,0.45,1.01c-0.01,0.18-0.55,0.5-0.82,0.47
		c-0.84-0.1-1.85,0.09-2.16-1.17c-0.09-0.38-0.71-0.63-0.94-0.82c-0.9,1.15-1.78,2.2-2.59,3.31c-0.85,1.18-2.1,1.06-3.21,0.87
		c-1.2-0.21-2.35-0.76-3.48-1.25c-0.26-0.11-0.58-0.75-0.5-0.87c0.3-0.4,0.73-0.87,1.18-0.96c0.77-0.16,1.6,0.02,2.39-0.1
		c0.5-0.08,0.95-0.46,1.42-0.7c-0.35-0.4-0.63-0.93-1.07-1.16c-1.35-0.71-2.97-0.96-3.76-2.55c-0.12-0.25-0.61-0.33-0.94-0.47
		c-0.37-0.15-0.75-0.27-1.13-0.41c-0.65-0.24-1.32-0.45-1.95-0.73c-1.16-0.52-2.29-1.11-3.46-1.62c-0.61-0.27-1.28-0.4-1.9-0.64
		c-1.48-0.56-3.14,0.63-4.61-0.5c-0.34-0.26-1.05-0.04-1.63-0.04c0,0.44,0,0.78,0,1.11c-0.09,0.04-0.18,0.09-0.27,0.13
		c-0.23-0.32-0.45-0.63-0.74-1.04c-0.59,0.88-1.25,0.68-2.16,0.4c-1.4-0.43-2.92-0.44-4.38-0.71c-0.35-0.07-0.82-0.39-0.93-0.7
		c-0.1-0.31,0.11-0.8,0.33-1.11c0.28-0.39,0.7-0.68,1.21-1.15c-1.33-0.4,0.37-2.81-1.97-2.28c0.39-1.64,0.88-1.85,2.13-1.08
		c0.17,0.11,0.38,0.16,0.56,0.26c0.88,0.52,2.13,0.76,1.59,2.32c-0.1,0.28,0.27,0.72,0.43,1.09c1.9-0.88,1.77-1.87-0.44-3.92
		c0.31-0.27,0.62-0.53,0.99-0.85c0.32,0.35,0.58,0.63,0.94,1.02c0.26-0.39,0.47-0.7,0.68-1c0.19,0.14,0.39,0.28,0.62,0.45
		c0.07-0.15,0.15-0.25,0.16-0.36c0.01-0.2-0.11-0.51-0.02-0.6c0.71-0.66,1.38-1.59,2.22-1.82c0.87-0.24,1.93,0.25,2.91,0.33
		c0.51,0.04,1.06-0.03,1.56-0.18c0.86-0.25,1.73-0.54,2.53-0.93c0.36-0.17,0.76-0.61,0.8-0.96c0.03-0.28-0.44-0.8-0.76-0.86
		c-0.37-0.08-0.81,0.22-1.3,0.38c-0.1-0.54-0.21-1.11,0.79-1.15c0.2-0.01,0.39-0.35,0.58-0.53c-0.17-0.16-0.3-0.42-0.5-0.48
		c-0.72-0.22-1.5-0.3-2.19-0.59c-0.44-0.18-0.77-0.63-1.29-1.08c-1.48,1.56-3.44,0.87-5.29,0.63c-0.49-0.06-0.89-0.75-1.63-1.42
		c1.84-0.17,3.27-0.31,4.72-0.44c-0.42-1.27-0.42-1.27-4.54-1.61c0.36-0.09,0.79-0.36,1.06-0.24c1.18,0.52,1.93,0.06,2.42-1.02
		c0.58,0.55,1.07,1.01,1.59,1.5c0.16-0.2,0.27-0.28,0.26-0.32c-0.59-1.35-1.12-2.74-1.84-4.01c-0.26-0.46-1-0.67-1.55-0.96
		c-0.33-0.17-0.71-0.27-1.06-0.41c0.02-0.18,0.04-0.36,0.06-0.53c1.36,0,2.74,0.15,4.07-0.04c1.31-0.19,2.56-0.74,3.82-1.13
		c-0.42-2.26-1.91-2.67-3.82-2.41c0.22-1.11,0.73-1.54,1.68-1.49c0.71,0.04,1.43,0.05,2.15,0.02c0.32-0.01,0.84-0.08,0.92-0.27
		c0.45-1.14,1.4-0.81,2.24-0.87c2.25-0.17,4.5-0.4,6.75-0.52c1.62-0.09,3.26,0.06,4.87-0.11c1.69-0.18,3.34-0.65,5.02-0.92
		c0.51-0.08,1.07,0.1,1.6,0.15c0.74,0.06,1.49,0.18,2.23,0.14c0.25-0.01,0.49-0.43,0.73-0.66c-0.26-0.22-0.5-0.6-0.78-0.64
		c-0.93-0.13-1.87-0.14-2.8-0.19c-0.02-0.12-0.03-0.24-0.05-0.36c0.44-0.11,0.88-0.24,1.33-0.33c1.01-0.19,2.01-0.41,3.03-0.53
		c0.38-0.05,0.79,0.15,1.18,0.2c0.38,0.05,0.81,0.19,1.13,0.07c0.93-0.36,1.77,0.03,1.77,1.04c0,0.93-0.19,1.86-0.3,2.82
		c0.94,0.58,0.95,1.3,0.08,2.17c-0.33,0.34-0.68,0.87-0.66,1.3c0.04,0.78,0.44,1.28,1.34,0.64c0.33-0.24,0.77-0.31,1.16-0.47
		C121.91,7.63,122.26,7.46,122.83,7.19z M110.34,19.15c0.68-0.08,1.12-0.15,1.56-0.17c1.01-0.05,2.05,0.05,3.02-0.16
		c0.65-0.14,1.2-0.73,1.79-1.11c-0.53-0.6-1.02-1.24-1.6-1.77c-0.2-0.18-0.65-0.11-0.98-0.12c-2.85-0.08-5.47,0.86-8.02,1.98
		c-0.57,0.25-1.01,0.4-1.18-0.25c-0.11-0.42-0.04-1.2,0.22-1.35c1.54-0.9,3.2-1.6,4.74-2.5c0.78-0.46,1.52-1.11,2-1.86
		c0.2-0.31-0.34-1.09-0.54-1.66c-0.01-0.03,0.02-0.08,0.06-0.27c0.43-0.05,0.91-0.14,1.4-0.15c1.14-0.03,2.28,0,3.41-0.04
		c0.68-0.02,1.22-0.3,0.86-1.11c-0.77-1.72-3.62-2.56-5.27-1.65c-0.58,0.32-1.21,0.6-1.86,0.74c-1.26,0.26-2.56,0.35-3.81,0.61
		c-2.68,0.56-5.34,1.18-8.01,1.81c-0.23,0.05-0.53,0.33-0.57,0.54c-0.03,0.22,0.18,0.65,0.36,0.69c0.97,0.23,2.01,0.61,2.94,0.47
		c1.88-0.29,3.7-0.93,5.56-1.34c0.47-0.1,1,0.11,1.51,0.18c-0.18,0.56-0.18,1.32-0.56,1.63c-1.16,0.96-2.44,1.78-3.72,2.59
		c-0.78,0.5-1.63,0.88-2.82,1.5c1,0.21,1.63,0.35,2.28,0.49c0,0.18,0.04,0.32-0.01,0.43c-1.17,2.58-1.44,5.27-1.06,8.05
		c0.14,1.03,0.89,1.63,1.77,1.66c1.08,0.04,0.75-0.99,0.82-1.64c0.17-1.49,0.3-2.99,0.53-4.47c0.05-0.29,0.45-0.66,0.76-0.76
		c0.54-0.18,1.14-0.17,2.04-0.29c0,1.75,0,3.43,0,5.12c0,1.52,0,3.03,0,4.71c0.12-0.08,0.03,0.03-0.09,0.05
		c-2.01,0.36-4.02,0.71-6.03,1.07c-0.57,0.1-1.18,0.1-1.71,0.31c-1.38,0.55-1.9,0.28-1.82-1.24c0.12-2.25,0.32-4.51,0.59-6.75
		c0.22-1.82,0.43-3.66,0.93-5.41c0.6-2.13-0.33-3.73-1.36-5.36c-0.15-0.24-0.7-0.45-0.94-0.36c-0.26,0.1-0.52,0.56-0.55,0.88
		c-0.26,2.5-0.48,5.01-0.67,7.51c-0.12,1.72-0.04,3.46-0.26,5.16c-0.31,2.38-0.66,4.72,0.22,7.08c0.48,1.29,1.12,2.07,2.44,1.83
		c2.69-0.48,5.35-1.16,8-1.83c2.61-0.65,5.19-0.64,7.8-0.02c1.4,0.33,2.83,0.57,4.27,0.72c0.43,0.05,1.29-0.32,1.3-0.52
		c0.03-0.55-0.13-1.31-0.52-1.65c-1.07-0.94-2.25-1.74-3.84-1.56c-0.96,0.11-1.94-0.05-2.9,0.04c-1.08,0.1-1.25-0.31-1.31-1.34
		C111.31,25.31,112.48,22.17,110.34,19.15z M84.96,29.9c0.3,1.58,1.77,1.46,2.67,1.61c0.97,0.16,2.15-0.31,3.11-1.61
		C88.64,29.9,86.87,29.9,84.96,29.9z M127.32,26.04c-0.25-0.38-0.42-0.89-0.61-0.9c-0.54-0.02-1.1,0.13-1.62,0.3
		c-0.1,0.03-0.19,0.48-0.1,0.65c0.08,0.16,0.4,0.31,0.6,0.29C126.07,26.33,126.55,26.19,127.32,26.04z M122.45,14.19
		c0.25-0.74,0.45-1.34,0.67-1.98C121.48,12.69,121.31,13.1,122.45,14.19z"/>
	<path class="st0" d="M32.76,55.46c1.99,0.74,1.99,0.74,1.92,1.38c-0.4-0.13-0.78-0.25-1.17-0.38c-0.31,0.84-0.53,1.72-0.95,2.47
		c-0.21,0.38-0.8,0.73-1.24,0.76c-1.3,0.1-2.62-0.05-3.91,0.06c-1.36,0.12-2.72,0.37-4.05,0.67c-0.39,0.09-0.84,0.51-0.99,0.89
		c-0.47,1.24-0.81,2.53-1.22,3.79c-0.15,0.46-0.4,0.9-0.61,1.35c-1.03,2.15-1.46,4.41-1.82,6.79c-0.63,4.16-0.48,8.3-0.44,12.44
		c0.01,1.54,0.52,3.09,0.95,4.6c0.29,1.04,0.02,2.49-0.74,2.83c-0.92,0.41-2.02-0.02-2.58-1.15c-0.79-1.58-1.5-3.2-2.21-4.81
		c-0.11-0.25-0.15-0.62-0.05-0.87c1.91-4.9,0.87-10.02,1.16-15.03c0.14-2.47,0.29-4.95,0.63-7.4c0.15-1.02-0.35-1.4-1-1.74
		c-1.82-0.96-3.64-1.95-5.53-2.76c-1.39-0.59-2.93-0.84-4.35-1.37c-1.94-0.73-3.26-2.07-4.2-3.99c-0.89-1.82,0.21-2.72,1.08-3.9
		c1.2-1.62,2.97-1.76,4.69-1.83c2.86-0.12,5.73-0.18,8.59,0c3.28,0.21,6.54,0.7,9.81,1.1c1.39,0.17,2.8,0.3,4.16,0.62
		c1.28,0.3,2.63,0.64,3.74,1.31C33.9,52.18,34.58,53.79,32.76,55.46z"/>
	<path class="st0" d="M51.59,92.34c-0.44-0.65-0.91-1.33-1.4-2.05c-0.86,0.92-1.37,0.09-1.37-0.59c0.01-2.37-0.97-4.7,0.18-7.16
		c0.5-1.06-0.06-2.62-0.15-3.95c-0.03-0.45-0.21-0.93-0.12-1.36c0.22-1.15,0.58-2.27,0.82-3.41c0.12-0.58,0.19-1.19,0.17-1.78
		c-0.04-1.21-0.26-2.41-0.2-3.61c0.07-1.44,0.39-2.87,0.55-4.31c0.06-0.53-0.11-1.1,0-1.61c0.13-0.61,0.45-1.17,0.73-1.86
		c-0.65-1.64,0.3-3.16,0.95-4.68c0.85-1.96,2.02-3.78,2.16-6c0.01-0.22,0.55-0.55,0.88-0.59c1.94-0.26,3.57,0.52,5.07,1.65
		c0.4,0.3,0.77,0.65,1.12,1.02c1.19,1.29,1.18,1.29-0.18,2.37c-0.24,0.19-0.53,0.49-0.56,0.77c-0.22,1.67-0.79,3.1-2.08,4.3
		c-1.83,1.72-2.49,4.11-3.08,6.44c-0.41,1.59-0.46,3.28-0.59,4.93c-0.09,1.09-0.07,2.19,0,3.28c0.01,0.18,0.63,0.53,0.86,0.45
		c2.27-0.7,4.32-1.85,6.27-3.22c1.06-0.74,2.31-1.2,3.38-1.92c0.76-0.51,1.33-1.3,2.06-1.87c0.77-0.6,1.55-0.46,2.43-0.03
		c1.47,0.71,2.48,1.78,3.16,3.21c0.44,0.93,0.53,1.82-0.4,2.6c-0.6,0.5-1.06,1.17-1.68,1.62c-0.26,0.19-0.91,0.19-1.16-0.01
		c-1.27-1.01-2.47-1.05-3.94-0.32c-2.15,1.08-4.4,1.94-6.6,2.9c-1.22,0.53-1.19,0.49-0.15,1.35c1.84,1.54,3.62,3.16,5.47,4.68
		c1.45,1.19,2.93,2.34,4.47,3.41c0.96,0.67,0.98,1.53,0.73,2.44c-0.26,0.95-1.11,0.95-1.87,0.83c-1.8-0.29-3.53-0.53-5.03-1.92
		c-2.23-2.07-4.73-3.86-7.18-5.7c-0.4-0.3-1.11-0.39-1.6-0.27c-0.22,0.05-0.38,0.85-0.38,1.3c0.01,2.06,0.14,4.11,0.12,6.17
		C53.43,90.96,53.43,92.21,51.59,92.34z"/>
	<path class="st0" d="M105.91,68.92c2.13-1.7,4.16-0.98,6.14,0.21c0.79,0.48,1.29,0.69,1.81-0.46c0.55-1.22,1.39-2.36,2.32-3.33
		c0.33-0.34,1.44-0.29,1.95,0c0.89,0.51,1.56,1.38,2.36,2.04c0.87,0.71,0.66,2.3,0.49,2.42c-1.98,1.39-1.37,3.43-1.48,5.26
		c-0.1,1.68-0.08,3.37-0.01,5.05c0.01,0.33,0.46,0.74,0.8,0.94c0.63,0.36,1.42,0.48,2.01,0.9c1.5,1.09,1.36,2.79-0.25,4.02
		c-0.32,0.25-0.74,0.47-0.92,0.8c-0.65,1.26-1.61,1.85-3.03,1.79c-1.32-0.05-1.44-1.3-1.97-2.03c-1.26-1.71-1.47-3.75-1.25-5.83
		c0.34-3.26,0.69-6.52,1.06-10.03c-0.46,0.13-0.85,0.13-1.05,0.32c-2.43,2.23-4.23,4.83-4.63,8.21c-0.01,0.08,0.01,0.18-0.03,0.25
		c-1.75,2.92-0.81,6.2-1.24,9.3c-0.01,0.04-0.05,0.07-0.07,0.1c-2.17-0.74-3.1-2.5-2.78-4.74c0.34-2.35,0.46-4.73,0.68-7.1
		c0.04-0.46,0.1-0.91,0.12-1.37c0.02-0.4,0.13-1.03-0.05-1.14c-0.37-0.22-1.01-0.35-1.36-0.17c-1.27,0.66-2.46,1.5-3.21,2.77
		c-0.82,1.38-1.88,2.76-2.2,4.27c-0.25,1.18-1.18,2.38-0.36,3.87c0.46,0.84,0.1,2.14,0.09,3.23c0,0.25-0.11,0.49-0.12,0.74
		c-0.02,0.57,0.51,1.52-0.43,1.53c-0.78,0-2.05-0.47-2.26-1.05c-0.77-2.04-1.22-4.21-1.69-6.35c-0.08-0.34,0.37-0.8,0.58-1.21
		c0.18-0.35,0.5-0.7,0.52-1.06c0.09-1.18,0.07-2.37,0.12-3.56c0.01-0.18,0.2-0.34,0.27-0.53c0.27-0.72,0.54-1.44,0.76-2.18
		c0.2-0.66,0.32-1.34,0.48-2.01c0.01-0.04,0.06-0.1,0.05-0.11c-1.22-1.41,0.89-2.19,0.66-3.44c-0.05-0.27,0.26-0.59,0.35-0.9
		c0.27-1.02,0.5-2.06,0.79-3.07c0.18-0.64,0.37-1.29,0.68-1.86c0.32-0.58,0.89-0.67,1.35-0.14c0.77,0.88,1.52,1.78,2.19,2.74
		C104.76,66.88,105.26,67.84,105.91,68.92z"/>
	<path class="st0" d="M43.47,67.85c0.29,0.46,0.51,0.91,0.83,1.28c0.52,0.61,0.24,1.12-0.29,1.32c-1.46,0.55-1.44,2.08-2.19,3.09
		c-0.36,0.48-0.48,1.15-0.83,1.64c-1.4,1.96-1.59,4.2-1.45,6.48c0.03,0.51,0.62,1.17,1.13,1.41c1.25,0.59,2.59,0.98,3.89,1.45
		c0.4,0.14,1.14,0.23,1.15,0.41c0.07,0.62-0.03,1.29-0.22,1.9c-0.16,0.48-0.51,0.93-0.85,1.32c-0.19,0.21-0.54,0.39-0.82,0.38
		c-1.7-0.06-3.34,0.01-4.82,1.07c-0.32,0.23-0.9,0.13-1.36,0.12c-2.31-0.08-4.54,0.16-6.8,0.78c-1.98,0.55-4.05-0.05-5.69-1.1
		c-0.76-0.48-0.92-2.03-1.16-3.13c-0.17-0.76-0.17-1.62,0.01-2.38c0.15-0.62,0.59-1.23,1.05-1.71c0.54-0.56,1.26-0.94,1.85-1.46
		c1.91-1.69,3.7-3.51,5.71-5.06c0.98-0.76,2.34-1.01,3.51-1.53c0.32-0.14,0.83-0.37,0.86-0.6c0.13-1.2,0.13-2.42,0.17-3.63
		c-0.41,0.03-0.84-0.04-1.21,0.09c-1.72,0.6-3.42,1.29-5.15,1.85c-0.3,0.1-0.88-0.19-1.13-0.47c-0.84-0.95-1.74-1.87-1.71-3.34
		c0.01-0.7-0.5-1.39-0.69-2.11c-0.22-0.85,0.07-1.23,0.99-1.63c1.13-0.49,2.07,0.28,3.05,0c1.3-0.38,2.59-0.81,3.84-1.34
		c2.27-0.96,6.27-0.14,7.81,1.73c0.47,0.57,0.19,1.59,1.09,1.93C43.85,67.01,43.67,67.41,43.47,67.85z M27.86,84.83
		c0.23,0.24,0.5,0.62,0.86,0.9c1.9,1.45,3.9,0.45,5.88,0.24c1.46-0.16,1.56-1.03,1.49-2.18c-0.06-0.88-0.15-1.82,0.1-2.63
		c0.27-0.86,0.33-1.65-0.31-2.17c-0.71-0.58-1.66-0.81-2.57-0.29c-0.71,0.41-1.42,0.84-2.07,1.34
		C29.71,81.2,28.27,82.46,27.86,84.83z"/>
	<path class="st0" d="M78.11,66.08c2.22,2.65,2.91,5.56,1.54,8.51c-0.46,0.99-0.63,2.11-0.99,3.15c-0.64,1.84-0.5,3.74-0.51,5.63
		c-0.01,1.51,1.12,2.33,2.4,1.59c1.45-0.84,2.86-1.79,4.15-2.86c0.46-0.38,0.54-1.24,0.71-1.91c0.11-0.43,0.05-0.9,0.13-1.34
		c0.56-2.96,1.09-5.94,1.73-8.88c0.31-1.45,0.77-2.88,1.29-4.27c0.34-0.9,1.1-0.99,1.77-0.25c0.89,1,1.84,1.99,2.49,3.14
		c0.48,0.86,0.51,1.97,0.76,2.96c0.14,0.55,0.37,1.08,0.46,1.64c0.05,0.32,0.04,0.83-0.16,0.99c-1.74,1.42-1.86,3.59-2.67,5.44
		c-0.82,1.87-0.19,3.49,0.33,5.18c0.44,1.44-1.26,4.28-2.73,4.41c-0.29,0.03-0.66-0.14-0.9-0.34c-1.14-0.98-2.13-2.04-1.82-3.75
		c0.06-0.31-0.02-0.66-0.05-1.35c-0.49,0.47-0.77,0.75-1.07,1.01c-1.6,1.41-3.08,3-4.85,4.15c-1.23,0.8-2.77,0.07-3.85-0.74
		c-1.45-1.1-2.39-2.59-2.28-4.61c0.11-2.01-0.16-4.06,0.08-6.05c0.27-2.24,0.87-4.45,1.45-6.63c0.3-1.11,0.82-2.17,1.35-3.2
		C77.17,67.12,77.67,66.64,78.11,66.08z"/>
	<path class="st0" d="M126.09,86.07c-0.39-0.79-0.72-1.46-1.08-2.19c0.45-0.79,0.54-2,1.78-2.35c0.03-0.01,0.06-0.07,0.06-0.11
		c0.13-1.8,0.27-3.59,0.38-5.39c0.08-1.3,0.04-2.61,0.18-3.9c0.17-1.55,0.49-3.09,0.73-4.63c0.14-0.9,0.73-0.92,1.41-0.74
		c0.51,0.13,1.13,0.2,1.47,0.53c0.99,0.99,2.71,0.98,3.27,2.59c0.36,1.05,1,2.02,1.55,3c0.75,1.35,0.42,2.17-0.87,2.98
		c-1.65,1.04-2.55,2.65-2.82,4.6c-0.09,0.66-0.27,1.3-0.33,1.96c-0.04,0.47-0.03,0.96,0.08,1.42c0.21,0.9,0.56,1.76,0.75,2.66
		c0.37,1.74-0.61,3.03-1.77,4.05c-0.43,0.38-1.49,0.23-2.18,0.03c-0.31-0.09-0.44-0.88-0.59-1.37c-0.27-0.9-0.41-1.86-0.8-2.71
		C127.17,86.2,126.45,86.19,126.09,86.07z"/>
	<path class="st0" d="M128.06,52.96c0.03-1.8,0.03-1.79,1.7-2.03c0.95-0.13,1.95-0.52,2.85-0.35c1.65,0.31,3.24,0.91,4.56,2.1
		c1.34,1.22,1.72,2.88,2.32,4.45c0.14,0.37-0.06,0.9-0.2,1.33c-0.25,0.82-0.49,1.66-0.89,2.42c-0.19,0.35-0.72,0.55-1.12,0.75
		c-2.02,0.99-4.7,0.09-5.76-1.89c-0.15-0.28-0.39-0.52-0.61-0.75C129.3,57.29,128.18,55.35,128.06,52.96z"/>
	<path class="st0" d="M72.61,40.17c0.89,0.17,1.78,0.34,2.67,0.51c-0.04,0.19-0.07,0.39-0.11,0.58c-0.9-0.14-1.81-0.28-2.71-0.42
		C72.52,40.62,72.57,40.4,72.61,40.17z"/>
	<path class="st0" d="M83.28,25.53c-0.82,0.68-1.68,0.65-2.57,0.45c-0.02-0.18-0.03-0.36-0.05-0.54c0.85-0.1,1.7-0.21,2.55-0.31
		C83.24,25.26,83.26,25.39,83.28,25.53z"/>
	<path class="st0" d="M75.51,25.52c0.76-0.13,1.52-0.26,2.54-0.43c-0.76,1.63-1.71,0.81-2.51,0.75
		C75.53,25.73,75.52,25.62,75.51,25.52z"/>
	<path class="st0" d="M122.35,38.09c1.6,0.17,0.35,1.45,0.88,2.06C121.68,40.01,123.39,38.46,122.35,38.09z"/>
	<path class="st0" d="M83.85,13.04c0.3,0.44,0.6,0.89,0.9,1.33c-0.28,0.07-0.79,0.24-0.81,0.2c-0.17-0.41-0.26-0.84-0.37-1.27
		C83.67,13.22,83.76,13.13,83.85,13.04z"/>
	<g>
		<path class="st0" d="M21.35,105.14l1.3,1.95c0.31,0.47-0.15,0.97-0.58,0.97c-0.24,0-0.44-0.1-0.56-0.29l-1.59-2.49h-0.64v2.17
			c0,0.33-0.31,0.62-0.67,0.62c-0.35,0-0.65-0.28-0.65-0.62V102c0-0.37,0.33-0.68,0.72-0.68h1.65c1.78,0,2.35,1.01,2.35,2.01
			C22.66,104.26,22.16,104.88,21.35,105.14z M20.28,102.52h-1v1.57h1.06c0.65,0,1-0.27,1-0.77
			C21.34,102.93,21.14,102.52,20.28,102.52z"/>
		<path class="st0" d="M26.98,105.59v-1.87c0-1.34,0.69-2.48,2.46-2.48c1.77,0,2.46,1.14,2.46,2.48v1.87c0,1.38-0.82,2.49-2.46,2.49
			C27.81,108.08,26.98,106.97,26.98,105.59z M28.31,103.71v1.87c0,0.76,0.36,1.29,1.14,1.29c0.78,0,1.14-0.53,1.14-1.29v-1.87
			c0-0.77-0.3-1.28-1.14-1.28C28.61,102.44,28.31,102.95,28.31,103.71z"/>
		<path class="st0" d="M37.1,107.99c-0.42,0-0.74-0.31-0.74-0.68V102c0-0.39,0.34-0.68,0.74-0.68h1.6c1.42,0,2.13,0.91,2.13,1.85
			c0,0.66-0.43,1.07-0.99,1.34c0.59,0.24,1.17,0.66,1.17,1.49c0,1.11-0.89,1.99-2.35,1.99H37.1z M38.78,103.93
			c0.33,0,0.73-0.23,0.73-0.74c0-0.36-0.17-0.68-0.66-0.68h-1.15v1.42H38.78z M37.69,105.14v1.65h1.06c0.62,0,0.94-0.31,0.94-0.8
			c0-0.54-0.38-0.84-0.88-0.84H37.69z"/>
		<path class="st0" d="M46.22,107.63c-0.09,0.27-0.4,0.44-0.62,0.44c-0.37,0-0.68-0.25-0.68-0.61c0-0.05,0.01-0.16,0.03-0.21
			l1.84-5.39c0.12-0.37,0.31-0.64,0.77-0.64c0.45,0,0.64,0.26,0.78,0.64l1.85,5.39c0.02,0.05,0.03,0.16,0.03,0.21
			c0,0.36-0.29,0.61-0.68,0.61c-0.25,0-0.55-0.18-0.64-0.44l-0.33-0.96h-2.02L46.22,107.63z M47.73,103.98
			c-0.08-0.27-0.13-0.63-0.17-0.93c-0.04,0.29-0.09,0.65-0.17,0.93l-0.5,1.62h1.33L47.73,103.98z"/>
		<path class="st0" d="M54.99,102.52h-1c-0.38,0-0.66-0.27-0.66-0.6c0-0.27,0.29-0.61,0.66-0.61h3.33c0.34,0,0.67,0.26,0.67,0.61
			c0,0.32-0.31,0.6-0.67,0.6h-1v4.95c0,0.32-0.3,0.61-0.66,0.61c-0.37,0-0.66-0.28-0.66-0.61V102.52z"/>
		<path class="st0" d="M62.4,107.63c-0.09,0.27-0.4,0.44-0.62,0.44c-0.37,0-0.68-0.25-0.68-0.61c0-0.05,0.01-0.16,0.03-0.21
			l1.84-5.39c0.12-0.37,0.31-0.64,0.77-0.64c0.45,0,0.64,0.26,0.78,0.64l1.85,5.39c0.02,0.05,0.03,0.16,0.03,0.21
			c0,0.36-0.29,0.61-0.68,0.61c-0.25,0-0.55-0.18-0.64-0.44l-0.33-0.96h-2.02L62.4,107.63z M63.9,103.98
			c-0.08-0.27-0.13-0.63-0.17-0.93c-0.04,0.29-0.09,0.65-0.17,0.93l-0.5,1.62h1.33L63.9,103.98z"/>
		<path class="st0" d="M81.67,108.08c-0.25,0-0.38-0.1-0.53-0.27l-0.41-0.44c-0.48,0.41-1.08,0.72-1.9,0.72
			c-1.34,0-2.25-0.82-2.25-1.91c0-0.91,0.64-1.52,1.27-1.92c-0.4-0.47-0.63-0.92-0.63-1.4c0-0.97,0.91-1.59,1.87-1.59
			c1.02,0,1.84,0.7,1.84,1.35c0,0.41-0.32,0.63-0.66,0.63c-0.67,0-0.47-0.85-1.13-0.85c-0.32,0-0.62,0.21-0.62,0.48
			c0,0.28,0.29,0.62,0.58,0.91l1.6,1.68l0.35-0.66c0.18-0.34,0.39-0.4,0.59-0.38c0.32,0.03,0.63,0.26,0.63,0.6
			c0,0.36-0.36,0.97-0.69,1.42l0.6,0.66c0.07,0.08,0.15,0.21,0.15,0.39C82.34,107.78,82.08,108.08,81.67,108.08z M78.65,105.13
			c-0.41,0.24-0.78,0.51-0.78,0.97c0,0.42,0.31,0.83,0.92,0.83c0.44,0,0.81-0.21,1.11-0.47L78.65,105.13z"/>
		<path class="st0" d="M95.32,105.42c-0.2-0.09-0.44-0.17-0.69-0.26c-0.93-0.28-1.93-0.6-1.93-1.97c0-1.22,0.85-1.96,2.2-1.96
			c0.56,0,1.9,0.14,1.9,0.85c0,0.31-0.25,0.6-0.66,0.6c-0.17,0-0.3-0.06-0.46-0.1c-0.18-0.07-0.39-0.14-0.72-0.14
			c-0.46,0-0.9,0.16-0.9,0.72c0,0.42,0.24,0.56,0.4,0.63c0.25,0.12,0.47,0.2,0.68,0.26c0.93,0.29,1.94,0.61,1.94,1.96
			c0,1.32-1,2.07-2.36,2.07c-0.7,0-2.03-0.25-2.03-0.91c0-0.3,0.27-0.6,0.63-0.6c0.14,0,0.29,0.05,0.47,0.11
			c0.23,0.08,0.53,0.19,0.94,0.19c0.65,0,0.98-0.29,0.98-0.81C95.71,105.64,95.49,105.49,95.32,105.42z"/>
		<path class="st0" d="M103.7,108.08c-1.52,0-2.38-1-2.38-2.36v-3.86c0-0.36,0.29-0.62,0.67-0.62c0.35,0,0.65,0.28,0.65,0.62v3.86
			c0,0.68,0.33,1.15,1.05,1.15c0.71,0,1.04-0.48,1.04-1.15v-3.86c0-0.33,0.28-0.62,0.65-0.62c0.39,0,0.68,0.29,0.68,0.62v3.86
			C106.08,107.08,105.2,108.08,103.7,108.08z"/>
		<path class="st0" d="M112.97,105.42c-0.2-0.09-0.44-0.17-0.69-0.26c-0.93-0.28-1.93-0.6-1.93-1.97c0-1.22,0.85-1.96,2.2-1.96
			c0.56,0,1.9,0.14,1.9,0.85c0,0.31-0.25,0.6-0.66,0.6c-0.17,0-0.3-0.06-0.46-0.1c-0.18-0.07-0.39-0.14-0.72-0.14
			c-0.46,0-0.9,0.16-0.9,0.72c0,0.42,0.24,0.56,0.4,0.63c0.25,0.12,0.47,0.2,0.68,0.26c0.93,0.29,1.94,0.61,1.94,1.96
			c0,1.32-1,2.07-2.36,2.07c-0.7,0-2.03-0.25-2.03-0.91c0-0.3,0.27-0.6,0.63-0.6c0.14,0,0.29,0.05,0.47,0.11
			c0.23,0.08,0.53,0.19,0.94,0.19c0.65,0,0.98-0.29,0.98-0.81C113.36,105.64,113.14,105.49,112.97,105.42z"/>
		<path class="st0" d="M123.06,108.08c-0.35,0-0.66-0.28-0.66-0.62v-2.2h-2.02v2.2c0,0.33-0.3,0.62-0.66,0.62
			c-0.37,0-0.66-0.28-0.66-0.62v-5.62c0-0.32,0.29-0.61,0.66-0.61c0.36,0,0.66,0.28,0.66,0.61v2.21h2.02v-2.21
			c0-0.32,0.31-0.61,0.66-0.61c0.35,0,0.66,0.28,0.66,0.61v5.62C123.72,107.79,123.41,108.08,123.06,108.08z"/>
		<path class="st0" d="M128.33,101.84c0-0.32,0.29-0.61,0.66-0.61c0.36,0,0.66,0.28,0.66,0.61v5.63c0,0.32-0.3,0.61-0.66,0.61
			c-0.37,0-0.66-0.28-0.66-0.61V101.84z"/>
	</g>
</g>
</svg>
