<svg width="100" height="89" viewBox="0 0 100 89" fill="none" xmlns="http://www.w3.org/2000/svg">
<path fill-rule="evenodd" clip-rule="evenodd" d="M35.5931 84.0938C35.1437 83.6444 34.3838 83.3747 33.7553 83.3747C32.6034 83.3747 31.7944 84.2901 31.7944 85.3929C31.7944 86.4218 32.4969 87.4022 33.8446 87.4022C34.4004 87.4022 35.0538 87.2384 35.4133 86.9694V85.8991H33.7387V85.0825H36.2465V87.4182C35.5765 87.9084 34.6292 88.2188 33.7878 88.2188C32.0966 88.2188 30.8389 86.9522 30.8389 85.3846C30.8389 83.8158 32.1132 82.5581 33.747 82.5581C34.5961 82.5581 35.5032 82.9011 36.2299 83.522L35.5931 84.0938Z" fill="#FEFEFE"/>
<path fill-rule="evenodd" clip-rule="evenodd" d="M40.4764 83.5385V85.1883H42.6654C43.1474 85.1883 43.556 84.8128 43.556 84.3552C43.556 84.1512 43.4744 83.9714 43.3354 83.8242C43.0823 83.5628 42.7878 83.5385 42.5022 83.5385H40.4764ZM39.5615 88.0557V82.7214H42.5022C43.2129 82.7214 43.7031 82.9177 44.0461 83.2849C44.3157 83.5711 44.4707 83.9466 44.4707 84.3552C44.4707 85.0742 43.997 85.6212 43.2945 85.8826L44.5688 88.0557H43.5151L42.3715 86.005H40.4763V88.0557H39.5615Z" fill="#FEFEFE"/>
<path fill-rule="evenodd" clip-rule="evenodd" d="M50.1555 87.4021C51.3074 87.4021 52.2139 86.4873 52.2139 85.3763C52.2139 84.2734 51.3074 83.3746 50.1555 83.3746C49.0119 83.3746 48.1213 84.2734 48.1213 85.3763C48.1213 86.4873 49.0119 87.4021 50.1555 87.4021ZM50.1552 82.558C51.8375 82.558 53.1775 83.8163 53.1775 85.3762C53.1775 86.961 51.8375 88.2187 50.1552 88.2187C48.4723 88.2187 47.1572 86.961 47.1572 85.3762C47.1572 83.8163 48.4723 82.558 50.1552 82.558Z" fill="#FEFEFE"/>
<path fill-rule="evenodd" clip-rule="evenodd" d="M60.8388 82.7214V86.1606C60.8388 87.4757 59.8258 88.2189 58.4699 88.2189C57.1217 88.2189 56.1094 87.4757 56.1094 86.1606V82.7214H57.0241V86.1606C57.0241 86.9606 57.661 87.4023 58.4699 87.4023C59.2865 87.4023 59.924 86.9606 59.924 86.1606V82.7214H60.8388Z" fill="#FEFEFE"/>
<path fill-rule="evenodd" clip-rule="evenodd" d="M65.1666 83.5385V85.1883H67.1925C67.4213 85.1883 67.7395 85.1718 68.0008 84.927C68.1563 84.7803 68.2462 84.5757 68.2462 84.3634C68.2462 84.1512 68.1646 83.9714 68.0257 83.8242C67.7803 83.5628 67.4538 83.5385 67.1925 83.5385H65.1666ZM64.252 88.0557V82.7214H67.1926C67.9442 82.7214 68.4095 82.9343 68.7365 83.2849C69.0221 83.5953 69.1611 83.9631 69.1611 84.3552C69.1611 84.8129 68.9731 85.2132 68.6709 85.5071C68.3522 85.8093 67.9028 86.005 67.1926 86.005H65.1667V88.0557H64.252Z" fill="#FEFEFE"/>
<path fill-rule="evenodd" clip-rule="evenodd" d="M10.9448 60.5506H7.41103V71.8248H4.31665V60.5506H0V58.8104C0 58.3781 0.350062 58.0275 0.782318 58.0275H11.7277V59.7677C11.7277 60.2 11.377 60.5506 10.9448 60.5506Z" fill="#FEFEFE"/>
<path fill-rule="evenodd" clip-rule="evenodd" d="M27.9087 58.8104V71.8248H24.8143V66.1091H18.9602V71.8248H15.8652V58.0275H18.1773C18.6096 58.0275 18.9602 58.3782 18.9602 58.8104V63.5859H24.8143V58.0275H27.1258C27.558 58.0275 27.9087 58.3782 27.9087 58.8104Z" fill="#FEFEFE"/>
<path fill-rule="evenodd" clip-rule="evenodd" d="M36.4411 60.4127V63.5863H43.379V65.8925H36.4411V69.4404H43.0692C43.5014 69.4404 43.8521 69.7905 43.8521 70.2227V71.8252H33.3467V58.0279H43.8521V59.6298C43.8521 60.062 43.5014 60.4127 43.0692 60.4127H36.4411Z" fill="#FEFEFE"/>
<path fill-rule="evenodd" clip-rule="evenodd" d="M69.3548 58.0278V71.8251H66.3786V62.6596L62.3973 68.0601H62.0815L58.1001 62.6596V71.8251H55.124V58.0278H57.5384C57.7921 58.0278 58.0298 58.1508 58.1764 58.3571L62.2394 64.0788L66.3018 58.3571C66.449 58.1508 66.6867 58.0278 66.9404 58.0278H69.3548Z" fill="#FEFEFE"/>
<path fill-rule="evenodd" clip-rule="evenodd" d="M82.8539 66.5623L80.8434 61.1221L78.8329 66.5623H82.8539ZM83.7019 68.888H77.9856L76.9017 71.8251H73.6689L79.1877 58.0278H81.9504C82.2703 58.0278 82.5577 58.2224 82.6765 58.5186L88.018 71.8251H84.7858L83.7019 68.888Z" fill="#FEFEFE"/>
<mask id="mask0" mask-type="alpha" maskUnits="userSpaceOnUse" x="91" y="58" width="10" height="15">
<path fill-rule="evenodd" clip-rule="evenodd" d="M91.4619 58.0278H100V72.1799H91.4619V58.0278Z" fill="white"/>
</mask>
<g mask="url(#mask0)">
<path fill-rule="evenodd" clip-rule="evenodd" d="M100 67.1543C100 67.7982 99.9449 68.4221 99.8332 69.0264C99.7214 69.6307 99.5079 70.1665 99.1928 70.633C98.8776 71.099 98.427 71.4739 97.8428 71.7559C97.2579 72.0386 96.4928 72.1799 95.5467 72.1799C94.4427 72.1799 93.5096 71.9168 92.7479 71.3917C92.1956 71.0103 91.7847 70.4746 91.5156 69.7827C91.3436 69.3416 91.6008 68.8472 92.0608 68.7343L94.0879 68.2382C94.1275 68.58 94.2818 68.8685 94.5515 69.1051C94.8205 69.3422 95.1256 69.4598 95.468 69.4598C95.8228 69.4598 96.0984 69.3717 96.2959 69.1943C96.4928 69.0164 96.6377 68.797 96.7287 68.5338C96.821 68.2713 96.8765 67.9851 96.8967 67.6764C96.9162 67.3678 96.9262 67.0821 96.9262 66.819V58.0278H99.2182C99.6504 58.0278 100 58.3779 100 58.8107V67.1543Z" fill="#FEFEFE"/>
</g>
<path fill-rule="evenodd" clip-rule="evenodd" d="M38.4291 33.0371H48.3568V23.1089H47.2386V31.3767C47.2386 31.6765 46.9962 31.919 46.6964 31.919H40.0889C39.7891 31.919 39.5467 31.6765 39.5467 31.3767V24.7699C39.5467 24.4701 39.7891 24.2276 40.0889 24.2276H42.291C42.5914 24.2276 42.8338 24.4701 42.8338 24.7699V28.6318H43.952V23.1089H38.4291V33.0371ZM48.8991 34.1217H37.887C37.5872 34.1217 37.3447 33.8792 37.3447 33.5794V22.5667C37.3447 22.2669 37.5872 22.0244 37.887 22.0244H44.4944C44.7942 22.0244 45.0366 22.2669 45.0366 22.5667V29.1747C45.0366 29.4745 44.7942 29.7169 44.4944 29.7169H42.2911C41.9913 29.7169 41.7489 29.4745 41.7489 29.1747V25.3122H40.6313V30.8345H46.1542V22.5667C46.1542 22.2669 46.3967 22.0244 46.6965 22.0244H48.8991C49.1989 22.0244 49.4414 22.2669 49.4414 22.5667V33.5794C49.4414 33.8792 49.1989 34.1217 48.8991 34.1217Z" fill="#FEFEFE"/>
<path fill-rule="evenodd" clip-rule="evenodd" d="M47.2384 19.8222H48.356V9.89454H38.4289V19.8222H43.9512V14.2999H42.833V18.1618C42.833 18.4622 42.5906 18.7046 42.2908 18.7046H40.0887C39.7883 18.7046 39.5459 18.4622 39.5459 18.1618V11.5544C39.5459 11.2546 39.7883 11.0121 40.0887 11.0121H46.6961C46.9959 11.0121 47.2384 11.2546 47.2384 11.5544V19.8222ZM48.8982 20.9066H46.6961C46.3963 20.9066 46.1538 20.6642 46.1538 20.3644V12.0971H40.6309V17.6195H41.7485V13.7576C41.7485 13.4578 41.9909 13.2147 42.2907 13.2147H44.4934C44.7932 13.2147 45.0362 13.4578 45.0362 13.7576V20.3644C45.0362 20.6642 44.7932 20.9066 44.4934 20.9066H37.886C37.5862 20.9066 37.3438 20.6642 37.3438 20.3644V9.35222C37.3438 9.05242 37.5862 8.80939 37.886 8.80939H48.8982C49.198 8.80939 49.441 9.05242 49.441 9.35222V20.3644C49.441 20.6642 49.198 20.9066 48.8982 20.9066Z" fill="#FEFEFE"/>
<path fill-rule="evenodd" clip-rule="evenodd" d="M56.0483 19.8222H61.5707V9.89454H51.643V19.8222H52.7606V11.5544C52.7606 11.2546 53.0036 11.0121 53.3028 11.0121H59.9108C60.2106 11.0121 60.4531 11.2546 60.4531 11.5544V18.1618C60.4531 18.4622 60.2106 18.7046 59.9108 18.7046H57.7082C57.4084 18.7046 57.1659 18.4622 57.1659 18.1618V14.2999H56.0483V19.8222ZM62.113 20.9066H55.5062C55.2064 20.9066 54.9639 20.6642 54.9639 20.3644V13.7576C54.9639 13.4578 55.2064 13.2147 55.5062 13.2147H57.7083C58.0081 13.2147 58.2511 13.4578 58.2511 13.7576V17.6195H59.3681V12.0971H53.8452V20.3644C53.8452 20.6642 53.6027 20.9066 53.3029 20.9066H51.1008C50.801 20.9066 50.5586 20.6642 50.5586 20.3644V9.35222C50.5586 9.05242 50.801 8.80939 51.1008 8.80939H62.113C62.4128 8.80939 62.6553 9.05242 62.6553 9.35222V20.3644C62.6553 20.6642 62.4128 20.9066 62.113 20.9066Z" fill="#FEFEFE"/>
<path fill-rule="evenodd" clip-rule="evenodd" d="M51.6431 33.0371H61.5708V23.1089H56.0485V28.6318H57.1661V24.7699C57.1661 24.4701 57.4085 24.2276 57.7083 24.2276H59.9104C60.2102 24.2276 60.4526 24.4701 60.4526 24.7699V31.3767C60.4526 31.6765 60.2102 31.919 59.9104 31.919H53.303C53.0032 31.919 52.7607 31.6765 52.7607 31.3767V23.1089H51.6431V33.0371ZM62.113 34.1217H51.1008C50.801 34.1217 50.5586 33.8792 50.5586 33.5794V22.5667C50.5586 22.2669 50.801 22.0244 51.1008 22.0244H53.3029C53.6027 22.0244 53.8452 22.2669 53.8452 22.5667V30.8345H59.3681V25.3122H58.2505V29.1747C58.2505 29.4745 58.0081 29.7169 57.7083 29.7169H55.5056C55.2058 29.7169 54.9633 29.4745 54.9633 29.1747V22.5667C54.9633 22.2669 55.2058 22.0244 55.5056 22.0244H62.113C62.4128 22.0244 62.6553 22.2669 62.6553 22.5667V33.5794C62.6553 33.8792 62.4128 34.1217 62.113 34.1217Z" fill="#FEFEFE"/>
<path fill-rule="evenodd" clip-rule="evenodd" d="M51.6431 37.4421H65.9756V5.49004H51.6431V6.60705H64.3151C64.6149 6.60705 64.858 6.85008 64.858 7.14988V35.7823C64.858 36.0821 64.6149 36.3245 64.3151 36.3245H51.6431V37.4421ZM66.5184 38.5265H51.1008C50.801 38.5265 50.5586 38.2841 50.5586 37.9843V35.7822C50.5586 35.4824 50.801 35.2394 51.1008 35.2394H63.7729V7.69206H51.1008C50.801 7.69206 50.5586 7.44962 50.5586 7.14982V4.94715C50.5586 4.64794 50.801 4.40491 51.1008 4.40491H66.5184C66.8182 4.40491 67.0606 4.64794 67.0606 4.94715V37.9843C67.0606 38.2841 66.8182 38.5265 66.5184 38.5265Z" fill="#FEFEFE"/>
<path fill-rule="evenodd" clip-rule="evenodd" d="M34.0238 37.4421H48.3569V36.3245H35.6842C35.3844 36.3245 35.142 36.0821 35.142 35.7823V7.14988C35.142 6.85008 35.3844 6.60705 35.6842 6.60705H48.3569V5.49004H34.0238V37.4421ZM48.8992 38.5265H33.4817C33.1819 38.5265 32.9395 38.2841 32.9395 37.9843V4.94715C32.9395 4.64794 33.1819 4.40491 33.4817 4.40491H48.8992C49.199 4.40491 49.4415 4.64794 49.4415 4.94715V7.14982C49.4415 7.44962 49.199 7.69206 48.8992 7.69206H36.2272V35.2394H48.8992C49.199 35.2394 49.4415 35.4824 49.4415 35.7822V37.9843C49.4415 38.2841 49.199 38.5265 48.8992 38.5265Z" fill="#FEFEFE"/>
<path fill-rule="evenodd" clip-rule="evenodd" d="M31.2786 32.2507C30.9788 32.2507 30.7363 32.0082 30.7363 31.7084V11.2233C30.7363 10.9235 30.9788 10.681 31.2786 10.681C31.5784 10.681 31.8208 10.9235 31.8208 11.2233V31.7084C31.8208 32.0082 31.5784 32.2507 31.2786 32.2507Z" fill="#FEFEFE"/>
<path fill-rule="evenodd" clip-rule="evenodd" d="M29.0764 25.4616C28.7766 25.4616 28.5342 25.2191 28.5342 24.9193V18.0127C28.5342 17.7129 28.7766 17.4705 29.0764 17.4705C29.3762 17.4705 29.6187 17.7129 29.6187 18.0127V24.9193C29.6187 25.2191 29.3762 25.4616 29.0764 25.4616Z" fill="#FEFEFE"/>
<path fill-rule="evenodd" clip-rule="evenodd" d="M60.2432 3.28688H39.7581C39.4589 3.28688 39.2158 3.04443 39.2158 2.74463C39.2158 2.44483 39.4589 2.20239 39.7581 2.20239H60.2432C60.543 2.20239 60.7854 2.44483 60.7854 2.74463C60.7854 3.04443 60.543 3.28688 60.2432 3.28688Z" fill="#FEFEFE"/>
<path fill-rule="evenodd" clip-rule="evenodd" d="M53.4538 1.08448H46.5471C46.2473 1.08448 46.0049 0.842042 46.0049 0.542242C46.0049 0.242442 46.2473 0 46.5471 0H53.4538C53.7536 0 53.996 0.242442 53.996 0.542242C53.996 0.842042 53.7536 1.08448 53.4538 1.08448Z" fill="#FEFEFE"/>
<path fill-rule="evenodd" clip-rule="evenodd" d="M60.2432 40.7293H39.7581C39.4589 40.7293 39.2158 40.4862 39.2158 40.187C39.2158 39.8872 39.4589 39.6448 39.7581 39.6448H60.2432C60.543 39.6448 60.7854 39.8872 60.7854 40.187C60.7854 40.4862 60.543 40.7293 60.2432 40.7293Z" fill="#FEFEFE"/>
<path fill-rule="evenodd" clip-rule="evenodd" d="M53.4538 42.932H46.5471C46.2473 42.932 46.0049 42.6896 46.0049 42.3898C46.0049 42.09 46.2473 41.8475 46.5471 41.8475H53.4538C53.7536 41.8475 53.996 42.09 53.996 42.3898C53.996 42.6896 53.7536 42.932 53.4538 42.932Z" fill="#FEFEFE"/>
<path fill-rule="evenodd" clip-rule="evenodd" d="M68.721 32.2507C68.4212 32.2507 68.1787 32.0082 68.1787 31.7084V11.2233C68.1787 10.9235 68.4212 10.681 68.721 10.681C69.0208 10.681 69.2632 10.9235 69.2632 11.2233V31.7084C69.2632 32.0082 69.0208 32.2507 68.721 32.2507Z" fill="#FEFEFE"/>
<path fill-rule="evenodd" clip-rule="evenodd" d="M70.9231 25.4616C70.6233 25.4616 70.3809 25.2191 70.3809 24.9193V18.0127C70.3809 17.7129 70.6233 17.4705 70.9231 17.4705C71.2229 17.4705 71.4653 17.7129 71.4653 18.0127V24.9193C71.4653 25.2191 71.2229 25.4616 70.9231 25.4616Z" fill="#FEFEFE"/>
</svg>
